<svg width="600" height="150" viewBox="0 0 600 150" xmlns="http://www.w3.org/2000/svg">
  <defs>
    <filter id="shadow2" x="-2%" y="-2%" width="104%" height="108%">
      <feDropShadow dx="0" dy="2" stdDeviation="3" flood-opacity="0.1" />
    </filter>
    <linearGradient id="fillGrad" x1="0" y1="0" x2="0" y2="1">
      <stop offset="0%" stop-color="#0366d6" stop-opacity="0.3"/>
      <stop offset="100%" stop-color="#0366d6" stop-opacity="0.02"/>
    </linearGradient>
  </defs>
  <rect width="600" height="150" rx="12" fill="#ffffff" filter="url(#shadow2)" stroke="#e1e4e8" stroke-width="1"/>
  <text x="20" y="24" fill="#2b3137" font-family="-apple-system,BlinkMacSystemFont,'Segoe UI',Helvetica,Arial,sans-serif" font-size="14" font-weight="600">📈 Download Growth (Actual: 76.6k)</text>
  
  <!-- Area sotto la linea -->
  <polygon fill="url(#fillGrad)" points="30.0,120.0,120 30.0,120.0 33.4,119.0 36.7,117.8 40.1,116.8 43.4,116.6 46.8,116.1 50.1,114.9 53.5,114.1 56.8,113.5 60.2,112.3 63.5,111.7 66.9,111.0 70.2,110.7 73.6,110.1 77.0,109.3 80.3,108.4 83.7,107.7 87.0,107.2 90.4,106.9 93.7,106.3 97.1,105.7 100.4,105.1 103.8,104.8 107.1,104.3 110.5,102.3 113.9,101.7 117.2,101.0 120.6,100.2 123.9,99.5 127.3,98.9 130.6,98.4 134.0,98.1 137.3,97.6 140.7,96.6 144.0,95.8 147.4,95.2 150.7,94.6 154.1,94.4 157.5,94.2 160.8,93.9 164.2,93.3 167.5,92.9 170.9,92.6 174.2,91.9 177.6,90.9 180.9,90.6 184.3,90.4 187.6,90.0 191.0,89.2 194.3,88.6 197.7,87.7 201.1,87.1 204.4,86.3 207.8,86.2 211.1,85.7 214.5,84.9 217.8,84.1 221.2,83.6 224.5,83.3 227.9,82.9 231.2,82.5 234.6,81.7 238.0,80.8 241.3,80.1 244.7,79.4 248.0,79.0 251.4,78.8 254.7,78.5 258.1,77.9 261.4,77.5 264.8,77.1 268.1,76.8 271.5,76.6 274.8,76.2 278.2,75.9 281.6,75.7 284.9,75.5 288.3,74.7 291.6,74.2 295.0,74.1 298.3,73.8 301.7,73.7 305.0,73.7 308.4,86.9 311.7,85.6 315.1,84.4 318.4,83.2 321.8,79.6 325.2,77.1 328.5,74.4 331.9,73.4 335.2,72.2 338.6,70.4 341.9,68.3 345.3,66.9 348.6,66.3 352.0,65.8 355.3,64.3 358.7,63.3 362.0,62.6 365.4,61.7 368.8,61.4 372.1,61.2 375.5,60.5 378.8,59.2 382.2,58.3 385.5,57.4 388.9,56.4 392.2,56.0 395.6,55.6 398.9,54.8 402.3,54.0 405.7,53.3 409.0,52.7 412.4,52.4 415.7,52.2 419.1,51.8 422.4,51.1 425.8,50.6 429.1,50.2 432.5,49.8 435.8,49.4 439.2,49.0 442.5,48.7 445.9,48.4 449.3,48.0 452.6,47.3 456.0,46.8 459.3,46.2 462.7,45.8 466.0,45.4 469.4,45.2 472.7,44.9 476.1,44.3 479.4,43.4 482.8,42.5 486.1,41.9 489.5,41.3 492.9,40.7 496.2,40.3 499.6,39.9 502.9,39.1 506.3,38.6 509.6,38.2 513.0,37.8 516.3,37.6 519.7,36.9 523.0,36.4 526.4,36.3 529.8,36.1 533.1,35.7 536.5,35.1 539.8,34.7 543.2,34.1 546.5,33.6 549.9,33.2 553.2,32.7 556.6,31.9 559.9,31.6 563.3,30.9 566.6,30.2 570.0,30.0 570.0,30.0,120" />
  
  <!-- Linea principale -->
  <polyline fill="none" stroke="#0366d6" stroke-width="2.5" stroke-linecap="round" stroke-linejoin="round" points="30.0,120.0 33.4,119.0 36.7,117.8 40.1,116.8 43.4,116.6 46.8,116.1 50.1,114.9 53.5,114.1 56.8,113.5 60.2,112.3 63.5,111.7 66.9,111.0 70.2,110.7 73.6,110.1 77.0,109.3 80.3,108.4 83.7,107.7 87.0,107.2 90.4,106.9 93.7,106.3 97.1,105.7 100.4,105.1 103.8,104.8 107.1,104.3 110.5,102.3 113.9,101.7 117.2,101.0 120.6,100.2 123.9,99.5 127.3,98.9 130.6,98.4 134.0,98.1 137.3,97.6 140.7,96.6 144.0,95.8 147.4,95.2 150.7,94.6 154.1,94.4 157.5,94.2 160.8,93.9 164.2,93.3 167.5,92.9 170.9,92.6 174.2,91.9 177.6,90.9 180.9,90.6 184.3,90.4 187.6,90.0 191.0,89.2 194.3,88.6 197.7,87.7 201.1,87.1 204.4,86.3 207.8,86.2 211.1,85.7 214.5,84.9 217.8,84.1 221.2,83.6 224.5,83.3 227.9,82.9 231.2,82.5 234.6,81.7 238.0,80.8 241.3,80.1 244.7,79.4 248.0,79.0 251.4,78.8 254.7,78.5 258.1,77.9 261.4,77.5 264.8,77.1 268.1,76.8 271.5,76.6 274.8,76.2 278.2,75.9 281.6,75.7 284.9,75.5 288.3,74.7 291.6,74.2 295.0,74.1 298.3,73.8 301.7,73.7 305.0,73.7 308.4,86.9 311.7,85.6 315.1,84.4 318.4,83.2 321.8,79.6 325.2,77.1 328.5,74.4 331.9,73.4 335.2,72.2 338.6,70.4 341.9,68.3 345.3,66.9 348.6,66.3 352.0,65.8 355.3,64.3 358.7,63.3 362.0,62.6 365.4,61.7 368.8,61.4 372.1,61.2 375.5,60.5 378.8,59.2 382.2,58.3 385.5,57.4 388.9,56.4 392.2,56.0 395.6,55.6 398.9,54.8 402.3,54.0 405.7,53.3 409.0,52.7 412.4,52.4 415.7,52.2 419.1,51.8 422.4,51.1 425.8,50.6 429.1,50.2 432.5,49.8 435.8,49.4 439.2,49.0 442.5,48.7 445.9,48.4 449.3,48.0 452.6,47.3 456.0,46.8 459.3,46.2 462.7,45.8 466.0,45.4 469.4,45.2 472.7,44.9 476.1,44.3 479.4,43.4 482.8,42.5 486.1,41.9 489.5,41.3 492.9,40.7 496.2,40.3 499.6,39.9 502.9,39.1 506.3,38.6 509.6,38.2 513.0,37.8 516.3,37.6 519.7,36.9 523.0,36.4 526.4,36.3 529.8,36.1 533.1,35.7 536.5,35.1 539.8,34.7 543.2,34.1 546.5,33.6 549.9,33.2 553.2,32.7 556.6,31.9 559.9,31.6 563.3,30.9 566.6,30.2 570.0,30.0" />
  
  <!-- Punto finale luminoso -->
  <circle cx="570.0" cy="30.0" r="4" fill="#ffffff" stroke="#0366d6" stroke-width="2.5" />
</svg>