<svg width="600" height="150" viewBox="0 0 600 150" xmlns="http://www.w3.org/2000/svg">
  <defs>
    <filter id="shadow2" x="-2%" y="-2%" width="104%" height="108%">
      <feDropShadow dx="0" dy="2" stdDeviation="3" flood-opacity="0.1" />
    </filter>
    <linearGradient id="fillGrad" x1="0" y1="0" x2="0" y2="1">
      <stop offset="0%" stop-color="#0366d6" stop-opacity="0.3"/>
      <stop offset="100%" stop-color="#0366d6" stop-opacity="0.02"/>
    </linearGradient>
  </defs>
  <rect width="600" height="150" rx="12" fill="#ffffff" filter="url(#shadow2)" stroke="#e1e4e8" stroke-width="1"/>
  <text x="20" y="24" fill="#2b3137" font-family="-apple-system,BlinkMacSystemFont,'Segoe UI',Helvetica,Arial,sans-serif" font-size="14" font-weight="600">📈 Download Growth (Actual: 76.6k)</text>
  
  <!-- Area sotto la linea -->
  <polygon fill="url(#fillGrad)" points="30.0,120.0,120 30.0,120.0 33.3,119.0 36.7,117.8 40.0,116.9 43.3,116.6 46.7,116.1 50.0,114.9 53.3,114.1 56.7,113.5 60.0,112.3 63.3,111.7 66.7,111.0 70.0,110.7 73.3,110.1 76.7,109.3 80.0,108.4 83.3,107.7 86.7,107.3 90.0,106.9 93.3,106.4 96.7,105.7 100.0,105.1 103.3,104.9 106.7,104.3 110.0,102.4 113.3,101.8 116.7,101.0 120.0,100.2 123.3,99.6 126.7,98.9 130.0,98.5 133.3,98.2 136.7,97.6 140.0,96.7 143.3,95.8 146.7,95.3 150.0,94.6 153.3,94.4 156.7,94.3 160.0,93.9 163.3,93.3 166.7,92.9 170.0,92.7 173.3,92.0 176.7,90.9 180.0,90.7 183.3,90.5 186.7,90.0 190.0,89.2 193.3,88.7 196.7,87.8 200.0,87.2 203.3,86.4 206.7,86.3 210.0,85.8 213.3,85.0 216.7,84.2 220.0,83.6 223.3,83.4 226.7,83.0 230.0,82.6 233.3,81.7 236.7,80.9 240.0,80.2 243.3,79.5 246.7,79.1 250.0,78.9 253.3,78.6 256.7,78.0 260.0,77.6 263.3,77.2 266.7,76.9 270.0,76.7 273.3,76.2 276.7,76.0 280.0,75.8 283.3,75.6 286.7,74.8 290.0,74.3 293.3,74.2 296.7,73.9 300.0,73.7 303.3,73.7 306.7,87.0 310.0,85.7 313.3,84.5 316.7,83.3 320.0,79.7 323.3,77.2 326.7,74.4 330.0,73.4 333.3,72.3 336.7,70.5 340.0,68.4 343.3,67.0 346.7,66.4 350.0,65.9 353.3,64.4 356.7,63.4 360.0,62.7 363.3,61.8 366.7,61.5 370.0,61.3 373.3,60.6 376.7,59.3 380.0,58.5 383.3,57.6 386.7,56.6 390.0,56.1 393.3,55.7 396.7,54.9 400.0,54.1 403.3,53.4 406.7,52.8 410.0,52.5 413.3,52.4 416.7,51.9 420.0,51.3 423.3,50.8 426.7,50.3 430.0,49.9 433.3,49.5 436.7,49.2 440.0,48.8 443.3,48.5 446.7,48.2 450.0,47.5 453.3,47.0 456.7,46.4 460.0,46.0 463.3,45.6 466.7,45.3 470.0,45.1 473.3,44.5 476.7,43.5 480.0,42.6 483.3,42.0 486.7,41.4 490.0,40.8 493.3,40.5 496.7,40.0 500.0,39.2 503.3,38.7 506.7,38.4 510.0,38.0 513.3,37.7 516.7,37.1 520.0,36.6 523.3,36.5 526.7,36.2 530.0,35.9 533.3,35.3 536.7,34.9 540.0,34.3 543.3,33.8 546.7,33.4 550.0,32.9 553.3,32.1 556.7,31.8 560.0,31.1 563.3,30.3 566.7,30.2 570.0,30.0 570.0,30.0,120" />
  
  <!-- Linea principale -->
  <polyline fill="none" stroke="#0366d6" stroke-width="2.5" stroke-linecap="round" stroke-linejoin="round" points="30.0,120.0 33.3,119.0 36.7,117.8 40.0,116.9 43.3,116.6 46.7,116.1 50.0,114.9 53.3,114.1 56.7,113.5 60.0,112.3 63.3,111.7 66.7,111.0 70.0,110.7 73.3,110.1 76.7,109.3 80.0,108.4 83.3,107.7 86.7,107.3 90.0,106.9 93.3,106.4 96.7,105.7 100.0,105.1 103.3,104.9 106.7,104.3 110.0,102.4 113.3,101.8 116.7,101.0 120.0,100.2 123.3,99.6 126.7,98.9 130.0,98.5 133.3,98.2 136.7,97.6 140.0,96.7 143.3,95.8 146.7,95.3 150.0,94.6 153.3,94.4 156.7,94.3 160.0,93.9 163.3,93.3 166.7,92.9 170.0,92.7 173.3,92.0 176.7,90.9 180.0,90.7 183.3,90.5 186.7,90.0 190.0,89.2 193.3,88.7 196.7,87.8 200.0,87.2 203.3,86.4 206.7,86.3 210.0,85.8 213.3,85.0 216.7,84.2 220.0,83.6 223.3,83.4 226.7,83.0 230.0,82.6 233.3,81.7 236.7,80.9 240.0,80.2 243.3,79.5 246.7,79.1 250.0,78.9 253.3,78.6 256.7,78.0 260.0,77.6 263.3,77.2 266.7,76.9 270.0,76.7 273.3,76.2 276.7,76.0 280.0,75.8 283.3,75.6 286.7,74.8 290.0,74.3 293.3,74.2 296.7,73.9 300.0,73.7 303.3,73.7 306.7,87.0 310.0,85.7 313.3,84.5 316.7,83.3 320.0,79.7 323.3,77.2 326.7,74.4 330.0,73.4 333.3,72.3 336.7,70.5 340.0,68.4 343.3,67.0 346.7,66.4 350.0,65.9 353.3,64.4 356.7,63.4 360.0,62.7 363.3,61.8 366.7,61.5 370.0,61.3 373.3,60.6 376.7,59.3 380.0,58.5 383.3,57.6 386.7,56.6 390.0,56.1 393.3,55.7 396.7,54.9 400.0,54.1 403.3,53.4 406.7,52.8 410.0,52.5 413.3,52.4 416.7,51.9 420.0,51.3 423.3,50.8 426.7,50.3 430.0,49.9 433.3,49.5 436.7,49.2 440.0,48.8 443.3,48.5 446.7,48.2 450.0,47.5 453.3,47.0 456.7,46.4 460.0,46.0 463.3,45.6 466.7,45.3 470.0,45.1 473.3,44.5 476.7,43.5 480.0,42.6 483.3,42.0 486.7,41.4 490.0,40.8 493.3,40.5 496.7,40.0 500.0,39.2 503.3,38.7 506.7,38.4 510.0,38.0 513.3,37.7 516.7,37.1 520.0,36.6 523.3,36.5 526.7,36.2 530.0,35.9 533.3,35.3 536.7,34.9 540.0,34.3 543.3,33.8 546.7,33.4 550.0,32.9 553.3,32.1 556.7,31.8 560.0,31.1 563.3,30.3 566.7,30.2 570.0,30.0" />
  
  <!-- Punto finale luminoso -->
  <circle cx="570.0" cy="30.0" r="4" fill="#ffffff" stroke="#0366d6" stroke-width="2.5" />
</svg>