<svg width="600" height="150" viewBox="0 0 600 150" xmlns="http://www.w3.org/2000/svg">
  <defs>
    <filter id="shadow2" x="-2%" y="-2%" width="104%" height="108%">
      <feDropShadow dx="0" dy="2" stdDeviation="3" flood-opacity="0.1" />
    </filter>
    <linearGradient id="fillGrad" x1="0" y1="0" x2="0" y2="1">
      <stop offset="0%" stop-color="#0366d6" stop-opacity="0.3"/>
      <stop offset="100%" stop-color="#0366d6" stop-opacity="0.02"/>
    </linearGradient>
  </defs>
  <rect width="600" height="150" rx="12" fill="#ffffff" filter="url(#shadow2)" stroke="#e1e4e8" stroke-width="1"/>
  <text x="20" y="24" fill="#2b3137" font-family="-apple-system,BlinkMacSystemFont,'Segoe UI',Helvetica,Arial,sans-serif" font-size="14" font-weight="600">📈 Download Growth (Actual: 75.4k)</text>
  
  <!-- Area sotto la linea -->
  <polygon fill="url(#fillGrad)" points="30.0,120.0,120 30.0,120.0 33.9,118.8 37.9,117.5 41.8,116.4 45.8,116.1 49.7,115.5 53.6,114.1 57.6,113.2 61.5,112.6 65.5,111.2 69.4,110.5 73.4,109.7 77.3,109.3 81.2,108.7 85.2,107.7 89.1,106.7 93.1,105.9 97.0,105.4 100.9,105.0 104.9,104.4 108.8,103.6 112.8,103.0 116.7,102.7 120.7,102.0 124.6,99.8 128.5,99.1 132.5,98.2 136.4,97.4 140.4,96.6 144.3,95.8 148.2,95.4 152.2,95.0 156.1,94.4 160.1,93.3 164.0,92.3 168.0,91.7 171.9,90.9 175.8,90.7 179.8,90.5 183.7,90.2 187.7,89.4 191.6,89.0 195.5,88.7 199.5,87.9 203.4,86.7 207.4,86.4 211.3,86.2 215.3,85.7 219.2,84.7 223.1,84.1 227.1,83.1 231.0,82.4 235.0,81.5 238.9,81.4 242.8,80.8 246.8,79.9 250.7,79.0 254.7,78.3 258.6,78.0 262.6,77.6 266.5,77.2 270.4,76.2 274.4,75.2 278.3,74.4 282.3,73.6 286.2,73.1 290.1,72.9 294.1,72.5 298.0,71.9 302.0,71.4 305.9,71.0 309.9,70.7 313.8,70.4 317.7,69.9 321.7,69.6 325.6,69.3 329.6,69.1 333.5,68.2 337.4,67.7 341.4,67.5 345.3,67.2 349.3,67.0 353.2,67.0 357.2,82.2 361.1,80.7 365.0,79.3 369.0,77.9 372.9,73.8 376.9,70.9 380.8,67.8 384.7,66.7 388.7,65.4 392.6,63.3 396.6,61.0 400.5,59.3 404.5,58.6 408.4,58.0 412.3,56.3 416.3,55.1 420.2,54.4 424.2,53.4 428.1,53.0 432.0,52.8 436.0,51.9 439.9,50.5 443.9,49.5 447.8,48.5 451.8,47.4 455.7,46.8 459.6,46.4 463.6,45.4 467.5,44.6 471.5,43.7 475.4,43.1 479.3,42.7 483.3,42.5 487.2,42.0 491.2,41.3 495.1,40.7 499.1,40.2 503.0,39.7 506.9,39.3 510.9,38.9 514.8,38.5 518.8,38.1 522.7,37.7 526.6,37.0 530.6,36.4 534.5,35.7 538.5,35.2 542.4,34.8 546.4,34.5 550.3,34.2 554.2,33.5 558.2,32.4 562.1,31.4 566.1,30.7 570.0,30.0 570.0,30.0,120" />
  
  <!-- Linea principale -->
  <polyline fill="none" stroke="#0366d6" stroke-width="2.5" stroke-linecap="round" stroke-linejoin="round" points="30.0,120.0 33.9,118.8 37.9,117.5 41.8,116.4 45.8,116.1 49.7,115.5 53.6,114.1 57.6,113.2 61.5,112.6 65.5,111.2 69.4,110.5 73.4,109.7 77.3,109.3 81.2,108.7 85.2,107.7 89.1,106.7 93.1,105.9 97.0,105.4 100.9,105.0 104.9,104.4 108.8,103.6 112.8,103.0 116.7,102.7 120.7,102.0 124.6,99.8 128.5,99.1 132.5,98.2 136.4,97.4 140.4,96.6 144.3,95.8 148.2,95.4 152.2,95.0 156.1,94.4 160.1,93.3 164.0,92.3 168.0,91.7 171.9,90.9 175.8,90.7 179.8,90.5 183.7,90.2 187.7,89.4 191.6,89.0 195.5,88.7 199.5,87.9 203.4,86.7 207.4,86.4 211.3,86.2 215.3,85.7 219.2,84.7 223.1,84.1 227.1,83.1 231.0,82.4 235.0,81.5 238.9,81.4 242.8,80.8 246.8,79.9 250.7,79.0 254.7,78.3 258.6,78.0 262.6,77.6 266.5,77.2 270.4,76.2 274.4,75.2 278.3,74.4 282.3,73.6 286.2,73.1 290.1,72.9 294.1,72.5 298.0,71.9 302.0,71.4 305.9,71.0 309.9,70.7 313.8,70.4 317.7,69.9 321.7,69.6 325.6,69.3 329.6,69.1 333.5,68.2 337.4,67.7 341.4,67.5 345.3,67.2 349.3,67.0 353.2,67.0 357.2,82.2 361.1,80.7 365.0,79.3 369.0,77.9 372.9,73.8 376.9,70.9 380.8,67.8 384.7,66.7 388.7,65.4 392.6,63.3 396.6,61.0 400.5,59.3 404.5,58.6 408.4,58.0 412.3,56.3 416.3,55.1 420.2,54.4 424.2,53.4 428.1,53.0 432.0,52.8 436.0,51.9 439.9,50.5 443.9,49.5 447.8,48.5 451.8,47.4 455.7,46.8 459.6,46.4 463.6,45.4 467.5,44.6 471.5,43.7 475.4,43.1 479.3,42.7 483.3,42.5 487.2,42.0 491.2,41.3 495.1,40.7 499.1,40.2 503.0,39.7 506.9,39.3 510.9,38.9 514.8,38.5 518.8,38.1 522.7,37.7 526.6,37.0 530.6,36.4 534.5,35.7 538.5,35.2 542.4,34.8 546.4,34.5 550.3,34.2 554.2,33.5 558.2,32.4 562.1,31.4 566.1,30.7 570.0,30.0" />
  
  <!-- Punto finale luminoso -->
  <circle cx="570.0" cy="30.0" r="4" fill="#ffffff" stroke="#0366d6" stroke-width="2.5" />
</svg>