<svg width="600" height="150" viewBox="0 0 600 150" xmlns="http://www.w3.org/2000/svg">
  <defs>
    <filter id="shadow2" x="-2%" y="-2%" width="104%" height="108%">
      <feDropShadow dx="0" dy="2" stdDeviation="3" flood-opacity="0.1" />
    </filter>
    <linearGradient id="fillGrad" x1="0" y1="0" x2="0" y2="1">
      <stop offset="0%" stop-color="#0366d6" stop-opacity="0.3"/>
      <stop offset="100%" stop-color="#0366d6" stop-opacity="0.02"/>
    </linearGradient>
  </defs>
  <rect width="600" height="150" rx="12" fill="#ffffff" filter="url(#shadow2)" stroke="#e1e4e8" stroke-width="1"/>
  <text x="20" y="24" fill="#2b3137" font-family="-apple-system,BlinkMacSystemFont,'Segoe UI',Helvetica,Arial,sans-serif" font-size="14" font-weight="600">📈 Download Growth (Actual: 76.0k)</text>
  
  <!-- Area sotto la linea -->
  <polygon fill="url(#fillGrad)" points="30.0,120.0,120 30.0,120.0 33.6,118.9 37.2,117.7 40.7,116.7 44.3,116.4 47.9,115.8 51.5,114.6 55.0,113.7 58.6,113.1 62.2,111.8 65.8,111.1 69.3,110.5 72.9,110.1 76.5,109.5 80.1,108.6 83.6,107.7 87.2,107.0 90.8,106.5 94.4,106.1 97.9,105.5 101.5,104.8 105.1,104.2 108.7,103.9 112.3,103.3 115.8,101.3 119.4,100.6 123.0,99.8 126.6,99.0 130.1,98.3 133.7,97.6 137.3,97.1 140.9,96.8 144.4,96.2 148.0,95.2 151.6,94.3 155.2,93.8 158.7,93.1 162.3,92.9 165.9,92.7 169.5,92.3 173.0,91.7 176.6,91.3 180.2,91.0 183.8,90.2 187.4,89.1 190.9,88.8 194.5,88.6 198.1,88.2 201.7,87.3 205.2,86.7 208.8,85.8 212.4,85.1 216.0,84.3 219.5,84.2 223.1,83.7 226.7,82.8 230.3,82.0 233.8,81.4 237.4,81.1 241.0,80.7 244.6,80.3 248.1,79.3 251.7,78.5 255.3,77.7 258.9,76.9 262.5,76.5 266.0,76.3 269.6,76.0 273.2,75.3 276.8,74.9 280.3,74.6 283.9,74.3 287.5,74.0 291.1,73.5 294.6,73.2 298.2,73.0 301.8,72.8 305.4,72.0 308.9,71.5 312.5,71.3 316.1,71.0 319.7,70.9 323.2,70.9 326.8,84.9 330.4,83.5 334.0,82.3 337.5,81.0 341.1,77.2 344.7,74.5 348.3,71.6 351.9,70.6 355.4,69.3 359.0,67.4 362.6,65.2 366.2,63.7 369.7,63.1 373.3,62.5 376.9,61.0 380.5,59.8 384.0,59.1 387.6,58.2 391.2,57.8 394.8,57.7 398.3,56.9 401.9,55.6 405.5,54.6 409.1,53.7 412.6,52.6 416.2,52.1 419.8,51.8 423.4,50.8 427.0,50.0 430.5,49.3 434.1,48.6 437.7,48.4 441.3,48.2 444.8,47.7 448.4,47.0 452.0,46.5 455.6,46.0 459.1,45.6 462.7,45.2 466.3,44.8 469.9,44.4 473.4,44.1 477.0,43.7 480.6,43.0 484.2,42.4 487.7,41.8 491.3,41.4 494.9,41.0 498.5,40.7 502.1,40.4 505.6,39.8 509.2,38.8 512.8,37.8 516.4,37.2 519.9,36.5 523.5,35.9 527.1,35.5 530.7,35.1 534.2,34.2 537.8,33.7 541.4,33.3 545.0,32.9 548.5,32.6 552.1,32.0 555.7,31.4 559.3,31.3 562.8,31.0 566.4,30.7 570.0,30.0 570.0,30.0,120" />
  
  <!-- Linea principale -->
  <polyline fill="none" stroke="#0366d6" stroke-width="2.5" stroke-linecap="round" stroke-linejoin="round" points="30.0,120.0 33.6,118.9 37.2,117.7 40.7,116.7 44.3,116.4 47.9,115.8 51.5,114.6 55.0,113.7 58.6,113.1 62.2,111.8 65.8,111.1 69.3,110.5 72.9,110.1 76.5,109.5 80.1,108.6 83.6,107.7 87.2,107.0 90.8,106.5 94.4,106.1 97.9,105.5 101.5,104.8 105.1,104.2 108.7,103.9 112.3,103.3 115.8,101.3 119.4,100.6 123.0,99.8 126.6,99.0 130.1,98.3 133.7,97.6 137.3,97.1 140.9,96.8 144.4,96.2 148.0,95.2 151.6,94.3 155.2,93.8 158.7,93.1 162.3,92.9 165.9,92.7 169.5,92.3 173.0,91.7 176.6,91.3 180.2,91.0 183.8,90.2 187.4,89.1 190.9,88.8 194.5,88.6 198.1,88.2 201.7,87.3 205.2,86.7 208.8,85.8 212.4,85.1 216.0,84.3 219.5,84.2 223.1,83.7 226.7,82.8 230.3,82.0 233.8,81.4 237.4,81.1 241.0,80.7 244.6,80.3 248.1,79.3 251.7,78.5 255.3,77.7 258.9,76.9 262.5,76.5 266.0,76.3 269.6,76.0 273.2,75.3 276.8,74.9 280.3,74.6 283.9,74.3 287.5,74.0 291.1,73.5 294.6,73.2 298.2,73.0 301.8,72.8 305.4,72.0 308.9,71.5 312.5,71.3 316.1,71.0 319.7,70.9 323.2,70.9 326.8,84.9 330.4,83.5 334.0,82.3 337.5,81.0 341.1,77.2 344.7,74.5 348.3,71.6 351.9,70.6 355.4,69.3 359.0,67.4 362.6,65.2 366.2,63.7 369.7,63.1 373.3,62.5 376.9,61.0 380.5,59.8 384.0,59.1 387.6,58.2 391.2,57.8 394.8,57.7 398.3,56.9 401.9,55.6 405.5,54.6 409.1,53.7 412.6,52.6 416.2,52.1 419.8,51.8 423.4,50.8 427.0,50.0 430.5,49.3 434.1,48.6 437.7,48.4 441.3,48.2 444.8,47.7 448.4,47.0 452.0,46.5 455.6,46.0 459.1,45.6 462.7,45.2 466.3,44.8 469.9,44.4 473.4,44.1 477.0,43.7 480.6,43.0 484.2,42.4 487.7,41.8 491.3,41.4 494.9,41.0 498.5,40.7 502.1,40.4 505.6,39.8 509.2,38.8 512.8,37.8 516.4,37.2 519.9,36.5 523.5,35.9 527.1,35.5 530.7,35.1 534.2,34.2 537.8,33.7 541.4,33.3 545.0,32.9 548.5,32.6 552.1,32.0 555.7,31.4 559.3,31.3 562.8,31.0 566.4,30.7 570.0,30.0" />
  
  <!-- Punto finale luminoso -->
  <circle cx="570.0" cy="30.0" r="4" fill="#ffffff" stroke="#0366d6" stroke-width="2.5" />
</svg>