<svg width="600" height="150" viewBox="0 0 600 150" xmlns="http://www.w3.org/2000/svg">
  <defs>
    <filter id="shadow2" x="-2%" y="-2%" width="104%" height="108%">
      <feDropShadow dx="0" dy="2" stdDeviation="3" flood-opacity="0.1" />
    </filter>
    <linearGradient id="fillGrad" x1="0" y1="0" x2="0" y2="1">
      <stop offset="0%" stop-color="#0366d6" stop-opacity="0.3"/>
      <stop offset="100%" stop-color="#0366d6" stop-opacity="0.02"/>
    </linearGradient>
  </defs>
  <rect width="600" height="150" rx="12" fill="#ffffff" filter="url(#shadow2)" stroke="#e1e4e8" stroke-width="1"/>
  <text x="20" y="24" fill="#2b3137" font-family="-apple-system,BlinkMacSystemFont,'Segoe UI',Helvetica,Arial,sans-serif" font-size="14" font-weight="600">📈 Download Growth (Actual: 92.1k)</text>
  
  <!-- Area sotto la linea -->
  <polygon fill="url(#fillGrad)" points="30.0,120.0,120 30.0,120.0 31.0,119.6 32.1,119.2 33.1,118.8 34.2,118.7 35.2,118.5 36.2,118.0 37.3,117.7 38.3,117.5 39.3,117.0 40.4,116.8 41.4,116.5 42.5,116.4 43.5,116.2 44.5,115.9 45.6,115.5 46.6,115.3 47.7,115.1 48.7,115.0 49.7,114.7 50.8,114.5 51.8,114.3 52.8,114.2 53.9,113.9 54.9,113.2 56.0,113.0 57.0,112.7 58.0,112.4 59.1,112.1 60.1,111.9 61.2,111.7 62.2,111.6 63.2,111.4 64.3,111.0 65.3,110.7 66.3,110.5 67.4,110.2 68.4,110.1 69.5,110.1 70.5,109.9 71.5,109.7 72.6,109.6 73.6,109.5 74.7,109.2 75.7,108.8 76.7,108.7 77.8,108.6 78.8,108.4 79.8,108.1 80.9,107.9 81.9,107.6 83.0,107.3 84.0,107.0 85.0,107.0 86.1,106.8 87.1,106.5 88.2,106.2 89.2,106.0 90.2,105.9 91.3,105.7 92.3,105.6 93.3,105.2 94.4,104.9 95.4,104.6 96.5,104.4 97.5,104.2 98.5,104.1 99.6,104.0 100.6,103.8 101.7,103.6 102.7,103.5 103.7,103.4 104.8,103.3 105.8,103.1 106.8,103.0 107.9,102.9 108.9,102.9 110.0,102.6 111.0,102.4 112.0,102.3 113.1,102.2 114.1,102.2 115.2,102.2 116.2,107.3 117.2,106.8 118.3,106.3 119.3,105.8 120.3,104.4 121.4,103.5 122.4,102.4 123.5,102.0 124.5,101.6 125.5,100.9 126.6,100.1 127.6,99.5 128.7,99.3 129.7,99.1 130.7,98.6 131.8,98.2 132.8,97.9 133.8,97.6 134.9,97.4 135.9,97.4 137.0,97.1 138.0,96.6 139.0,96.3 140.1,95.9 141.1,95.5 142.2,95.3 143.2,95.2 144.2,94.9 145.3,94.6 146.3,94.3 147.3,94.1 148.4,94.0 149.4,93.9 150.5,93.7 151.5,93.5 152.5,93.3 153.6,93.1 154.6,93.0 155.7,92.8 156.7,92.7 157.7,92.5 158.8,92.4 159.8,92.3 160.8,92.0 161.9,91.8 162.9,91.6 164.0,91.5 165.0,91.3 166.0,91.2 167.1,91.1 168.1,91.0 169.2,90.6 170.2,90.4 171.2,90.1 172.3,89.9 173.3,89.9 174.3,89.8 175.4,89.6 176.4,89.4 177.5,89.2 178.5,89.0 179.5,88.9 180.6,88.8 181.6,88.7 182.7,88.6 183.7,88.5 184.7,88.3 185.8,88.2 186.8,88.0 187.8,87.9 188.9,87.8 189.9,87.7 191.0,87.6 192.0,87.4 193.0,87.3 194.1,87.1 195.1,86.9 196.2,86.8 197.2,86.7 198.2,86.6 199.3,86.5 200.3,86.2 201.3,86.0 202.4,85.9 203.4,85.7 204.5,85.4 205.5,85.4 206.5,85.3 207.6,85.2 208.6,85.1 209.7,84.9 210.7,84.8 211.7,84.7 212.8,84.5 213.8,84.4 214.8,84.3 215.9,84.2 216.9,84.2 218.0,84.0 219.0,83.8 220.0,83.7 221.1,83.6 222.1,83.5 223.2,83.4 224.2,83.3 225.2,83.2 226.3,83.1 227.3,83.0 228.3,82.7 229.4,82.5 230.4,82.3 231.5,82.2 232.5,82.2 233.5,82.1 234.6,82.0 235.6,81.8 236.7,81.7 237.7,81.6 238.7,81.4 239.8,81.3 240.8,81.2 241.8,81.1 242.9,81.0 243.9,80.8 245.0,80.7 246.0,80.5 247.0,80.4 248.1,80.3 249.1,80.3 250.2,80.2 251.2,80.1 252.2,80.0 253.3,79.8 254.3,79.7 255.3,79.6 256.4,79.5 257.4,79.4 258.5,79.3 259.5,79.2 260.5,79.0 261.6,78.9 262.6,78.7 263.7,78.6 264.7,78.5 265.7,78.4 266.8,78.4 267.8,78.3 268.8,78.2 269.9,78.1 270.9,77.9 272.0,77.8 273.0,77.7 274.0,77.6 275.1,77.5 276.1,77.4 277.2,77.3 278.2,77.2 279.2,77.1 280.3,77.0 281.3,76.9 282.3,76.7 283.4,76.6 284.4,76.6 285.5,76.5 286.5,76.4 287.5,76.3 288.6,76.2 289.6,76.1 290.7,76.1 291.7,76.0 292.7,75.7 293.8,75.6 294.8,78.9 295.8,78.3 296.9,77.0 297.9,76.5 299.0,75.9 300.0,75.2 301.0,74.8 302.1,74.5 303.1,74.1 304.2,73.4 305.2,72.8 306.2,72.6 307.3,72.4 308.3,72.1 309.3,71.8 310.4,71.4 311.4,71.0 312.5,70.8 313.5,70.5 314.5,70.3 315.6,70.0 316.6,69.9 317.7,69.7 318.7,69.5 319.7,69.1 320.8,68.9 321.8,68.5 322.8,68.1 323.9,67.8 324.9,67.7 326.0,67.5 327.0,67.3 328.0,67.1 329.1,66.8 330.1,66.6 331.2,65.9 332.2,65.4 333.2,65.1 334.3,65.0 335.3,64.7 336.3,64.4 337.4,64.1 338.4,63.9 339.5,63.6 340.5,63.4 341.5,63.2 342.6,62.9 343.6,62.6 344.7,62.4 345.7,62.3 346.7,62.2 347.8,61.9 348.8,61.7 349.8,61.5 350.9,61.4 351.9,61.3 353.0,61.0 354.0,60.9 355.0,60.8 356.1,60.6 357.1,60.5 358.2,60.4 359.2,60.2 360.2,60.0 361.3,59.7 362.3,59.5 363.3,59.2 364.4,59.1 365.4,59.0 366.5,58.9 367.5,58.7 368.5,58.6 369.6,58.5 370.6,58.4 371.7,58.3 372.7,58.1 373.7,58.0 374.8,57.8 375.8,57.7 376.8,57.5 377.9,57.4 378.9,57.1 380.0,56.8 381.0,56.7 382.0,56.3 383.1,56.1 384.1,56.0 385.2,55.7 386.2,55.7 387.2,55.6 388.3,55.4 389.3,55.2 390.3,55.0 391.4,54.7 392.4,54.3 393.5,54.1 394.5,54.0 395.5,53.7 396.6,53.5 397.6,53.4 398.7,53.1 399.7,53.0 400.7,52.8 401.8,52.6 402.8,52.6 403.8,52.4 404.9,52.2 405.9,52.1 407.0,51.9 408.0,51.8 409.0,51.7 410.1,51.6 411.1,51.5 412.2,51.3 413.2,51.2 414.2,51.1 415.3,50.9 416.3,50.8 417.3,50.6 418.4,50.5 419.4,50.3 420.5,50.2 421.5,50.0 422.5,49.8 423.6,49.7 424.6,49.6 425.7,49.5 426.7,49.4 427.7,49.2 428.8,49.0 429.8,48.8 430.8,48.6 431.9,48.5 432.9,48.3 434.0,48.1 435.0,47.9 436.0,47.7 437.1,47.4 438.1,47.1 439.2,47.0 440.2,46.9 441.2,46.7 442.3,46.5 443.3,46.3 444.3,46.1 445.4,45.8 446.4,45.8 447.5,45.6 448.5,45.5 449.5,45.2 450.6,45.1 451.6,45.0 452.7,44.7 453.7,44.5 454.7,44.3 455.8,44.3 456.8,44.1 457.8,44.0 458.9,44.0 459.9,43.8 461.0,43.7 462.0,43.6 463.0,43.4 464.1,43.3 465.1,43.2 466.2,43.1 467.2,42.9 468.2,42.8 469.3,42.7 470.3,42.6 471.3,42.5 472.4,53.4 473.4,52.2 474.5,51.3 475.5,50.7 476.5,50.2 477.6,49.4 478.6,48.9 479.7,48.0 480.7,47.2 481.7,46.8 482.8,46.3 483.8,45.9 484.8,45.6 485.9,45.4 486.9,45.0 488.0,44.5 489.0,44.1 490.0,43.6 491.1,43.2 492.1,43.0 493.2,42.8 494.2,42.7 495.2,42.4 496.3,42.1 497.3,41.9 498.3,41.9 499.4,41.9 500.4,41.8 501.5,41.7 502.5,41.5 503.5,41.2 504.6,41.0 505.6,40.7 506.7,40.4 507.7,40.1 508.7,39.9 509.8,39.7 510.8,39.6 511.8,39.4 512.9,39.2 513.9,38.9 515.0,38.6 516.0,38.3 517.0,38.1 518.1,38.0 519.1,37.9 520.2,37.6 521.2,37.4 522.2,37.2 523.3,36.9 524.3,36.7 525.3,36.5 526.4,36.4 527.4,36.3 528.5,36.1 529.5,35.9 530.5,35.7 531.6,35.4 532.6,35.3 533.7,35.1 534.7,34.9 535.7,34.8 536.8,34.6 537.8,34.4 538.8,34.3 539.9,34.1 540.9,33.9 542.0,33.8 543.0,33.6 544.0,33.4 545.1,33.3 546.1,33.2 547.2,33.1 548.2,32.9 549.2,32.8 550.3,32.8 551.3,32.6 552.3,32.5 553.4,32.4 554.4,32.3 555.5,32.2 556.5,32.1 557.5,32.0 558.6,31.7 559.6,31.5 560.7,31.4 561.7,31.3 562.7,31.2 563.8,31.1 564.8,30.9 565.8,30.7 566.9,30.5 567.9,30.2 569.0,30.1 570.0,30.0 570.0,30.0,120" />
  
  <!-- Linea principale -->
  <polyline fill="none" stroke="#0366d6" stroke-width="2.5" stroke-linecap="round" stroke-linejoin="round" points="30.0,120.0 31.0,119.6 32.1,119.2 33.1,118.8 34.2,118.7 35.2,118.5 36.2,118.0 37.3,117.7 38.3,117.5 39.3,117.0 40.4,116.8 41.4,116.5 42.5,116.4 43.5,116.2 44.5,115.9 45.6,115.5 46.6,115.3 47.7,115.1 48.7,115.0 49.7,114.7 50.8,114.5 51.8,114.3 52.8,114.2 53.9,113.9 54.9,113.2 56.0,113.0 57.0,112.7 58.0,112.4 59.1,112.1 60.1,111.9 61.2,111.7 62.2,111.6 63.2,111.4 64.3,111.0 65.3,110.7 66.3,110.5 67.4,110.2 68.4,110.1 69.5,110.1 70.5,109.9 71.5,109.7 72.6,109.6 73.6,109.5 74.7,109.2 75.7,108.8 76.7,108.7 77.8,108.6 78.8,108.4 79.8,108.1 80.9,107.9 81.9,107.6 83.0,107.3 84.0,107.0 85.0,107.0 86.1,106.8 87.1,106.5 88.2,106.2 89.2,106.0 90.2,105.9 91.3,105.7 92.3,105.6 93.3,105.2 94.4,104.9 95.4,104.6 96.5,104.4 97.5,104.2 98.5,104.1 99.6,104.0 100.6,103.8 101.7,103.6 102.7,103.5 103.7,103.4 104.8,103.3 105.8,103.1 106.8,103.0 107.9,102.9 108.9,102.9 110.0,102.6 111.0,102.4 112.0,102.3 113.1,102.2 114.1,102.2 115.2,102.2 116.2,107.3 117.2,106.8 118.3,106.3 119.3,105.8 120.3,104.4 121.4,103.5 122.4,102.4 123.5,102.0 124.5,101.6 125.5,100.9 126.6,100.1 127.6,99.5 128.7,99.3 129.7,99.1 130.7,98.6 131.8,98.2 132.8,97.9 133.8,97.6 134.9,97.4 135.9,97.4 137.0,97.1 138.0,96.6 139.0,96.3 140.1,95.9 141.1,95.5 142.2,95.3 143.2,95.2 144.2,94.9 145.3,94.6 146.3,94.3 147.3,94.1 148.4,94.0 149.4,93.9 150.5,93.7 151.5,93.5 152.5,93.3 153.6,93.1 154.6,93.0 155.7,92.8 156.7,92.7 157.7,92.5 158.8,92.4 159.8,92.3 160.8,92.0 161.9,91.8 162.9,91.6 164.0,91.5 165.0,91.3 166.0,91.2 167.1,91.1 168.1,91.0 169.2,90.6 170.2,90.4 171.2,90.1 172.3,89.9 173.3,89.9 174.3,89.8 175.4,89.6 176.4,89.4 177.5,89.2 178.5,89.0 179.5,88.9 180.6,88.8 181.6,88.7 182.7,88.6 183.7,88.5 184.7,88.3 185.8,88.2 186.8,88.0 187.8,87.9 188.9,87.8 189.9,87.7 191.0,87.6 192.0,87.4 193.0,87.3 194.1,87.1 195.1,86.9 196.2,86.8 197.2,86.7 198.2,86.6 199.3,86.5 200.3,86.2 201.3,86.0 202.4,85.9 203.4,85.7 204.5,85.4 205.5,85.4 206.5,85.3 207.6,85.2 208.6,85.1 209.7,84.9 210.7,84.8 211.7,84.7 212.8,84.5 213.8,84.4 214.8,84.3 215.9,84.2 216.9,84.2 218.0,84.0 219.0,83.8 220.0,83.7 221.1,83.6 222.1,83.5 223.2,83.4 224.2,83.3 225.2,83.2 226.3,83.1 227.3,83.0 228.3,82.7 229.4,82.5 230.4,82.3 231.5,82.2 232.5,82.2 233.5,82.1 234.6,82.0 235.6,81.8 236.7,81.7 237.7,81.6 238.7,81.4 239.8,81.3 240.8,81.2 241.8,81.1 242.9,81.0 243.9,80.8 245.0,80.7 246.0,80.5 247.0,80.4 248.1,80.3 249.1,80.3 250.2,80.2 251.2,80.1 252.2,80.0 253.3,79.8 254.3,79.7 255.3,79.6 256.4,79.5 257.4,79.4 258.5,79.3 259.5,79.2 260.5,79.0 261.6,78.9 262.6,78.7 263.7,78.6 264.7,78.5 265.7,78.4 266.8,78.4 267.8,78.3 268.8,78.2 269.9,78.1 270.9,77.9 272.0,77.8 273.0,77.7 274.0,77.6 275.1,77.5 276.1,77.4 277.2,77.3 278.2,77.2 279.2,77.1 280.3,77.0 281.3,76.9 282.3,76.7 283.4,76.6 284.4,76.6 285.5,76.5 286.5,76.4 287.5,76.3 288.6,76.2 289.6,76.1 290.7,76.1 291.7,76.0 292.7,75.7 293.8,75.6 294.8,78.9 295.8,78.3 296.9,77.0 297.9,76.5 299.0,75.9 300.0,75.2 301.0,74.8 302.1,74.5 303.1,74.1 304.2,73.4 305.2,72.8 306.2,72.6 307.3,72.4 308.3,72.1 309.3,71.8 310.4,71.4 311.4,71.0 312.5,70.8 313.5,70.5 314.5,70.3 315.6,70.0 316.6,69.9 317.7,69.7 318.7,69.5 319.7,69.1 320.8,68.9 321.8,68.5 322.8,68.1 323.9,67.8 324.9,67.7 326.0,67.5 327.0,67.3 328.0,67.1 329.1,66.8 330.1,66.6 331.2,65.9 332.2,65.4 333.2,65.1 334.3,65.0 335.3,64.7 336.3,64.4 337.4,64.1 338.4,63.9 339.5,63.6 340.5,63.4 341.5,63.2 342.6,62.9 343.6,62.6 344.7,62.4 345.7,62.3 346.7,62.2 347.8,61.9 348.8,61.7 349.8,61.5 350.9,61.4 351.9,61.3 353.0,61.0 354.0,60.9 355.0,60.8 356.1,60.6 357.1,60.5 358.2,60.4 359.2,60.2 360.2,60.0 361.3,59.7 362.3,59.5 363.3,59.2 364.4,59.1 365.4,59.0 366.5,58.9 367.5,58.7 368.5,58.6 369.6,58.5 370.6,58.4 371.7,58.3 372.7,58.1 373.7,58.0 374.8,57.8 375.8,57.7 376.8,57.5 377.9,57.4 378.9,57.1 380.0,56.8 381.0,56.7 382.0,56.3 383.1,56.1 384.1,56.0 385.2,55.7 386.2,55.7 387.2,55.6 388.3,55.4 389.3,55.2 390.3,55.0 391.4,54.7 392.4,54.3 393.5,54.1 394.5,54.0 395.5,53.7 396.6,53.5 397.6,53.4 398.7,53.1 399.7,53.0 400.7,52.8 401.8,52.6 402.8,52.6 403.8,52.4 404.9,52.2 405.9,52.1 407.0,51.9 408.0,51.8 409.0,51.7 410.1,51.6 411.1,51.5 412.2,51.3 413.2,51.2 414.2,51.1 415.3,50.9 416.3,50.8 417.3,50.6 418.4,50.5 419.4,50.3 420.5,50.2 421.5,50.0 422.5,49.8 423.6,49.7 424.6,49.6 425.7,49.5 426.7,49.4 427.7,49.2 428.8,49.0 429.8,48.8 430.8,48.6 431.9,48.5 432.9,48.3 434.0,48.1 435.0,47.9 436.0,47.7 437.1,47.4 438.1,47.1 439.2,47.0 440.2,46.9 441.2,46.7 442.3,46.5 443.3,46.3 444.3,46.1 445.4,45.8 446.4,45.8 447.5,45.6 448.5,45.5 449.5,45.2 450.6,45.1 451.6,45.0 452.7,44.7 453.7,44.5 454.7,44.3 455.8,44.3 456.8,44.1 457.8,44.0 458.9,44.0 459.9,43.8 461.0,43.7 462.0,43.6 463.0,43.4 464.1,43.3 465.1,43.2 466.2,43.1 467.2,42.9 468.2,42.8 469.3,42.7 470.3,42.6 471.3,42.5 472.4,53.4 473.4,52.2 474.5,51.3 475.5,50.7 476.5,50.2 477.6,49.4 478.6,48.9 479.7,48.0 480.7,47.2 481.7,46.8 482.8,46.3 483.8,45.9 484.8,45.6 485.9,45.4 486.9,45.0 488.0,44.5 489.0,44.1 490.0,43.6 491.1,43.2 492.1,43.0 493.2,42.8 494.2,42.7 495.2,42.4 496.3,42.1 497.3,41.9 498.3,41.9 499.4,41.9 500.4,41.8 501.5,41.7 502.5,41.5 503.5,41.2 504.6,41.0 505.6,40.7 506.7,40.4 507.7,40.1 508.7,39.9 509.8,39.7 510.8,39.6 511.8,39.4 512.9,39.2 513.9,38.9 515.0,38.6 516.0,38.3 517.0,38.1 518.1,38.0 519.1,37.9 520.2,37.6 521.2,37.4 522.2,37.2 523.3,36.9 524.3,36.7 525.3,36.5 526.4,36.4 527.4,36.3 528.5,36.1 529.5,35.9 530.5,35.7 531.6,35.4 532.6,35.3 533.7,35.1 534.7,34.9 535.7,34.8 536.8,34.6 537.8,34.4 538.8,34.3 539.9,34.1 540.9,33.9 542.0,33.8 543.0,33.6 544.0,33.4 545.1,33.3 546.1,33.2 547.2,33.1 548.2,32.9 549.2,32.8 550.3,32.8 551.3,32.6 552.3,32.5 553.4,32.4 554.4,32.3 555.5,32.2 556.5,32.1 557.5,32.0 558.6,31.7 559.6,31.5 560.7,31.4 561.7,31.3 562.7,31.2 563.8,31.1 564.8,30.9 565.8,30.7 566.9,30.5 567.9,30.2 569.0,30.1 570.0,30.0" />
  
  <!-- Punto finale luminoso -->
  <circle cx="570.0" cy="30.0" r="4" fill="#ffffff" stroke="#0366d6" stroke-width="2.5" />
</svg>