<svg width="600" height="150" viewBox="0 0 600 150" xmlns="http://www.w3.org/2000/svg">
  <defs>
    <filter id="shadow2" x="-2%" y="-2%" width="104%" height="108%">
      <feDropShadow dx="0" dy="2" stdDeviation="3" flood-opacity="0.1" />
    </filter>
    <linearGradient id="fillGrad" x1="0" y1="0" x2="0" y2="1">
      <stop offset="0%" stop-color="#0366d6" stop-opacity="0.3"/>
      <stop offset="100%" stop-color="#0366d6" stop-opacity="0.02"/>
    </linearGradient>
  </defs>
  <rect width="600" height="150" rx="12" fill="#ffffff" filter="url(#shadow2)" stroke="#e1e4e8" stroke-width="1"/>
  <text x="20" y="24" fill="#2b3137" font-family="-apple-system,BlinkMacSystemFont,'Segoe UI',Helvetica,Arial,sans-serif" font-size="14" font-weight="600">📈 Download Growth (Actual: 77.6k)</text>
  
  <!-- Area sotto la linea -->
  <polygon fill="url(#fillGrad)" points="30.0,120.0,120 30.0,120.0 32.9,119.1 35.7,118.0 38.6,117.1 41.5,116.9 44.4,116.4 47.2,115.4 50.1,114.6 53.0,114.1 55.9,113.0 58.7,112.5 61.6,111.9 64.5,111.6 67.3,111.1 70.2,110.3 73.1,109.5 76.0,108.9 78.8,108.5 81.7,108.2 84.6,107.7 87.4,107.1 90.3,106.5 93.2,106.3 96.1,105.8 98.9,104.0 101.8,103.5 104.7,102.8 107.6,102.1 110.4,101.5 113.3,100.9 116.2,100.5 119.0,100.2 121.9,99.7 124.8,98.9 127.7,98.1 130.5,97.6 133.4,97.0 136.3,96.9 139.1,96.7 142.0,96.4 144.9,95.8 147.8,95.5 150.6,95.3 153.5,94.6 156.4,93.7 159.3,93.4 162.1,93.3 165.0,92.9 167.9,92.1 170.7,91.6 173.6,90.8 176.5,90.3 179.4,89.6 182.2,89.4 185.1,89.0 188.0,88.3 190.9,87.6 193.7,87.1 196.6,86.8 199.5,86.5 202.3,86.1 205.2,85.3 208.1,84.6 211.0,83.9 213.8,83.3 216.7,83.0 219.6,82.8 222.4,82.5 225.3,81.9 228.2,81.6 231.1,81.3 233.9,81.0 236.8,80.8 239.7,80.4 242.6,80.1 245.4,80.0 248.3,79.8 251.2,79.0 254.0,78.6 256.9,78.5 259.8,78.3 262.7,78.1 265.5,78.1 268.4,90.1 271.3,88.9 274.1,87.9 277.0,86.7 279.9,83.5 282.8,81.2 285.6,78.8 288.5,77.9 291.4,76.8 294.3,75.1 297.1,73.3 300.0,72.0 302.9,71.5 305.7,71.0 308.6,69.7 311.5,68.7 314.4,68.1 317.2,67.3 320.1,67.0 323.0,66.9 325.9,66.2 328.7,65.1 331.6,64.3 334.5,63.5 337.3,62.6 340.2,62.1 343.1,61.8 346.0,61.1 348.8,60.4 351.7,59.7 354.6,59.2 357.4,58.9 360.3,58.8 363.2,58.3 366.1,57.8 368.9,57.3 371.8,56.9 374.7,56.5 377.6,56.2 380.4,55.9 383.3,55.5 386.2,55.3 389.0,55.0 391.9,54.3 394.8,53.9 397.7,53.3 400.5,53.0 403.4,52.6 406.3,52.4 409.1,52.1 412.0,51.6 414.9,50.8 417.8,49.9 420.6,49.4 423.5,48.8 426.4,48.3 429.3,48.0 432.1,47.6 435.0,46.9 437.9,46.4 440.7,46.1 443.6,45.7 446.5,45.5 449.4,44.9 452.2,44.5 455.1,44.4 458.0,44.1 460.9,43.8 463.7,43.3 466.6,42.9 469.5,42.4 472.3,42.0 475.2,41.6 478.1,41.1 481.0,40.4 483.8,40.1 486.7,39.5 489.6,38.8 492.4,38.7 495.3,38.5 498.2,38.2 501.1,37.8 503.9,37.5 506.8,36.9 509.7,36.8 512.6,36.5 515.4,36.2 518.3,36.0 521.2,35.9 524.0,35.3 526.9,34.9 529.8,34.6 532.7,34.4 535.5,34.0 538.4,33.7 541.3,33.6 544.1,33.3 547.0,32.9 549.9,32.4 552.8,31.7 555.6,31.5 558.5,31.2 561.4,31.1 564.3,30.5 567.1,30.1 570.0,30.0 570.0,30.0,120" />
  
  <!-- Linea principale -->
  <polyline fill="none" stroke="#0366d6" stroke-width="2.5" stroke-linecap="round" stroke-linejoin="round" points="30.0,120.0 32.9,119.1 35.7,118.0 38.6,117.1 41.5,116.9 44.4,116.4 47.2,115.4 50.1,114.6 53.0,114.1 55.9,113.0 58.7,112.5 61.6,111.9 64.5,111.6 67.3,111.1 70.2,110.3 73.1,109.5 76.0,108.9 78.8,108.5 81.7,108.2 84.6,107.7 87.4,107.1 90.3,106.5 93.2,106.3 96.1,105.8 98.9,104.0 101.8,103.5 104.7,102.8 107.6,102.1 110.4,101.5 113.3,100.9 116.2,100.5 119.0,100.2 121.9,99.7 124.8,98.9 127.7,98.1 130.5,97.6 133.4,97.0 136.3,96.9 139.1,96.7 142.0,96.4 144.9,95.8 147.8,95.5 150.6,95.3 153.5,94.6 156.4,93.7 159.3,93.4 162.1,93.3 165.0,92.9 167.9,92.1 170.7,91.6 173.6,90.8 176.5,90.3 179.4,89.6 182.2,89.4 185.1,89.0 188.0,88.3 190.9,87.6 193.7,87.1 196.6,86.8 199.5,86.5 202.3,86.1 205.2,85.3 208.1,84.6 211.0,83.9 213.8,83.3 216.7,83.0 219.6,82.8 222.4,82.5 225.3,81.9 228.2,81.6 231.1,81.3 233.9,81.0 236.8,80.8 239.7,80.4 242.6,80.1 245.4,80.0 248.3,79.8 251.2,79.0 254.0,78.6 256.9,78.5 259.8,78.3 262.7,78.1 265.5,78.1 268.4,90.1 271.3,88.9 274.1,87.9 277.0,86.7 279.9,83.5 282.8,81.2 285.6,78.8 288.5,77.9 291.4,76.8 294.3,75.1 297.1,73.3 300.0,72.0 302.9,71.5 305.7,71.0 308.6,69.7 311.5,68.7 314.4,68.1 317.2,67.3 320.1,67.0 323.0,66.9 325.9,66.2 328.7,65.1 331.6,64.3 334.5,63.5 337.3,62.6 340.2,62.1 343.1,61.8 346.0,61.1 348.8,60.4 351.7,59.7 354.6,59.2 357.4,58.9 360.3,58.8 363.2,58.3 366.1,57.8 368.9,57.3 371.8,56.9 374.7,56.5 377.6,56.2 380.4,55.9 383.3,55.5 386.2,55.3 389.0,55.0 391.9,54.3 394.8,53.9 397.7,53.3 400.5,53.0 403.4,52.6 406.3,52.4 409.1,52.1 412.0,51.6 414.9,50.8 417.8,49.9 420.6,49.4 423.5,48.8 426.4,48.3 429.3,48.0 432.1,47.6 435.0,46.9 437.9,46.4 440.7,46.1 443.6,45.7 446.5,45.5 449.4,44.9 452.2,44.5 455.1,44.4 458.0,44.1 460.9,43.8 463.7,43.3 466.6,42.9 469.5,42.4 472.3,42.0 475.2,41.6 478.1,41.1 481.0,40.4 483.8,40.1 486.7,39.5 489.6,38.8 492.4,38.7 495.3,38.5 498.2,38.2 501.1,37.8 503.9,37.5 506.8,36.9 509.7,36.8 512.6,36.5 515.4,36.2 518.3,36.0 521.2,35.9 524.0,35.3 526.9,34.9 529.8,34.6 532.7,34.4 535.5,34.0 538.4,33.7 541.3,33.6 544.1,33.3 547.0,32.9 549.9,32.4 552.8,31.7 555.6,31.5 558.5,31.2 561.4,31.1 564.3,30.5 567.1,30.1 570.0,30.0" />
  
  <!-- Punto finale luminoso -->
  <circle cx="570.0" cy="30.0" r="4" fill="#ffffff" stroke="#0366d6" stroke-width="2.5" />
</svg>