<svg width="600" height="150" viewBox="0 0 600 150" xmlns="http://www.w3.org/2000/svg">
  <defs>
    <filter id="shadow2" x="-2%" y="-2%" width="104%" height="108%">
      <feDropShadow dx="0" dy="2" stdDeviation="3" flood-opacity="0.1" />
    </filter>
    <linearGradient id="fillGrad" x1="0" y1="0" x2="0" y2="1">
      <stop offset="0%" stop-color="#0366d6" stop-opacity="0.3"/>
      <stop offset="100%" stop-color="#0366d6" stop-opacity="0.02"/>
    </linearGradient>
  </defs>
  <rect width="600" height="150" rx="12" fill="#ffffff" filter="url(#shadow2)" stroke="#e1e4e8" stroke-width="1"/>
  <text x="20" y="24" fill="#2b3137" font-family="-apple-system,BlinkMacSystemFont,'Segoe UI',Helvetica,Arial,sans-serif" font-size="14" font-weight="600">📈 Download Growth (Actual: 78.0k)</text>
  
  <!-- Area sotto la linea -->
  <polygon fill="url(#fillGrad)" points="30.0,120.0,120 30.0,120.0 32.8,119.1 35.5,118.1 38.3,117.2 41.0,117.0 43.8,116.6 46.5,115.5 49.3,114.8 52.0,114.3 54.8,113.2 57.6,112.7 60.3,112.2 63.1,111.8 65.8,111.4 68.6,110.6 71.3,109.8 74.1,109.2 76.8,108.8 79.6,108.6 82.3,108.1 85.1,107.5 87.9,107.0 90.6,106.7 93.4,106.3 96.1,104.6 98.9,104.0 101.6,103.4 104.4,102.7 107.1,102.1 109.9,101.5 112.7,101.2 115.4,100.9 118.2,100.4 120.9,99.6 123.7,98.9 126.4,98.4 129.2,97.8 131.9,97.6 134.7,97.5 137.4,97.2 140.2,96.6 143.0,96.3 145.7,96.1 148.5,95.5 151.2,94.5 154.0,94.3 156.7,94.1 159.5,93.8 162.2,93.1 165.0,92.6 167.8,91.8 170.5,91.3 173.3,90.6 176.0,90.5 178.8,90.1 181.5,89.4 184.3,88.7 187.0,88.2 189.8,87.9 192.6,87.6 195.3,87.3 198.1,86.5 200.8,85.8 203.6,85.1 206.3,84.5 209.1,84.2 211.8,84.0 214.6,83.7 217.3,83.2 220.1,82.8 222.9,82.5 225.6,82.3 228.4,82.1 231.1,81.7 233.9,81.4 236.6,81.3 239.4,81.1 242.1,80.4 244.9,80.0 247.7,79.9 250.4,79.6 253.2,79.5 255.9,79.5 258.7,91.1 261.4,89.9 264.2,88.9 266.9,87.8 269.7,84.7 272.4,82.5 275.2,80.1 278.0,79.2 280.7,78.3 283.5,76.6 286.2,74.9 289.0,73.6 291.7,73.1 294.5,72.6 297.2,71.3 300.0,70.4 302.8,69.8 305.5,69.1 308.3,68.8 311.0,68.6 313.8,68.0 316.5,66.9 319.3,66.1 322.0,65.3 324.8,64.5 327.6,64.1 330.3,63.8 333.1,63.0 335.8,62.3 338.6,61.7 341.3,61.2 344.1,60.9 346.8,60.8 349.6,60.4 352.3,59.8 355.1,59.4 357.9,59.0 360.6,58.6 363.4,58.3 366.1,58.0 368.9,57.7 371.6,57.4 374.4,57.1 377.1,56.5 379.9,56.1 382.7,55.6 385.4,55.2 388.2,54.9 390.9,54.6 393.7,54.4 396.4,53.9 399.2,53.1 401.9,52.3 404.7,51.8 407.4,51.2 410.2,50.7 413.0,50.4 415.7,50.0 418.5,49.3 421.2,48.9 424.0,48.5 426.7,48.2 429.5,48.0 432.2,47.4 435.0,47.0 437.8,46.9 440.5,46.7 443.3,46.4 446.0,45.8 448.8,45.5 451.5,45.0 454.3,44.5 457.0,44.2 459.8,43.7 462.6,43.0 465.3,42.8 468.1,42.1 470.8,41.5 473.6,41.4 476.3,41.2 479.1,40.9 481.8,40.5 484.6,40.2 487.3,39.7 490.1,39.5 492.9,39.3 495.6,39.0 498.4,38.8 501.1,38.7 503.9,38.1 506.6,37.8 509.4,37.5 512.1,37.2 514.9,36.9 517.7,36.5 520.4,36.4 523.2,36.2 525.9,35.8 528.7,35.3 531.4,34.7 534.2,34.4 536.9,34.1 539.7,34.0 542.4,33.4 545.2,33.1 548.0,33.0 550.7,32.5 553.5,32.1 556.2,31.7 559.0,31.4 561.7,31.0 564.5,30.8 567.2,30.4 570.0,30.0 570.0,30.0,120" />
  
  <!-- Linea principale -->
  <polyline fill="none" stroke="#0366d6" stroke-width="2.5" stroke-linecap="round" stroke-linejoin="round" points="30.0,120.0 32.8,119.1 35.5,118.1 38.3,117.2 41.0,117.0 43.8,116.6 46.5,115.5 49.3,114.8 52.0,114.3 54.8,113.2 57.6,112.7 60.3,112.2 63.1,111.8 65.8,111.4 68.6,110.6 71.3,109.8 74.1,109.2 76.8,108.8 79.6,108.6 82.3,108.1 85.1,107.5 87.9,107.0 90.6,106.7 93.4,106.3 96.1,104.6 98.9,104.0 101.6,103.4 104.4,102.7 107.1,102.1 109.9,101.5 112.7,101.2 115.4,100.9 118.2,100.4 120.9,99.6 123.7,98.9 126.4,98.4 129.2,97.8 131.9,97.6 134.7,97.5 137.4,97.2 140.2,96.6 143.0,96.3 145.7,96.1 148.5,95.5 151.2,94.5 154.0,94.3 156.7,94.1 159.5,93.8 162.2,93.1 165.0,92.6 167.8,91.8 170.5,91.3 173.3,90.6 176.0,90.5 178.8,90.1 181.5,89.4 184.3,88.7 187.0,88.2 189.8,87.9 192.6,87.6 195.3,87.3 198.1,86.5 200.8,85.8 203.6,85.1 206.3,84.5 209.1,84.2 211.8,84.0 214.6,83.7 217.3,83.2 220.1,82.8 222.9,82.5 225.6,82.3 228.4,82.1 231.1,81.7 233.9,81.4 236.6,81.3 239.4,81.1 242.1,80.4 244.9,80.0 247.7,79.9 250.4,79.6 253.2,79.5 255.9,79.5 258.7,91.1 261.4,89.9 264.2,88.9 266.9,87.8 269.7,84.7 272.4,82.5 275.2,80.1 278.0,79.2 280.7,78.3 283.5,76.6 286.2,74.9 289.0,73.6 291.7,73.1 294.5,72.6 297.2,71.3 300.0,70.4 302.8,69.8 305.5,69.1 308.3,68.8 311.0,68.6 313.8,68.0 316.5,66.9 319.3,66.1 322.0,65.3 324.8,64.5 327.6,64.1 330.3,63.8 333.1,63.0 335.8,62.3 338.6,61.7 341.3,61.2 344.1,60.9 346.8,60.8 349.6,60.4 352.3,59.8 355.1,59.4 357.9,59.0 360.6,58.6 363.4,58.3 366.1,58.0 368.9,57.7 371.6,57.4 374.4,57.1 377.1,56.5 379.9,56.1 382.7,55.6 385.4,55.2 388.2,54.9 390.9,54.6 393.7,54.4 396.4,53.9 399.2,53.1 401.9,52.3 404.7,51.8 407.4,51.2 410.2,50.7 413.0,50.4 415.7,50.0 418.5,49.3 421.2,48.9 424.0,48.5 426.7,48.2 429.5,48.0 432.2,47.4 435.0,47.0 437.8,46.9 440.5,46.7 443.3,46.4 446.0,45.8 448.8,45.5 451.5,45.0 454.3,44.5 457.0,44.2 459.8,43.7 462.6,43.0 465.3,42.8 468.1,42.1 470.8,41.5 473.6,41.4 476.3,41.2 479.1,40.9 481.8,40.5 484.6,40.2 487.3,39.7 490.1,39.5 492.9,39.3 495.6,39.0 498.4,38.8 501.1,38.7 503.9,38.1 506.6,37.8 509.4,37.5 512.1,37.2 514.9,36.9 517.7,36.5 520.4,36.4 523.2,36.2 525.9,35.8 528.7,35.3 531.4,34.7 534.2,34.4 536.9,34.1 539.7,34.0 542.4,33.4 545.2,33.1 548.0,33.0 550.7,32.5 553.5,32.1 556.2,31.7 559.0,31.4 561.7,31.0 564.5,30.8 567.2,30.4 570.0,30.0" />
  
  <!-- Punto finale luminoso -->
  <circle cx="570.0" cy="30.0" r="4" fill="#ffffff" stroke="#0366d6" stroke-width="2.5" />
</svg>