<svg width="600" height="150" viewBox="0 0 600 150" xmlns="http://www.w3.org/2000/svg">
  <defs>
    <filter id="shadow2" x="-2%" y="-2%" width="104%" height="108%">
      <feDropShadow dx="0" dy="2" stdDeviation="3" flood-opacity="0.1" />
    </filter>
    <linearGradient id="fillGrad" x1="0" y1="0" x2="0" y2="1">
      <stop offset="0%" stop-color="#0366d6" stop-opacity="0.3"/>
      <stop offset="100%" stop-color="#0366d6" stop-opacity="0.02"/>
    </linearGradient>
  </defs>
  <rect width="600" height="150" rx="12" fill="#ffffff" filter="url(#shadow2)" stroke="#e1e4e8" stroke-width="1"/>
  <text x="20" y="24" fill="#2b3137" font-family="-apple-system,BlinkMacSystemFont,'Segoe UI',Helvetica,Arial,sans-serif" font-size="14" font-weight="600">📈 Download Growth (Actual: 76.9k)</text>
  
  <!-- Area sotto la linea -->
  <polygon fill="url(#fillGrad)" points="30.0,120.0,120 30.0,120.0 33.2,119.0 36.4,117.9 39.5,116.9 42.7,116.7 45.9,116.2 49.1,115.0 52.2,114.2 55.4,113.7 58.6,112.5 61.8,111.9 64.9,111.3 68.1,111.0 71.3,110.4 74.5,109.6 77.6,108.8 80.8,108.1 84.0,107.6 87.2,107.3 90.4,106.8 93.5,106.1 96.7,105.6 99.9,105.3 103.1,104.8 106.2,102.9 109.4,102.3 112.6,101.6 115.8,100.8 118.9,100.2 122.1,99.5 125.3,99.1 128.5,98.8 131.6,98.3 134.8,97.4 138.0,96.6 141.2,96.0 144.4,95.4 147.5,95.2 150.7,95.1 153.9,94.7 157.1,94.1 160.2,93.8 163.4,93.5 166.6,92.8 169.8,91.8 172.9,91.5 176.1,91.4 179.3,91.0 182.5,90.1 185.6,89.6 188.8,88.8 192.0,88.2 195.2,87.4 198.4,87.3 201.5,86.8 204.7,86.1 207.9,85.3 211.1,84.7 214.2,84.5 217.4,84.1 220.6,83.7 223.8,82.9 226.9,82.1 230.1,81.4 233.3,80.7 236.5,80.3 239.6,80.1 242.8,79.8 246.0,79.2 249.2,78.8 252.4,78.5 255.5,78.2 258.7,78.0 261.9,77.6 265.1,77.3 268.2,77.1 271.4,76.9 274.6,76.1 277.8,75.7 280.9,75.6 284.1,75.3 287.3,75.1 290.5,75.1 293.6,88.0 296.8,86.7 300.0,85.6 303.2,84.4 306.4,80.9 309.5,78.4 312.7,75.8 315.9,74.9 319.1,73.8 322.2,72.0 325.4,70.0 328.6,68.6 331.8,68.0 334.9,67.5 338.1,66.1 341.3,65.1 344.5,64.4 347.6,63.6 350.8,63.3 354.0,63.1 357.2,62.4 360.4,61.2 363.5,60.3 366.7,59.5 369.9,58.5 373.1,58.0 376.2,57.7 379.4,56.9 382.6,56.1 385.8,55.4 388.9,54.8 392.1,54.6 395.3,54.4 398.5,54.0 401.6,53.3 404.8,52.9 408.0,52.4 411.2,52.0 414.4,51.7 417.5,51.3 420.7,51.0 423.9,50.7 427.1,50.3 430.2,49.7 433.4,49.2 436.6,48.6 439.8,48.2 442.9,47.8 446.1,47.6 449.3,47.3 452.5,46.8 455.6,45.8 458.8,45.0 462.0,44.4 465.2,43.8 468.4,43.2 471.5,42.9 474.7,42.5 477.9,41.7 481.1,41.2 484.2,40.8 487.4,40.4 490.6,40.2 493.8,39.6 496.9,39.1 500.1,39.0 503.3,38.8 506.5,38.4 509.6,37.8 512.8,37.4 516.0,36.9 519.2,36.4 522.4,36.0 525.5,35.5 528.7,34.7 531.9,34.4 535.1,33.7 538.2,33.0 541.4,32.9 544.6,32.7 547.8,32.4 550.9,32.0 554.1,31.6 557.3,31.1 560.5,30.8 563.6,30.6 566.8,30.2 570.0,30.0 570.0,30.0,120" />
  
  <!-- Linea principale -->
  <polyline fill="none" stroke="#0366d6" stroke-width="2.5" stroke-linecap="round" stroke-linejoin="round" points="30.0,120.0 33.2,119.0 36.4,117.9 39.5,116.9 42.7,116.7 45.9,116.2 49.1,115.0 52.2,114.2 55.4,113.7 58.6,112.5 61.8,111.9 64.9,111.3 68.1,111.0 71.3,110.4 74.5,109.6 77.6,108.8 80.8,108.1 84.0,107.6 87.2,107.3 90.4,106.8 93.5,106.1 96.7,105.6 99.9,105.3 103.1,104.8 106.2,102.9 109.4,102.3 112.6,101.6 115.8,100.8 118.9,100.2 122.1,99.5 125.3,99.1 128.5,98.8 131.6,98.3 134.8,97.4 138.0,96.6 141.2,96.0 144.4,95.4 147.5,95.2 150.7,95.1 153.9,94.7 157.1,94.1 160.2,93.8 163.4,93.5 166.6,92.8 169.8,91.8 172.9,91.5 176.1,91.4 179.3,91.0 182.5,90.1 185.6,89.6 188.8,88.8 192.0,88.2 195.2,87.4 198.4,87.3 201.5,86.8 204.7,86.1 207.9,85.3 211.1,84.7 214.2,84.5 217.4,84.1 220.6,83.7 223.8,82.9 226.9,82.1 230.1,81.4 233.3,80.7 236.5,80.3 239.6,80.1 242.8,79.8 246.0,79.2 249.2,78.8 252.4,78.5 255.5,78.2 258.7,78.0 261.9,77.6 265.1,77.3 268.2,77.1 271.4,76.9 274.6,76.1 277.8,75.7 280.9,75.6 284.1,75.3 287.3,75.1 290.5,75.1 293.6,88.0 296.8,86.7 300.0,85.6 303.2,84.4 306.4,80.9 309.5,78.4 312.7,75.8 315.9,74.9 319.1,73.8 322.2,72.0 325.4,70.0 328.6,68.6 331.8,68.0 334.9,67.5 338.1,66.1 341.3,65.1 344.5,64.4 347.6,63.6 350.8,63.3 354.0,63.1 357.2,62.4 360.4,61.2 363.5,60.3 366.7,59.5 369.9,58.5 373.1,58.0 376.2,57.7 379.4,56.9 382.6,56.1 385.8,55.4 388.9,54.8 392.1,54.6 395.3,54.4 398.5,54.0 401.6,53.3 404.8,52.9 408.0,52.4 411.2,52.0 414.4,51.7 417.5,51.3 420.7,51.0 423.9,50.7 427.1,50.3 430.2,49.7 433.4,49.2 436.6,48.6 439.8,48.2 442.9,47.8 446.1,47.6 449.3,47.3 452.5,46.8 455.6,45.8 458.8,45.0 462.0,44.4 465.2,43.8 468.4,43.2 471.5,42.9 474.7,42.5 477.9,41.7 481.1,41.2 484.2,40.8 487.4,40.4 490.6,40.2 493.8,39.6 496.9,39.1 500.1,39.0 503.3,38.8 506.5,38.4 509.6,37.8 512.8,37.4 516.0,36.9 519.2,36.4 522.4,36.0 525.5,35.5 528.7,34.7 531.9,34.4 535.1,33.7 538.2,33.0 541.4,32.9 544.6,32.7 547.8,32.4 550.9,32.0 554.1,31.6 557.3,31.1 560.5,30.8 563.6,30.6 566.8,30.2 570.0,30.0" />
  
  <!-- Punto finale luminoso -->
  <circle cx="570.0" cy="30.0" r="4" fill="#ffffff" stroke="#0366d6" stroke-width="2.5" />
</svg>