<svg width="600" height="150" viewBox="0 0 600 150" xmlns="http://www.w3.org/2000/svg">
  <defs>
    <filter id="shadow2" x="-2%" y="-2%" width="104%" height="108%">
      <feDropShadow dx="0" dy="2" stdDeviation="3" flood-opacity="0.1" />
    </filter>
    <linearGradient id="fillGrad" x1="0" y1="0" x2="0" y2="1">
      <stop offset="0%" stop-color="#0366d6" stop-opacity="0.3"/>
      <stop offset="100%" stop-color="#0366d6" stop-opacity="0.02"/>
    </linearGradient>
  </defs>
  <rect width="600" height="150" rx="12" fill="#ffffff" filter="url(#shadow2)" stroke="#e1e4e8" stroke-width="1"/>
  <text x="20" y="24" fill="#2b3137" font-family="-apple-system,BlinkMacSystemFont,'Segoe UI',Helvetica,Arial,sans-serif" font-size="14" font-weight="600">📈 Download Growth (Actual: 75.8k)</text>
  
  <!-- Area sotto la linea -->
  <polygon fill="url(#fillGrad)" points="30.0,120.0,120 30.0,120.0 33.7,118.9 37.4,117.6 41.1,116.6 44.8,116.3 48.5,115.7 52.2,114.4 55.9,113.6 59.6,113.0 63.3,111.6 67.0,111.0 70.7,110.3 74.4,109.9 78.1,109.3 81.8,108.4 85.5,107.4 89.2,106.7 92.9,106.2 96.6,105.8 100.3,105.2 104.0,104.5 107.7,103.9 111.4,103.6 115.1,103.0 118.8,100.8 122.5,100.2 126.2,99.4 129.9,98.5 133.6,97.8 137.3,97.1 141.0,96.6 144.7,96.3 148.4,95.7 152.1,94.7 155.8,93.8 159.5,93.2 163.2,92.5 166.8,92.3 170.5,92.1 174.2,91.7 177.9,91.0 181.6,90.6 185.3,90.3 189.0,89.6 192.7,88.4 196.4,88.1 200.1,87.9 203.8,87.5 207.5,86.6 211.2,86.0 214.9,85.0 218.6,84.4 222.3,83.5 226.0,83.4 229.7,82.9 233.4,82.0 237.1,81.1 240.8,80.5 244.5,80.2 248.2,79.8 251.9,79.4 255.6,78.4 259.3,77.6 263.0,76.8 266.7,76.0 270.4,75.6 274.1,75.3 277.8,75.0 281.5,74.4 285.2,73.9 288.9,73.5 292.6,73.2 296.3,72.9 300.0,72.5 303.7,72.2 307.4,72.0 311.1,71.8 314.8,70.9 318.5,70.4 322.2,70.3 325.9,69.9 329.6,69.8 333.3,69.8 337.0,84.1 340.7,82.7 344.4,81.5 348.1,80.1 351.8,76.2 355.5,73.5 359.2,70.5 362.9,69.5 366.6,68.2 370.3,66.2 374.0,64.0 377.7,62.4 381.4,61.8 385.1,61.2 388.8,59.7 392.5,58.5 396.2,57.8 399.9,56.9 403.6,56.5 407.3,56.3 411.0,55.5 414.7,54.1 418.4,53.2 422.1,52.2 425.8,51.1 429.5,50.6 433.2,50.2 436.8,49.3 440.5,48.5 444.2,47.7 447.9,47.0 451.6,46.8 455.3,46.6 459.0,46.1 462.7,45.4 466.4,44.8 470.1,44.3 473.8,43.9 477.5,43.5 481.2,43.1 484.9,42.7 488.6,42.4 492.3,42.0 496.0,41.3 499.7,40.7 503.4,40.1 507.1,39.6 510.8,39.2 514.5,38.9 518.2,38.6 521.9,38.0 525.6,37.0 529.3,36.0 533.0,35.4 536.7,34.7 540.4,34.1 544.1,33.6 547.8,33.2 551.5,32.3 555.2,31.8 558.9,31.4 562.6,30.9 566.3,30.7 570.0,30.0 570.0,30.0,120" />
  
  <!-- Linea principale -->
  <polyline fill="none" stroke="#0366d6" stroke-width="2.5" stroke-linecap="round" stroke-linejoin="round" points="30.0,120.0 33.7,118.9 37.4,117.6 41.1,116.6 44.8,116.3 48.5,115.7 52.2,114.4 55.9,113.6 59.6,113.0 63.3,111.6 67.0,111.0 70.7,110.3 74.4,109.9 78.1,109.3 81.8,108.4 85.5,107.4 89.2,106.7 92.9,106.2 96.6,105.8 100.3,105.2 104.0,104.5 107.7,103.9 111.4,103.6 115.1,103.0 118.8,100.8 122.5,100.2 126.2,99.4 129.9,98.5 133.6,97.8 137.3,97.1 141.0,96.6 144.7,96.3 148.4,95.7 152.1,94.7 155.8,93.8 159.5,93.2 163.2,92.5 166.8,92.3 170.5,92.1 174.2,91.7 177.9,91.0 181.6,90.6 185.3,90.3 189.0,89.6 192.7,88.4 196.4,88.1 200.1,87.9 203.8,87.5 207.5,86.6 211.2,86.0 214.9,85.0 218.6,84.4 222.3,83.5 226.0,83.4 229.7,82.9 233.4,82.0 237.1,81.1 240.8,80.5 244.5,80.2 248.2,79.8 251.9,79.4 255.6,78.4 259.3,77.6 263.0,76.8 266.7,76.0 270.4,75.6 274.1,75.3 277.8,75.0 281.5,74.4 285.2,73.9 288.9,73.5 292.6,73.2 296.3,72.9 300.0,72.5 303.7,72.2 307.4,72.0 311.1,71.8 314.8,70.9 318.5,70.4 322.2,70.3 325.9,69.9 329.6,69.8 333.3,69.8 337.0,84.1 340.7,82.7 344.4,81.5 348.1,80.1 351.8,76.2 355.5,73.5 359.2,70.5 362.9,69.5 366.6,68.2 370.3,66.2 374.0,64.0 377.7,62.4 381.4,61.8 385.1,61.2 388.8,59.7 392.5,58.5 396.2,57.8 399.9,56.9 403.6,56.5 407.3,56.3 411.0,55.5 414.7,54.1 418.4,53.2 422.1,52.2 425.8,51.1 429.5,50.6 433.2,50.2 436.8,49.3 440.5,48.5 444.2,47.7 447.9,47.0 451.6,46.8 455.3,46.6 459.0,46.1 462.7,45.4 466.4,44.8 470.1,44.3 473.8,43.9 477.5,43.5 481.2,43.1 484.9,42.7 488.6,42.4 492.3,42.0 496.0,41.3 499.7,40.7 503.4,40.1 507.1,39.6 510.8,39.2 514.5,38.9 518.2,38.6 521.9,38.0 525.6,37.0 529.3,36.0 533.0,35.4 536.7,34.7 540.4,34.1 544.1,33.6 547.8,33.2 551.5,32.3 555.2,31.8 558.9,31.4 562.6,30.9 566.3,30.7 570.0,30.0" />
  
  <!-- Punto finale luminoso -->
  <circle cx="570.0" cy="30.0" r="4" fill="#ffffff" stroke="#0366d6" stroke-width="2.5" />
</svg>