<svg width="600" height="150" viewBox="0 0 600 150" xmlns="http://www.w3.org/2000/svg">
  <defs>
    <filter id="shadow2" x="-2%" y="-2%" width="104%" height="108%">
      <feDropShadow dx="0" dy="2" stdDeviation="3" flood-opacity="0.1" />
    </filter>
    <linearGradient id="fillGrad" x1="0" y1="0" x2="0" y2="1">
      <stop offset="0%" stop-color="#0366d6" stop-opacity="0.3"/>
      <stop offset="100%" stop-color="#0366d6" stop-opacity="0.02"/>
    </linearGradient>
  </defs>
  <rect width="600" height="150" rx="12" fill="#ffffff" filter="url(#shadow2)" stroke="#e1e4e8" stroke-width="1"/>
  <text x="20" y="24" fill="#2b3137" font-family="-apple-system,BlinkMacSystemFont,'Segoe UI',Helvetica,Arial,sans-serif" font-size="14" font-weight="600">📈 Download Growth (Actual: 77.0k)</text>
  
  <!-- Area sotto la linea -->
  <polygon fill="url(#fillGrad)" points="30.0,120.0,120 30.0,120.0 33.1,119.0 36.2,117.9 39.4,117.0 42.5,116.7 45.6,116.2 48.7,115.1 51.8,114.3 55.0,113.8 58.1,112.6 61.2,112.0 64.3,111.4 67.5,111.1 70.6,110.5 73.7,109.7 76.8,108.9 79.9,108.2 83.1,107.8 86.2,107.5 89.3,106.9 92.4,106.3 95.5,105.8 98.7,105.5 101.8,105.0 104.9,103.1 108.0,102.5 111.2,101.8 114.3,101.1 117.4,100.4 120.5,99.8 123.6,99.4 126.8,99.1 129.9,98.6 133.0,97.6 136.1,96.9 139.2,96.3 142.4,95.7 145.5,95.5 148.6,95.4 151.7,95.0 154.9,94.4 158.0,94.1 161.1,93.8 164.2,93.1 167.3,92.1 170.5,91.9 173.6,91.7 176.7,91.3 179.8,90.5 182.9,90.0 186.1,89.1 189.2,88.6 192.3,87.8 195.4,87.7 198.6,87.2 201.7,86.5 204.8,85.7 207.9,85.1 211.0,84.9 214.2,84.5 217.3,84.2 220.4,83.3 223.5,82.5 226.6,81.8 229.8,81.2 232.9,80.8 236.0,80.6 239.1,80.3 242.3,79.7 245.4,79.3 248.5,79.0 251.6,78.7 254.7,78.5 257.9,78.1 261.0,77.8 264.1,77.6 267.2,77.4 270.3,76.7 273.5,76.2 276.6,76.1 279.7,75.8 282.8,75.7 286.0,75.7 289.1,88.4 292.2,87.1 295.3,86.0 298.4,84.8 301.6,81.4 304.7,78.9 307.8,76.4 310.9,75.4 314.0,74.3 317.2,72.5 320.3,70.6 323.4,69.2 326.5,68.6 329.7,68.1 332.8,66.8 335.9,65.7 339.0,65.1 342.1,64.3 345.3,63.9 348.4,63.8 351.5,63.1 354.6,61.9 357.7,61.0 360.9,60.2 364.0,59.2 367.1,58.8 370.2,58.4 373.4,57.6 376.5,56.9 379.6,56.2 382.7,55.6 385.8,55.4 389.0,55.2 392.1,54.8 395.2,54.1 398.3,53.7 401.4,53.2 404.6,52.9 407.7,52.5 410.8,52.1 413.9,51.8 417.1,51.5 420.2,51.2 423.3,50.5 426.4,50.0 429.5,49.5 432.7,49.1 435.8,48.7 438.9,48.4 442.0,48.2 445.1,47.6 448.3,46.7 451.4,45.9 454.5,45.3 457.6,44.7 460.8,44.2 463.9,43.8 467.0,43.4 470.1,42.6 473.2,42.1 476.4,41.8 479.5,41.4 482.6,41.2 485.7,40.6 488.8,40.1 492.0,40.0 495.1,39.7 498.2,39.4 501.3,38.8 504.5,38.4 507.6,37.9 510.7,37.4 513.8,37.0 516.9,36.5 520.1,35.7 523.2,35.5 526.3,34.8 529.4,34.1 532.5,33.9 535.7,33.8 538.8,33.5 541.9,33.0 545.0,32.7 548.2,32.1 551.3,31.9 554.4,31.6 557.5,31.3 560.6,31.1 563.8,31.0 566.9,30.4 570.0,30.0 570.0,30.0,120" />
  
  <!-- Linea principale -->
  <polyline fill="none" stroke="#0366d6" stroke-width="2.5" stroke-linecap="round" stroke-linejoin="round" points="30.0,120.0 33.1,119.0 36.2,117.9 39.4,117.0 42.5,116.7 45.6,116.2 48.7,115.1 51.8,114.3 55.0,113.8 58.1,112.6 61.2,112.0 64.3,111.4 67.5,111.1 70.6,110.5 73.7,109.7 76.8,108.9 79.9,108.2 83.1,107.8 86.2,107.5 89.3,106.9 92.4,106.3 95.5,105.8 98.7,105.5 101.8,105.0 104.9,103.1 108.0,102.5 111.2,101.8 114.3,101.1 117.4,100.4 120.5,99.8 123.6,99.4 126.8,99.1 129.9,98.6 133.0,97.6 136.1,96.9 139.2,96.3 142.4,95.7 145.5,95.5 148.6,95.4 151.7,95.0 154.9,94.4 158.0,94.1 161.1,93.8 164.2,93.1 167.3,92.1 170.5,91.9 173.6,91.7 176.7,91.3 179.8,90.5 182.9,90.0 186.1,89.1 189.2,88.6 192.3,87.8 195.4,87.7 198.6,87.2 201.7,86.5 204.8,85.7 207.9,85.1 211.0,84.9 214.2,84.5 217.3,84.2 220.4,83.3 223.5,82.5 226.6,81.8 229.8,81.2 232.9,80.8 236.0,80.6 239.1,80.3 242.3,79.7 245.4,79.3 248.5,79.0 251.6,78.7 254.7,78.5 257.9,78.1 261.0,77.8 264.1,77.6 267.2,77.4 270.3,76.7 273.5,76.2 276.6,76.1 279.7,75.8 282.8,75.7 286.0,75.7 289.1,88.4 292.2,87.1 295.3,86.0 298.4,84.8 301.6,81.4 304.7,78.9 307.8,76.4 310.9,75.4 314.0,74.3 317.2,72.5 320.3,70.6 323.4,69.2 326.5,68.6 329.7,68.1 332.8,66.8 335.9,65.7 339.0,65.1 342.1,64.3 345.3,63.9 348.4,63.8 351.5,63.1 354.6,61.9 357.7,61.0 360.9,60.2 364.0,59.2 367.1,58.8 370.2,58.4 373.4,57.6 376.5,56.9 379.6,56.2 382.7,55.6 385.8,55.4 389.0,55.2 392.1,54.8 395.2,54.1 398.3,53.7 401.4,53.2 404.6,52.9 407.7,52.5 410.8,52.1 413.9,51.8 417.1,51.5 420.2,51.2 423.3,50.5 426.4,50.0 429.5,49.5 432.7,49.1 435.8,48.7 438.9,48.4 442.0,48.2 445.1,47.6 448.3,46.7 451.4,45.9 454.5,45.3 457.6,44.7 460.8,44.2 463.9,43.8 467.0,43.4 470.1,42.6 473.2,42.1 476.4,41.8 479.5,41.4 482.6,41.2 485.7,40.6 488.8,40.1 492.0,40.0 495.1,39.7 498.2,39.4 501.3,38.8 504.5,38.4 507.6,37.9 510.7,37.4 513.8,37.0 516.9,36.5 520.1,35.7 523.2,35.5 526.3,34.8 529.4,34.1 532.5,33.9 535.7,33.8 538.8,33.5 541.9,33.0 545.0,32.7 548.2,32.1 551.3,31.9 554.4,31.6 557.5,31.3 560.6,31.1 563.8,31.0 566.9,30.4 570.0,30.0" />
  
  <!-- Punto finale luminoso -->
  <circle cx="570.0" cy="30.0" r="4" fill="#ffffff" stroke="#0366d6" stroke-width="2.5" />
</svg>