<svg width="600" height="150" viewBox="0 0 600 150" xmlns="http://www.w3.org/2000/svg">
  <defs>
    <filter id="shadow2" x="-2%" y="-2%" width="104%" height="108%">
      <feDropShadow dx="0" dy="2" stdDeviation="3" flood-opacity="0.1" />
    </filter>
    <linearGradient id="fillGrad" x1="0" y1="0" x2="0" y2="1">
      <stop offset="0%" stop-color="#0366d6" stop-opacity="0.3"/>
      <stop offset="100%" stop-color="#0366d6" stop-opacity="0.02"/>
    </linearGradient>
  </defs>
  <rect width="600" height="150" rx="12" fill="#ffffff" filter="url(#shadow2)" stroke="#e1e4e8" stroke-width="1"/>
  <text x="20" y="24" fill="#2b3137" font-family="-apple-system,BlinkMacSystemFont,'Segoe UI',Helvetica,Arial,sans-serif" font-size="14" font-weight="600">📈 Download Growth (Actual: 77.2k)</text>
  
  <!-- Area sotto la linea -->
  <polygon fill="url(#fillGrad)" points="30.0,120.0,120 30.0,120.0 33.1,119.0 36.1,118.0 39.2,117.0 42.2,116.8 45.3,116.3 48.3,115.2 51.4,114.4 54.4,113.9 57.5,112.7 60.5,112.1 63.6,111.5 66.6,111.2 69.7,110.7 72.7,109.9 75.8,109.0 78.8,108.4 81.9,108.0 84.9,107.7 88.0,107.1 91.0,106.5 94.1,106.0 97.1,105.7 100.2,105.2 103.2,103.3 106.3,102.8 109.3,102.1 112.4,101.3 115.4,100.7 118.5,100.1 121.5,99.7 124.6,99.4 127.6,98.9 130.7,98.0 133.7,97.2 136.8,96.7 139.8,96.1 142.9,95.9 145.9,95.7 149.0,95.4 152.0,94.8 155.1,94.5 158.1,94.2 161.2,93.5 164.2,92.5 167.3,92.3 170.3,92.1 173.4,91.7 176.4,90.9 179.5,90.4 182.5,89.6 185.6,89.0 188.6,88.3 191.7,88.1 194.7,87.7 197.8,87.0 200.8,86.2 203.9,85.7 206.9,85.4 210.0,85.0 213.1,84.7 216.1,83.9 219.2,83.1 222.2,82.4 225.3,81.7 228.3,81.4 231.4,81.2 234.4,80.9 237.5,80.3 240.5,79.9 243.6,79.6 246.6,79.3 249.7,79.1 252.7,78.7 255.8,78.4 258.8,78.3 261.9,78.1 264.9,77.3 268.0,76.9 271.0,76.7 274.1,76.5 277.1,76.3 280.2,76.3 283.2,88.8 286.3,87.6 289.3,86.5 292.4,85.3 295.4,81.9 298.5,79.6 301.5,77.0 304.6,76.1 307.6,75.0 310.7,73.2 313.7,71.3 316.8,69.9 319.8,69.4 322.9,68.9 325.9,67.5 329.0,66.5 332.0,65.9 335.1,65.1 338.1,64.8 341.2,64.6 344.2,63.9 347.3,62.7 350.3,61.9 353.4,61.1 356.4,60.1 359.5,59.7 362.5,59.3 365.6,58.5 368.6,57.8 371.7,57.1 374.7,56.6 377.8,56.3 380.8,56.1 383.9,55.7 386.9,55.1 390.0,54.7 393.1,54.2 396.1,53.8 399.2,53.5 402.2,53.1 405.3,52.8 408.3,52.5 411.4,52.2 414.4,51.6 417.5,51.1 420.5,50.5 423.6,50.1 426.6,49.8 429.7,49.5 432.7,49.3 435.8,48.7 438.8,47.8 441.9,47.0 444.9,46.4 448.0,45.8 451.0,45.3 454.1,44.9 457.1,44.5 460.2,43.8 463.2,43.3 466.3,42.9 469.3,42.6 472.4,42.3 475.4,41.8 478.5,41.3 481.5,41.2 484.6,40.9 487.6,40.6 490.7,40.0 493.7,39.6 496.8,39.1 499.8,38.6 502.9,38.2 505.9,37.7 509.0,37.0 512.0,36.7 515.1,36.0 518.1,35.4 521.2,35.2 524.2,35.0 527.3,34.7 530.3,34.3 533.4,34.0 536.4,33.4 539.5,33.2 542.5,32.9 545.6,32.6 548.6,32.4 551.7,32.3 554.7,31.7 557.8,31.3 560.8,31.0 563.9,30.7 566.9,30.3 570.0,30.0 570.0,30.0,120" />
  
  <!-- Linea principale -->
  <polyline fill="none" stroke="#0366d6" stroke-width="2.5" stroke-linecap="round" stroke-linejoin="round" points="30.0,120.0 33.1,119.0 36.1,118.0 39.2,117.0 42.2,116.8 45.3,116.3 48.3,115.2 51.4,114.4 54.4,113.9 57.5,112.7 60.5,112.1 63.6,111.5 66.6,111.2 69.7,110.7 72.7,109.9 75.8,109.0 78.8,108.4 81.9,108.0 84.9,107.7 88.0,107.1 91.0,106.5 94.1,106.0 97.1,105.7 100.2,105.2 103.2,103.3 106.3,102.8 109.3,102.1 112.4,101.3 115.4,100.7 118.5,100.1 121.5,99.7 124.6,99.4 127.6,98.9 130.7,98.0 133.7,97.2 136.8,96.7 139.8,96.1 142.9,95.9 145.9,95.7 149.0,95.4 152.0,94.8 155.1,94.5 158.1,94.2 161.2,93.5 164.2,92.5 167.3,92.3 170.3,92.1 173.4,91.7 176.4,90.9 179.5,90.4 182.5,89.6 185.6,89.0 188.6,88.3 191.7,88.1 194.7,87.7 197.8,87.0 200.8,86.2 203.9,85.7 206.9,85.4 210.0,85.0 213.1,84.7 216.1,83.9 219.2,83.1 222.2,82.4 225.3,81.7 228.3,81.4 231.4,81.2 234.4,80.9 237.5,80.3 240.5,79.9 243.6,79.6 246.6,79.3 249.7,79.1 252.7,78.7 255.8,78.4 258.8,78.3 261.9,78.1 264.9,77.3 268.0,76.9 271.0,76.7 274.1,76.5 277.1,76.3 280.2,76.3 283.2,88.8 286.3,87.6 289.3,86.5 292.4,85.3 295.4,81.9 298.5,79.6 301.5,77.0 304.6,76.1 307.6,75.0 310.7,73.2 313.7,71.3 316.8,69.9 319.8,69.4 322.9,68.9 325.9,67.5 329.0,66.5 332.0,65.9 335.1,65.1 338.1,64.8 341.2,64.6 344.2,63.9 347.3,62.7 350.3,61.9 353.4,61.1 356.4,60.1 359.5,59.7 362.5,59.3 365.6,58.5 368.6,57.8 371.7,57.1 374.7,56.6 377.8,56.3 380.8,56.1 383.9,55.7 386.9,55.1 390.0,54.7 393.1,54.2 396.1,53.8 399.2,53.5 402.2,53.1 405.3,52.8 408.3,52.5 411.4,52.2 414.4,51.6 417.5,51.1 420.5,50.5 423.6,50.1 426.6,49.8 429.7,49.5 432.7,49.3 435.8,48.7 438.8,47.8 441.9,47.0 444.9,46.4 448.0,45.8 451.0,45.3 454.1,44.9 457.1,44.5 460.2,43.8 463.2,43.3 466.3,42.9 469.3,42.6 472.4,42.3 475.4,41.8 478.5,41.3 481.5,41.2 484.6,40.9 487.6,40.6 490.7,40.0 493.7,39.6 496.8,39.1 499.8,38.6 502.9,38.2 505.9,37.7 509.0,37.0 512.0,36.7 515.1,36.0 518.1,35.4 521.2,35.2 524.2,35.0 527.3,34.7 530.3,34.3 533.4,34.0 536.4,33.4 539.5,33.2 542.5,32.9 545.6,32.6 548.6,32.4 551.7,32.3 554.7,31.7 557.8,31.3 560.8,31.0 563.9,30.7 566.9,30.3 570.0,30.0" />
  
  <!-- Punto finale luminoso -->
  <circle cx="570.0" cy="30.0" r="4" fill="#ffffff" stroke="#0366d6" stroke-width="2.5" />
</svg>