<svg width="600" height="150" viewBox="0 0 600 150" xmlns="http://www.w3.org/2000/svg">
  <defs>
    <filter id="shadow2" x="-2%" y="-2%" width="104%" height="108%">
      <feDropShadow dx="0" dy="2" stdDeviation="3" flood-opacity="0.1" />
    </filter>
    <linearGradient id="fillGrad" x1="0" y1="0" x2="0" y2="1">
      <stop offset="0%" stop-color="#0366d6" stop-opacity="0.3"/>
      <stop offset="100%" stop-color="#0366d6" stop-opacity="0.02"/>
    </linearGradient>
  </defs>
  <rect width="600" height="150" rx="12" fill="#ffffff" filter="url(#shadow2)" stroke="#e1e4e8" stroke-width="1"/>
  <text x="20" y="24" fill="#2b3137" font-family="-apple-system,BlinkMacSystemFont,'Segoe UI',Helvetica,Arial,sans-serif" font-size="14" font-weight="600">📈 Download Growth (Actual: 76.9k)</text>
  
  <!-- Area sotto la linea -->
  <polygon fill="url(#fillGrad)" points="30.0,120.0,120 30.0,120.0 33.2,119.0 36.3,117.9 39.5,117.0 42.6,116.7 45.8,116.2 48.9,115.0 52.1,114.3 55.3,113.7 58.4,112.5 61.6,111.9 64.7,111.3 67.9,111.0 71.1,110.4 74.2,109.6 77.4,108.8 80.5,108.1 83.7,107.7 86.8,107.3 90.0,106.8 93.2,106.2 96.3,105.6 99.5,105.3 102.6,104.8 105.8,102.9 108.9,102.3 112.1,101.6 115.3,100.9 118.4,100.2 121.6,99.6 124.7,99.2 127.9,98.8 131.1,98.3 134.2,97.4 137.4,96.6 140.5,96.1 143.7,95.4 146.8,95.2 150.0,95.1 153.2,94.8 156.3,94.2 159.5,93.8 162.6,93.5 165.8,92.8 168.9,91.8 172.1,91.6 175.3,91.4 178.4,91.0 181.6,90.2 184.7,89.6 187.9,88.8 191.1,88.2 194.2,87.5 197.4,87.3 200.5,86.9 203.7,86.1 206.8,85.3 210.0,84.8 213.2,84.5 216.3,84.1 219.5,83.8 222.6,82.9 225.8,82.1 228.9,81.4 232.1,80.7 235.3,80.4 238.4,80.2 241.6,79.9 244.7,79.3 247.9,78.9 251.1,78.6 254.2,78.3 257.4,78.0 260.5,77.6 263.7,77.3 266.8,77.2 270.0,77.0 273.2,76.2 276.3,75.8 279.5,75.6 282.6,75.3 285.8,75.2 288.9,75.2 292.1,88.0 295.3,86.7 298.4,85.6 301.6,84.4 304.7,80.9 307.9,78.5 311.1,75.9 314.2,74.9 317.4,73.8 320.5,72.0 323.7,70.1 326.8,68.6 330.0,68.1 333.2,67.6 336.3,66.2 339.5,65.1 342.6,64.5 345.8,63.7 348.9,63.3 352.1,63.2 355.3,62.4 358.4,61.2 361.6,60.4 364.7,59.5 367.9,58.6 371.1,58.1 374.2,57.8 377.4,56.9 380.5,56.2 383.7,55.5 386.8,54.9 390.0,54.7 393.2,54.5 396.3,54.0 399.5,53.4 402.6,52.9 405.8,52.5 408.9,52.1 412.1,51.7 415.3,51.4 418.4,51.0 421.6,50.8 424.7,50.4 427.9,49.8 431.1,49.3 434.2,48.7 437.4,48.3 440.5,47.9 443.7,47.7 446.8,47.4 450.0,46.8 453.2,45.9 456.3,45.0 459.5,44.5 462.6,43.9 465.8,43.3 468.9,43.0 472.1,42.5 475.3,41.8 478.4,41.3 481.6,40.9 484.7,40.5 487.9,40.3 491.1,39.7 494.2,39.2 497.4,39.1 500.5,38.9 503.7,38.5 506.8,37.9 510.0,37.5 513.2,37.0 516.3,36.5 519.5,36.1 522.6,35.6 525.8,34.8 528.9,34.5 532.1,33.8 535.3,33.1 538.4,33.0 541.6,32.8 544.7,32.5 547.9,32.1 551.1,31.7 554.2,31.2 557.4,31.0 560.5,30.7 563.7,30.3 566.8,30.1 570.0,30.0 570.0,30.0,120" />
  
  <!-- Linea principale -->
  <polyline fill="none" stroke="#0366d6" stroke-width="2.5" stroke-linecap="round" stroke-linejoin="round" points="30.0,120.0 33.2,119.0 36.3,117.9 39.5,117.0 42.6,116.7 45.8,116.2 48.9,115.0 52.1,114.3 55.3,113.7 58.4,112.5 61.6,111.9 64.7,111.3 67.9,111.0 71.1,110.4 74.2,109.6 77.4,108.8 80.5,108.1 83.7,107.7 86.8,107.3 90.0,106.8 93.2,106.2 96.3,105.6 99.5,105.3 102.6,104.8 105.8,102.9 108.9,102.3 112.1,101.6 115.3,100.9 118.4,100.2 121.6,99.6 124.7,99.2 127.9,98.8 131.1,98.3 134.2,97.4 137.4,96.6 140.5,96.1 143.7,95.4 146.8,95.2 150.0,95.1 153.2,94.8 156.3,94.2 159.5,93.8 162.6,93.5 165.8,92.8 168.9,91.8 172.1,91.6 175.3,91.4 178.4,91.0 181.6,90.2 184.7,89.6 187.9,88.8 191.1,88.2 194.2,87.5 197.4,87.3 200.5,86.9 203.7,86.1 206.8,85.3 210.0,84.8 213.2,84.5 216.3,84.1 219.5,83.8 222.6,82.9 225.8,82.1 228.9,81.4 232.1,80.7 235.3,80.4 238.4,80.2 241.6,79.9 244.7,79.3 247.9,78.9 251.1,78.6 254.2,78.3 257.4,78.0 260.5,77.6 263.7,77.3 266.8,77.2 270.0,77.0 273.2,76.2 276.3,75.8 279.5,75.6 282.6,75.3 285.8,75.2 288.9,75.2 292.1,88.0 295.3,86.7 298.4,85.6 301.6,84.4 304.7,80.9 307.9,78.5 311.1,75.9 314.2,74.9 317.4,73.8 320.5,72.0 323.7,70.1 326.8,68.6 330.0,68.1 333.2,67.6 336.3,66.2 339.5,65.1 342.6,64.5 345.8,63.7 348.9,63.3 352.1,63.2 355.3,62.4 358.4,61.2 361.6,60.4 364.7,59.5 367.9,58.6 371.1,58.1 374.2,57.8 377.4,56.9 380.5,56.2 383.7,55.5 386.8,54.9 390.0,54.7 393.2,54.5 396.3,54.0 399.5,53.4 402.6,52.9 405.8,52.5 408.9,52.1 412.1,51.7 415.3,51.4 418.4,51.0 421.6,50.8 424.7,50.4 427.9,49.8 431.1,49.3 434.2,48.7 437.4,48.3 440.5,47.9 443.7,47.7 446.8,47.4 450.0,46.8 453.2,45.9 456.3,45.0 459.5,44.5 462.6,43.9 465.8,43.3 468.9,43.0 472.1,42.5 475.3,41.8 478.4,41.3 481.6,40.9 484.7,40.5 487.9,40.3 491.1,39.7 494.2,39.2 497.4,39.1 500.5,38.9 503.7,38.5 506.8,37.9 510.0,37.5 513.2,37.0 516.3,36.5 519.5,36.1 522.6,35.6 525.8,34.8 528.9,34.5 532.1,33.8 535.3,33.1 538.4,33.0 541.6,32.8 544.7,32.5 547.9,32.1 551.1,31.7 554.2,31.2 557.4,31.0 560.5,30.7 563.7,30.3 566.8,30.1 570.0,30.0" />
  
  <!-- Punto finale luminoso -->
  <circle cx="570.0" cy="30.0" r="4" fill="#ffffff" stroke="#0366d6" stroke-width="2.5" />
</svg>