<svg width="600" height="150" viewBox="0 0 600 150" xmlns="http://www.w3.org/2000/svg">
  <defs>
    <filter id="shadow2" x="-2%" y="-2%" width="104%" height="108%">
      <feDropShadow dx="0" dy="2" stdDeviation="3" flood-opacity="0.1" />
    </filter>
    <linearGradient id="fillGrad" x1="0" y1="0" x2="0" y2="1">
      <stop offset="0%" stop-color="#0366d6" stop-opacity="0.3"/>
      <stop offset="100%" stop-color="#0366d6" stop-opacity="0.02"/>
    </linearGradient>
  </defs>
  <rect width="600" height="150" rx="12" fill="#ffffff" filter="url(#shadow2)" stroke="#e1e4e8" stroke-width="1"/>
  <text x="20" y="24" fill="#2b3137" font-family="-apple-system,BlinkMacSystemFont,'Segoe UI',Helvetica,Arial,sans-serif" font-size="14" font-weight="600">📈 Download Growth (Actual: 75.5k)</text>
  
  <!-- Area sotto la linea -->
  <polygon fill="url(#fillGrad)" points="30.0,120.0,120 30.0,120.0 33.9,118.8 37.8,117.5 41.7,116.4 45.5,116.1 49.4,115.6 53.3,114.2 57.2,113.3 61.1,112.7 65.0,111.3 68.8,110.6 72.7,109.9 76.6,109.5 80.5,108.8 84.4,107.9 88.3,106.9 92.2,106.1 96.0,105.6 99.9,105.2 103.8,104.6 107.7,103.8 111.6,103.2 115.5,102.9 119.4,102.2 123.2,100.0 127.1,99.4 131.0,98.5 134.9,97.6 138.8,96.9 142.7,96.1 146.5,95.7 150.4,95.3 154.3,94.7 158.2,93.6 162.1,92.7 166.0,92.0 169.9,91.3 173.7,91.1 177.6,90.9 181.5,90.5 185.4,89.8 189.3,89.4 193.2,89.1 197.1,88.3 200.9,87.1 204.8,86.8 208.7,86.6 212.6,86.1 216.5,85.2 220.4,84.5 224.2,83.6 228.1,82.9 232.0,82.0 235.9,81.8 239.8,81.3 243.7,80.4 247.6,79.5 251.4,78.8 255.3,78.5 259.2,78.1 263.1,77.7 267.0,76.7 270.9,75.8 274.7,74.9 278.6,74.1 282.5,73.7 286.4,73.5 290.3,73.1 294.2,72.4 298.1,72.0 301.9,71.6 305.8,71.3 309.7,71.0 313.6,70.5 317.5,70.2 321.4,70.0 325.3,69.7 329.1,68.8 333.0,68.3 336.9,68.2 340.8,67.8 344.7,67.7 348.6,67.7 352.4,82.6 356.3,81.2 360.2,79.8 364.1,78.4 368.0,74.4 371.9,71.5 375.8,68.5 379.6,67.3 383.5,66.0 387.4,63.9 391.3,61.7 395.2,60.0 399.1,59.4 402.9,58.7 406.8,57.1 410.7,55.9 414.6,55.2 418.5,54.2 422.4,53.8 426.3,53.6 430.1,52.8 434.0,51.4 437.9,50.4 441.8,49.4 445.7,48.2 449.6,47.7 453.5,47.3 457.3,46.3 461.2,45.5 465.1,44.6 469.0,44.0 472.9,43.7 476.8,43.5 480.6,42.9 484.5,42.2 488.4,41.7 492.3,41.1 496.2,40.7 500.1,40.3 504.0,39.8 507.8,39.4 511.7,39.1 515.6,38.7 519.5,38.0 523.4,37.4 527.3,36.7 531.2,36.2 535.0,35.8 538.9,35.5 542.8,35.2 546.7,34.5 550.6,33.5 554.5,32.4 558.3,31.8 562.2,31.1 566.1,30.4 570.0,30.0 570.0,30.0,120" />
  
  <!-- Linea principale -->
  <polyline fill="none" stroke="#0366d6" stroke-width="2.5" stroke-linecap="round" stroke-linejoin="round" points="30.0,120.0 33.9,118.8 37.8,117.5 41.7,116.4 45.5,116.1 49.4,115.6 53.3,114.2 57.2,113.3 61.1,112.7 65.0,111.3 68.8,110.6 72.7,109.9 76.6,109.5 80.5,108.8 84.4,107.9 88.3,106.9 92.2,106.1 96.0,105.6 99.9,105.2 103.8,104.6 107.7,103.8 111.6,103.2 115.5,102.9 119.4,102.2 123.2,100.0 127.1,99.4 131.0,98.5 134.9,97.6 138.8,96.9 142.7,96.1 146.5,95.7 150.4,95.3 154.3,94.7 158.2,93.6 162.1,92.7 166.0,92.0 169.9,91.3 173.7,91.1 177.6,90.9 181.5,90.5 185.4,89.8 189.3,89.4 193.2,89.1 197.1,88.3 200.9,87.1 204.8,86.8 208.7,86.6 212.6,86.1 216.5,85.2 220.4,84.5 224.2,83.6 228.1,82.9 232.0,82.0 235.9,81.8 239.8,81.3 243.7,80.4 247.6,79.5 251.4,78.8 255.3,78.5 259.2,78.1 263.1,77.7 267.0,76.7 270.9,75.8 274.7,74.9 278.6,74.1 282.5,73.7 286.4,73.5 290.3,73.1 294.2,72.4 298.1,72.0 301.9,71.6 305.8,71.3 309.7,71.0 313.6,70.5 317.5,70.2 321.4,70.0 325.3,69.7 329.1,68.8 333.0,68.3 336.9,68.2 340.8,67.8 344.7,67.7 348.6,67.7 352.4,82.6 356.3,81.2 360.2,79.8 364.1,78.4 368.0,74.4 371.9,71.5 375.8,68.5 379.6,67.3 383.5,66.0 387.4,63.9 391.3,61.7 395.2,60.0 399.1,59.4 402.9,58.7 406.8,57.1 410.7,55.9 414.6,55.2 418.5,54.2 422.4,53.8 426.3,53.6 430.1,52.8 434.0,51.4 437.9,50.4 441.8,49.4 445.7,48.2 449.6,47.7 453.5,47.3 457.3,46.3 461.2,45.5 465.1,44.6 469.0,44.0 472.9,43.7 476.8,43.5 480.6,42.9 484.5,42.2 488.4,41.7 492.3,41.1 496.2,40.7 500.1,40.3 504.0,39.8 507.8,39.4 511.7,39.1 515.6,38.7 519.5,38.0 523.4,37.4 527.3,36.7 531.2,36.2 535.0,35.8 538.9,35.5 542.8,35.2 546.7,34.5 550.6,33.5 554.5,32.4 558.3,31.8 562.2,31.1 566.1,30.4 570.0,30.0" />
  
  <!-- Punto finale luminoso -->
  <circle cx="570.0" cy="30.0" r="4" fill="#ffffff" stroke="#0366d6" stroke-width="2.5" />
</svg>