<svg width="600" height="150" viewBox="0 0 600 150" xmlns="http://www.w3.org/2000/svg">
  <defs>
    <filter id="shadow2" x="-2%" y="-2%" width="104%" height="108%">
      <feDropShadow dx="0" dy="2" stdDeviation="3" flood-opacity="0.1" />
    </filter>
    <linearGradient id="fillGrad" x1="0" y1="0" x2="0" y2="1">
      <stop offset="0%" stop-color="#0366d6" stop-opacity="0.3"/>
      <stop offset="100%" stop-color="#0366d6" stop-opacity="0.02"/>
    </linearGradient>
  </defs>
  <rect width="600" height="150" rx="12" fill="#ffffff" filter="url(#shadow2)" stroke="#e1e4e8" stroke-width="1"/>
  <text x="20" y="24" fill="#2b3137" font-family="-apple-system,BlinkMacSystemFont,'Segoe UI',Helvetica,Arial,sans-serif" font-size="14" font-weight="600">📈 Download Growth (Actual: 76.1k)</text>
  
  <!-- Area sotto la linea -->
  <polygon fill="url(#fillGrad)" points="30.0,120.0,120 30.0,120.0 33.5,118.9 37.1,117.7 40.6,116.7 44.1,116.4 47.6,115.9 51.2,114.6 54.7,113.8 58.2,113.2 61.8,111.9 65.3,111.3 68.8,110.6 72.4,110.2 75.9,109.6 79.4,108.8 82.9,107.8 86.5,107.1 90.0,106.6 93.5,106.3 97.1,105.7 100.6,105.0 104.1,104.4 107.6,104.1 111.2,103.5 114.7,101.5 118.2,100.9 121.8,100.1 125.3,99.2 128.8,98.5 132.4,97.9 135.9,97.4 139.4,97.1 142.9,96.5 146.5,95.5 150.0,94.6 153.5,94.1 157.1,93.4 160.6,93.2 164.1,93.0 167.6,92.6 171.2,92.0 174.7,91.6 178.2,91.3 181.8,90.6 185.3,89.5 188.8,89.2 192.4,89.0 195.9,88.6 199.4,87.7 202.9,87.1 206.5,86.2 210.0,85.5 213.5,84.7 217.1,84.6 220.6,84.1 224.1,83.3 227.6,82.4 231.2,81.8 234.7,81.5 238.2,81.1 241.8,80.7 245.3,79.8 248.8,79.0 252.4,78.2 255.9,77.4 259.4,77.0 262.9,76.8 266.5,76.5 270.0,75.9 273.5,75.4 277.1,75.1 280.6,74.8 284.1,74.5 287.6,74.1 291.2,73.8 294.7,73.6 298.2,73.4 301.8,72.5 305.3,72.0 308.8,71.9 312.4,71.6 315.9,71.4 319.4,71.4 322.9,85.3 326.5,84.0 330.0,82.7 333.5,81.4 337.1,77.7 340.6,75.0 344.1,72.2 347.6,71.1 351.2,69.9 354.7,68.0 358.2,65.9 361.8,64.3 365.3,63.7 368.8,63.2 372.4,61.6 375.9,60.5 379.4,59.8 382.9,58.9 386.5,58.6 390.0,58.4 393.5,57.6 397.1,56.3 400.6,55.4 404.1,54.5 407.6,53.4 411.2,52.9 414.7,52.5 418.2,51.6 421.8,50.8 425.3,50.1 428.8,49.5 432.4,49.2 435.9,49.0 439.4,48.5 442.9,47.8 446.5,47.3 450.0,46.8 453.5,46.4 457.1,46.0 460.6,45.6 464.1,45.3 467.6,44.9 471.2,44.6 474.7,43.9 478.2,43.3 481.8,42.7 485.3,42.3 488.8,41.9 492.4,41.6 495.9,41.3 499.4,40.7 502.9,39.7 506.5,38.8 510.0,38.2 513.5,37.5 517.1,36.9 520.6,36.5 524.1,36.0 527.6,35.2 531.2,34.7 534.7,34.3 538.2,33.9 541.8,33.6 545.3,33.0 548.8,32.4 552.4,32.3 555.9,32.0 559.4,31.7 562.9,31.0 566.5,30.6 570.0,30.0 570.0,30.0,120" />
  
  <!-- Linea principale -->
  <polyline fill="none" stroke="#0366d6" stroke-width="2.5" stroke-linecap="round" stroke-linejoin="round" points="30.0,120.0 33.5,118.9 37.1,117.7 40.6,116.7 44.1,116.4 47.6,115.9 51.2,114.6 54.7,113.8 58.2,113.2 61.8,111.9 65.3,111.3 68.8,110.6 72.4,110.2 75.9,109.6 79.4,108.8 82.9,107.8 86.5,107.1 90.0,106.6 93.5,106.3 97.1,105.7 100.6,105.0 104.1,104.4 107.6,104.1 111.2,103.5 114.7,101.5 118.2,100.9 121.8,100.1 125.3,99.2 128.8,98.5 132.4,97.9 135.9,97.4 139.4,97.1 142.9,96.5 146.5,95.5 150.0,94.6 153.5,94.1 157.1,93.4 160.6,93.2 164.1,93.0 167.6,92.6 171.2,92.0 174.7,91.6 178.2,91.3 181.8,90.6 185.3,89.5 188.8,89.2 192.4,89.0 195.9,88.6 199.4,87.7 202.9,87.1 206.5,86.2 210.0,85.5 213.5,84.7 217.1,84.6 220.6,84.1 224.1,83.3 227.6,82.4 231.2,81.8 234.7,81.5 238.2,81.1 241.8,80.7 245.3,79.8 248.8,79.0 252.4,78.2 255.9,77.4 259.4,77.0 262.9,76.8 266.5,76.5 270.0,75.9 273.5,75.4 277.1,75.1 280.6,74.8 284.1,74.5 287.6,74.1 291.2,73.8 294.7,73.6 298.2,73.4 301.8,72.5 305.3,72.0 308.8,71.9 312.4,71.6 315.9,71.4 319.4,71.4 322.9,85.3 326.5,84.0 330.0,82.7 333.5,81.4 337.1,77.7 340.6,75.0 344.1,72.2 347.6,71.1 351.2,69.9 354.7,68.0 358.2,65.9 361.8,64.3 365.3,63.7 368.8,63.2 372.4,61.6 375.9,60.5 379.4,59.8 382.9,58.9 386.5,58.6 390.0,58.4 393.5,57.6 397.1,56.3 400.6,55.4 404.1,54.5 407.6,53.4 411.2,52.9 414.7,52.5 418.2,51.6 421.8,50.8 425.3,50.1 428.8,49.5 432.4,49.2 435.9,49.0 439.4,48.5 442.9,47.8 446.5,47.3 450.0,46.8 453.5,46.4 457.1,46.0 460.6,45.6 464.1,45.3 467.6,44.9 471.2,44.6 474.7,43.9 478.2,43.3 481.8,42.7 485.3,42.3 488.8,41.9 492.4,41.6 495.9,41.3 499.4,40.7 502.9,39.7 506.5,38.8 510.0,38.2 513.5,37.5 517.1,36.9 520.6,36.5 524.1,36.0 527.6,35.2 531.2,34.7 534.7,34.3 538.2,33.9 541.8,33.6 545.3,33.0 548.8,32.4 552.4,32.3 555.9,32.0 559.4,31.7 562.9,31.0 566.5,30.6 570.0,30.0" />
  
  <!-- Punto finale luminoso -->
  <circle cx="570.0" cy="30.0" r="4" fill="#ffffff" stroke="#0366d6" stroke-width="2.5" />
</svg>