<svg width="600" height="150" viewBox="0 0 600 150" xmlns="http://www.w3.org/2000/svg">
  <defs>
    <filter id="shadow2" x="-2%" y="-2%" width="104%" height="108%">
      <feDropShadow dx="0" dy="2" stdDeviation="3" flood-opacity="0.1" />
    </filter>
    <linearGradient id="fillGrad" x1="0" y1="0" x2="0" y2="1">
      <stop offset="0%" stop-color="#0366d6" stop-opacity="0.3"/>
      <stop offset="100%" stop-color="#0366d6" stop-opacity="0.02"/>
    </linearGradient>
  </defs>
  <rect width="600" height="150" rx="12" fill="#ffffff" filter="url(#shadow2)" stroke="#e1e4e8" stroke-width="1"/>
  <text x="20" y="24" fill="#2b3137" font-family="-apple-system,BlinkMacSystemFont,'Segoe UI',Helvetica,Arial,sans-serif" font-size="14" font-weight="600">📈 Download Growth (Actual: 76.2k)</text>
  
  <!-- Area sotto la linea -->
  <polygon fill="url(#fillGrad)" points="30.0,120.0,120 30.0,120.0 33.5,118.9 37.0,117.7 40.5,116.7 44.0,116.4 47.5,115.9 51.0,114.6 54.5,113.8 58.1,113.2 61.6,111.9 65.1,111.3 68.6,110.7 72.1,110.3 75.6,109.7 79.1,108.8 82.6,107.9 86.1,107.2 89.6,106.7 93.1,106.4 96.6,105.8 100.1,105.1 103.6,104.5 107.1,104.2 110.6,103.6 114.2,101.6 117.7,101.0 121.2,100.2 124.7,99.4 128.2,98.7 131.7,98.0 135.2,97.5 138.7,97.2 142.2,96.6 145.7,95.6 149.2,94.8 152.7,94.2 156.2,93.5 159.7,93.3 163.2,93.1 166.8,92.8 170.3,92.1 173.8,91.8 177.3,91.5 180.8,90.7 184.3,89.6 187.8,89.4 191.3,89.2 194.8,88.7 198.3,87.9 201.8,87.3 205.3,86.4 208.8,85.7 212.3,84.9 215.8,84.8 219.4,84.3 222.9,83.5 226.4,82.6 229.9,82.0 233.4,81.7 236.9,81.3 240.4,81.0 243.9,80.0 247.4,79.2 250.9,78.4 254.4,77.7 257.9,77.3 261.4,77.0 264.9,76.7 268.4,76.1 271.9,75.7 275.5,75.3 279.0,75.0 282.5,74.7 286.0,74.3 289.5,74.0 293.0,73.8 296.5,73.6 300.0,72.8 303.5,72.3 307.0,72.2 310.5,71.9 314.0,71.7 317.5,71.7 321.0,85.5 324.5,84.2 328.1,82.9 331.6,81.7 335.1,77.9 338.6,75.3 342.1,72.4 345.6,71.4 349.1,70.2 352.6,68.3 356.1,66.2 359.6,64.6 363.1,64.0 366.6,63.5 370.1,62.0 373.6,60.9 377.1,60.2 380.6,59.3 384.2,58.9 387.7,58.7 391.2,57.9 394.7,56.7 398.2,55.7 401.7,54.8 405.2,53.8 408.7,53.3 412.2,52.9 415.7,52.0 419.2,51.2 422.7,50.5 426.2,49.8 429.7,49.6 433.2,49.4 436.8,48.9 440.3,48.2 443.8,47.7 447.3,47.2 450.8,46.8 454.3,46.4 457.8,46.0 461.3,45.7 464.8,45.4 468.3,45.0 471.8,44.3 475.3,43.8 478.8,43.1 482.3,42.7 485.8,42.3 489.4,42.0 492.9,41.8 496.4,41.1 499.9,40.2 503.4,39.2 506.9,38.6 510.4,37.9 513.9,37.3 517.4,37.0 520.9,36.5 524.4,35.7 527.9,35.1 531.4,34.8 534.9,34.3 538.4,34.1 541.9,33.5 545.5,32.9 549.0,32.8 552.5,32.5 556.0,32.2 559.5,31.5 563.0,31.1 566.5,30.5 570.0,30.0 570.0,30.0,120" />
  
  <!-- Linea principale -->
  <polyline fill="none" stroke="#0366d6" stroke-width="2.5" stroke-linecap="round" stroke-linejoin="round" points="30.0,120.0 33.5,118.9 37.0,117.7 40.5,116.7 44.0,116.4 47.5,115.9 51.0,114.6 54.5,113.8 58.1,113.2 61.6,111.9 65.1,111.3 68.6,110.7 72.1,110.3 75.6,109.7 79.1,108.8 82.6,107.9 86.1,107.2 89.6,106.7 93.1,106.4 96.6,105.8 100.1,105.1 103.6,104.5 107.1,104.2 110.6,103.6 114.2,101.6 117.7,101.0 121.2,100.2 124.7,99.4 128.2,98.7 131.7,98.0 135.2,97.5 138.7,97.2 142.2,96.6 145.7,95.6 149.2,94.8 152.7,94.2 156.2,93.5 159.7,93.3 163.2,93.1 166.8,92.8 170.3,92.1 173.8,91.8 177.3,91.5 180.8,90.7 184.3,89.6 187.8,89.4 191.3,89.2 194.8,88.7 198.3,87.9 201.8,87.3 205.3,86.4 208.8,85.7 212.3,84.9 215.8,84.8 219.4,84.3 222.9,83.5 226.4,82.6 229.9,82.0 233.4,81.7 236.9,81.3 240.4,81.0 243.9,80.0 247.4,79.2 250.9,78.4 254.4,77.7 257.9,77.3 261.4,77.0 264.9,76.7 268.4,76.1 271.9,75.7 275.5,75.3 279.0,75.0 282.5,74.7 286.0,74.3 289.5,74.0 293.0,73.8 296.5,73.6 300.0,72.8 303.5,72.3 307.0,72.2 310.5,71.9 314.0,71.7 317.5,71.7 321.0,85.5 324.5,84.2 328.1,82.9 331.6,81.7 335.1,77.9 338.6,75.3 342.1,72.4 345.6,71.4 349.1,70.2 352.6,68.3 356.1,66.2 359.6,64.6 363.1,64.0 366.6,63.5 370.1,62.0 373.6,60.9 377.1,60.2 380.6,59.3 384.2,58.9 387.7,58.7 391.2,57.9 394.7,56.7 398.2,55.7 401.7,54.8 405.2,53.8 408.7,53.3 412.2,52.9 415.7,52.0 419.2,51.2 422.7,50.5 426.2,49.8 429.7,49.6 433.2,49.4 436.8,48.9 440.3,48.2 443.8,47.7 447.3,47.2 450.8,46.8 454.3,46.4 457.8,46.0 461.3,45.7 464.8,45.4 468.3,45.0 471.8,44.3 475.3,43.8 478.8,43.1 482.3,42.7 485.8,42.3 489.4,42.0 492.9,41.8 496.4,41.1 499.9,40.2 503.4,39.2 506.9,38.6 510.4,37.9 513.9,37.3 517.4,37.0 520.9,36.5 524.4,35.7 527.9,35.1 531.4,34.8 534.9,34.3 538.4,34.1 541.9,33.5 545.5,32.9 549.0,32.8 552.5,32.5 556.0,32.2 559.5,31.5 563.0,31.1 566.5,30.5 570.0,30.0" />
  
  <!-- Punto finale luminoso -->
  <circle cx="570.0" cy="30.0" r="4" fill="#ffffff" stroke="#0366d6" stroke-width="2.5" />
</svg>