<svg width="600" height="150" viewBox="0 0 600 150" xmlns="http://www.w3.org/2000/svg">
  <defs>
    <filter id="shadow2" x="-2%" y="-2%" width="104%" height="108%">
      <feDropShadow dx="0" dy="2" stdDeviation="3" flood-opacity="0.1" />
    </filter>
    <linearGradient id="fillGrad" x1="0" y1="0" x2="0" y2="1">
      <stop offset="0%" stop-color="#0366d6" stop-opacity="0.3"/>
      <stop offset="100%" stop-color="#0366d6" stop-opacity="0.02"/>
    </linearGradient>
  </defs>
  <rect width="600" height="150" rx="12" fill="#ffffff" filter="url(#shadow2)" stroke="#e1e4e8" stroke-width="1"/>
  <text x="20" y="24" fill="#2b3137" font-family="-apple-system,BlinkMacSystemFont,'Segoe UI',Helvetica,Arial,sans-serif" font-size="14" font-weight="600">📈 Download Growth (Actual: 95.8k)</text>
  
  <!-- Area sotto la linea -->
  <polygon fill="url(#fillGrad)" points="30.0,120.0,120 30.0,120.0 30.9,119.7 31.8,119.3 32.6,118.9 33.5,118.9 34.4,118.7 35.3,118.3 36.2,118.0 37.1,117.8 37.9,117.4 38.8,117.2 39.7,117.0 40.6,116.9 41.5,116.7 42.4,116.4 43.2,116.1 44.1,115.9 45.0,115.7 45.9,115.6 46.8,115.4 47.6,115.2 48.5,115.0 49.4,114.9 50.3,114.7 51.2,114.1 52.1,113.9 52.9,113.6 53.8,113.4 54.7,113.1 55.6,112.9 56.5,112.8 57.4,112.7 58.2,112.5 59.1,112.2 60.0,111.9 60.9,111.7 61.8,111.5 62.6,111.4 63.5,111.4 64.4,111.3 65.3,111.0 66.2,110.9 67.1,110.8 67.9,110.6 68.8,110.2 69.7,110.1 70.6,110.1 71.5,109.9 72.4,109.7 73.2,109.5 74.1,109.2 75.0,109.0 75.9,108.7 76.8,108.7 77.6,108.5 78.5,108.3 79.4,108.0 80.3,107.8 81.2,107.7 82.1,107.6 82.9,107.4 83.8,107.1 84.7,106.9 85.6,106.6 86.5,106.4 87.4,106.3 88.2,106.2 89.1,106.1 90.0,105.9 90.9,105.7 91.8,105.6 92.6,105.5 93.5,105.4 94.4,105.3 95.3,105.2 96.2,105.1 97.1,105.1 97.9,104.8 98.8,104.7 99.7,104.6 100.6,104.5 101.5,104.5 102.4,104.5 103.2,108.9 104.1,108.5 105.0,108.1 105.9,107.7 106.8,106.5 107.6,105.6 108.5,104.7 109.4,104.4 110.3,104.0 111.2,103.4 112.1,102.7 112.9,102.2 113.8,102.0 114.7,101.8 115.6,101.3 116.5,101.0 117.4,100.8 118.2,100.5 119.1,100.4 120.0,100.3 120.9,100.0 121.8,99.6 122.6,99.3 123.5,99.0 124.4,98.7 125.3,98.5 126.2,98.4 127.1,98.1 127.9,97.9 128.8,97.6 129.7,97.4 130.6,97.3 131.5,97.3 132.4,97.1 133.2,96.9 134.1,96.8 135.0,96.6 135.9,96.5 136.8,96.3 137.6,96.2 138.5,96.1 139.4,96.0 140.3,95.9 141.2,95.7 142.1,95.5 142.9,95.3 143.8,95.2 144.7,95.0 145.6,94.9 146.5,94.8 147.4,94.7 148.2,94.4 149.1,94.2 150.0,93.9 150.9,93.8 151.8,93.8 152.6,93.7 153.5,93.5 154.4,93.4 155.3,93.2 156.2,93.0 157.1,92.9 157.9,92.8 158.8,92.7 159.7,92.6 160.6,92.5 161.5,92.4 162.4,92.3 163.2,92.1 164.1,92.0 165.0,92.0 165.9,91.9 166.8,91.8 167.6,91.6 168.5,91.5 169.4,91.4 170.3,91.2 171.2,91.1 172.1,91.0 172.9,90.9 173.8,90.8 174.7,90.6 175.6,90.4 176.5,90.3 177.4,90.2 178.2,89.9 179.1,89.9 180.0,89.8 180.9,89.7 181.8,89.6 182.6,89.5 183.5,89.4 184.4,89.3 185.3,89.1 186.2,89.0 187.1,88.9 187.9,88.9 188.8,88.8 189.7,88.7 190.6,88.5 191.5,88.4 192.4,88.3 193.2,88.2 194.1,88.1 195.0,88.0 195.9,87.9 196.8,87.9 197.6,87.8 198.5,87.6 199.4,87.4 200.3,87.2 201.2,87.1 202.1,87.1 202.9,87.0 203.8,86.9 204.7,86.7 205.6,86.6 206.5,86.6 207.4,86.4 208.2,86.3 209.1,86.2 210.0,86.1 210.9,86.1 211.8,85.9 212.6,85.8 213.5,85.6 214.4,85.5 215.3,85.4 216.2,85.4 217.1,85.4 217.9,85.3 218.8,85.2 219.7,85.0 220.6,84.9 221.5,84.8 222.4,84.7 223.2,84.7 224.1,84.6 225.0,84.5 225.9,84.3 226.8,84.2 227.6,84.1 228.5,84.0 229.4,83.9 230.3,83.8 231.2,83.8 232.1,83.7 232.9,83.6 233.8,83.5 234.7,83.4 235.6,83.3 236.5,83.2 237.4,83.1 238.2,83.0 239.1,82.9 240.0,82.8 240.9,82.7 241.8,82.7 242.6,82.6 243.5,82.4 244.4,82.3 245.3,82.2 246.2,82.2 247.1,82.1 247.9,82.0 248.8,82.0 249.7,81.9 250.6,81.8 251.5,81.8 252.4,81.7 253.2,81.5 254.1,81.3 255.0,84.2 255.9,83.7 256.8,82.6 257.6,82.1 258.5,81.6 259.4,81.0 260.3,80.7 261.2,80.4 262.1,80.0 262.9,79.4 263.8,78.9 264.7,78.8 265.6,78.5 266.5,78.4 267.4,78.0 268.2,77.7 269.1,77.4 270.0,77.2 270.9,76.9 271.8,76.7 272.6,76.5 273.5,76.4 274.4,76.2 275.3,76.0 276.2,75.7 277.1,75.5 277.9,75.2 278.8,74.8 279.7,74.6 280.6,74.4 281.5,74.3 282.4,74.2 283.2,73.9 284.1,73.7 285.0,73.5 285.9,72.9 286.8,72.4 287.6,72.2 288.5,72.1 289.4,71.9 290.3,71.6 291.2,71.3 292.1,71.1 292.9,70.9 293.8,70.7 294.7,70.5 295.6,70.3 296.5,70.1 297.4,69.9 298.2,69.8 299.1,69.7 300.0,69.4 300.9,69.2 301.8,69.1 302.6,69.0 303.5,68.9 304.4,68.7 305.3,68.6 306.2,68.4 307.1,68.3 307.9,68.2 308.8,68.1 309.7,67.9 310.6,67.8 311.5,67.6 312.4,67.3 313.2,67.1 314.1,67.0 315.0,66.9 315.9,66.8 316.8,66.7 317.6,66.5 318.5,66.4 319.4,66.4 320.3,66.3 321.2,66.1 322.1,66.0 322.9,65.8 323.8,65.8 324.7,65.6 325.6,65.5 326.5,65.3 327.4,65.0 328.2,64.9 329.1,64.5 330.0,64.4 330.9,64.3 331.8,64.1 332.6,64.0 333.5,63.9 334.4,63.8 335.3,63.6 336.2,63.4 337.1,63.1 337.9,62.8 338.8,62.7 339.7,62.6 340.6,62.3 341.5,62.1 342.4,62.0 343.2,61.7 344.1,61.7 345.0,61.5 345.9,61.4 346.8,61.3 347.6,61.2 348.5,61.0 349.4,60.9 350.3,60.8 351.2,60.7 352.1,60.6 352.9,60.5 353.8,60.4 354.7,60.2 355.6,60.1 356.5,60.1 357.4,59.9 358.2,59.7 359.1,59.6 360.0,59.5 360.9,59.3 361.8,59.2 362.6,59.1 363.5,58.9 364.4,58.8 365.3,58.8 366.2,58.6 367.1,58.6 367.9,58.4 368.8,58.2 369.7,58.0 370.6,57.8 371.5,57.8 372.4,57.6 373.2,57.4 374.1,57.3 375.0,57.1 375.9,56.8 376.8,56.6 377.6,56.5 378.5,56.4 379.4,56.2 380.3,56.0 381.2,55.9 382.1,55.7 382.9,55.4 383.8,55.4 384.7,55.3 385.6,55.2 386.5,54.9 387.4,54.8 388.2,54.7 389.1,54.5 390.0,54.3 390.9,54.2 391.8,54.1 392.6,54.0 393.5,53.9 394.4,53.8 395.3,53.7 396.2,53.6 397.1,53.5 397.9,53.3 398.8,53.2 399.7,53.2 400.6,53.1 401.5,52.9 402.4,52.8 403.2,52.7 404.1,52.7 405.0,52.6 405.9,62.0 406.8,60.9 407.6,60.2 408.5,59.7 409.4,59.2 410.3,58.6 411.2,58.1 412.1,57.3 412.9,56.6 413.8,56.3 414.7,55.9 415.6,55.5 416.5,55.2 417.4,55.1 418.2,54.7 419.1,54.3 420.0,53.9 420.9,53.5 421.8,53.2 422.6,53.0 423.5,52.8 424.4,52.7 425.3,52.4 426.2,52.2 427.1,52.0 427.9,52.0 428.8,52.0 429.7,52.0 430.6,51.8 431.5,51.7 432.4,51.5 433.2,51.2 434.1,51.0 435.0,50.7 435.9,50.5 436.8,50.3 437.6,50.1 438.5,50.0 439.4,49.9 440.3,49.7 441.2,49.4 442.1,49.1 442.9,48.9 443.8,48.7 444.7,48.6 445.6,48.5 446.5,48.3 447.4,48.1 448.2,47.9 449.1,47.7 450.0,47.5 450.9,47.4 451.8,47.2 452.6,47.1 453.5,47.0 454.4,46.8 455.3,46.6 456.2,46.3 457.1,46.2 457.9,46.1 458.8,45.9 459.7,45.8 460.6,45.7 461.5,45.5 462.4,45.4 463.2,45.2 464.1,45.0 465.0,44.9 465.9,44.8 466.8,44.6 467.6,44.6 468.5,44.5 469.4,44.3 470.3,44.2 471.2,44.1 472.1,44.1 472.9,43.9 473.8,43.8 474.7,43.8 475.6,43.7 476.5,43.6 477.4,43.5 478.2,43.4 479.1,43.2 480.0,43.0 480.9,42.9 481.8,42.8 482.6,42.7 483.5,42.6 484.4,42.4 485.3,42.3 486.2,42.1 487.1,41.8 487.9,41.7 488.8,41.7 489.7,41.6 490.6,41.5 491.5,41.4 492.4,41.2 493.2,41.0 494.1,40.5 495.0,40.3 495.9,40.2 496.8,40.2 497.6,40.1 498.5,40.0 499.4,39.9 500.3,39.8 501.2,39.7 502.1,39.6 502.9,39.6 503.8,39.5 504.7,39.4 505.6,39.4 506.5,39.4 507.4,39.3 508.2,39.2 509.1,39.2 510.0,39.1 510.9,39.1 511.8,39.0 512.6,38.9 513.5,38.8 514.4,38.7 515.3,38.6 516.2,38.5 517.1,38.5 517.9,38.4 518.8,38.3 519.7,38.3 520.6,38.2 521.5,38.1 522.4,38.0 523.2,37.9 524.1,37.8 525.0,37.8 525.9,37.7 526.8,37.6 527.6,37.6 528.5,37.5 529.4,37.5 530.3,37.4 531.2,37.3 532.1,37.2 532.9,37.2 533.8,37.1 534.7,37.1 535.6,37.0 536.5,37.0 537.4,37.0 538.2,36.9 539.1,36.8 540.0,36.7 540.9,36.6 541.8,36.6 542.6,39.3 543.5,38.3 544.4,37.6 545.3,37.0 546.2,36.6 547.1,36.2 547.9,35.6 548.8,35.2 549.7,34.8 550.6,34.5 551.5,34.2 552.4,34.0 553.2,33.7 554.1,33.5 555.0,33.3 555.9,33.2 556.8,32.9 557.6,32.7 558.5,32.4 559.4,32.2 560.3,32.0 561.2,31.8 562.1,31.7 562.9,31.4 563.8,31.2 564.7,31.1 565.6,31.0 566.5,30.9 567.4,30.6 568.2,30.5 569.1,30.2 570.0,30.0 570.0,30.0,120" />
  
  <!-- Linea principale -->
  <polyline fill="none" stroke="#0366d6" stroke-width="2.5" stroke-linecap="round" stroke-linejoin="round" points="30.0,120.0 30.9,119.7 31.8,119.3 32.6,118.9 33.5,118.9 34.4,118.7 35.3,118.3 36.2,118.0 37.1,117.8 37.9,117.4 38.8,117.2 39.7,117.0 40.6,116.9 41.5,116.7 42.4,116.4 43.2,116.1 44.1,115.9 45.0,115.7 45.9,115.6 46.8,115.4 47.6,115.2 48.5,115.0 49.4,114.9 50.3,114.7 51.2,114.1 52.1,113.9 52.9,113.6 53.8,113.4 54.7,113.1 55.6,112.9 56.5,112.8 57.4,112.7 58.2,112.5 59.1,112.2 60.0,111.9 60.9,111.7 61.8,111.5 62.6,111.4 63.5,111.4 64.4,111.3 65.3,111.0 66.2,110.9 67.1,110.8 67.9,110.6 68.8,110.2 69.7,110.1 70.6,110.1 71.5,109.9 72.4,109.7 73.2,109.5 74.1,109.2 75.0,109.0 75.9,108.7 76.8,108.7 77.6,108.5 78.5,108.3 79.4,108.0 80.3,107.8 81.2,107.7 82.1,107.6 82.9,107.4 83.8,107.1 84.7,106.9 85.6,106.6 86.5,106.4 87.4,106.3 88.2,106.2 89.1,106.1 90.0,105.9 90.9,105.7 91.8,105.6 92.6,105.5 93.5,105.4 94.4,105.3 95.3,105.2 96.2,105.1 97.1,105.1 97.9,104.8 98.8,104.7 99.7,104.6 100.6,104.5 101.5,104.5 102.4,104.5 103.2,108.9 104.1,108.5 105.0,108.1 105.9,107.7 106.8,106.5 107.6,105.6 108.5,104.7 109.4,104.4 110.3,104.0 111.2,103.4 112.1,102.7 112.9,102.2 113.8,102.0 114.7,101.8 115.6,101.3 116.5,101.0 117.4,100.8 118.2,100.5 119.1,100.4 120.0,100.3 120.9,100.0 121.8,99.6 122.6,99.3 123.5,99.0 124.4,98.7 125.3,98.5 126.2,98.4 127.1,98.1 127.9,97.9 128.8,97.6 129.7,97.4 130.6,97.3 131.5,97.3 132.4,97.1 133.2,96.9 134.1,96.8 135.0,96.6 135.9,96.5 136.8,96.3 137.6,96.2 138.5,96.1 139.4,96.0 140.3,95.9 141.2,95.7 142.1,95.5 142.9,95.3 143.8,95.2 144.7,95.0 145.6,94.9 146.5,94.8 147.4,94.7 148.2,94.4 149.1,94.2 150.0,93.9 150.9,93.8 151.8,93.8 152.6,93.7 153.5,93.5 154.4,93.4 155.3,93.2 156.2,93.0 157.1,92.9 157.9,92.8 158.8,92.7 159.7,92.6 160.6,92.5 161.5,92.4 162.4,92.3 163.2,92.1 164.1,92.0 165.0,92.0 165.9,91.9 166.8,91.8 167.6,91.6 168.5,91.5 169.4,91.4 170.3,91.2 171.2,91.1 172.1,91.0 172.9,90.9 173.8,90.8 174.7,90.6 175.6,90.4 176.5,90.3 177.4,90.2 178.2,89.9 179.1,89.9 180.0,89.8 180.9,89.7 181.8,89.6 182.6,89.5 183.5,89.4 184.4,89.3 185.3,89.1 186.2,89.0 187.1,88.9 187.9,88.9 188.8,88.8 189.7,88.7 190.6,88.5 191.5,88.4 192.4,88.3 193.2,88.2 194.1,88.1 195.0,88.0 195.9,87.9 196.8,87.9 197.6,87.8 198.5,87.6 199.4,87.4 200.3,87.2 201.2,87.1 202.1,87.1 202.9,87.0 203.8,86.9 204.7,86.7 205.6,86.6 206.5,86.6 207.4,86.4 208.2,86.3 209.1,86.2 210.0,86.1 210.9,86.1 211.8,85.9 212.6,85.8 213.5,85.6 214.4,85.5 215.3,85.4 216.2,85.4 217.1,85.4 217.9,85.3 218.8,85.2 219.7,85.0 220.6,84.9 221.5,84.8 222.4,84.7 223.2,84.7 224.1,84.6 225.0,84.5 225.9,84.3 226.8,84.2 227.6,84.1 228.5,84.0 229.4,83.9 230.3,83.8 231.2,83.8 232.1,83.7 232.9,83.6 233.8,83.5 234.7,83.4 235.6,83.3 236.5,83.2 237.4,83.1 238.2,83.0 239.1,82.9 240.0,82.8 240.9,82.7 241.8,82.7 242.6,82.6 243.5,82.4 244.4,82.3 245.3,82.2 246.2,82.2 247.1,82.1 247.9,82.0 248.8,82.0 249.7,81.9 250.6,81.8 251.5,81.8 252.4,81.7 253.2,81.5 254.1,81.3 255.0,84.2 255.9,83.7 256.8,82.6 257.6,82.1 258.5,81.6 259.4,81.0 260.3,80.7 261.2,80.4 262.1,80.0 262.9,79.4 263.8,78.9 264.7,78.8 265.6,78.5 266.5,78.4 267.4,78.0 268.2,77.7 269.1,77.4 270.0,77.2 270.9,76.9 271.8,76.7 272.6,76.5 273.5,76.4 274.4,76.2 275.3,76.0 276.2,75.7 277.1,75.5 277.9,75.2 278.8,74.8 279.7,74.6 280.6,74.4 281.5,74.3 282.4,74.2 283.2,73.9 284.1,73.7 285.0,73.5 285.9,72.9 286.8,72.4 287.6,72.2 288.5,72.1 289.4,71.9 290.3,71.6 291.2,71.3 292.1,71.1 292.9,70.9 293.8,70.7 294.7,70.5 295.6,70.3 296.5,70.1 297.4,69.9 298.2,69.8 299.1,69.7 300.0,69.4 300.9,69.2 301.8,69.1 302.6,69.0 303.5,68.9 304.4,68.7 305.3,68.6 306.2,68.4 307.1,68.3 307.9,68.2 308.8,68.1 309.7,67.9 310.6,67.8 311.5,67.6 312.4,67.3 313.2,67.1 314.1,67.0 315.0,66.9 315.9,66.8 316.8,66.7 317.6,66.5 318.5,66.4 319.4,66.4 320.3,66.3 321.2,66.1 322.1,66.0 322.9,65.8 323.8,65.8 324.7,65.6 325.6,65.5 326.5,65.3 327.4,65.0 328.2,64.9 329.1,64.5 330.0,64.4 330.9,64.3 331.8,64.1 332.6,64.0 333.5,63.9 334.4,63.8 335.3,63.6 336.2,63.4 337.1,63.1 337.9,62.8 338.8,62.7 339.7,62.6 340.6,62.3 341.5,62.1 342.4,62.0 343.2,61.7 344.1,61.7 345.0,61.5 345.9,61.4 346.8,61.3 347.6,61.2 348.5,61.0 349.4,60.9 350.3,60.8 351.2,60.7 352.1,60.6 352.9,60.5 353.8,60.4 354.7,60.2 355.6,60.1 356.5,60.1 357.4,59.9 358.2,59.7 359.1,59.6 360.0,59.5 360.9,59.3 361.8,59.2 362.6,59.1 363.5,58.9 364.4,58.8 365.3,58.8 366.2,58.6 367.1,58.6 367.9,58.4 368.8,58.2 369.7,58.0 370.6,57.8 371.5,57.8 372.4,57.6 373.2,57.4 374.1,57.3 375.0,57.1 375.9,56.8 376.8,56.6 377.6,56.5 378.5,56.4 379.4,56.2 380.3,56.0 381.2,55.9 382.1,55.7 382.9,55.4 383.8,55.4 384.7,55.3 385.6,55.2 386.5,54.9 387.4,54.8 388.2,54.7 389.1,54.5 390.0,54.3 390.9,54.2 391.8,54.1 392.6,54.0 393.5,53.9 394.4,53.8 395.3,53.7 396.2,53.6 397.1,53.5 397.9,53.3 398.8,53.2 399.7,53.2 400.6,53.1 401.5,52.9 402.4,52.8 403.2,52.7 404.1,52.7 405.0,52.6 405.9,62.0 406.8,60.9 407.6,60.2 408.5,59.7 409.4,59.2 410.3,58.6 411.2,58.1 412.1,57.3 412.9,56.6 413.8,56.3 414.7,55.9 415.6,55.5 416.5,55.2 417.4,55.1 418.2,54.7 419.1,54.3 420.0,53.9 420.9,53.5 421.8,53.2 422.6,53.0 423.5,52.8 424.4,52.7 425.3,52.4 426.2,52.2 427.1,52.0 427.9,52.0 428.8,52.0 429.7,52.0 430.6,51.8 431.5,51.7 432.4,51.5 433.2,51.2 434.1,51.0 435.0,50.7 435.9,50.5 436.8,50.3 437.6,50.1 438.5,50.0 439.4,49.9 440.3,49.7 441.2,49.4 442.1,49.1 442.9,48.9 443.8,48.7 444.7,48.6 445.6,48.5 446.5,48.3 447.4,48.1 448.2,47.9 449.1,47.7 450.0,47.5 450.9,47.4 451.8,47.2 452.6,47.1 453.5,47.0 454.4,46.8 455.3,46.6 456.2,46.3 457.1,46.2 457.9,46.1 458.8,45.9 459.7,45.8 460.6,45.7 461.5,45.5 462.4,45.4 463.2,45.2 464.1,45.0 465.0,44.9 465.9,44.8 466.8,44.6 467.6,44.6 468.5,44.5 469.4,44.3 470.3,44.2 471.2,44.1 472.1,44.1 472.9,43.9 473.8,43.8 474.7,43.8 475.6,43.7 476.5,43.6 477.4,43.5 478.2,43.4 479.1,43.2 480.0,43.0 480.9,42.9 481.8,42.8 482.6,42.7 483.5,42.6 484.4,42.4 485.3,42.3 486.2,42.1 487.1,41.8 487.9,41.7 488.8,41.7 489.7,41.6 490.6,41.5 491.5,41.4 492.4,41.2 493.2,41.0 494.1,40.5 495.0,40.3 495.9,40.2 496.8,40.2 497.6,40.1 498.5,40.0 499.4,39.9 500.3,39.8 501.2,39.7 502.1,39.6 502.9,39.6 503.8,39.5 504.7,39.4 505.6,39.4 506.5,39.4 507.4,39.3 508.2,39.2 509.1,39.2 510.0,39.1 510.9,39.1 511.8,39.0 512.6,38.9 513.5,38.8 514.4,38.7 515.3,38.6 516.2,38.5 517.1,38.5 517.9,38.4 518.8,38.3 519.7,38.3 520.6,38.2 521.5,38.1 522.4,38.0 523.2,37.9 524.1,37.8 525.0,37.8 525.9,37.7 526.8,37.6 527.6,37.6 528.5,37.5 529.4,37.5 530.3,37.4 531.2,37.3 532.1,37.2 532.9,37.2 533.8,37.1 534.7,37.1 535.6,37.0 536.5,37.0 537.4,37.0 538.2,36.9 539.1,36.8 540.0,36.7 540.9,36.6 541.8,36.6 542.6,39.3 543.5,38.3 544.4,37.6 545.3,37.0 546.2,36.6 547.1,36.2 547.9,35.6 548.8,35.2 549.7,34.8 550.6,34.5 551.5,34.2 552.4,34.0 553.2,33.7 554.1,33.5 555.0,33.3 555.9,33.2 556.8,32.9 557.6,32.7 558.5,32.4 559.4,32.2 560.3,32.0 561.2,31.8 562.1,31.7 562.9,31.4 563.8,31.2 564.7,31.1 565.6,31.0 566.5,30.9 567.4,30.6 568.2,30.5 569.1,30.2 570.0,30.0" />
  
  <!-- Punto finale luminoso -->
  <circle cx="570.0" cy="30.0" r="4" fill="#ffffff" stroke="#0366d6" stroke-width="2.5" />
</svg>