<svg width="600" height="150" viewBox="0 0 600 150" xmlns="http://www.w3.org/2000/svg">
  <defs>
    <filter id="shadow2" x="-2%" y="-2%" width="104%" height="108%">
      <feDropShadow dx="0" dy="2" stdDeviation="3" flood-opacity="0.1" />
    </filter>
    <linearGradient id="fillGrad" x1="0" y1="0" x2="0" y2="1">
      <stop offset="0%" stop-color="#0366d6" stop-opacity="0.3"/>
      <stop offset="100%" stop-color="#0366d6" stop-opacity="0.02"/>
    </linearGradient>
  </defs>
  <rect width="600" height="150" rx="12" fill="#ffffff" filter="url(#shadow2)" stroke="#e1e4e8" stroke-width="1"/>
  <text x="20" y="24" fill="#2b3137" font-family="-apple-system,BlinkMacSystemFont,'Segoe UI',Helvetica,Arial,sans-serif" font-size="14" font-weight="600">📈 Download Growth (Actual: 76.6k)</text>
  
  <!-- Area sotto la linea -->
  <polygon fill="url(#fillGrad)" points="30.0,120.0,120 30.0,120.0 33.3,119.0 36.6,117.8 39.9,116.9 43.3,116.6 46.6,116.1 49.9,114.9 53.2,114.1 56.5,113.6 59.8,112.3 63.1,111.7 66.4,111.1 69.8,110.7 73.1,110.2 76.4,109.3 79.7,108.4 83.0,107.8 86.3,107.3 89.6,107.0 92.9,106.4 96.3,105.8 99.6,105.2 102.9,104.9 106.2,104.4 109.5,102.4 112.8,101.8 116.1,101.1 119.4,100.3 122.8,99.6 126.1,99.0 129.4,98.6 132.7,98.2 136.0,97.7 139.3,96.7 142.6,95.9 146.0,95.4 149.3,94.7 152.6,94.5 155.9,94.4 159.2,94.0 162.5,93.4 165.8,93.0 169.1,92.8 172.5,92.1 175.8,91.0 179.1,90.8 182.4,90.6 185.7,90.2 189.0,89.3 192.3,88.8 195.6,87.9 199.0,87.3 202.3,86.5 205.6,86.4 208.9,85.9 212.2,85.1 215.5,84.3 218.8,83.8 222.1,83.5 225.5,83.1 228.8,82.7 232.1,81.9 235.4,81.1 238.7,80.3 242.0,79.6 245.3,79.2 248.7,79.0 252.0,78.7 255.3,78.1 258.6,77.7 261.9,77.4 265.2,77.1 268.5,76.8 271.8,76.4 275.2,76.1 278.5,75.9 281.8,75.7 285.1,74.9 288.4,74.5 291.7,74.3 295.0,74.1 298.3,73.9 301.7,73.9 305.0,87.1 308.3,85.8 311.6,84.6 314.9,83.4 318.2,79.8 321.5,77.3 324.8,74.6 328.2,73.6 331.5,72.5 334.8,70.6 338.1,68.6 341.4,67.1 344.7,66.6 348.0,66.1 351.3,64.6 354.7,63.6 358.0,62.9 361.3,62.0 364.6,61.7 367.9,61.5 371.2,60.8 374.5,59.6 377.9,58.7 381.2,57.8 384.5,56.8 387.8,56.3 391.1,56.0 394.4,55.1 397.7,54.4 401.0,53.6 404.4,53.1 407.7,52.8 411.0,52.6 414.3,52.1 417.6,51.5 420.9,51.0 424.2,50.6 427.5,50.2 430.9,49.8 434.2,49.4 437.5,49.1 440.8,48.8 444.1,48.4 447.4,47.7 450.7,47.2 454.0,46.7 457.4,46.2 460.7,45.9 464.0,45.6 467.3,45.3 470.6,44.7 473.9,43.8 477.2,42.9 480.6,42.3 483.9,41.7 487.2,41.1 490.5,40.7 493.8,40.3 497.1,39.5 500.4,39.0 503.7,38.7 507.1,38.2 510.4,38.0 513.7,37.4 517.0,36.9 520.3,36.8 523.6,36.5 526.9,36.2 530.2,35.6 533.6,35.2 536.9,34.6 540.2,34.1 543.5,33.7 546.8,33.2 550.1,32.4 553.4,32.1 556.7,31.4 560.1,30.7 563.4,30.5 566.7,30.3 570.0,30.0 570.0,30.0,120" />
  
  <!-- Linea principale -->
  <polyline fill="none" stroke="#0366d6" stroke-width="2.5" stroke-linecap="round" stroke-linejoin="round" points="30.0,120.0 33.3,119.0 36.6,117.8 39.9,116.9 43.3,116.6 46.6,116.1 49.9,114.9 53.2,114.1 56.5,113.6 59.8,112.3 63.1,111.7 66.4,111.1 69.8,110.7 73.1,110.2 76.4,109.3 79.7,108.4 83.0,107.8 86.3,107.3 89.6,107.0 92.9,106.4 96.3,105.8 99.6,105.2 102.9,104.9 106.2,104.4 109.5,102.4 112.8,101.8 116.1,101.1 119.4,100.3 122.8,99.6 126.1,99.0 129.4,98.6 132.7,98.2 136.0,97.7 139.3,96.7 142.6,95.9 146.0,95.4 149.3,94.7 152.6,94.5 155.9,94.4 159.2,94.0 162.5,93.4 165.8,93.0 169.1,92.8 172.5,92.1 175.8,91.0 179.1,90.8 182.4,90.6 185.7,90.2 189.0,89.3 192.3,88.8 195.6,87.9 199.0,87.3 202.3,86.5 205.6,86.4 208.9,85.9 212.2,85.1 215.5,84.3 218.8,83.8 222.1,83.5 225.5,83.1 228.8,82.7 232.1,81.9 235.4,81.1 238.7,80.3 242.0,79.6 245.3,79.2 248.7,79.0 252.0,78.7 255.3,78.1 258.6,77.7 261.9,77.4 265.2,77.1 268.5,76.8 271.8,76.4 275.2,76.1 278.5,75.9 281.8,75.7 285.1,74.9 288.4,74.5 291.7,74.3 295.0,74.1 298.3,73.9 301.7,73.9 305.0,87.1 308.3,85.8 311.6,84.6 314.9,83.4 318.2,79.8 321.5,77.3 324.8,74.6 328.2,73.6 331.5,72.5 334.8,70.6 338.1,68.6 341.4,67.1 344.7,66.6 348.0,66.1 351.3,64.6 354.7,63.6 358.0,62.9 361.3,62.0 364.6,61.7 367.9,61.5 371.2,60.8 374.5,59.6 377.9,58.7 381.2,57.8 384.5,56.8 387.8,56.3 391.1,56.0 394.4,55.1 397.7,54.4 401.0,53.6 404.4,53.1 407.7,52.8 411.0,52.6 414.3,52.1 417.6,51.5 420.9,51.0 424.2,50.6 427.5,50.2 430.9,49.8 434.2,49.4 437.5,49.1 440.8,48.8 444.1,48.4 447.4,47.7 450.7,47.2 454.0,46.7 457.4,46.2 460.7,45.9 464.0,45.6 467.3,45.3 470.6,44.7 473.9,43.8 477.2,42.9 480.6,42.3 483.9,41.7 487.2,41.1 490.5,40.7 493.8,40.3 497.1,39.5 500.4,39.0 503.7,38.7 507.1,38.2 510.4,38.0 513.7,37.4 517.0,36.9 520.3,36.8 523.6,36.5 526.9,36.2 530.2,35.6 533.6,35.2 536.9,34.6 540.2,34.1 543.5,33.7 546.8,33.2 550.1,32.4 553.4,32.1 556.7,31.4 560.1,30.7 563.4,30.5 566.7,30.3 570.0,30.0" />
  
  <!-- Punto finale luminoso -->
  <circle cx="570.0" cy="30.0" r="4" fill="#ffffff" stroke="#0366d6" stroke-width="2.5" />
</svg>