<svg width="600" height="150" viewBox="0 0 600 150" xmlns="http://www.w3.org/2000/svg">
  <defs>
    <filter id="shadow2" x="-2%" y="-2%" width="104%" height="108%">
      <feDropShadow dx="0" dy="2" stdDeviation="3" flood-opacity="0.1" />
    </filter>
    <linearGradient id="fillGrad" x1="0" y1="0" x2="0" y2="1">
      <stop offset="0%" stop-color="#0366d6" stop-opacity="0.3"/>
      <stop offset="100%" stop-color="#0366d6" stop-opacity="0.02"/>
    </linearGradient>
  </defs>
  <rect width="600" height="150" rx="12" fill="#ffffff" filter="url(#shadow2)" stroke="#e1e4e8" stroke-width="1"/>
  <text x="20" y="24" fill="#2b3137" font-family="-apple-system,BlinkMacSystemFont,'Segoe UI',Helvetica,Arial,sans-serif" font-size="14" font-weight="600">📈 Download Growth (Actual: 76.4k)</text>
  
  <!-- Area sotto la linea -->
  <polygon fill="url(#fillGrad)" points="30.0,120.0,120 30.0,120.0 33.4,118.9 36.9,117.8 40.3,116.8 43.8,116.5 47.2,116.0 50.6,114.8 54.1,113.9 57.5,113.4 61.0,112.1 64.4,111.5 67.8,110.8 71.3,110.5 74.7,109.9 78.2,109.0 81.6,108.1 85.0,107.4 88.5,107.0 91.9,106.6 95.4,106.1 98.8,105.4 102.2,104.8 105.7,104.5 109.1,103.9 112.5,101.9 116.0,101.3 119.4,100.6 122.9,99.8 126.3,99.1 129.7,98.4 133.2,98.0 136.6,97.6 140.1,97.1 143.5,96.1 146.9,95.3 150.4,94.7 153.8,94.0 157.3,93.8 160.7,93.7 164.1,93.3 167.6,92.7 171.0,92.3 174.5,92.0 177.9,91.3 181.3,90.2 184.8,90.0 188.2,89.8 191.7,89.3 195.1,88.5 198.5,87.9 202.0,87.0 205.4,86.4 208.9,85.6 212.3,85.5 215.7,85.0 219.2,84.2 222.6,83.4 226.1,82.8 229.5,82.5 232.9,82.1 236.4,81.7 239.8,80.8 243.2,80.0 246.7,79.2 250.1,78.5 253.6,78.1 257.0,77.9 260.4,77.6 263.9,77.0 267.3,76.6 270.8,76.2 274.2,75.9 277.6,75.6 281.1,75.2 284.5,74.9 288.0,74.7 291.4,74.5 294.8,73.7 298.3,73.3 301.7,73.1 305.2,72.8 308.6,72.7 312.0,72.7 315.5,86.2 318.9,84.9 322.4,83.7 325.8,82.4 329.2,78.7 332.7,76.1 336.1,73.4 339.6,72.4 343.0,71.2 346.4,69.3 349.9,67.2 353.3,65.7 356.8,65.1 360.2,64.6 363.6,63.1 367.1,62.0 370.5,61.3 373.9,60.5 377.4,60.1 380.8,60.0 384.3,59.2 387.7,57.9 391.1,57.0 394.6,56.1 398.0,55.1 401.5,54.6 404.9,54.2 408.3,53.4 411.8,52.6 415.2,51.8 418.7,51.2 422.1,51.0 425.5,50.8 429.0,50.3 432.4,49.6 435.9,49.2 439.3,48.7 442.7,48.3 446.2,47.9 449.6,47.5 453.1,47.1 456.5,46.8 459.9,46.5 463.4,45.8 466.8,45.3 470.3,44.7 473.7,44.2 477.1,43.8 480.6,43.6 484.0,43.3 487.5,42.7 490.9,41.7 494.3,40.8 497.8,40.2 501.2,39.6 504.6,39.0 508.1,38.6 511.5,38.2 515.0,37.3 518.4,36.8 521.8,36.4 525.3,36.0 528.7,35.8 532.2,35.2 535.6,34.7 539.0,34.5 542.5,34.3 545.9,33.9 549.4,33.3 552.8,32.9 556.2,32.3 559.7,31.8 563.1,31.3 566.6,30.8 570.0,30.0 570.0,30.0,120" />
  
  <!-- Linea principale -->
  <polyline fill="none" stroke="#0366d6" stroke-width="2.5" stroke-linecap="round" stroke-linejoin="round" points="30.0,120.0 33.4,118.9 36.9,117.8 40.3,116.8 43.8,116.5 47.2,116.0 50.6,114.8 54.1,113.9 57.5,113.4 61.0,112.1 64.4,111.5 67.8,110.8 71.3,110.5 74.7,109.9 78.2,109.0 81.6,108.1 85.0,107.4 88.5,107.0 91.9,106.6 95.4,106.1 98.8,105.4 102.2,104.8 105.7,104.5 109.1,103.9 112.5,101.9 116.0,101.3 119.4,100.6 122.9,99.8 126.3,99.1 129.7,98.4 133.2,98.0 136.6,97.6 140.1,97.1 143.5,96.1 146.9,95.3 150.4,94.7 153.8,94.0 157.3,93.8 160.7,93.7 164.1,93.3 167.6,92.7 171.0,92.3 174.5,92.0 177.9,91.3 181.3,90.2 184.8,90.0 188.2,89.8 191.7,89.3 195.1,88.5 198.5,87.9 202.0,87.0 205.4,86.4 208.9,85.6 212.3,85.5 215.7,85.0 219.2,84.2 222.6,83.4 226.1,82.8 229.5,82.5 232.9,82.1 236.4,81.7 239.8,80.8 243.2,80.0 246.7,79.2 250.1,78.5 253.6,78.1 257.0,77.9 260.4,77.6 263.9,77.0 267.3,76.6 270.8,76.2 274.2,75.9 277.6,75.6 281.1,75.2 284.5,74.9 288.0,74.7 291.4,74.5 294.8,73.7 298.3,73.3 301.7,73.1 305.2,72.8 308.6,72.7 312.0,72.7 315.5,86.2 318.9,84.9 322.4,83.7 325.8,82.4 329.2,78.7 332.7,76.1 336.1,73.4 339.6,72.4 343.0,71.2 346.4,69.3 349.9,67.2 353.3,65.7 356.8,65.1 360.2,64.6 363.6,63.1 367.1,62.0 370.5,61.3 373.9,60.5 377.4,60.1 380.8,60.0 384.3,59.2 387.7,57.9 391.1,57.0 394.6,56.1 398.0,55.1 401.5,54.6 404.9,54.2 408.3,53.4 411.8,52.6 415.2,51.8 418.7,51.2 422.1,51.0 425.5,50.8 429.0,50.3 432.4,49.6 435.9,49.2 439.3,48.7 442.7,48.3 446.2,47.9 449.6,47.5 453.1,47.1 456.5,46.8 459.9,46.5 463.4,45.8 466.8,45.3 470.3,44.7 473.7,44.2 477.1,43.8 480.6,43.6 484.0,43.3 487.5,42.7 490.9,41.7 494.3,40.8 497.8,40.2 501.2,39.6 504.6,39.0 508.1,38.6 511.5,38.2 515.0,37.3 518.4,36.8 521.8,36.4 525.3,36.0 528.7,35.8 532.2,35.2 535.6,34.7 539.0,34.5 542.5,34.3 545.9,33.9 549.4,33.3 552.8,32.9 556.2,32.3 559.7,31.8 563.1,31.3 566.6,30.8 570.0,30.0" />
  
  <!-- Punto finale luminoso -->
  <circle cx="570.0" cy="30.0" r="4" fill="#ffffff" stroke="#0366d6" stroke-width="2.5" />
</svg>