<svg width="600" height="150" viewBox="0 0 600 150" xmlns="http://www.w3.org/2000/svg">
  <defs>
    <filter id="shadow2" x="-2%" y="-2%" width="104%" height="108%">
      <feDropShadow dx="0" dy="2" stdDeviation="3" flood-opacity="0.1" />
    </filter>
    <linearGradient id="fillGrad" x1="0" y1="0" x2="0" y2="1">
      <stop offset="0%" stop-color="#0366d6" stop-opacity="0.3"/>
      <stop offset="100%" stop-color="#0366d6" stop-opacity="0.02"/>
    </linearGradient>
  </defs>
  <rect width="600" height="150" rx="12" fill="#ffffff" filter="url(#shadow2)" stroke="#e1e4e8" stroke-width="1"/>
  <text x="20" y="24" fill="#2b3137" font-family="-apple-system,BlinkMacSystemFont,'Segoe UI',Helvetica,Arial,sans-serif" font-size="14" font-weight="600">📈 Download Growth (Actual: 75.8k)</text>
  
  <!-- Area sotto la linea -->
  <polygon fill="url(#fillGrad)" points="30.0,120.0,120 30.0,120.0 33.7,118.9 37.4,117.6 41.2,116.6 44.9,116.3 48.6,115.7 52.3,114.4 56.1,113.5 59.8,112.9 63.5,111.6 67.2,110.9 71.0,110.2 74.7,109.8 78.4,109.2 82.1,108.3 85.9,107.3 89.6,106.6 93.3,106.1 97.0,105.7 100.8,105.1 104.5,104.4 108.2,103.7 111.9,103.4 115.7,102.8 119.4,100.7 123.1,100.1 126.8,99.2 130.6,98.4 134.3,97.6 138.0,96.9 141.7,96.5 145.4,96.1 149.2,95.5 152.9,94.5 156.6,93.6 160.3,93.0 164.1,92.3 167.8,92.1 171.5,91.9 175.2,91.5 179.0,90.8 182.7,90.4 186.4,90.1 190.1,89.3 193.9,88.2 197.6,87.9 201.3,87.7 205.0,87.2 208.8,86.3 212.5,85.7 216.2,84.8 219.9,84.1 223.7,83.3 227.4,83.1 231.1,82.6 234.8,81.7 238.6,80.9 242.3,80.2 246.0,79.9 249.7,79.5 253.4,79.1 257.2,78.1 260.9,77.2 264.6,76.4 268.3,75.7 272.1,75.3 275.8,75.0 279.5,74.7 283.2,74.0 287.0,73.6 290.7,73.2 294.4,72.9 298.1,72.6 301.9,72.1 305.6,71.8 309.3,71.6 313.0,71.4 316.8,70.5 320.5,70.0 324.2,69.9 327.9,69.6 331.7,69.4 335.4,69.4 339.1,83.9 342.8,82.5 346.6,81.2 350.3,79.8 354.0,75.9 357.7,73.1 361.4,70.2 365.2,69.1 368.9,67.8 372.6,65.8 376.3,63.6 380.1,62.0 383.8,61.4 387.5,60.8 391.2,59.2 395.0,58.1 398.7,57.3 402.4,56.4 406.1,56.0 409.9,55.8 413.6,55.0 417.3,53.7 421.0,52.7 424.8,51.7 428.5,50.6 432.2,50.1 435.9,49.7 439.7,48.8 443.4,48.0 447.1,47.2 450.8,46.5 454.6,46.2 458.3,46.0 462.0,45.5 465.7,44.8 469.4,44.3 473.2,43.8 476.9,43.3 480.6,42.9 484.3,42.5 488.1,42.1 491.8,41.8 495.5,41.4 499.2,40.7 503.0,40.1 506.7,39.5 510.4,39.0 514.1,38.6 517.9,38.3 521.6,38.0 525.3,37.4 529.0,36.4 532.8,35.4 536.5,34.7 540.2,34.1 543.9,33.4 547.7,33.0 551.4,32.5 555.1,31.7 558.8,31.1 562.6,30.7 566.3,30.3 570.0,30.0 570.0,30.0,120" />
  
  <!-- Linea principale -->
  <polyline fill="none" stroke="#0366d6" stroke-width="2.5" stroke-linecap="round" stroke-linejoin="round" points="30.0,120.0 33.7,118.9 37.4,117.6 41.2,116.6 44.9,116.3 48.6,115.7 52.3,114.4 56.1,113.5 59.8,112.9 63.5,111.6 67.2,110.9 71.0,110.2 74.7,109.8 78.4,109.2 82.1,108.3 85.9,107.3 89.6,106.6 93.3,106.1 97.0,105.7 100.8,105.1 104.5,104.4 108.2,103.7 111.9,103.4 115.7,102.8 119.4,100.7 123.1,100.1 126.8,99.2 130.6,98.4 134.3,97.6 138.0,96.9 141.7,96.5 145.4,96.1 149.2,95.5 152.9,94.5 156.6,93.6 160.3,93.0 164.1,92.3 167.8,92.1 171.5,91.9 175.2,91.5 179.0,90.8 182.7,90.4 186.4,90.1 190.1,89.3 193.9,88.2 197.6,87.9 201.3,87.7 205.0,87.2 208.8,86.3 212.5,85.7 216.2,84.8 219.9,84.1 223.7,83.3 227.4,83.1 231.1,82.6 234.8,81.7 238.6,80.9 242.3,80.2 246.0,79.9 249.7,79.5 253.4,79.1 257.2,78.1 260.9,77.2 264.6,76.4 268.3,75.7 272.1,75.3 275.8,75.0 279.5,74.7 283.2,74.0 287.0,73.6 290.7,73.2 294.4,72.9 298.1,72.6 301.9,72.1 305.6,71.8 309.3,71.6 313.0,71.4 316.8,70.5 320.5,70.0 324.2,69.9 327.9,69.6 331.7,69.4 335.4,69.4 339.1,83.9 342.8,82.5 346.6,81.2 350.3,79.8 354.0,75.9 357.7,73.1 361.4,70.2 365.2,69.1 368.9,67.8 372.6,65.8 376.3,63.6 380.1,62.0 383.8,61.4 387.5,60.8 391.2,59.2 395.0,58.1 398.7,57.3 402.4,56.4 406.1,56.0 409.9,55.8 413.6,55.0 417.3,53.7 421.0,52.7 424.8,51.7 428.5,50.6 432.2,50.1 435.9,49.7 439.7,48.8 443.4,48.0 447.1,47.2 450.8,46.5 454.6,46.2 458.3,46.0 462.0,45.5 465.7,44.8 469.4,44.3 473.2,43.8 476.9,43.3 480.6,42.9 484.3,42.5 488.1,42.1 491.8,41.8 495.5,41.4 499.2,40.7 503.0,40.1 506.7,39.5 510.4,39.0 514.1,38.6 517.9,38.3 521.6,38.0 525.3,37.4 529.0,36.4 532.8,35.4 536.5,34.7 540.2,34.1 543.9,33.4 547.7,33.0 551.4,32.5 555.1,31.7 558.8,31.1 562.6,30.7 566.3,30.3 570.0,30.0" />
  
  <!-- Punto finale luminoso -->
  <circle cx="570.0" cy="30.0" r="4" fill="#ffffff" stroke="#0366d6" stroke-width="2.5" />
</svg>