<svg width="600" height="150" viewBox="0 0 600 150" xmlns="http://www.w3.org/2000/svg">
  <defs>
    <filter id="shadow2" x="-2%" y="-2%" width="104%" height="108%">
      <feDropShadow dx="0" dy="2" stdDeviation="3" flood-opacity="0.1" />
    </filter>
    <linearGradient id="fillGrad" x1="0" y1="0" x2="0" y2="1">
      <stop offset="0%" stop-color="#0366d6" stop-opacity="0.3"/>
      <stop offset="100%" stop-color="#0366d6" stop-opacity="0.02"/>
    </linearGradient>
  </defs>
  <rect width="600" height="150" rx="12" fill="#ffffff" filter="url(#shadow2)" stroke="#e1e4e8" stroke-width="1"/>
  <text x="20" y="24" fill="#2b3137" font-family="-apple-system,BlinkMacSystemFont,'Segoe UI',Helvetica,Arial,sans-serif" font-size="14" font-weight="600">📈 Download Growth (Actual: 77.4k)</text>
  
  <!-- Area sotto la linea -->
  <polygon fill="url(#fillGrad)" points="30.0,120.0,120 30.0,120.0 33.0,119.0 35.9,118.0 38.9,117.1 41.8,116.9 44.8,116.4 47.7,115.3 50.7,114.5 53.6,114.0 56.6,112.9 59.5,112.3 62.5,111.8 65.4,111.4 68.4,110.9 71.3,110.1 74.3,109.3 77.2,108.7 80.2,108.3 83.1,108.0 86.1,107.5 89.0,106.8 92.0,106.3 94.9,106.1 97.9,105.6 100.8,103.8 103.8,103.2 106.7,102.5 109.7,101.8 112.6,101.2 115.6,100.6 118.5,100.2 121.5,99.9 124.4,99.4 127.4,98.5 130.3,97.8 133.3,97.3 136.2,96.6 139.2,96.5 142.1,96.3 145.1,96.0 148.0,95.4 151.0,95.1 153.9,94.8 156.9,94.2 159.8,93.2 162.8,93.0 165.7,92.8 168.7,92.4 171.6,91.7 174.6,91.2 177.5,90.4 180.5,89.8 183.4,89.1 186.4,88.9 189.3,88.5 192.3,87.8 195.2,87.1 198.2,86.5 201.1,86.3 204.1,85.9 207.0,85.6 210.0,84.8 213.0,84.0 215.9,83.3 218.9,82.7 221.8,82.3 224.8,82.1 227.7,81.8 230.7,81.3 233.6,80.9 236.6,80.6 239.5,80.4 242.5,80.1 245.4,79.7 248.4,79.5 251.3,79.3 254.3,79.1 257.2,78.4 260.2,78.0 263.1,77.8 266.1,77.6 269.0,77.4 272.0,77.4 274.9,89.6 277.9,88.4 280.8,87.3 283.8,86.2 286.7,82.9 289.7,80.6 292.6,78.1 295.6,77.1 298.5,76.1 301.5,74.4 304.4,72.5 307.4,71.2 310.3,70.7 313.3,70.2 316.2,68.8 319.2,67.9 322.1,67.2 325.1,66.5 328.0,66.1 331.0,66.0 333.9,65.3 336.9,64.2 339.8,63.3 342.8,62.5 345.7,61.6 348.7,61.2 351.6,60.9 354.6,60.1 357.5,59.4 360.5,58.7 363.4,58.2 366.4,57.9 369.3,57.7 372.3,57.3 375.2,56.7 378.2,56.3 381.1,55.8 384.1,55.5 387.0,55.1 390.0,54.8 393.0,54.5 395.9,54.2 398.9,53.9 401.8,53.2 404.8,52.8 407.7,52.2 410.7,51.9 413.6,51.5 416.6,51.2 419.5,51.0 422.5,50.5 425.4,49.6 428.4,48.8 431.3,48.2 434.3,47.7 437.2,47.1 440.2,46.8 443.1,46.4 446.1,45.7 449.0,45.2 452.0,44.8 454.9,44.5 457.9,44.2 460.8,43.7 463.8,43.2 466.7,43.1 469.7,42.9 472.6,42.6 475.6,42.0 478.5,41.6 481.5,41.1 484.4,40.7 487.4,40.2 490.3,39.8 493.3,39.1 496.2,38.8 499.2,38.1 502.1,37.5 505.1,37.3 508.0,37.2 511.0,36.9 513.9,36.4 516.9,36.1 519.8,35.6 522.8,35.4 525.7,35.1 528.7,34.8 531.6,34.6 534.6,34.5 537.5,33.9 540.5,33.5 543.4,33.2 546.4,32.9 549.3,32.6 552.3,32.2 555.2,32.1 558.2,31.9 561.1,31.5 564.1,30.9 567.0,30.3 570.0,30.0 570.0,30.0,120" />
  
  <!-- Linea principale -->
  <polyline fill="none" stroke="#0366d6" stroke-width="2.5" stroke-linecap="round" stroke-linejoin="round" points="30.0,120.0 33.0,119.0 35.9,118.0 38.9,117.1 41.8,116.9 44.8,116.4 47.7,115.3 50.7,114.5 53.6,114.0 56.6,112.9 59.5,112.3 62.5,111.8 65.4,111.4 68.4,110.9 71.3,110.1 74.3,109.3 77.2,108.7 80.2,108.3 83.1,108.0 86.1,107.5 89.0,106.8 92.0,106.3 94.9,106.1 97.9,105.6 100.8,103.8 103.8,103.2 106.7,102.5 109.7,101.8 112.6,101.2 115.6,100.6 118.5,100.2 121.5,99.9 124.4,99.4 127.4,98.5 130.3,97.8 133.3,97.3 136.2,96.6 139.2,96.5 142.1,96.3 145.1,96.0 148.0,95.4 151.0,95.1 153.9,94.8 156.9,94.2 159.8,93.2 162.8,93.0 165.7,92.8 168.7,92.4 171.6,91.7 174.6,91.2 177.5,90.4 180.5,89.8 183.4,89.1 186.4,88.9 189.3,88.5 192.3,87.8 195.2,87.1 198.2,86.5 201.1,86.3 204.1,85.9 207.0,85.6 210.0,84.8 213.0,84.0 215.9,83.3 218.9,82.7 221.8,82.3 224.8,82.1 227.7,81.8 230.7,81.3 233.6,80.9 236.6,80.6 239.5,80.4 242.5,80.1 245.4,79.7 248.4,79.5 251.3,79.3 254.3,79.1 257.2,78.4 260.2,78.0 263.1,77.8 266.1,77.6 269.0,77.4 272.0,77.4 274.9,89.6 277.9,88.4 280.8,87.3 283.8,86.2 286.7,82.9 289.7,80.6 292.6,78.1 295.6,77.1 298.5,76.1 301.5,74.4 304.4,72.5 307.4,71.2 310.3,70.7 313.3,70.2 316.2,68.8 319.2,67.9 322.1,67.2 325.1,66.5 328.0,66.1 331.0,66.0 333.9,65.3 336.9,64.2 339.8,63.3 342.8,62.5 345.7,61.6 348.7,61.2 351.6,60.9 354.6,60.1 357.5,59.4 360.5,58.7 363.4,58.2 366.4,57.9 369.3,57.7 372.3,57.3 375.2,56.7 378.2,56.3 381.1,55.8 384.1,55.5 387.0,55.1 390.0,54.8 393.0,54.5 395.9,54.2 398.9,53.9 401.8,53.2 404.8,52.8 407.7,52.2 410.7,51.9 413.6,51.5 416.6,51.2 419.5,51.0 422.5,50.5 425.4,49.6 428.4,48.8 431.3,48.2 434.3,47.7 437.2,47.1 440.2,46.8 443.1,46.4 446.1,45.7 449.0,45.2 452.0,44.8 454.9,44.5 457.9,44.2 460.8,43.7 463.8,43.2 466.7,43.1 469.7,42.9 472.6,42.6 475.6,42.0 478.5,41.6 481.5,41.1 484.4,40.7 487.4,40.2 490.3,39.8 493.3,39.1 496.2,38.8 499.2,38.1 502.1,37.5 505.1,37.3 508.0,37.2 511.0,36.9 513.9,36.4 516.9,36.1 519.8,35.6 522.8,35.4 525.7,35.1 528.7,34.8 531.6,34.6 534.6,34.5 537.5,33.9 540.5,33.5 543.4,33.2 546.4,32.9 549.3,32.6 552.3,32.2 555.2,32.1 558.2,31.9 561.1,31.5 564.1,30.9 567.0,30.3 570.0,30.0" />
  
  <!-- Punto finale luminoso -->
  <circle cx="570.0" cy="30.0" r="4" fill="#ffffff" stroke="#0366d6" stroke-width="2.5" />
</svg>