<svg width="600" height="150" viewBox="0 0 600 150" xmlns="http://www.w3.org/2000/svg">
  <defs>
    <filter id="shadow2" x="-2%" y="-2%" width="104%" height="108%">
      <feDropShadow dx="0" dy="2" stdDeviation="3" flood-opacity="0.1" />
    </filter>
    <linearGradient id="fillGrad" x1="0" y1="0" x2="0" y2="1">
      <stop offset="0%" stop-color="#0366d6" stop-opacity="0.3"/>
      <stop offset="100%" stop-color="#0366d6" stop-opacity="0.02"/>
    </linearGradient>
  </defs>
  <rect width="600" height="150" rx="12" fill="#ffffff" filter="url(#shadow2)" stroke="#e1e4e8" stroke-width="1"/>
  <text x="20" y="24" fill="#2b3137" font-family="-apple-system,BlinkMacSystemFont,'Segoe UI',Helvetica,Arial,sans-serif" font-size="14" font-weight="600">📈 Download Growth (Actual: 76.8k)</text>
  
  <!-- Area sotto la linea -->
  <polygon fill="url(#fillGrad)" points="30.0,120.0,120 30.0,120.0 33.2,119.0 36.5,117.9 39.7,116.9 42.9,116.7 46.2,116.2 49.4,115.0 52.6,114.2 55.9,113.7 59.1,112.5 62.3,111.8 65.6,111.2 68.8,110.9 72.0,110.3 75.3,109.5 78.5,108.6 81.7,108.0 85.0,107.5 88.2,107.2 91.4,106.7 94.7,106.0 97.9,105.5 101.1,105.2 104.4,104.6 107.6,102.7 110.8,102.2 114.1,101.4 117.3,100.6 120.5,100.0 123.8,99.4 127.0,98.9 130.2,98.6 133.5,98.1 136.7,97.2 139.9,96.4 143.2,95.8 146.4,95.2 149.6,95.0 152.9,94.8 156.1,94.5 159.3,93.9 162.6,93.5 165.8,93.3 169.0,92.6 172.3,91.5 175.5,91.3 178.7,91.1 182.0,90.7 185.2,89.9 188.4,89.3 191.7,88.5 194.9,87.9 198.1,87.1 201.4,87.0 204.6,86.5 207.8,85.7 211.1,85.0 214.3,84.4 217.5,84.1 220.8,83.7 224.0,83.4 227.2,82.5 230.5,81.7 233.7,81.0 236.9,80.3 240.2,79.9 243.4,79.7 246.6,79.4 249.9,78.8 253.1,78.5 256.3,78.1 259.6,77.8 262.8,77.6 266.0,77.2 269.3,76.9 272.5,76.7 275.7,76.5 279.0,75.7 282.2,75.3 285.4,75.1 288.7,74.9 291.9,74.7 295.1,74.7 298.4,87.7 301.6,86.4 304.9,85.3 308.1,84.0 311.3,80.5 314.6,78.1 317.8,75.4 321.0,74.4 324.3,73.3 327.5,71.5 330.7,69.5 334.0,68.1 337.2,67.5 340.4,67.0 343.7,65.6 346.9,64.6 350.1,63.9 353.4,63.1 356.6,62.7 359.8,62.6 363.1,61.8 366.3,60.6 369.5,59.8 372.8,58.9 376.0,57.9 379.2,57.4 382.5,57.1 385.7,56.3 388.9,55.5 392.2,54.8 395.4,54.2 398.6,54.0 401.9,53.8 405.1,53.3 408.3,52.7 411.6,52.2 414.8,51.8 418.0,51.4 421.3,51.0 424.5,50.7 427.7,50.3 431.0,50.0 434.2,49.7 437.4,49.0 440.7,48.5 443.9,47.9 447.1,47.5 450.4,47.2 453.6,46.9 456.8,46.6 460.1,46.1 463.3,45.1 466.5,44.2 469.8,43.7 473.0,43.1 476.2,42.5 479.5,42.1 482.7,41.7 485.9,40.9 489.2,40.4 492.4,40.1 495.6,39.7 498.9,39.4 502.1,38.9 505.3,38.4 508.6,38.2 511.8,38.0 515.0,37.7 518.3,37.1 521.5,36.6 524.7,36.1 528.0,35.6 531.2,35.2 534.4,34.7 537.7,33.9 540.9,33.6 544.1,32.9 547.4,32.2 550.6,32.1 553.8,31.9 557.1,31.6 560.3,31.1 563.5,30.8 566.8,30.2 570.0,30.0 570.0,30.0,120" />
  
  <!-- Linea principale -->
  <polyline fill="none" stroke="#0366d6" stroke-width="2.5" stroke-linecap="round" stroke-linejoin="round" points="30.0,120.0 33.2,119.0 36.5,117.9 39.7,116.9 42.9,116.7 46.2,116.2 49.4,115.0 52.6,114.2 55.9,113.7 59.1,112.5 62.3,111.8 65.6,111.2 68.8,110.9 72.0,110.3 75.3,109.5 78.5,108.6 81.7,108.0 85.0,107.5 88.2,107.2 91.4,106.7 94.7,106.0 97.9,105.5 101.1,105.2 104.4,104.6 107.6,102.7 110.8,102.2 114.1,101.4 117.3,100.6 120.5,100.0 123.8,99.4 127.0,98.9 130.2,98.6 133.5,98.1 136.7,97.2 139.9,96.4 143.2,95.8 146.4,95.2 149.6,95.0 152.9,94.8 156.1,94.5 159.3,93.9 162.6,93.5 165.8,93.3 169.0,92.6 172.3,91.5 175.5,91.3 178.7,91.1 182.0,90.7 185.2,89.9 188.4,89.3 191.7,88.5 194.9,87.9 198.1,87.1 201.4,87.0 204.6,86.5 207.8,85.7 211.1,85.0 214.3,84.4 217.5,84.1 220.8,83.7 224.0,83.4 227.2,82.5 230.5,81.7 233.7,81.0 236.9,80.3 240.2,79.9 243.4,79.7 246.6,79.4 249.9,78.8 253.1,78.5 256.3,78.1 259.6,77.8 262.8,77.6 266.0,77.2 269.3,76.9 272.5,76.7 275.7,76.5 279.0,75.7 282.2,75.3 285.4,75.1 288.7,74.9 291.9,74.7 295.1,74.7 298.4,87.7 301.6,86.4 304.9,85.3 308.1,84.0 311.3,80.5 314.6,78.1 317.8,75.4 321.0,74.4 324.3,73.3 327.5,71.5 330.7,69.5 334.0,68.1 337.2,67.5 340.4,67.0 343.7,65.6 346.9,64.6 350.1,63.9 353.4,63.1 356.6,62.7 359.8,62.6 363.1,61.8 366.3,60.6 369.5,59.8 372.8,58.9 376.0,57.9 379.2,57.4 382.5,57.1 385.7,56.3 388.9,55.5 392.2,54.8 395.4,54.2 398.6,54.0 401.9,53.8 405.1,53.3 408.3,52.7 411.6,52.2 414.8,51.8 418.0,51.4 421.3,51.0 424.5,50.7 427.7,50.3 431.0,50.0 434.2,49.7 437.4,49.0 440.7,48.5 443.9,47.9 447.1,47.5 450.4,47.2 453.6,46.9 456.8,46.6 460.1,46.1 463.3,45.1 466.5,44.2 469.8,43.7 473.0,43.1 476.2,42.5 479.5,42.1 482.7,41.7 485.9,40.9 489.2,40.4 492.4,40.1 495.6,39.7 498.9,39.4 502.1,38.9 505.3,38.4 508.6,38.2 511.8,38.0 515.0,37.7 518.3,37.1 521.5,36.6 524.7,36.1 528.0,35.6 531.2,35.2 534.4,34.7 537.7,33.9 540.9,33.6 544.1,32.9 547.4,32.2 550.6,32.1 553.8,31.9 557.1,31.6 560.3,31.1 563.5,30.8 566.8,30.2 570.0,30.0" />
  
  <!-- Punto finale luminoso -->
  <circle cx="570.0" cy="30.0" r="4" fill="#ffffff" stroke="#0366d6" stroke-width="2.5" />
</svg>