<svg width="600" height="150" viewBox="0 0 600 150" xmlns="http://www.w3.org/2000/svg">
  <defs>
    <filter id="shadow2" x="-2%" y="-2%" width="104%" height="108%">
      <feDropShadow dx="0" dy="2" stdDeviation="3" flood-opacity="0.1" />
    </filter>
    <linearGradient id="fillGrad" x1="0" y1="0" x2="0" y2="1">
      <stop offset="0%" stop-color="#0366d6" stop-opacity="0.3"/>
      <stop offset="100%" stop-color="#0366d6" stop-opacity="0.02"/>
    </linearGradient>
  </defs>
  <rect width="600" height="150" rx="12" fill="#ffffff" filter="url(#shadow2)" stroke="#e1e4e8" stroke-width="1"/>
  <text x="20" y="24" fill="#2b3137" font-family="-apple-system,BlinkMacSystemFont,'Segoe UI',Helvetica,Arial,sans-serif" font-size="14" font-weight="600">📈 Download Growth (Actual: 75.1k)</text>
  
  <!-- Area sotto la linea -->
  <polygon fill="url(#fillGrad)" points="30.0,120.0,120 30.0,120.0 34.0,118.8 38.1,117.5 42.1,116.3 46.1,116.0 50.1,115.4 54.2,114.0 58.2,113.0 62.2,112.4 66.3,110.9 70.3,110.2 74.3,109.5 78.4,109.0 82.4,108.4 86.4,107.4 90.4,106.3 94.5,105.5 98.5,105.0 102.5,104.6 106.6,104.0 110.6,103.2 114.6,102.5 118.7,102.2 122.7,101.5 126.7,99.2 130.7,98.5 134.8,97.6 138.8,96.7 142.8,95.9 146.9,95.2 150.9,94.7 154.9,94.3 159.0,93.7 163.0,92.5 167.0,91.6 171.0,90.9 175.1,90.1 179.1,89.9 183.1,89.7 187.2,89.3 191.2,88.6 195.2,88.2 199.3,87.8 203.3,87.0 207.3,85.8 211.3,85.5 215.4,85.2 219.4,84.8 223.4,83.8 227.5,83.1 231.5,82.1 235.5,81.4 239.6,80.5 243.6,80.3 247.6,79.7 251.6,78.8 255.7,77.9 259.7,77.2 263.7,76.9 267.8,76.4 271.8,76.0 275.8,75.0 279.9,74.0 283.9,73.1 287.9,72.3 291.9,71.9 296.0,71.6 300.0,71.2 304.0,70.5 308.1,70.1 312.1,69.7 316.1,69.3 320.1,69.0 324.2,68.5 328.2,68.2 332.2,68.0 336.3,67.7 340.3,66.8 344.3,66.3 348.4,66.1 352.4,65.7 356.4,65.6 360.4,65.6 364.5,81.1 368.5,79.6 372.5,78.2 376.6,76.8 380.6,72.5 384.6,69.6 388.7,66.4 392.7,65.2 396.7,63.9 400.7,61.7 404.8,59.3 408.8,57.6 412.8,56.9 416.9,56.3 420.9,54.6 424.9,53.3 429.0,52.6 433.0,51.6 437.0,51.1 441.0,51.0 445.1,50.1 449.1,48.6 453.1,47.6 457.2,46.5 461.2,45.4 465.2,44.8 469.3,44.4 473.3,43.4 477.3,42.5 481.3,41.6 485.4,40.9 489.4,40.6 493.4,40.4 497.5,39.9 501.5,39.1 505.5,38.5 509.6,38.0 513.6,37.5 517.6,37.1 521.6,36.6 525.7,36.2 529.7,35.9 533.7,35.5 537.8,34.7 541.8,34.1 545.8,33.4 549.9,32.9 553.9,32.4 557.9,32.1 561.9,31.8 566.0,31.1 570.0,30.0 570.0,30.0,120" />
  
  <!-- Linea principale -->
  <polyline fill="none" stroke="#0366d6" stroke-width="2.5" stroke-linecap="round" stroke-linejoin="round" points="30.0,120.0 34.0,118.8 38.1,117.5 42.1,116.3 46.1,116.0 50.1,115.4 54.2,114.0 58.2,113.0 62.2,112.4 66.3,110.9 70.3,110.2 74.3,109.5 78.4,109.0 82.4,108.4 86.4,107.4 90.4,106.3 94.5,105.5 98.5,105.0 102.5,104.6 106.6,104.0 110.6,103.2 114.6,102.5 118.7,102.2 122.7,101.5 126.7,99.2 130.7,98.5 134.8,97.6 138.8,96.7 142.8,95.9 146.9,95.2 150.9,94.7 154.9,94.3 159.0,93.7 163.0,92.5 167.0,91.6 171.0,90.9 175.1,90.1 179.1,89.9 183.1,89.7 187.2,89.3 191.2,88.6 195.2,88.2 199.3,87.8 203.3,87.0 207.3,85.8 211.3,85.5 215.4,85.2 219.4,84.8 223.4,83.8 227.5,83.1 231.5,82.1 235.5,81.4 239.6,80.5 243.6,80.3 247.6,79.7 251.6,78.8 255.7,77.9 259.7,77.2 263.7,76.9 267.8,76.4 271.8,76.0 275.8,75.0 279.9,74.0 283.9,73.1 287.9,72.3 291.9,71.9 296.0,71.6 300.0,71.2 304.0,70.5 308.1,70.1 312.1,69.7 316.1,69.3 320.1,69.0 324.2,68.5 328.2,68.2 332.2,68.0 336.3,67.7 340.3,66.8 344.3,66.3 348.4,66.1 352.4,65.7 356.4,65.6 360.4,65.6 364.5,81.1 368.5,79.6 372.5,78.2 376.6,76.8 380.6,72.5 384.6,69.6 388.7,66.4 392.7,65.2 396.7,63.9 400.7,61.7 404.8,59.3 408.8,57.6 412.8,56.9 416.9,56.3 420.9,54.6 424.9,53.3 429.0,52.6 433.0,51.6 437.0,51.1 441.0,51.0 445.1,50.1 449.1,48.6 453.1,47.6 457.2,46.5 461.2,45.4 465.2,44.8 469.3,44.4 473.3,43.4 477.3,42.5 481.3,41.6 485.4,40.9 489.4,40.6 493.4,40.4 497.5,39.9 501.5,39.1 505.5,38.5 509.6,38.0 513.6,37.5 517.6,37.1 521.6,36.6 525.7,36.2 529.7,35.9 533.7,35.5 537.8,34.7 541.8,34.1 545.8,33.4 549.9,32.9 553.9,32.4 557.9,32.1 561.9,31.8 566.0,31.1 570.0,30.0" />
  
  <!-- Punto finale luminoso -->
  <circle cx="570.0" cy="30.0" r="4" fill="#ffffff" stroke="#0366d6" stroke-width="2.5" />
</svg>