<svg width="600" height="150" viewBox="0 0 600 150" xmlns="http://www.w3.org/2000/svg">
  <defs>
    <filter id="shadow2" x="-2%" y="-2%" width="104%" height="108%">
      <feDropShadow dx="0" dy="2" stdDeviation="3" flood-opacity="0.1" />
    </filter>
    <linearGradient id="fillGrad" x1="0" y1="0" x2="0" y2="1">
      <stop offset="0%" stop-color="#0366d6" stop-opacity="0.3"/>
      <stop offset="100%" stop-color="#0366d6" stop-opacity="0.02"/>
    </linearGradient>
  </defs>
  <rect width="600" height="150" rx="12" fill="#ffffff" filter="url(#shadow2)" stroke="#e1e4e8" stroke-width="1"/>
  <text x="20" y="24" fill="#2b3137" font-family="-apple-system,BlinkMacSystemFont,'Segoe UI',Helvetica,Arial,sans-serif" font-size="14" font-weight="600">📈 Download Growth (Actual: 77.3k)</text>
  
  <!-- Area sotto la linea -->
  <polygon fill="url(#fillGrad)" points="30.0,120.0,120 30.0,120.0 33.0,119.0 36.0,118.0 39.0,117.1 42.0,116.8 45.0,116.3 48.0,115.2 51.0,114.4 54.0,113.9 57.0,112.8 60.0,112.2 63.0,111.6 66.0,111.3 69.0,110.8 72.0,110.0 75.0,109.1 78.0,108.5 81.0,108.1 84.0,107.8 87.0,107.2 90.0,106.6 93.0,106.1 96.0,105.8 99.0,105.3 102.0,103.5 105.0,102.9 108.0,102.2 111.0,101.5 114.0,100.9 117.0,100.3 120.0,99.9 123.0,99.6 126.0,99.1 129.0,98.2 132.0,97.4 135.0,96.9 138.0,96.3 141.0,96.1 144.0,95.9 147.0,95.6 150.0,95.0 153.0,94.7 156.0,94.4 159.0,93.8 162.0,92.8 165.0,92.5 168.0,92.4 171.0,92.0 174.0,91.2 177.0,90.7 180.0,89.9 183.0,89.3 186.0,88.6 189.0,88.4 192.0,88.0 195.0,87.3 198.0,86.5 201.0,86.0 204.0,85.7 207.0,85.3 210.0,85.0 213.0,84.2 216.0,83.4 219.0,82.7 222.0,82.1 225.0,81.7 228.0,81.5 231.0,81.2 234.0,80.7 237.0,80.3 240.0,80.0 243.0,79.7 246.0,79.4 249.0,79.0 252.0,78.8 255.0,78.6 258.0,78.4 261.0,77.7 264.0,77.3 267.0,77.1 270.0,76.9 273.0,76.7 276.0,76.7 279.0,89.1 282.0,87.9 285.0,86.8 288.0,85.6 291.0,82.3 294.0,79.9 297.0,77.4 300.0,76.4 303.0,75.4 306.0,73.6 309.0,71.8 312.0,70.4 315.0,69.8 318.0,69.3 321.0,68.0 324.0,67.0 327.0,66.4 330.0,65.6 333.0,65.2 336.0,65.1 339.0,64.4 342.0,63.2 345.0,62.4 348.0,61.6 351.0,60.6 354.0,60.2 357.0,59.9 360.0,59.1 363.0,58.4 366.0,57.7 369.0,57.1 372.0,56.9 375.0,56.7 378.0,56.3 381.0,55.7 384.0,55.2 387.0,54.8 390.0,54.4 393.0,54.1 396.0,53.7 399.0,53.4 402.0,53.1 405.0,52.8 408.0,52.1 411.0,51.7 414.0,51.1 417.0,50.7 420.0,50.4 423.0,50.1 426.0,49.9 429.0,49.3 432.0,48.4 435.0,47.6 438.0,47.1 441.0,46.5 444.0,45.9 447.0,45.6 450.0,45.2 453.0,44.4 456.0,43.9 459.0,43.6 462.0,43.2 465.0,43.0 468.0,42.4 471.0,42.0 474.0,41.8 477.0,41.6 480.0,41.3 483.0,40.7 486.0,40.3 489.0,39.8 492.0,39.3 495.0,38.9 498.0,38.4 501.0,37.7 504.0,37.4 507.0,36.8 510.0,36.1 513.0,35.9 516.0,35.8 519.0,35.5 522.0,35.1 525.0,34.7 528.0,34.2 531.0,34.0 534.0,33.7 537.0,33.4 540.0,33.2 543.0,33.0 546.0,32.5 549.0,32.1 552.0,31.8 555.0,31.5 558.0,31.1 561.0,30.8 564.0,30.7 567.0,30.4 570.0,30.0 570.0,30.0,120" />
  
  <!-- Linea principale -->
  <polyline fill="none" stroke="#0366d6" stroke-width="2.5" stroke-linecap="round" stroke-linejoin="round" points="30.0,120.0 33.0,119.0 36.0,118.0 39.0,117.1 42.0,116.8 45.0,116.3 48.0,115.2 51.0,114.4 54.0,113.9 57.0,112.8 60.0,112.2 63.0,111.6 66.0,111.3 69.0,110.8 72.0,110.0 75.0,109.1 78.0,108.5 81.0,108.1 84.0,107.8 87.0,107.2 90.0,106.6 93.0,106.1 96.0,105.8 99.0,105.3 102.0,103.5 105.0,102.9 108.0,102.2 111.0,101.5 114.0,100.9 117.0,100.3 120.0,99.9 123.0,99.6 126.0,99.1 129.0,98.2 132.0,97.4 135.0,96.9 138.0,96.3 141.0,96.1 144.0,95.9 147.0,95.6 150.0,95.0 153.0,94.7 156.0,94.4 159.0,93.8 162.0,92.8 165.0,92.5 168.0,92.4 171.0,92.0 174.0,91.2 177.0,90.7 180.0,89.9 183.0,89.3 186.0,88.6 189.0,88.4 192.0,88.0 195.0,87.3 198.0,86.5 201.0,86.0 204.0,85.7 207.0,85.3 210.0,85.0 213.0,84.2 216.0,83.4 219.0,82.7 222.0,82.1 225.0,81.7 228.0,81.5 231.0,81.2 234.0,80.7 237.0,80.3 240.0,80.0 243.0,79.7 246.0,79.4 249.0,79.0 252.0,78.8 255.0,78.6 258.0,78.4 261.0,77.7 264.0,77.3 267.0,77.1 270.0,76.9 273.0,76.7 276.0,76.7 279.0,89.1 282.0,87.9 285.0,86.8 288.0,85.6 291.0,82.3 294.0,79.9 297.0,77.4 300.0,76.4 303.0,75.4 306.0,73.6 309.0,71.8 312.0,70.4 315.0,69.8 318.0,69.3 321.0,68.0 324.0,67.0 327.0,66.4 330.0,65.6 333.0,65.2 336.0,65.1 339.0,64.4 342.0,63.2 345.0,62.4 348.0,61.6 351.0,60.6 354.0,60.2 357.0,59.9 360.0,59.1 363.0,58.4 366.0,57.7 369.0,57.1 372.0,56.9 375.0,56.7 378.0,56.3 381.0,55.7 384.0,55.2 387.0,54.8 390.0,54.4 393.0,54.1 396.0,53.7 399.0,53.4 402.0,53.1 405.0,52.8 408.0,52.1 411.0,51.7 414.0,51.1 417.0,50.7 420.0,50.4 423.0,50.1 426.0,49.9 429.0,49.3 432.0,48.4 435.0,47.6 438.0,47.1 441.0,46.5 444.0,45.9 447.0,45.6 450.0,45.2 453.0,44.4 456.0,43.9 459.0,43.6 462.0,43.2 465.0,43.0 468.0,42.4 471.0,42.0 474.0,41.8 477.0,41.6 480.0,41.3 483.0,40.7 486.0,40.3 489.0,39.8 492.0,39.3 495.0,38.9 498.0,38.4 501.0,37.7 504.0,37.4 507.0,36.8 510.0,36.1 513.0,35.9 516.0,35.8 519.0,35.5 522.0,35.1 525.0,34.7 528.0,34.2 531.0,34.0 534.0,33.7 537.0,33.4 540.0,33.2 543.0,33.0 546.0,32.5 549.0,32.1 552.0,31.8 555.0,31.5 558.0,31.1 561.0,30.8 564.0,30.7 567.0,30.4 570.0,30.0" />
  
  <!-- Punto finale luminoso -->
  <circle cx="570.0" cy="30.0" r="4" fill="#ffffff" stroke="#0366d6" stroke-width="2.5" />
</svg>