<svg width="600" height="150" viewBox="0 0 600 150" xmlns="http://www.w3.org/2000/svg">
  <defs>
    <filter id="shadow2" x="-2%" y="-2%" width="104%" height="108%">
      <feDropShadow dx="0" dy="2" stdDeviation="3" flood-opacity="0.1" />
    </filter>
    <linearGradient id="fillGrad" x1="0" y1="0" x2="0" y2="1">
      <stop offset="0%" stop-color="#0366d6" stop-opacity="0.3"/>
      <stop offset="100%" stop-color="#0366d6" stop-opacity="0.02"/>
    </linearGradient>
  </defs>
  <rect width="600" height="150" rx="12" fill="#ffffff" filter="url(#shadow2)" stroke="#e1e4e8" stroke-width="1"/>
  <text x="20" y="24" fill="#2b3137" font-family="-apple-system,BlinkMacSystemFont,'Segoe UI',Helvetica,Arial,sans-serif" font-size="14" font-weight="600">📈 Download Growth (Actual: 75.5k)</text>
  
  <!-- Area sotto la linea -->
  <polygon fill="url(#fillGrad)" points="30.0,120.0,120 30.0,120.0 33.9,118.8 37.7,117.6 41.6,116.5 45.4,116.2 49.3,115.6 53.1,114.2 57.0,113.3 60.9,112.7 64.7,111.3 68.6,110.6 72.4,109.9 76.3,109.5 80.1,108.9 84.0,107.9 87.9,106.9 91.7,106.2 95.6,105.7 99.4,105.3 103.3,104.7 107.1,103.9 111.0,103.3 114.9,103.0 118.7,102.3 122.6,100.1 126.4,99.5 130.3,98.6 134.1,97.8 138.0,97.0 141.9,96.3 145.7,95.8 149.6,95.4 153.4,94.8 157.3,93.7 161.1,92.8 165.0,92.2 168.9,91.4 172.7,91.2 176.6,91.1 180.4,90.7 184.3,90.0 188.1,89.6 192.0,89.2 195.9,88.4 199.7,87.3 203.6,87.0 207.4,86.8 211.3,86.3 215.1,85.4 219.0,84.7 222.9,83.8 226.7,83.1 230.6,82.2 234.4,82.0 238.3,81.5 242.1,80.6 246.0,79.7 249.9,79.1 253.7,78.8 257.6,78.3 261.4,77.9 265.3,76.9 269.1,76.0 273.0,75.2 276.9,74.4 280.7,74.0 284.6,73.7 288.4,73.3 292.3,72.7 296.1,72.2 300.0,71.8 303.9,71.5 307.7,71.2 311.6,70.7 315.4,70.4 319.3,70.2 323.1,70.0 327.0,69.1 330.9,68.6 334.7,68.4 338.6,68.1 342.4,67.9 346.3,67.9 350.1,82.8 354.0,81.4 357.9,80.0 361.7,78.7 365.6,74.6 369.4,71.8 373.3,68.7 377.1,67.6 381.0,66.3 384.9,64.2 388.7,62.0 392.6,60.3 396.4,59.7 400.3,59.1 404.1,57.4 408.0,56.3 411.9,55.5 415.7,54.5 419.6,54.1 423.4,54.0 427.3,53.1 431.1,51.7 435.0,50.7 438.9,49.7 442.7,48.6 446.6,48.1 450.4,47.7 454.3,46.7 458.1,45.9 462.0,45.0 465.9,44.4 469.7,44.1 473.6,43.9 477.4,43.4 481.3,42.6 485.1,42.1 489.0,41.6 492.9,41.1 496.7,40.7 500.6,40.3 504.4,39.9 508.3,39.5 512.1,39.2 516.0,38.4 519.9,37.8 523.7,37.1 527.6,36.7 531.4,36.3 535.3,35.9 539.1,35.7 543.0,35.0 546.9,33.9 550.7,32.9 554.6,32.3 558.4,31.6 562.3,30.9 566.1,30.5 570.0,30.0 570.0,30.0,120" />
  
  <!-- Linea principale -->
  <polyline fill="none" stroke="#0366d6" stroke-width="2.5" stroke-linecap="round" stroke-linejoin="round" points="30.0,120.0 33.9,118.8 37.7,117.6 41.6,116.5 45.4,116.2 49.3,115.6 53.1,114.2 57.0,113.3 60.9,112.7 64.7,111.3 68.6,110.6 72.4,109.9 76.3,109.5 80.1,108.9 84.0,107.9 87.9,106.9 91.7,106.2 95.6,105.7 99.4,105.3 103.3,104.7 107.1,103.9 111.0,103.3 114.9,103.0 118.7,102.3 122.6,100.1 126.4,99.5 130.3,98.6 134.1,97.8 138.0,97.0 141.9,96.3 145.7,95.8 149.6,95.4 153.4,94.8 157.3,93.7 161.1,92.8 165.0,92.2 168.9,91.4 172.7,91.2 176.6,91.1 180.4,90.7 184.3,90.0 188.1,89.6 192.0,89.2 195.9,88.4 199.7,87.3 203.6,87.0 207.4,86.8 211.3,86.3 215.1,85.4 219.0,84.7 222.9,83.8 226.7,83.1 230.6,82.2 234.4,82.0 238.3,81.5 242.1,80.6 246.0,79.7 249.9,79.1 253.7,78.8 257.6,78.3 261.4,77.9 265.3,76.9 269.1,76.0 273.0,75.2 276.9,74.4 280.7,74.0 284.6,73.7 288.4,73.3 292.3,72.7 296.1,72.2 300.0,71.8 303.9,71.5 307.7,71.2 311.6,70.7 315.4,70.4 319.3,70.2 323.1,70.0 327.0,69.1 330.9,68.6 334.7,68.4 338.6,68.1 342.4,67.9 346.3,67.9 350.1,82.8 354.0,81.4 357.9,80.0 361.7,78.7 365.6,74.6 369.4,71.8 373.3,68.7 377.1,67.6 381.0,66.3 384.9,64.2 388.7,62.0 392.6,60.3 396.4,59.7 400.3,59.1 404.1,57.4 408.0,56.3 411.9,55.5 415.7,54.5 419.6,54.1 423.4,54.0 427.3,53.1 431.1,51.7 435.0,50.7 438.9,49.7 442.7,48.6 446.6,48.1 450.4,47.7 454.3,46.7 458.1,45.9 462.0,45.0 465.9,44.4 469.7,44.1 473.6,43.9 477.4,43.4 481.3,42.6 485.1,42.1 489.0,41.6 492.9,41.1 496.7,40.7 500.6,40.3 504.4,39.9 508.3,39.5 512.1,39.2 516.0,38.4 519.9,37.8 523.7,37.1 527.6,36.7 531.4,36.3 535.3,35.9 539.1,35.7 543.0,35.0 546.9,33.9 550.7,32.9 554.6,32.3 558.4,31.6 562.3,30.9 566.1,30.5 570.0,30.0" />
  
  <!-- Punto finale luminoso -->
  <circle cx="570.0" cy="30.0" r="4" fill="#ffffff" stroke="#0366d6" stroke-width="2.5" />
</svg>