<svg width="600" height="150" viewBox="0 0 600 150" xmlns="http://www.w3.org/2000/svg">
  <defs>
    <filter id="shadow2" x="-2%" y="-2%" width="104%" height="108%">
      <feDropShadow dx="0" dy="2" stdDeviation="3" flood-opacity="0.1" />
    </filter>
    <linearGradient id="fillGrad" x1="0" y1="0" x2="0" y2="1">
      <stop offset="0%" stop-color="#0366d6" stop-opacity="0.3"/>
      <stop offset="100%" stop-color="#0366d6" stop-opacity="0.02"/>
    </linearGradient>
  </defs>
  <rect width="600" height="150" rx="12" fill="#ffffff" filter="url(#shadow2)" stroke="#e1e4e8" stroke-width="1"/>
  <text x="20" y="24" fill="#2b3137" font-family="-apple-system,BlinkMacSystemFont,'Segoe UI',Helvetica,Arial,sans-serif" font-size="14" font-weight="600">📈 Download Growth (Actual: 75.6k)</text>
  
  <!-- Area sotto la linea -->
  <polygon fill="url(#fillGrad)" points="30.0,120.0,120 30.0,120.0 33.8,118.8 37.7,117.6 41.5,116.5 45.3,116.2 49.1,115.6 53.0,114.3 56.8,113.4 60.6,112.8 64.5,111.4 68.3,110.7 72.1,110.0 76.0,109.6 79.8,109.0 83.6,108.1 87.4,107.1 91.3,106.3 95.1,105.8 98.9,105.4 102.8,104.8 106.6,104.1 110.4,103.4 114.3,103.1 118.1,102.5 121.9,100.3 125.7,99.7 129.6,98.8 133.4,98.0 137.2,97.2 141.1,96.5 144.9,96.0 148.7,95.7 152.6,95.1 156.4,94.0 160.2,93.1 164.0,92.5 167.9,91.7 171.7,91.5 175.5,91.3 179.4,91.0 183.2,90.3 187.0,89.9 190.9,89.6 194.7,88.8 198.5,87.6 202.3,87.3 206.2,87.1 210.0,86.6 213.8,85.7 217.7,85.1 221.5,84.1 225.3,83.4 229.1,82.6 233.0,82.4 236.8,81.9 240.6,81.0 244.5,80.1 248.3,79.5 252.1,79.2 256.0,78.7 259.8,78.3 263.6,77.3 267.4,76.4 271.3,75.6 275.1,74.8 278.9,74.4 282.8,74.2 286.6,73.8 290.4,73.1 294.3,72.7 298.1,72.3 301.9,72.0 305.7,71.7 309.6,71.2 313.4,70.9 317.2,70.7 321.1,70.5 324.9,69.6 328.7,69.1 332.6,68.9 336.4,68.6 340.2,68.5 344.0,68.5 347.9,83.2 351.7,81.7 355.5,80.4 359.4,79.1 363.2,75.1 367.0,72.3 370.9,69.2 374.7,68.1 378.5,66.9 382.3,64.8 386.2,62.5 390.0,60.9 393.8,60.3 397.7,59.7 401.5,58.1 405.3,56.9 409.1,56.1 413.0,55.2 416.8,54.8 420.6,54.6 424.5,53.8 428.3,52.4 432.1,51.4 436.0,50.4 439.8,49.3 443.6,48.8 447.4,48.4 451.3,47.4 455.1,46.6 458.9,45.8 462.8,45.1 466.6,44.8 470.4,44.6 474.3,44.1 478.1,43.4 481.9,42.9 485.7,42.3 489.6,41.9 493.4,41.5 497.2,41.1 501.1,40.7 504.9,40.3 508.7,40.0 512.6,39.2 516.4,38.6 520.2,38.0 524.0,37.5 527.9,37.1 531.7,36.8 535.5,36.5 539.4,35.8 543.2,34.8 547.0,33.8 550.9,33.1 554.7,32.4 558.5,31.8 562.3,31.4 566.2,30.9 570.0,30.0 570.0,30.0,120" />
  
  <!-- Linea principale -->
  <polyline fill="none" stroke="#0366d6" stroke-width="2.5" stroke-linecap="round" stroke-linejoin="round" points="30.0,120.0 33.8,118.8 37.7,117.6 41.5,116.5 45.3,116.2 49.1,115.6 53.0,114.3 56.8,113.4 60.6,112.8 64.5,111.4 68.3,110.7 72.1,110.0 76.0,109.6 79.8,109.0 83.6,108.1 87.4,107.1 91.3,106.3 95.1,105.8 98.9,105.4 102.8,104.8 106.6,104.1 110.4,103.4 114.3,103.1 118.1,102.5 121.9,100.3 125.7,99.7 129.6,98.8 133.4,98.0 137.2,97.2 141.1,96.5 144.9,96.0 148.7,95.7 152.6,95.1 156.4,94.0 160.2,93.1 164.0,92.5 167.9,91.7 171.7,91.5 175.5,91.3 179.4,91.0 183.2,90.3 187.0,89.9 190.9,89.6 194.7,88.8 198.5,87.6 202.3,87.3 206.2,87.1 210.0,86.6 213.8,85.7 217.7,85.1 221.5,84.1 225.3,83.4 229.1,82.6 233.0,82.4 236.8,81.9 240.6,81.0 244.5,80.1 248.3,79.5 252.1,79.2 256.0,78.7 259.8,78.3 263.6,77.3 267.4,76.4 271.3,75.6 275.1,74.8 278.9,74.4 282.8,74.2 286.6,73.8 290.4,73.1 294.3,72.7 298.1,72.3 301.9,72.0 305.7,71.7 309.6,71.2 313.4,70.9 317.2,70.7 321.1,70.5 324.9,69.6 328.7,69.1 332.6,68.9 336.4,68.6 340.2,68.5 344.0,68.5 347.9,83.2 351.7,81.7 355.5,80.4 359.4,79.1 363.2,75.1 367.0,72.3 370.9,69.2 374.7,68.1 378.5,66.9 382.3,64.8 386.2,62.5 390.0,60.9 393.8,60.3 397.7,59.7 401.5,58.1 405.3,56.9 409.1,56.1 413.0,55.2 416.8,54.8 420.6,54.6 424.5,53.8 428.3,52.4 432.1,51.4 436.0,50.4 439.8,49.3 443.6,48.8 447.4,48.4 451.3,47.4 455.1,46.6 458.9,45.8 462.8,45.1 466.6,44.8 470.4,44.6 474.3,44.1 478.1,43.4 481.9,42.9 485.7,42.3 489.6,41.9 493.4,41.5 497.2,41.1 501.1,40.7 504.9,40.3 508.7,40.0 512.6,39.2 516.4,38.6 520.2,38.0 524.0,37.5 527.9,37.1 531.7,36.8 535.5,36.5 539.4,35.8 543.2,34.8 547.0,33.8 550.9,33.1 554.7,32.4 558.5,31.8 562.3,31.4 566.2,30.9 570.0,30.0" />
  
  <!-- Punto finale luminoso -->
  <circle cx="570.0" cy="30.0" r="4" fill="#ffffff" stroke="#0366d6" stroke-width="2.5" />
</svg>