<svg width="600" height="150" viewBox="0 0 600 150" xmlns="http://www.w3.org/2000/svg">
  <defs>
    <filter id="shadow2" x="-2%" y="-2%" width="104%" height="108%">
      <feDropShadow dx="0" dy="2" stdDeviation="3" flood-opacity="0.1" />
    </filter>
    <linearGradient id="fillGrad" x1="0" y1="0" x2="0" y2="1">
      <stop offset="0%" stop-color="#0366d6" stop-opacity="0.3"/>
      <stop offset="100%" stop-color="#0366d6" stop-opacity="0.02"/>
    </linearGradient>
  </defs>
  <rect width="600" height="150" rx="12" fill="#ffffff" filter="url(#shadow2)" stroke="#e1e4e8" stroke-width="1"/>
  <text x="20" y="24" fill="#2b3137" font-family="-apple-system,BlinkMacSystemFont,'Segoe UI',Helvetica,Arial,sans-serif" font-size="14" font-weight="600">📈 Download Growth (Actual: 77.2k)</text>
  
  <!-- Area sotto la linea -->
  <polygon fill="url(#fillGrad)" points="30.0,120.0,120 30.0,120.0 33.0,119.0 36.1,118.0 39.1,117.0 42.1,116.8 45.2,116.3 48.2,115.2 51.2,114.4 54.3,113.9 57.3,112.7 60.3,112.1 63.4,111.6 66.4,111.2 69.4,110.7 72.5,109.9 75.5,109.1 78.5,108.4 81.6,108.0 84.6,107.7 87.6,107.2 90.7,106.5 93.7,106.0 96.7,105.7 99.8,105.2 102.8,103.4 105.8,102.8 108.9,102.1 111.9,101.4 114.9,100.7 118.0,100.1 121.0,99.7 124.0,99.4 127.1,98.9 130.1,98.0 133.1,97.2 136.2,96.7 139.2,96.1 142.2,95.9 145.3,95.8 148.3,95.4 151.3,94.8 154.4,94.5 157.4,94.2 160.4,93.6 163.5,92.6 166.5,92.3 169.6,92.2 172.6,91.8 175.6,91.0 178.7,90.5 181.7,89.6 184.7,89.1 187.8,88.3 190.8,88.2 193.8,87.7 196.9,87.0 199.9,86.3 202.9,85.7 206.0,85.5 209.0,85.1 212.0,84.7 215.1,83.9 218.1,83.1 221.1,82.5 224.2,81.8 227.2,81.4 230.2,81.2 233.3,80.9 236.3,80.4 239.3,80.0 242.4,79.7 245.4,79.4 248.4,79.1 251.5,78.7 254.5,78.5 257.5,78.3 260.6,78.1 263.6,77.4 266.6,76.9 269.7,76.8 272.7,76.5 275.7,76.4 278.8,76.4 281.8,88.9 284.8,87.6 287.9,86.5 290.9,85.4 293.9,82.0 297.0,79.6 300.0,77.1 303.0,76.1 306.1,75.0 309.1,73.3 312.1,71.4 315.2,70.0 318.2,69.5 321.2,69.0 324.3,67.6 327.3,66.6 330.3,66.0 333.4,65.2 336.4,64.8 339.4,64.7 342.5,64.0 345.5,62.8 348.5,62.0 351.6,61.1 354.6,60.2 357.6,59.8 360.7,59.4 363.7,58.6 366.7,57.9 369.8,57.2 372.8,56.7 375.8,56.4 378.9,56.2 381.9,55.8 384.9,55.2 388.0,54.7 391.0,54.3 394.0,53.9 397.1,53.6 400.1,53.2 403.1,52.9 406.2,52.6 409.2,52.3 412.2,51.6 415.3,51.2 418.3,50.6 421.3,50.2 424.4,49.8 427.4,49.6 430.4,49.4 433.5,48.8 436.5,47.9 439.6,47.0 442.6,46.5 445.6,45.9 448.7,45.4 451.7,45.0 454.7,44.6 457.8,43.9 460.8,43.4 463.8,43.0 466.9,42.6 469.9,42.4 472.9,41.9 476.0,41.4 479.0,41.3 482.0,41.0 485.1,40.7 488.1,40.1 491.1,39.7 494.2,39.2 497.2,38.7 500.2,38.3 503.3,37.8 506.3,37.1 509.3,36.8 512.4,36.1 515.4,35.5 518.4,35.3 521.5,35.1 524.5,34.8 527.5,34.4 530.6,34.1 533.6,33.5 536.6,33.3 539.7,33.1 542.7,32.7 545.7,32.5 548.8,32.4 551.8,31.8 554.8,31.4 557.9,31.1 560.9,30.8 563.9,30.5 567.0,30.1 570.0,30.0 570.0,30.0,120" />
  
  <!-- Linea principale -->
  <polyline fill="none" stroke="#0366d6" stroke-width="2.5" stroke-linecap="round" stroke-linejoin="round" points="30.0,120.0 33.0,119.0 36.1,118.0 39.1,117.0 42.1,116.8 45.2,116.3 48.2,115.2 51.2,114.4 54.3,113.9 57.3,112.7 60.3,112.1 63.4,111.6 66.4,111.2 69.4,110.7 72.5,109.9 75.5,109.1 78.5,108.4 81.6,108.0 84.6,107.7 87.6,107.2 90.7,106.5 93.7,106.0 96.7,105.7 99.8,105.2 102.8,103.4 105.8,102.8 108.9,102.1 111.9,101.4 114.9,100.7 118.0,100.1 121.0,99.7 124.0,99.4 127.1,98.9 130.1,98.0 133.1,97.2 136.2,96.7 139.2,96.1 142.2,95.9 145.3,95.8 148.3,95.4 151.3,94.8 154.4,94.5 157.4,94.2 160.4,93.6 163.5,92.6 166.5,92.3 169.6,92.2 172.6,91.8 175.6,91.0 178.7,90.5 181.7,89.6 184.7,89.1 187.8,88.3 190.8,88.2 193.8,87.7 196.9,87.0 199.9,86.3 202.9,85.7 206.0,85.5 209.0,85.1 212.0,84.7 215.1,83.9 218.1,83.1 221.1,82.5 224.2,81.8 227.2,81.4 230.2,81.2 233.3,80.9 236.3,80.4 239.3,80.0 242.4,79.7 245.4,79.4 248.4,79.1 251.5,78.7 254.5,78.5 257.5,78.3 260.6,78.1 263.6,77.4 266.6,76.9 269.7,76.8 272.7,76.5 275.7,76.4 278.8,76.4 281.8,88.9 284.8,87.6 287.9,86.5 290.9,85.4 293.9,82.0 297.0,79.6 300.0,77.1 303.0,76.1 306.1,75.0 309.1,73.3 312.1,71.4 315.2,70.0 318.2,69.5 321.2,69.0 324.3,67.6 327.3,66.6 330.3,66.0 333.4,65.2 336.4,64.8 339.4,64.7 342.5,64.0 345.5,62.8 348.5,62.0 351.6,61.1 354.6,60.2 357.6,59.8 360.7,59.4 363.7,58.6 366.7,57.9 369.8,57.2 372.8,56.7 375.8,56.4 378.9,56.2 381.9,55.8 384.9,55.2 388.0,54.7 391.0,54.3 394.0,53.9 397.1,53.6 400.1,53.2 403.1,52.9 406.2,52.6 409.2,52.3 412.2,51.6 415.3,51.2 418.3,50.6 421.3,50.2 424.4,49.8 427.4,49.6 430.4,49.4 433.5,48.8 436.5,47.9 439.6,47.0 442.6,46.5 445.6,45.9 448.7,45.4 451.7,45.0 454.7,44.6 457.8,43.9 460.8,43.4 463.8,43.0 466.9,42.6 469.9,42.4 472.9,41.9 476.0,41.4 479.0,41.3 482.0,41.0 485.1,40.7 488.1,40.1 491.1,39.7 494.2,39.2 497.2,38.7 500.2,38.3 503.3,37.8 506.3,37.1 509.3,36.8 512.4,36.1 515.4,35.5 518.4,35.3 521.5,35.1 524.5,34.8 527.5,34.4 530.6,34.1 533.6,33.5 536.6,33.3 539.7,33.1 542.7,32.7 545.7,32.5 548.8,32.4 551.8,31.8 554.8,31.4 557.9,31.1 560.9,30.8 563.9,30.5 567.0,30.1 570.0,30.0" />
  
  <!-- Punto finale luminoso -->
  <circle cx="570.0" cy="30.0" r="4" fill="#ffffff" stroke="#0366d6" stroke-width="2.5" />
</svg>