<svg width="600" height="150" viewBox="0 0 600 150" xmlns="http://www.w3.org/2000/svg">
  <defs>
    <filter id="shadow2" x="-2%" y="-2%" width="104%" height="108%">
      <feDropShadow dx="0" dy="2" stdDeviation="3" flood-opacity="0.1" />
    </filter>
    <linearGradient id="fillGrad" x1="0" y1="0" x2="0" y2="1">
      <stop offset="0%" stop-color="#0366d6" stop-opacity="0.3"/>
      <stop offset="100%" stop-color="#0366d6" stop-opacity="0.02"/>
    </linearGradient>
  </defs>
  <rect width="600" height="150" rx="12" fill="#ffffff" filter="url(#shadow2)" stroke="#e1e4e8" stroke-width="1"/>
  <text x="20" y="24" fill="#2b3137" font-family="-apple-system,BlinkMacSystemFont,'Segoe UI',Helvetica,Arial,sans-serif" font-size="14" font-weight="600">📈 Download Growth (Actual: 75.9k)</text>
  
  <!-- Area sotto la linea -->
  <polygon fill="url(#fillGrad)" points="30.0,120.0,120 30.0,120.0 33.6,118.9 37.2,117.7 40.9,116.6 44.5,116.3 48.1,115.8 51.7,114.5 55.4,113.6 59.0,113.0 62.6,111.7 66.2,111.0 69.9,110.4 73.5,110.0 77.1,109.4 80.7,108.5 84.4,107.5 88.0,106.8 91.6,106.3 95.2,106.0 98.9,105.4 102.5,104.7 106.1,104.0 109.7,103.7 113.4,103.1 117.0,101.0 120.6,100.4 124.2,99.6 127.9,98.8 131.5,98.0 135.1,97.3 138.7,96.9 142.3,96.5 146.0,96.0 149.6,94.9 153.2,94.1 156.8,93.5 160.5,92.7 164.1,92.5 167.7,92.4 171.3,92.0 175.0,91.3 178.6,90.9 182.2,90.6 185.8,89.9 189.5,88.8 193.1,88.5 196.7,88.3 200.3,87.8 204.0,86.9 207.6,86.3 211.2,85.4 214.8,84.7 218.5,83.9 222.1,83.7 225.7,83.3 229.3,82.4 233.0,81.6 236.6,80.9 240.2,80.6 243.8,80.2 247.4,79.8 251.1,78.9 254.7,78.0 258.3,77.2 261.9,76.4 265.6,76.0 269.2,75.8 272.8,75.5 276.4,74.8 280.1,74.4 283.7,74.0 287.3,73.7 290.9,73.4 294.6,73.0 298.2,72.7 301.8,72.5 305.4,72.3 309.1,71.4 312.7,70.9 316.3,70.8 319.9,70.5 323.6,70.3 327.2,70.3 330.8,84.5 334.4,83.1 338.1,81.9 341.7,80.5 345.3,76.7 348.9,74.0 352.6,71.1 356.2,70.0 359.8,68.8 363.4,66.8 367.0,64.6 370.7,63.0 374.3,62.4 377.9,61.8 381.5,60.3 385.2,59.2 388.8,58.4 392.4,57.5 396.0,57.1 399.7,57.0 403.3,56.2 406.9,54.8 410.5,53.9 414.2,52.9 417.8,51.9 421.4,51.4 425.0,51.0 428.7,50.1 432.3,49.2 435.9,48.4 439.5,47.8 443.2,47.5 446.8,47.3 450.4,46.8 454.0,46.2 457.7,45.6 461.3,45.1 464.9,44.7 468.5,44.3 472.1,43.9 475.8,43.5 479.4,43.2 483.0,42.8 486.6,42.1 490.3,41.6 493.9,40.9 497.5,40.5 501.1,40.1 504.8,39.8 508.4,39.5 512.0,38.9 515.6,37.8 519.3,36.9 522.9,36.3 526.5,35.6 530.1,35.0 533.8,34.6 537.4,34.1 541.0,33.2 544.6,32.7 548.3,32.3 551.9,31.9 555.5,31.6 559.1,31.0 562.8,30.4 566.4,30.3 570.0,30.0 570.0,30.0,120" />
  
  <!-- Linea principale -->
  <polyline fill="none" stroke="#0366d6" stroke-width="2.5" stroke-linecap="round" stroke-linejoin="round" points="30.0,120.0 33.6,118.9 37.2,117.7 40.9,116.6 44.5,116.3 48.1,115.8 51.7,114.5 55.4,113.6 59.0,113.0 62.6,111.7 66.2,111.0 69.9,110.4 73.5,110.0 77.1,109.4 80.7,108.5 84.4,107.5 88.0,106.8 91.6,106.3 95.2,106.0 98.9,105.4 102.5,104.7 106.1,104.0 109.7,103.7 113.4,103.1 117.0,101.0 120.6,100.4 124.2,99.6 127.9,98.8 131.5,98.0 135.1,97.3 138.7,96.9 142.3,96.5 146.0,96.0 149.6,94.9 153.2,94.1 156.8,93.5 160.5,92.7 164.1,92.5 167.7,92.4 171.3,92.0 175.0,91.3 178.6,90.9 182.2,90.6 185.8,89.9 189.5,88.8 193.1,88.5 196.7,88.3 200.3,87.8 204.0,86.9 207.6,86.3 211.2,85.4 214.8,84.7 218.5,83.9 222.1,83.7 225.7,83.3 229.3,82.4 233.0,81.6 236.6,80.9 240.2,80.6 243.8,80.2 247.4,79.8 251.1,78.9 254.7,78.0 258.3,77.2 261.9,76.4 265.6,76.0 269.2,75.8 272.8,75.5 276.4,74.8 280.1,74.4 283.7,74.0 287.3,73.7 290.9,73.4 294.6,73.0 298.2,72.7 301.8,72.5 305.4,72.3 309.1,71.4 312.7,70.9 316.3,70.8 319.9,70.5 323.6,70.3 327.2,70.3 330.8,84.5 334.4,83.1 338.1,81.9 341.7,80.5 345.3,76.7 348.9,74.0 352.6,71.1 356.2,70.0 359.8,68.8 363.4,66.8 367.0,64.6 370.7,63.0 374.3,62.4 377.9,61.8 381.5,60.3 385.2,59.2 388.8,58.4 392.4,57.5 396.0,57.1 399.7,57.0 403.3,56.2 406.9,54.8 410.5,53.9 414.2,52.9 417.8,51.9 421.4,51.4 425.0,51.0 428.7,50.1 432.3,49.2 435.9,48.4 439.5,47.8 443.2,47.5 446.8,47.3 450.4,46.8 454.0,46.2 457.7,45.6 461.3,45.1 464.9,44.7 468.5,44.3 472.1,43.9 475.8,43.5 479.4,43.2 483.0,42.8 486.6,42.1 490.3,41.6 493.9,40.9 497.5,40.5 501.1,40.1 504.8,39.8 508.4,39.5 512.0,38.9 515.6,37.8 519.3,36.9 522.9,36.3 526.5,35.6 530.1,35.0 533.8,34.6 537.4,34.1 541.0,33.2 544.6,32.7 548.3,32.3 551.9,31.9 555.5,31.6 559.1,31.0 562.8,30.4 566.4,30.3 570.0,30.0" />
  
  <!-- Punto finale luminoso -->
  <circle cx="570.0" cy="30.0" r="4" fill="#ffffff" stroke="#0366d6" stroke-width="2.5" />
</svg>