<svg width="600" height="150" viewBox="0 0 600 150" xmlns="http://www.w3.org/2000/svg">
  <defs>
    <filter id="shadow2" x="-2%" y="-2%" width="104%" height="108%">
      <feDropShadow dx="0" dy="2" stdDeviation="3" flood-opacity="0.1" />
    </filter>
    <linearGradient id="fillGrad" x1="0" y1="0" x2="0" y2="1">
      <stop offset="0%" stop-color="#0366d6" stop-opacity="0.3"/>
      <stop offset="100%" stop-color="#0366d6" stop-opacity="0.02"/>
    </linearGradient>
  </defs>
  <rect width="600" height="150" rx="12" fill="#ffffff" filter="url(#shadow2)" stroke="#e1e4e8" stroke-width="1"/>
  <text x="20" y="24" fill="#2b3137" font-family="-apple-system,BlinkMacSystemFont,'Segoe UI',Helvetica,Arial,sans-serif" font-size="14" font-weight="600">📈 Download Growth (Actual: 77.4k)</text>
  
  <!-- Area sotto la linea -->
  <polygon fill="url(#fillGrad)" points="30.0,120.0,120 30.0,120.0 33.0,119.0 35.9,118.0 38.9,117.1 41.9,116.9 44.8,116.4 47.8,115.3 50.8,114.5 53.7,114.0 56.7,112.9 59.7,112.3 62.6,111.7 65.6,111.4 68.6,110.9 71.5,110.1 74.5,109.3 77.5,108.7 80.4,108.2 83.4,107.9 86.4,107.4 89.3,106.8 92.3,106.3 95.3,106.0 98.2,105.5 101.2,103.7 104.2,103.2 107.1,102.5 110.1,101.8 113.1,101.1 116.0,100.5 119.0,100.1 122.0,99.8 124.9,99.3 127.9,98.5 130.9,97.7 133.8,97.2 136.8,96.6 139.8,96.4 142.7,96.3 145.7,95.9 148.7,95.4 151.6,95.0 154.6,94.8 157.6,94.1 160.5,93.1 163.5,92.9 166.5,92.7 169.5,92.3 172.4,91.6 175.4,91.1 178.4,90.3 181.3,89.7 184.3,89.0 187.3,88.8 190.2,88.4 193.2,87.7 196.2,87.0 199.1,86.4 202.1,86.2 205.1,85.8 208.0,85.5 211.0,84.7 214.0,83.9 216.9,83.2 219.9,82.6 222.9,82.2 225.8,82.0 228.8,81.7 231.8,81.2 234.7,80.8 237.7,80.5 240.7,80.2 243.6,80.0 246.6,79.6 249.6,79.3 252.5,79.2 255.5,79.0 258.5,78.2 261.4,77.8 264.4,77.7 267.4,77.4 270.3,77.3 273.3,77.3 276.3,89.5 279.2,88.3 282.2,87.2 285.2,86.1 288.1,82.8 291.1,80.4 294.1,77.9 297.0,77.0 300.0,76.0 303.0,74.3 305.9,72.4 308.9,71.0 311.9,70.5 314.8,70.0 317.8,68.7 320.8,67.7 323.7,67.1 326.7,66.3 329.7,66.0 332.6,65.8 335.6,65.1 338.6,64.0 341.5,63.2 344.5,62.4 347.5,61.4 350.4,61.0 353.4,60.7 356.4,59.9 359.3,59.2 362.3,58.5 365.3,58.0 368.2,57.7 371.2,57.5 374.2,57.1 377.1,56.5 380.1,56.1 383.1,55.7 386.0,55.3 389.0,54.9 392.0,54.6 394.9,54.3 397.9,54.0 400.9,53.7 403.8,53.1 406.8,52.6 409.8,52.0 412.7,51.7 415.7,51.3 418.7,51.0 421.6,50.8 424.6,50.3 427.6,49.4 430.5,48.6 433.5,48.0 436.5,47.4 439.5,46.9 442.4,46.6 445.4,46.2 448.4,45.4 451.3,45.0 454.3,44.6 457.3,44.2 460.2,44.0 463.2,43.5 466.2,43.0 469.1,42.9 472.1,42.7 475.1,42.4 478.0,41.8 481.0,41.4 484.0,40.9 486.9,40.4 489.9,40.0 492.9,39.5 495.8,38.8 498.8,38.5 501.8,37.9 504.7,37.2 507.7,37.1 510.7,36.9 513.6,36.6 516.6,36.2 519.6,35.8 522.5,35.3 525.5,35.1 528.5,34.9 531.4,34.5 534.4,34.3 537.4,34.2 540.3,33.6 543.3,33.3 546.3,33.0 549.2,32.7 552.2,32.3 555.2,32.0 558.1,31.9 561.1,31.6 564.1,31.2 567.0,30.6 570.0,30.0 570.0,30.0,120" />
  
  <!-- Linea principale -->
  <polyline fill="none" stroke="#0366d6" stroke-width="2.5" stroke-linecap="round" stroke-linejoin="round" points="30.0,120.0 33.0,119.0 35.9,118.0 38.9,117.1 41.9,116.9 44.8,116.4 47.8,115.3 50.8,114.5 53.7,114.0 56.7,112.9 59.7,112.3 62.6,111.7 65.6,111.4 68.6,110.9 71.5,110.1 74.5,109.3 77.5,108.7 80.4,108.2 83.4,107.9 86.4,107.4 89.3,106.8 92.3,106.3 95.3,106.0 98.2,105.5 101.2,103.7 104.2,103.2 107.1,102.5 110.1,101.8 113.1,101.1 116.0,100.5 119.0,100.1 122.0,99.8 124.9,99.3 127.9,98.5 130.9,97.7 133.8,97.2 136.8,96.6 139.8,96.4 142.7,96.3 145.7,95.9 148.7,95.4 151.6,95.0 154.6,94.8 157.6,94.1 160.5,93.1 163.5,92.9 166.5,92.7 169.5,92.3 172.4,91.6 175.4,91.1 178.4,90.3 181.3,89.7 184.3,89.0 187.3,88.8 190.2,88.4 193.2,87.7 196.2,87.0 199.1,86.4 202.1,86.2 205.1,85.8 208.0,85.5 211.0,84.7 214.0,83.9 216.9,83.2 219.9,82.6 222.9,82.2 225.8,82.0 228.8,81.7 231.8,81.2 234.7,80.8 237.7,80.5 240.7,80.2 243.6,80.0 246.6,79.6 249.6,79.3 252.5,79.2 255.5,79.0 258.5,78.2 261.4,77.8 264.4,77.7 267.4,77.4 270.3,77.3 273.3,77.3 276.3,89.5 279.2,88.3 282.2,87.2 285.2,86.1 288.1,82.8 291.1,80.4 294.1,77.9 297.0,77.0 300.0,76.0 303.0,74.3 305.9,72.4 308.9,71.0 311.9,70.5 314.8,70.0 317.8,68.7 320.8,67.7 323.7,67.1 326.7,66.3 329.7,66.0 332.6,65.8 335.6,65.1 338.6,64.0 341.5,63.2 344.5,62.4 347.5,61.4 350.4,61.0 353.4,60.7 356.4,59.9 359.3,59.2 362.3,58.5 365.3,58.0 368.2,57.7 371.2,57.5 374.2,57.1 377.1,56.5 380.1,56.1 383.1,55.7 386.0,55.3 389.0,54.9 392.0,54.6 394.9,54.3 397.9,54.0 400.9,53.7 403.8,53.1 406.8,52.6 409.8,52.0 412.7,51.7 415.7,51.3 418.7,51.0 421.6,50.8 424.6,50.3 427.6,49.4 430.5,48.6 433.5,48.0 436.5,47.4 439.5,46.9 442.4,46.6 445.4,46.2 448.4,45.4 451.3,45.0 454.3,44.6 457.3,44.2 460.2,44.0 463.2,43.5 466.2,43.0 469.1,42.9 472.1,42.7 475.1,42.4 478.0,41.8 481.0,41.4 484.0,40.9 486.9,40.4 489.9,40.0 492.9,39.5 495.8,38.8 498.8,38.5 501.8,37.9 504.7,37.2 507.7,37.1 510.7,36.9 513.6,36.6 516.6,36.2 519.6,35.8 522.5,35.3 525.5,35.1 528.5,34.9 531.4,34.5 534.4,34.3 537.4,34.2 540.3,33.6 543.3,33.3 546.3,33.0 549.2,32.7 552.2,32.3 555.2,32.0 558.1,31.9 561.1,31.6 564.1,31.2 567.0,30.6 570.0,30.0" />
  
  <!-- Punto finale luminoso -->
  <circle cx="570.0" cy="30.0" r="4" fill="#ffffff" stroke="#0366d6" stroke-width="2.5" />
</svg>