<svg width="600" height="150" viewBox="0 0 600 150" xmlns="http://www.w3.org/2000/svg">
  <defs>
    <filter id="shadow2" x="-2%" y="-2%" width="104%" height="108%">
      <feDropShadow dx="0" dy="2" stdDeviation="3" flood-opacity="0.1" />
    </filter>
    <linearGradient id="fillGrad" x1="0" y1="0" x2="0" y2="1">
      <stop offset="0%" stop-color="#0366d6" stop-opacity="0.3"/>
      <stop offset="100%" stop-color="#0366d6" stop-opacity="0.02"/>
    </linearGradient>
  </defs>
  <rect width="600" height="150" rx="12" fill="#ffffff" filter="url(#shadow2)" stroke="#e1e4e8" stroke-width="1"/>
  <text x="20" y="24" fill="#2b3137" font-family="-apple-system,BlinkMacSystemFont,'Segoe UI',Helvetica,Arial,sans-serif" font-size="14" font-weight="600">📈 Download Growth (Actual: 76.0k)</text>
  
  <!-- Area sotto la linea -->
  <polygon fill="url(#fillGrad)" points="30.0,120.0,120 30.0,120.0 33.6,118.9 37.2,117.7 40.8,116.6 44.4,116.4 48.0,115.8 51.6,114.5 55.2,113.6 58.8,113.1 62.4,111.7 66.0,111.1 69.6,110.4 73.2,110.0 76.8,109.4 80.4,108.5 84.0,107.6 87.6,106.9 91.2,106.4 94.8,106.0 98.4,105.4 102.0,104.7 105.6,104.1 109.2,103.8 112.8,103.2 116.4,101.1 120.0,100.5 123.6,99.7 127.2,98.8 130.8,98.1 134.4,97.4 138.0,97.0 141.6,96.6 145.2,96.0 148.8,95.0 152.4,94.2 156.0,93.6 159.6,92.9 163.2,92.7 166.8,92.5 170.4,92.1 174.0,91.4 177.6,91.1 181.2,90.8 184.8,90.0 188.4,88.9 192.0,88.6 195.6,88.4 199.2,87.9 202.8,87.1 206.4,86.5 210.0,85.5 213.6,84.9 217.2,84.1 220.8,83.9 224.4,83.4 228.0,82.6 231.6,81.7 235.2,81.1 238.8,80.8 242.4,80.4 246.0,80.0 249.6,79.0 253.2,78.2 256.8,77.4 260.4,76.6 264.0,76.2 267.6,76.0 271.2,75.6 274.8,75.0 278.4,74.6 282.0,74.2 285.6,73.9 289.2,73.6 292.8,73.2 296.4,72.9 300.0,72.7 303.6,72.5 307.2,71.6 310.8,71.1 314.4,71.0 318.0,70.7 321.6,70.5 325.2,70.5 328.8,84.6 332.4,83.3 336.0,82.0 339.6,80.7 343.2,76.8 346.8,74.1 350.4,71.3 354.0,70.2 357.6,69.0 361.2,67.0 364.8,64.8 368.4,63.2 372.0,62.6 375.6,62.1 379.2,60.5 382.8,59.4 386.4,58.7 390.0,57.8 393.6,57.4 397.2,57.2 400.8,56.4 404.4,55.1 408.0,54.1 411.6,53.2 415.2,52.1 418.8,51.6 422.4,51.2 426.0,50.3 429.6,49.5 433.2,48.7 436.8,48.1 440.4,47.8 444.0,47.6 447.6,47.1 451.2,46.4 454.8,45.9 458.4,45.4 462.0,45.0 465.6,44.6 469.2,44.2 472.8,43.8 476.4,43.5 480.0,43.1 483.6,42.4 487.2,41.9 490.8,41.2 494.4,40.8 498.0,40.4 501.6,40.1 505.2,39.8 508.8,39.2 512.4,38.2 516.0,37.2 519.6,36.6 523.2,35.9 526.8,35.3 530.4,34.9 534.0,34.4 537.6,33.6 541.2,33.0 544.8,32.6 548.4,32.2 552.0,31.9 555.6,31.3 559.2,30.8 562.8,30.6 566.4,30.3 570.0,30.0 570.0,30.0,120" />
  
  <!-- Linea principale -->
  <polyline fill="none" stroke="#0366d6" stroke-width="2.5" stroke-linecap="round" stroke-linejoin="round" points="30.0,120.0 33.6,118.9 37.2,117.7 40.8,116.6 44.4,116.4 48.0,115.8 51.6,114.5 55.2,113.6 58.8,113.1 62.4,111.7 66.0,111.1 69.6,110.4 73.2,110.0 76.8,109.4 80.4,108.5 84.0,107.6 87.6,106.9 91.2,106.4 94.8,106.0 98.4,105.4 102.0,104.7 105.6,104.1 109.2,103.8 112.8,103.2 116.4,101.1 120.0,100.5 123.6,99.7 127.2,98.8 130.8,98.1 134.4,97.4 138.0,97.0 141.6,96.6 145.2,96.0 148.8,95.0 152.4,94.2 156.0,93.6 159.6,92.9 163.2,92.7 166.8,92.5 170.4,92.1 174.0,91.4 177.6,91.1 181.2,90.8 184.8,90.0 188.4,88.9 192.0,88.6 195.6,88.4 199.2,87.9 202.8,87.1 206.4,86.5 210.0,85.5 213.6,84.9 217.2,84.1 220.8,83.9 224.4,83.4 228.0,82.6 231.6,81.7 235.2,81.1 238.8,80.8 242.4,80.4 246.0,80.0 249.6,79.0 253.2,78.2 256.8,77.4 260.4,76.6 264.0,76.2 267.6,76.0 271.2,75.6 274.8,75.0 278.4,74.6 282.0,74.2 285.6,73.9 289.2,73.6 292.8,73.2 296.4,72.9 300.0,72.7 303.6,72.5 307.2,71.6 310.8,71.1 314.4,71.0 318.0,70.7 321.6,70.5 325.2,70.5 328.8,84.6 332.4,83.3 336.0,82.0 339.6,80.7 343.2,76.8 346.8,74.1 350.4,71.3 354.0,70.2 357.6,69.0 361.2,67.0 364.8,64.8 368.4,63.2 372.0,62.6 375.6,62.1 379.2,60.5 382.8,59.4 386.4,58.7 390.0,57.8 393.6,57.4 397.2,57.2 400.8,56.4 404.4,55.1 408.0,54.1 411.6,53.2 415.2,52.1 418.8,51.6 422.4,51.2 426.0,50.3 429.6,49.5 433.2,48.7 436.8,48.1 440.4,47.8 444.0,47.6 447.6,47.1 451.2,46.4 454.8,45.9 458.4,45.4 462.0,45.0 465.6,44.6 469.2,44.2 472.8,43.8 476.4,43.5 480.0,43.1 483.6,42.4 487.2,41.9 490.8,41.2 494.4,40.8 498.0,40.4 501.6,40.1 505.2,39.8 508.8,39.2 512.4,38.2 516.0,37.2 519.6,36.6 523.2,35.9 526.8,35.3 530.4,34.9 534.0,34.4 537.6,33.6 541.2,33.0 544.8,32.6 548.4,32.2 552.0,31.9 555.6,31.3 559.2,30.8 562.8,30.6 566.4,30.3 570.0,30.0" />
  
  <!-- Punto finale luminoso -->
  <circle cx="570.0" cy="30.0" r="4" fill="#ffffff" stroke="#0366d6" stroke-width="2.5" />
</svg>