<svg width="600" height="150" viewBox="0 0 600 150" xmlns="http://www.w3.org/2000/svg">
  <defs>
    <filter id="shadow2" x="-2%" y="-2%" width="104%" height="108%">
      <feDropShadow dx="0" dy="2" stdDeviation="3" flood-opacity="0.1" />
    </filter>
    <linearGradient id="fillGrad" x1="0" y1="0" x2="0" y2="1">
      <stop offset="0%" stop-color="#0366d6" stop-opacity="0.3"/>
      <stop offset="100%" stop-color="#0366d6" stop-opacity="0.02"/>
    </linearGradient>
  </defs>
  <rect width="600" height="150" rx="12" fill="#ffffff" filter="url(#shadow2)" stroke="#e1e4e8" stroke-width="1"/>
  <text x="20" y="24" fill="#2b3137" font-family="-apple-system,BlinkMacSystemFont,'Segoe UI',Helvetica,Arial,sans-serif" font-size="14" font-weight="600">📈 Download Growth (Actual: 77.0k)</text>
  
  <!-- Area sotto la linea -->
  <polygon fill="url(#fillGrad)" points="30.0,120.0,120 30.0,120.0 33.1,119.0 36.2,117.9 39.3,117.0 42.4,116.7 45.5,116.3 48.6,115.1 51.7,114.3 54.8,113.8 57.9,112.6 61.0,112.0 64.1,111.5 67.2,111.1 70.3,110.6 73.4,109.8 76.6,108.9 79.7,108.3 82.8,107.8 85.9,107.5 89.0,107.0 92.1,106.4 95.2,105.8 98.3,105.5 101.4,105.0 104.5,103.2 107.6,102.6 110.7,101.9 113.8,101.1 116.9,100.5 120.0,99.9 123.1,99.5 126.2,99.1 129.3,98.6 132.4,97.7 135.5,96.9 138.6,96.4 141.7,95.8 144.8,95.6 147.9,95.4 151.0,95.1 154.1,94.5 157.2,94.2 160.3,93.9 163.4,93.2 166.6,92.2 169.7,92.0 172.8,91.8 175.9,91.4 179.0,90.6 182.1,90.1 185.2,89.3 188.3,88.7 191.4,87.9 194.5,87.8 197.6,87.3 200.7,86.6 203.8,85.8 206.9,85.3 210.0,85.0 213.1,84.6 216.2,84.3 219.3,83.5 222.4,82.7 225.5,82.0 228.6,81.3 231.7,80.9 234.8,80.7 237.9,80.4 241.0,79.9 244.1,79.5 247.2,79.2 250.3,78.9 253.4,78.6 256.6,78.2 259.7,78.0 262.8,77.8 265.9,77.6 269.0,76.8 272.1,76.4 275.2,76.3 278.3,76.0 281.4,75.8 284.5,75.8 287.6,88.5 290.7,87.2 293.8,86.1 296.9,84.9 300.0,81.5 303.1,79.1 306.2,76.5 309.3,75.6 312.4,74.5 315.5,72.7 318.6,70.8 321.7,69.4 324.8,68.8 327.9,68.3 331.0,66.9 334.1,65.9 337.2,65.3 340.3,64.5 343.4,64.1 346.6,64.0 349.7,63.3 352.8,62.1 355.9,61.2 359.0,60.4 362.1,59.4 365.2,59.0 368.3,58.7 371.4,57.8 374.5,57.1 377.6,56.4 380.7,55.9 383.8,55.6 386.9,55.4 390.0,55.0 393.1,54.4 396.2,53.9 399.3,53.5 402.4,53.1 405.5,52.7 408.6,52.4 411.7,52.0 414.8,51.8 417.9,51.4 421.0,50.8 424.1,50.3 427.2,49.7 430.3,49.3 433.4,49.0 436.6,48.7 439.7,48.5 442.8,47.9 445.9,47.0 449.0,46.1 452.1,45.6 455.2,45.0 458.3,44.4 461.4,44.1 464.5,43.7 467.6,42.9 470.7,42.4 473.8,42.1 476.9,41.7 480.0,41.4 483.1,40.9 486.2,40.4 489.3,40.3 492.4,40.0 495.5,39.7 498.6,39.1 501.7,38.7 504.8,38.2 507.9,37.7 511.0,37.3 514.1,36.8 517.2,36.0 520.3,35.8 523.4,35.1 526.6,34.4 529.7,34.2 532.8,34.1 535.9,33.8 539.0,33.3 542.1,33.0 545.2,32.4 548.3,32.2 551.4,32.0 554.5,31.6 557.6,31.4 560.7,31.3 563.8,30.7 566.9,30.3 570.0,30.0 570.0,30.0,120" />
  
  <!-- Linea principale -->
  <polyline fill="none" stroke="#0366d6" stroke-width="2.5" stroke-linecap="round" stroke-linejoin="round" points="30.0,120.0 33.1,119.0 36.2,117.9 39.3,117.0 42.4,116.7 45.5,116.3 48.6,115.1 51.7,114.3 54.8,113.8 57.9,112.6 61.0,112.0 64.1,111.5 67.2,111.1 70.3,110.6 73.4,109.8 76.6,108.9 79.7,108.3 82.8,107.8 85.9,107.5 89.0,107.0 92.1,106.4 95.2,105.8 98.3,105.5 101.4,105.0 104.5,103.2 107.6,102.6 110.7,101.9 113.8,101.1 116.9,100.5 120.0,99.9 123.1,99.5 126.2,99.1 129.3,98.6 132.4,97.7 135.5,96.9 138.6,96.4 141.7,95.8 144.8,95.6 147.9,95.4 151.0,95.1 154.1,94.5 157.2,94.2 160.3,93.9 163.4,93.2 166.6,92.2 169.7,92.0 172.8,91.8 175.9,91.4 179.0,90.6 182.1,90.1 185.2,89.3 188.3,88.7 191.4,87.9 194.5,87.8 197.6,87.3 200.7,86.6 203.8,85.8 206.9,85.3 210.0,85.0 213.1,84.6 216.2,84.3 219.3,83.5 222.4,82.7 225.5,82.0 228.6,81.3 231.7,80.9 234.8,80.7 237.9,80.4 241.0,79.9 244.1,79.5 247.2,79.2 250.3,78.9 253.4,78.6 256.6,78.2 259.7,78.0 262.8,77.8 265.9,77.6 269.0,76.8 272.1,76.4 275.2,76.3 278.3,76.0 281.4,75.8 284.5,75.8 287.6,88.5 290.7,87.2 293.8,86.1 296.9,84.9 300.0,81.5 303.1,79.1 306.2,76.5 309.3,75.6 312.4,74.5 315.5,72.7 318.6,70.8 321.7,69.4 324.8,68.8 327.9,68.3 331.0,66.9 334.1,65.9 337.2,65.3 340.3,64.5 343.4,64.1 346.6,64.0 349.7,63.3 352.8,62.1 355.9,61.2 359.0,60.4 362.1,59.4 365.2,59.0 368.3,58.7 371.4,57.8 374.5,57.1 377.6,56.4 380.7,55.9 383.8,55.6 386.9,55.4 390.0,55.0 393.1,54.4 396.2,53.9 399.3,53.5 402.4,53.1 405.5,52.7 408.6,52.4 411.7,52.0 414.8,51.8 417.9,51.4 421.0,50.8 424.1,50.3 427.2,49.7 430.3,49.3 433.4,49.0 436.6,48.7 439.7,48.5 442.8,47.9 445.9,47.0 449.0,46.1 452.1,45.6 455.2,45.0 458.3,44.4 461.4,44.1 464.5,43.7 467.6,42.9 470.7,42.4 473.8,42.1 476.9,41.7 480.0,41.4 483.1,40.9 486.2,40.4 489.3,40.3 492.4,40.0 495.5,39.7 498.6,39.1 501.7,38.7 504.8,38.2 507.9,37.7 511.0,37.3 514.1,36.8 517.2,36.0 520.3,35.8 523.4,35.1 526.6,34.4 529.7,34.2 532.8,34.1 535.9,33.8 539.0,33.3 542.1,33.0 545.2,32.4 548.3,32.2 551.4,32.0 554.5,31.6 557.6,31.4 560.7,31.3 563.8,30.7 566.9,30.3 570.0,30.0" />
  
  <!-- Punto finale luminoso -->
  <circle cx="570.0" cy="30.0" r="4" fill="#ffffff" stroke="#0366d6" stroke-width="2.5" />
</svg>