<svg width="600" height="150" viewBox="0 0 600 150" xmlns="http://www.w3.org/2000/svg">
  <defs>
    <filter id="shadow2" x="-2%" y="-2%" width="104%" height="108%">
      <feDropShadow dx="0" dy="2" stdDeviation="3" flood-opacity="0.1" />
    </filter>
    <linearGradient id="fillGrad" x1="0" y1="0" x2="0" y2="1">
      <stop offset="0%" stop-color="#0366d6" stop-opacity="0.3"/>
      <stop offset="100%" stop-color="#0366d6" stop-opacity="0.02"/>
    </linearGradient>
  </defs>
  <rect width="600" height="150" rx="12" fill="#ffffff" filter="url(#shadow2)" stroke="#e1e4e8" stroke-width="1"/>
  <text x="20" y="24" fill="#2b3137" font-family="-apple-system,BlinkMacSystemFont,'Segoe UI',Helvetica,Arial,sans-serif" font-size="14" font-weight="600">📈 Download Growth (Actual: 77.8k)</text>
  
  <!-- Area sotto la linea -->
  <polygon fill="url(#fillGrad)" points="30.0,120.0,120 30.0,120.0 32.8,119.1 35.6,118.1 38.4,117.2 41.2,117.0 44.0,116.5 46.8,115.5 49.6,114.7 52.4,114.3 55.2,113.2 58.0,112.6 60.8,112.1 63.6,111.8 66.4,111.3 69.2,110.5 72.0,109.7 74.8,109.1 77.6,108.7 80.4,108.4 83.2,107.9 86.0,107.4 88.8,106.8 91.6,106.6 94.4,106.1 97.2,104.4 99.9,103.9 102.7,103.2 105.5,102.5 108.3,101.9 111.1,101.3 113.9,101.0 116.7,100.7 119.5,100.2 122.3,99.3 125.1,98.6 127.9,98.1 130.7,97.5 133.5,97.4 136.3,97.2 139.1,96.9 141.9,96.4 144.7,96.1 147.5,95.8 150.3,95.2 153.1,94.2 155.9,94.0 158.7,93.9 161.5,93.5 164.3,92.7 167.1,92.3 169.9,91.5 172.7,90.9 175.5,90.3 178.3,90.1 181.1,89.7 183.9,89.0 186.7,88.3 189.5,87.8 192.3,87.6 195.1,87.2 197.9,86.9 200.7,86.1 203.5,85.4 206.3,84.7 209.1,84.1 211.9,83.8 214.7,83.6 217.5,83.3 220.3,82.8 223.1,82.4 225.9,82.1 228.7,81.9 231.5,81.6 234.2,81.3 237.0,81.0 239.8,80.8 242.6,80.7 245.4,80.0 248.2,79.6 251.0,79.4 253.8,79.2 256.6,79.1 259.4,79.1 262.2,90.8 265.0,89.6 267.8,88.6 270.6,87.5 273.4,84.3 276.2,82.1 279.0,79.7 281.8,78.8 284.6,77.8 287.4,76.1 290.2,74.4 293.0,73.0 295.8,72.6 298.6,72.1 301.4,70.8 304.2,69.9 307.0,69.3 309.8,68.5 312.6,68.2 315.4,68.1 318.2,67.4 321.0,66.3 323.8,65.5 326.6,64.7 329.4,63.8 332.2,63.4 335.0,63.1 337.8,62.4 340.6,61.7 343.4,61.0 346.2,60.5 349.0,60.3 351.8,60.1 354.6,59.7 357.4,59.1 360.2,58.7 363.0,58.3 365.8,58.0 368.5,57.6 371.3,57.3 374.1,57.0 376.9,56.7 379.7,56.4 382.5,55.8 385.3,55.4 388.1,54.8 390.9,54.5 393.7,54.1 396.5,53.9 399.3,53.7 402.1,53.1 404.9,52.3 407.7,51.5 410.5,51.0 413.3,50.4 416.1,49.9 418.9,49.6 421.7,49.2 424.5,48.5 427.3,48.1 430.1,47.7 432.9,47.4 435.7,47.2 438.5,46.6 441.3,46.2 444.1,46.1 446.9,45.8 449.7,45.5 452.5,45.0 455.3,44.6 458.1,44.1 460.9,43.7 463.7,43.3 466.5,42.9 469.3,42.2 472.1,41.9 474.9,41.3 477.7,40.6 480.5,40.5 483.3,40.3 486.1,40.0 488.9,39.6 491.7,39.3 494.5,38.8 497.3,38.6 500.1,38.4 502.8,38.1 505.6,37.8 508.4,37.7 511.2,37.2 514.0,36.8 516.8,36.5 519.6,36.3 522.4,35.9 525.2,35.6 528.0,35.5 530.8,35.3 533.6,34.9 536.4,34.3 539.2,33.7 542.0,33.5 544.8,33.2 547.6,33.1 550.4,32.5 553.2,32.1 556.0,32.0 558.8,31.5 561.6,31.1 564.4,30.7 567.2,30.4 570.0,30.0 570.0,30.0,120" />
  
  <!-- Linea principale -->
  <polyline fill="none" stroke="#0366d6" stroke-width="2.5" stroke-linecap="round" stroke-linejoin="round" points="30.0,120.0 32.8,119.1 35.6,118.1 38.4,117.2 41.2,117.0 44.0,116.5 46.8,115.5 49.6,114.7 52.4,114.3 55.2,113.2 58.0,112.6 60.8,112.1 63.6,111.8 66.4,111.3 69.2,110.5 72.0,109.7 74.8,109.1 77.6,108.7 80.4,108.4 83.2,107.9 86.0,107.4 88.8,106.8 91.6,106.6 94.4,106.1 97.2,104.4 99.9,103.9 102.7,103.2 105.5,102.5 108.3,101.9 111.1,101.3 113.9,101.0 116.7,100.7 119.5,100.2 122.3,99.3 125.1,98.6 127.9,98.1 130.7,97.5 133.5,97.4 136.3,97.2 139.1,96.9 141.9,96.4 144.7,96.1 147.5,95.8 150.3,95.2 153.1,94.2 155.9,94.0 158.7,93.9 161.5,93.5 164.3,92.7 167.1,92.3 169.9,91.5 172.7,90.9 175.5,90.3 178.3,90.1 181.1,89.7 183.9,89.0 186.7,88.3 189.5,87.8 192.3,87.6 195.1,87.2 197.9,86.9 200.7,86.1 203.5,85.4 206.3,84.7 209.1,84.1 211.9,83.8 214.7,83.6 217.5,83.3 220.3,82.8 223.1,82.4 225.9,82.1 228.7,81.9 231.5,81.6 234.2,81.3 237.0,81.0 239.8,80.8 242.6,80.7 245.4,80.0 248.2,79.6 251.0,79.4 253.8,79.2 256.6,79.1 259.4,79.1 262.2,90.8 265.0,89.6 267.8,88.6 270.6,87.5 273.4,84.3 276.2,82.1 279.0,79.7 281.8,78.8 284.6,77.8 287.4,76.1 290.2,74.4 293.0,73.0 295.8,72.6 298.6,72.1 301.4,70.8 304.2,69.9 307.0,69.3 309.8,68.5 312.6,68.2 315.4,68.1 318.2,67.4 321.0,66.3 323.8,65.5 326.6,64.7 329.4,63.8 332.2,63.4 335.0,63.1 337.8,62.4 340.6,61.7 343.4,61.0 346.2,60.5 349.0,60.3 351.8,60.1 354.6,59.7 357.4,59.1 360.2,58.7 363.0,58.3 365.8,58.0 368.5,57.6 371.3,57.3 374.1,57.0 376.9,56.7 379.7,56.4 382.5,55.8 385.3,55.4 388.1,54.8 390.9,54.5 393.7,54.1 396.5,53.9 399.3,53.7 402.1,53.1 404.9,52.3 407.7,51.5 410.5,51.0 413.3,50.4 416.1,49.9 418.9,49.6 421.7,49.2 424.5,48.5 427.3,48.1 430.1,47.7 432.9,47.4 435.7,47.2 438.5,46.6 441.3,46.2 444.1,46.1 446.9,45.8 449.7,45.5 452.5,45.0 455.3,44.6 458.1,44.1 460.9,43.7 463.7,43.3 466.5,42.9 469.3,42.2 472.1,41.9 474.9,41.3 477.7,40.6 480.5,40.5 483.3,40.3 486.1,40.0 488.9,39.6 491.7,39.3 494.5,38.8 497.3,38.6 500.1,38.4 502.8,38.1 505.6,37.8 508.4,37.7 511.2,37.2 514.0,36.8 516.8,36.5 519.6,36.3 522.4,35.9 525.2,35.6 528.0,35.5 530.8,35.3 533.6,34.9 536.4,34.3 539.2,33.7 542.0,33.5 544.8,33.2 547.6,33.1 550.4,32.5 553.2,32.1 556.0,32.0 558.8,31.5 561.6,31.1 564.4,30.7 567.2,30.4 570.0,30.0" />
  
  <!-- Punto finale luminoso -->
  <circle cx="570.0" cy="30.0" r="4" fill="#ffffff" stroke="#0366d6" stroke-width="2.5" />
</svg>