<svg width="600" height="150" viewBox="0 0 600 150" xmlns="http://www.w3.org/2000/svg">
  <defs>
    <filter id="shadow2" x="-2%" y="-2%" width="104%" height="108%">
      <feDropShadow dx="0" dy="2" stdDeviation="3" flood-opacity="0.1" />
    </filter>
    <linearGradient id="fillGrad" x1="0" y1="0" x2="0" y2="1">
      <stop offset="0%" stop-color="#0366d6" stop-opacity="0.3"/>
      <stop offset="100%" stop-color="#0366d6" stop-opacity="0.02"/>
    </linearGradient>
  </defs>
  <rect width="600" height="150" rx="12" fill="#ffffff" filter="url(#shadow2)" stroke="#e1e4e8" stroke-width="1"/>
  <text x="20" y="24" fill="#2b3137" font-family="-apple-system,BlinkMacSystemFont,'Segoe UI',Helvetica,Arial,sans-serif" font-size="14" font-weight="600">📈 Download Growth (Actual: 76.7k)</text>
  
  <!-- Area sotto la linea -->
  <polygon fill="url(#fillGrad)" points="30.0,120.0,120 30.0,120.0 33.3,119.0 36.6,117.9 39.9,116.9 43.2,116.6 46.5,116.1 49.8,114.9 53.0,114.1 56.3,113.6 59.6,112.4 62.9,111.7 66.2,111.1 69.5,110.8 72.8,110.2 76.1,109.4 79.4,108.5 82.7,107.8 86.0,107.4 89.3,107.0 92.6,106.5 95.9,105.8 99.1,105.3 102.4,105.0 105.7,104.4 109.0,102.5 112.3,101.9 115.6,101.2 118.9,100.4 122.2,99.7 125.5,99.1 128.8,98.7 132.1,98.3 135.4,97.8 138.7,96.9 142.0,96.1 145.2,95.5 148.5,94.8 151.8,94.7 155.1,94.5 158.4,94.2 161.7,93.5 165.0,93.2 168.3,92.9 171.6,92.2 174.9,91.2 178.2,90.9 181.5,90.7 184.8,90.3 188.0,89.5 191.3,88.9 194.6,88.1 197.9,87.5 201.2,86.7 204.5,86.5 207.8,86.1 211.1,85.3 214.4,84.5 217.7,83.9 221.0,83.7 224.3,83.3 227.6,82.9 230.9,82.1 234.1,81.2 237.4,80.5 240.7,79.8 244.0,79.4 247.3,79.2 250.6,78.9 253.9,78.3 257.2,77.9 260.5,77.6 263.8,77.3 267.1,77.0 270.4,76.6 273.7,76.3 277.0,76.2 280.2,76.0 283.5,75.2 286.8,74.7 290.1,74.6 293.4,74.3 296.7,74.1 300.0,74.1 303.3,87.2 306.6,86.0 309.9,84.8 313.2,83.6 316.5,80.0 319.8,77.5 323.0,74.8 326.3,73.8 329.6,72.7 332.9,70.9 336.2,68.9 339.5,67.4 342.8,66.9 346.1,66.3 349.4,64.9 352.7,63.9 356.0,63.2 359.3,62.3 362.6,62.0 365.9,61.8 369.1,61.1 372.4,59.9 375.7,59.0 379.0,58.1 382.3,57.1 385.6,56.6 388.9,56.3 392.2,55.5 395.5,54.7 398.8,54.0 402.1,53.4 405.4,53.1 408.7,52.9 412.0,52.5 415.2,51.8 418.5,51.4 421.8,50.9 425.1,50.5 428.4,50.1 431.7,49.8 435.0,49.4 438.3,49.1 441.6,48.8 444.9,48.1 448.2,47.6 451.5,47.0 454.8,46.6 458.0,46.2 461.3,46.0 464.6,45.7 467.9,45.1 471.2,44.2 474.5,43.3 477.8,42.7 481.1,42.1 484.4,41.5 487.7,41.1 491.0,40.7 494.3,39.9 497.6,39.4 500.9,39.1 504.1,38.7 507.4,38.4 510.7,37.8 514.0,37.3 517.3,37.2 520.6,36.9 523.9,36.6 527.2,36.0 530.5,35.6 533.8,35.0 537.1,34.5 540.4,34.1 543.7,33.6 547.0,32.8 550.2,32.5 553.5,31.8 556.8,31.1 560.1,30.9 563.4,30.8 566.7,30.4 570.0,30.0 570.0,30.0,120" />
  
  <!-- Linea principale -->
  <polyline fill="none" stroke="#0366d6" stroke-width="2.5" stroke-linecap="round" stroke-linejoin="round" points="30.0,120.0 33.3,119.0 36.6,117.9 39.9,116.9 43.2,116.6 46.5,116.1 49.8,114.9 53.0,114.1 56.3,113.6 59.6,112.4 62.9,111.7 66.2,111.1 69.5,110.8 72.8,110.2 76.1,109.4 79.4,108.5 82.7,107.8 86.0,107.4 89.3,107.0 92.6,106.5 95.9,105.8 99.1,105.3 102.4,105.0 105.7,104.4 109.0,102.5 112.3,101.9 115.6,101.2 118.9,100.4 122.2,99.7 125.5,99.1 128.8,98.7 132.1,98.3 135.4,97.8 138.7,96.9 142.0,96.1 145.2,95.5 148.5,94.8 151.8,94.7 155.1,94.5 158.4,94.2 161.7,93.5 165.0,93.2 168.3,92.9 171.6,92.2 174.9,91.2 178.2,90.9 181.5,90.7 184.8,90.3 188.0,89.5 191.3,88.9 194.6,88.1 197.9,87.5 201.2,86.7 204.5,86.5 207.8,86.1 211.1,85.3 214.4,84.5 217.7,83.9 221.0,83.7 224.3,83.3 227.6,82.9 230.9,82.1 234.1,81.2 237.4,80.5 240.7,79.8 244.0,79.4 247.3,79.2 250.6,78.9 253.9,78.3 257.2,77.9 260.5,77.6 263.8,77.3 267.1,77.0 270.4,76.6 273.7,76.3 277.0,76.2 280.2,76.0 283.5,75.2 286.8,74.7 290.1,74.6 293.4,74.3 296.7,74.1 300.0,74.1 303.3,87.2 306.6,86.0 309.9,84.8 313.2,83.6 316.5,80.0 319.8,77.5 323.0,74.8 326.3,73.8 329.6,72.7 332.9,70.9 336.2,68.9 339.5,67.4 342.8,66.9 346.1,66.3 349.4,64.9 352.7,63.9 356.0,63.2 359.3,62.3 362.6,62.0 365.9,61.8 369.1,61.1 372.4,59.9 375.7,59.0 379.0,58.1 382.3,57.1 385.6,56.6 388.9,56.3 392.2,55.5 395.5,54.7 398.8,54.0 402.1,53.4 405.4,53.1 408.7,52.9 412.0,52.5 415.2,51.8 418.5,51.4 421.8,50.9 425.1,50.5 428.4,50.1 431.7,49.8 435.0,49.4 438.3,49.1 441.6,48.8 444.9,48.1 448.2,47.6 451.5,47.0 454.8,46.6 458.0,46.2 461.3,46.0 464.6,45.7 467.9,45.1 471.2,44.2 474.5,43.3 477.8,42.7 481.1,42.1 484.4,41.5 487.7,41.1 491.0,40.7 494.3,39.9 497.6,39.4 500.9,39.1 504.1,38.7 507.4,38.4 510.7,37.8 514.0,37.3 517.3,37.2 520.6,36.9 523.9,36.6 527.2,36.0 530.5,35.6 533.8,35.0 537.1,34.5 540.4,34.1 543.7,33.6 547.0,32.8 550.2,32.5 553.5,31.8 556.8,31.1 560.1,30.9 563.4,30.8 566.7,30.4 570.0,30.0" />
  
  <!-- Punto finale luminoso -->
  <circle cx="570.0" cy="30.0" r="4" fill="#ffffff" stroke="#0366d6" stroke-width="2.5" />
</svg>