<svg width="600" height="150" viewBox="0 0 600 150" xmlns="http://www.w3.org/2000/svg">
  <defs>
    <filter id="shadow2" x="-2%" y="-2%" width="104%" height="108%">
      <feDropShadow dx="0" dy="2" stdDeviation="3" flood-opacity="0.1" />
    </filter>
    <linearGradient id="fillGrad" x1="0" y1="0" x2="0" y2="1">
      <stop offset="0%" stop-color="#0366d6" stop-opacity="0.3"/>
      <stop offset="100%" stop-color="#0366d6" stop-opacity="0.02"/>
    </linearGradient>
  </defs>
  <rect width="600" height="150" rx="12" fill="#ffffff" filter="url(#shadow2)" stroke="#e1e4e8" stroke-width="1"/>
  <text x="20" y="24" fill="#2b3137" font-family="-apple-system,BlinkMacSystemFont,'Segoe UI',Helvetica,Arial,sans-serif" font-size="14" font-weight="600">📈 Download Growth (Actual: 75.9k)</text>
  
  <!-- Area sotto la linea -->
  <polygon fill="url(#fillGrad)" points="30.0,120.0,120 30.0,120.0 33.7,118.9 37.3,117.7 41.0,116.6 44.7,116.3 48.4,115.8 52.0,114.5 55.7,113.6 59.4,113.0 63.1,111.7 66.7,111.0 70.4,110.3 74.1,109.9 77.8,109.3 81.4,108.4 85.1,107.5 88.8,106.7 92.4,106.2 96.1,105.9 99.8,105.3 103.5,104.6 107.1,104.0 110.8,103.7 114.5,103.1 118.2,101.0 121.8,100.3 125.5,99.5 129.2,98.7 132.9,97.9 136.5,97.2 140.2,96.8 143.9,96.4 147.6,95.8 151.2,94.8 154.9,93.9 158.6,93.3 162.2,92.6 165.9,92.4 169.6,92.2 173.3,91.9 176.9,91.2 180.6,90.8 184.3,90.5 188.0,89.7 191.6,88.6 195.3,88.3 199.0,88.1 202.7,87.7 206.3,86.8 210.0,86.2 213.7,85.2 217.3,84.6 221.0,83.7 224.7,83.6 228.4,83.1 232.0,82.2 235.7,81.4 239.4,80.7 243.1,80.5 246.7,80.0 250.4,79.6 254.1,78.7 257.8,77.8 261.4,77.0 265.1,76.2 268.8,75.8 272.4,75.6 276.1,75.3 279.8,74.6 283.5,74.2 287.1,73.8 290.8,73.5 294.5,73.2 298.2,72.8 301.8,72.5 305.5,72.3 309.2,72.0 312.9,71.2 316.5,70.7 320.2,70.5 323.9,70.2 327.6,70.1 331.2,70.1 334.9,84.3 338.6,82.9 342.2,81.7 345.9,80.4 349.6,76.5 353.3,73.8 356.9,70.8 360.6,69.8 364.3,68.5 368.0,66.5 371.6,64.4 375.3,62.8 379.0,62.2 382.7,61.6 386.3,60.0 390.0,58.9 393.7,58.1 397.3,57.2 401.0,56.8 404.7,56.7 408.4,55.9 412.0,54.5 415.7,53.6 419.4,52.6 423.1,51.5 426.7,51.0 430.4,50.7 434.1,49.7 437.8,48.9 441.4,48.1 445.1,47.5 448.8,47.2 452.4,47.0 456.1,46.5 459.8,45.8 463.5,45.3 467.1,44.8 470.8,44.4 474.5,43.9 478.2,43.5 481.8,43.2 485.5,42.9 489.2,42.5 492.9,41.7 496.5,41.2 500.2,40.6 503.9,40.1 507.6,39.7 511.2,39.4 514.9,39.1 518.6,38.5 522.2,37.5 525.9,36.5 529.6,35.9 533.3,35.2 536.9,34.6 540.6,34.2 544.3,33.7 548.0,32.8 551.6,32.3 555.3,31.9 559.0,31.4 562.7,31.2 566.3,30.5 570.0,30.0 570.0,30.0,120" />
  
  <!-- Linea principale -->
  <polyline fill="none" stroke="#0366d6" stroke-width="2.5" stroke-linecap="round" stroke-linejoin="round" points="30.0,120.0 33.7,118.9 37.3,117.7 41.0,116.6 44.7,116.3 48.4,115.8 52.0,114.5 55.7,113.6 59.4,113.0 63.1,111.7 66.7,111.0 70.4,110.3 74.1,109.9 77.8,109.3 81.4,108.4 85.1,107.5 88.8,106.7 92.4,106.2 96.1,105.9 99.8,105.3 103.5,104.6 107.1,104.0 110.8,103.7 114.5,103.1 118.2,101.0 121.8,100.3 125.5,99.5 129.2,98.7 132.9,97.9 136.5,97.2 140.2,96.8 143.9,96.4 147.6,95.8 151.2,94.8 154.9,93.9 158.6,93.3 162.2,92.6 165.9,92.4 169.6,92.2 173.3,91.9 176.9,91.2 180.6,90.8 184.3,90.5 188.0,89.7 191.6,88.6 195.3,88.3 199.0,88.1 202.7,87.7 206.3,86.8 210.0,86.2 213.7,85.2 217.3,84.6 221.0,83.7 224.7,83.6 228.4,83.1 232.0,82.2 235.7,81.4 239.4,80.7 243.1,80.5 246.7,80.0 250.4,79.6 254.1,78.7 257.8,77.8 261.4,77.0 265.1,76.2 268.8,75.8 272.4,75.6 276.1,75.3 279.8,74.6 283.5,74.2 287.1,73.8 290.8,73.5 294.5,73.2 298.2,72.8 301.8,72.5 305.5,72.3 309.2,72.0 312.9,71.2 316.5,70.7 320.2,70.5 323.9,70.2 327.6,70.1 331.2,70.1 334.9,84.3 338.6,82.9 342.2,81.7 345.9,80.4 349.6,76.5 353.3,73.8 356.9,70.8 360.6,69.8 364.3,68.5 368.0,66.5 371.6,64.4 375.3,62.8 379.0,62.2 382.7,61.6 386.3,60.0 390.0,58.9 393.7,58.1 397.3,57.2 401.0,56.8 404.7,56.7 408.4,55.9 412.0,54.5 415.7,53.6 419.4,52.6 423.1,51.5 426.7,51.0 430.4,50.7 434.1,49.7 437.8,48.9 441.4,48.1 445.1,47.5 448.8,47.2 452.4,47.0 456.1,46.5 459.8,45.8 463.5,45.3 467.1,44.8 470.8,44.4 474.5,43.9 478.2,43.5 481.8,43.2 485.5,42.9 489.2,42.5 492.9,41.7 496.5,41.2 500.2,40.6 503.9,40.1 507.6,39.7 511.2,39.4 514.9,39.1 518.6,38.5 522.2,37.5 525.9,36.5 529.6,35.9 533.3,35.2 536.9,34.6 540.6,34.2 544.3,33.7 548.0,32.8 551.6,32.3 555.3,31.9 559.0,31.4 562.7,31.2 566.3,30.5 570.0,30.0" />
  
  <!-- Punto finale luminoso -->
  <circle cx="570.0" cy="30.0" r="4" fill="#ffffff" stroke="#0366d6" stroke-width="2.5" />
</svg>