<svg width="600" height="150" viewBox="0 0 600 150" xmlns="http://www.w3.org/2000/svg">
  <defs>
    <filter id="shadow2" x="-2%" y="-2%" width="104%" height="108%">
      <feDropShadow dx="0" dy="2" stdDeviation="3" flood-opacity="0.1" />
    </filter>
    <linearGradient id="fillGrad" x1="0" y1="0" x2="0" y2="1">
      <stop offset="0%" stop-color="#0366d6" stop-opacity="0.3"/>
      <stop offset="100%" stop-color="#0366d6" stop-opacity="0.02"/>
    </linearGradient>
  </defs>
  <rect width="600" height="150" rx="12" fill="#ffffff" filter="url(#shadow2)" stroke="#e1e4e8" stroke-width="1"/>
  <text x="20" y="24" fill="#2b3137" font-family="-apple-system,BlinkMacSystemFont,'Segoe UI',Helvetica,Arial,sans-serif" font-size="14" font-weight="600">📈 Download Growth (Actual: 76.9k)</text>
  
  <!-- Area sotto la linea -->
  <polygon fill="url(#fillGrad)" points="30.0,120.0,120 30.0,120.0 33.2,119.0 36.4,117.9 39.6,116.9 42.8,116.7 46.0,116.2 49.2,115.0 52.4,114.2 55.6,113.7 58.8,112.5 62.0,111.9 65.1,111.3 68.3,110.9 71.5,110.4 74.7,109.6 77.9,108.7 81.1,108.1 84.3,107.6 87.5,107.3 90.7,106.7 93.9,106.1 97.1,105.6 100.3,105.3 103.5,104.7 106.7,102.8 109.9,102.3 113.1,101.5 116.3,100.8 119.5,100.1 122.7,99.5 125.9,99.1 129.1,98.8 132.2,98.2 135.4,97.3 138.6,96.5 141.8,96.0 145.0,95.3 148.2,95.2 151.4,95.0 154.6,94.7 157.8,94.1 161.0,93.7 164.2,93.4 167.4,92.7 170.6,91.7 173.8,91.5 177.0,91.3 180.2,90.9 183.4,90.1 186.6,89.5 189.8,88.7 193.0,88.1 196.2,87.3 199.3,87.2 202.5,86.7 205.7,86.0 208.9,85.2 212.1,84.6 215.3,84.4 218.5,84.0 221.7,83.6 224.9,82.8 228.1,82.0 231.3,81.3 234.5,80.6 237.7,80.2 240.9,80.0 244.1,79.7 247.3,79.1 250.5,78.7 253.7,78.4 256.9,78.1 260.1,77.9 263.3,77.4 266.4,77.2 269.6,77.0 272.8,76.8 276.0,76.0 279.2,75.6 282.4,75.4 285.6,75.2 288.8,75.0 292.0,75.0 295.2,87.9 298.4,86.6 301.6,85.5 304.8,84.3 308.0,80.8 311.2,78.3 314.4,75.7 317.6,74.7 320.8,73.6 324.0,71.8 327.2,69.9 330.4,68.4 333.6,67.9 336.7,67.4 339.9,66.0 343.1,64.9 346.3,64.3 349.5,63.4 352.7,63.1 355.9,63.0 359.1,62.2 362.3,61.0 365.5,60.2 368.7,59.3 371.9,58.3 375.1,57.9 378.3,57.5 381.5,56.7 384.7,55.9 387.9,55.2 391.1,54.7 394.3,54.4 397.5,54.2 400.7,53.8 403.8,53.2 407.0,52.7 410.2,52.2 413.4,51.8 416.6,51.5 419.8,51.1 423.0,50.8 426.2,50.5 429.4,50.2 432.6,49.5 435.8,49.0 439.0,48.4 442.2,48.0 445.4,47.6 448.6,47.4 451.8,47.1 455.0,46.6 458.2,45.6 461.4,44.8 464.6,44.2 467.8,43.6 470.9,43.0 474.1,42.7 477.3,42.2 480.5,41.5 483.7,41.0 486.9,40.6 490.1,40.2 493.3,40.0 496.5,39.4 499.7,38.9 502.9,38.8 506.1,38.5 509.3,38.2 512.5,37.6 515.7,37.2 518.9,36.6 522.1,36.2 525.3,35.8 528.5,35.3 531.7,34.5 534.9,34.2 538.0,33.5 541.2,32.8 544.4,32.7 547.6,32.5 550.8,32.2 554.0,31.7 557.2,31.4 560.4,30.8 563.6,30.6 566.8,30.3 570.0,30.0 570.0,30.0,120" />
  
  <!-- Linea principale -->
  <polyline fill="none" stroke="#0366d6" stroke-width="2.5" stroke-linecap="round" stroke-linejoin="round" points="30.0,120.0 33.2,119.0 36.4,117.9 39.6,116.9 42.8,116.7 46.0,116.2 49.2,115.0 52.4,114.2 55.6,113.7 58.8,112.5 62.0,111.9 65.1,111.3 68.3,110.9 71.5,110.4 74.7,109.6 77.9,108.7 81.1,108.1 84.3,107.6 87.5,107.3 90.7,106.7 93.9,106.1 97.1,105.6 100.3,105.3 103.5,104.7 106.7,102.8 109.9,102.3 113.1,101.5 116.3,100.8 119.5,100.1 122.7,99.5 125.9,99.1 129.1,98.8 132.2,98.2 135.4,97.3 138.6,96.5 141.8,96.0 145.0,95.3 148.2,95.2 151.4,95.0 154.6,94.7 157.8,94.1 161.0,93.7 164.2,93.4 167.4,92.7 170.6,91.7 173.8,91.5 177.0,91.3 180.2,90.9 183.4,90.1 186.6,89.5 189.8,88.7 193.0,88.1 196.2,87.3 199.3,87.2 202.5,86.7 205.7,86.0 208.9,85.2 212.1,84.6 215.3,84.4 218.5,84.0 221.7,83.6 224.9,82.8 228.1,82.0 231.3,81.3 234.5,80.6 237.7,80.2 240.9,80.0 244.1,79.7 247.3,79.1 250.5,78.7 253.7,78.4 256.9,78.1 260.1,77.9 263.3,77.4 266.4,77.2 269.6,77.0 272.8,76.8 276.0,76.0 279.2,75.6 282.4,75.4 285.6,75.2 288.8,75.0 292.0,75.0 295.2,87.9 298.4,86.6 301.6,85.5 304.8,84.3 308.0,80.8 311.2,78.3 314.4,75.7 317.6,74.7 320.8,73.6 324.0,71.8 327.2,69.9 330.4,68.4 333.6,67.9 336.7,67.4 339.9,66.0 343.1,64.9 346.3,64.3 349.5,63.4 352.7,63.1 355.9,63.0 359.1,62.2 362.3,61.0 365.5,60.2 368.7,59.3 371.9,58.3 375.1,57.9 378.3,57.5 381.5,56.7 384.7,55.9 387.9,55.2 391.1,54.7 394.3,54.4 397.5,54.2 400.7,53.8 403.8,53.2 407.0,52.7 410.2,52.2 413.4,51.8 416.6,51.5 419.8,51.1 423.0,50.8 426.2,50.5 429.4,50.2 432.6,49.5 435.8,49.0 439.0,48.4 442.2,48.0 445.4,47.6 448.6,47.4 451.8,47.1 455.0,46.6 458.2,45.6 461.4,44.8 464.6,44.2 467.8,43.6 470.9,43.0 474.1,42.7 477.3,42.2 480.5,41.5 483.7,41.0 486.9,40.6 490.1,40.2 493.3,40.0 496.5,39.4 499.7,38.9 502.9,38.8 506.1,38.5 509.3,38.2 512.5,37.6 515.7,37.2 518.9,36.6 522.1,36.2 525.3,35.8 528.5,35.3 531.7,34.5 534.9,34.2 538.0,33.5 541.2,32.8 544.4,32.7 547.6,32.5 550.8,32.2 554.0,31.7 557.2,31.4 560.4,30.8 563.6,30.6 566.8,30.3 570.0,30.0" />
  
  <!-- Punto finale luminoso -->
  <circle cx="570.0" cy="30.0" r="4" fill="#ffffff" stroke="#0366d6" stroke-width="2.5" />
</svg>