<svg width="600" height="150" viewBox="0 0 600 150" xmlns="http://www.w3.org/2000/svg">
  <defs>
    <filter id="shadow2" x="-2%" y="-2%" width="104%" height="108%">
      <feDropShadow dx="0" dy="2" stdDeviation="3" flood-opacity="0.1" />
    </filter>
    <linearGradient id="fillGrad" x1="0" y1="0" x2="0" y2="1">
      <stop offset="0%" stop-color="#0366d6" stop-opacity="0.3"/>
      <stop offset="100%" stop-color="#0366d6" stop-opacity="0.02"/>
    </linearGradient>
  </defs>
  <rect width="600" height="150" rx="12" fill="#ffffff" filter="url(#shadow2)" stroke="#e1e4e8" stroke-width="1"/>
  <text x="20" y="24" fill="#2b3137" font-family="-apple-system,BlinkMacSystemFont,'Segoe UI',Helvetica,Arial,sans-serif" font-size="14" font-weight="600">📈 Download Growth (Actual: 75.7k)</text>
  
  <!-- Area sotto la linea -->
  <polygon fill="url(#fillGrad)" points="30.0,120.0,120 30.0,120.0 33.8,118.9 37.5,117.6 41.2,116.5 45.0,116.3 48.8,115.7 52.5,114.4 56.2,113.5 60.0,112.9 63.8,111.5 67.5,110.9 71.2,110.2 75.0,109.8 78.8,109.2 82.5,108.2 86.2,107.3 90.0,106.5 93.8,106.0 97.5,105.7 101.2,105.1 105.0,104.3 108.8,103.7 112.5,103.4 116.2,102.8 120.0,100.6 123.8,100.0 127.5,99.2 131.2,98.3 135.0,97.6 138.8,96.9 142.5,96.4 146.2,96.0 150.0,95.4 153.8,94.4 157.5,93.5 161.2,92.9 165.0,92.2 168.8,92.0 172.5,91.8 176.2,91.4 180.0,90.7 183.8,90.3 187.5,90.0 191.2,89.2 195.0,88.1 198.8,87.8 202.5,87.6 206.2,87.1 210.0,86.2 213.8,85.6 217.5,84.7 221.2,84.0 225.0,83.2 228.8,83.0 232.5,82.5 236.2,81.6 240.0,80.7 243.8,80.1 247.5,79.8 251.2,79.4 255.0,79.0 258.8,78.0 262.5,77.1 266.2,76.3 270.0,75.5 273.8,75.1 277.5,74.9 281.2,74.5 285.0,73.9 288.8,73.4 292.5,73.1 296.2,72.8 300.0,72.5 303.8,72.0 307.5,71.7 311.2,71.5 315.0,71.3 318.8,70.4 322.5,69.9 326.2,69.7 330.0,69.4 333.8,69.3 337.5,69.3 341.2,83.8 345.0,82.3 348.8,81.1 352.5,79.7 356.2,75.8 360.0,73.0 363.8,70.0 367.5,68.9 371.2,67.7 375.0,65.7 378.8,63.4 382.5,61.8 386.2,61.2 390.0,60.6 393.8,59.0 397.5,57.9 401.2,57.1 405.0,56.2 408.8,55.8 412.5,55.7 416.2,54.8 420.0,53.5 423.8,52.5 427.5,51.5 431.2,50.4 435.0,49.9 438.8,49.5 442.5,48.6 446.2,47.7 450.0,46.9 453.8,46.3 457.5,46.0 461.2,45.8 465.0,45.3 468.8,44.6 472.5,44.1 476.2,43.5 480.0,43.1 483.8,42.7 487.5,42.3 491.2,41.9 495.0,41.6 498.8,41.2 502.5,40.5 506.2,39.9 510.0,39.3 513.8,38.8 517.5,38.4 521.2,38.1 525.0,37.8 528.8,37.1 532.5,36.1 536.2,35.1 540.0,34.5 543.8,33.8 547.5,33.2 551.2,32.8 555.0,32.3 558.8,31.4 562.5,30.9 566.2,30.4 570.0,30.0 570.0,30.0,120" />
  
  <!-- Linea principale -->
  <polyline fill="none" stroke="#0366d6" stroke-width="2.5" stroke-linecap="round" stroke-linejoin="round" points="30.0,120.0 33.8,118.9 37.5,117.6 41.2,116.5 45.0,116.3 48.8,115.7 52.5,114.4 56.2,113.5 60.0,112.9 63.8,111.5 67.5,110.9 71.2,110.2 75.0,109.8 78.8,109.2 82.5,108.2 86.2,107.3 90.0,106.5 93.8,106.0 97.5,105.7 101.2,105.1 105.0,104.3 108.8,103.7 112.5,103.4 116.2,102.8 120.0,100.6 123.8,100.0 127.5,99.2 131.2,98.3 135.0,97.6 138.8,96.9 142.5,96.4 146.2,96.0 150.0,95.4 153.8,94.4 157.5,93.5 161.2,92.9 165.0,92.2 168.8,92.0 172.5,91.8 176.2,91.4 180.0,90.7 183.8,90.3 187.5,90.0 191.2,89.2 195.0,88.1 198.8,87.8 202.5,87.6 206.2,87.1 210.0,86.2 213.8,85.6 217.5,84.7 221.2,84.0 225.0,83.2 228.8,83.0 232.5,82.5 236.2,81.6 240.0,80.7 243.8,80.1 247.5,79.8 251.2,79.4 255.0,79.0 258.8,78.0 262.5,77.1 266.2,76.3 270.0,75.5 273.8,75.1 277.5,74.9 281.2,74.5 285.0,73.9 288.8,73.4 292.5,73.1 296.2,72.8 300.0,72.5 303.8,72.0 307.5,71.7 311.2,71.5 315.0,71.3 318.8,70.4 322.5,69.9 326.2,69.7 330.0,69.4 333.8,69.3 337.5,69.3 341.2,83.8 345.0,82.3 348.8,81.1 352.5,79.7 356.2,75.8 360.0,73.0 363.8,70.0 367.5,68.9 371.2,67.7 375.0,65.7 378.8,63.4 382.5,61.8 386.2,61.2 390.0,60.6 393.8,59.0 397.5,57.9 401.2,57.1 405.0,56.2 408.8,55.8 412.5,55.7 416.2,54.8 420.0,53.5 423.8,52.5 427.5,51.5 431.2,50.4 435.0,49.9 438.8,49.5 442.5,48.6 446.2,47.7 450.0,46.9 453.8,46.3 457.5,46.0 461.2,45.8 465.0,45.3 468.8,44.6 472.5,44.1 476.2,43.5 480.0,43.1 483.8,42.7 487.5,42.3 491.2,41.9 495.0,41.6 498.8,41.2 502.5,40.5 506.2,39.9 510.0,39.3 513.8,38.8 517.5,38.4 521.2,38.1 525.0,37.8 528.8,37.1 532.5,36.1 536.2,35.1 540.0,34.5 543.8,33.8 547.5,33.2 551.2,32.8 555.0,32.3 558.8,31.4 562.5,30.9 566.2,30.4 570.0,30.0" />
  
  <!-- Punto finale luminoso -->
  <circle cx="570.0" cy="30.0" r="4" fill="#ffffff" stroke="#0366d6" stroke-width="2.5" />
</svg>