<svg width="600" height="150" viewBox="0 0 600 150" xmlns="http://www.w3.org/2000/svg">
  <defs>
    <filter id="shadow2" x="-2%" y="-2%" width="104%" height="108%">
      <feDropShadow dx="0" dy="2" stdDeviation="3" flood-opacity="0.1" />
    </filter>
    <linearGradient id="fillGrad" x1="0" y1="0" x2="0" y2="1">
      <stop offset="0%" stop-color="#0366d6" stop-opacity="0.3"/>
      <stop offset="100%" stop-color="#0366d6" stop-opacity="0.02"/>
    </linearGradient>
  </defs>
  <rect width="600" height="150" rx="12" fill="#ffffff" filter="url(#shadow2)" stroke="#e1e4e8" stroke-width="1"/>
  <text x="20" y="24" fill="#2b3137" font-family="-apple-system,BlinkMacSystemFont,'Segoe UI',Helvetica,Arial,sans-serif" font-size="14" font-weight="600">📈 Download Growth (Actual: 76.6k)</text>
  
  <!-- Area sotto la linea -->
  <polygon fill="url(#fillGrad)" points="30.0,120.0,120 30.0,120.0 33.4,119.0 36.8,117.8 40.1,116.8 43.5,116.6 46.9,116.1 50.2,114.9 53.6,114.0 57.0,113.5 60.4,112.3 63.8,111.6 67.1,111.0 70.5,110.7 73.9,110.1 77.2,109.2 80.6,108.4 84.0,107.7 87.4,107.2 90.8,106.9 94.1,106.3 97.5,105.7 100.9,105.1 104.2,104.8 107.6,104.2 111.0,102.3 114.4,101.7 117.8,100.9 121.1,100.2 124.5,99.5 127.9,98.8 131.2,98.4 134.6,98.1 138.0,97.5 141.4,96.6 144.8,95.8 148.1,95.2 151.5,94.5 154.9,94.4 158.2,94.2 161.6,93.9 165.0,93.2 168.4,92.8 171.8,92.6 175.1,91.9 178.5,90.8 181.9,90.6 185.2,90.4 188.6,89.9 192.0,89.1 195.4,88.5 198.8,87.7 202.1,87.1 205.5,86.3 208.9,86.1 212.2,85.7 215.6,84.9 219.0,84.1 222.4,83.5 225.8,83.2 229.1,82.8 232.5,82.5 235.9,81.6 239.2,80.8 242.6,80.0 246.0,79.3 249.4,78.9 252.8,78.7 256.1,78.4 259.5,77.8 262.9,77.4 266.2,77.1 269.6,76.8 273.0,76.5 276.4,76.1 279.8,75.8 283.1,75.6 286.5,75.4 289.9,74.6 293.2,74.2 296.6,74.0 300.0,73.7 303.4,73.6 306.8,73.6 310.1,86.8 313.5,85.5 316.9,84.4 320.2,83.1 323.6,79.5 327.0,77.0 330.4,74.3 333.8,73.3 337.1,72.1 340.5,70.3 343.9,68.2 347.2,66.8 350.6,66.2 354.0,65.7 357.4,64.2 360.8,63.2 364.1,62.5 367.5,61.6 370.9,61.3 374.2,61.1 377.6,60.4 381.0,59.1 384.4,58.2 387.8,57.3 391.1,56.3 394.5,55.9 397.9,55.5 401.2,54.7 404.6,53.9 408.0,53.1 411.4,52.6 414.8,52.3 418.1,52.1 421.5,51.7 424.9,51.0 428.2,50.5 431.6,50.0 435.0,49.7 438.4,49.3 441.8,48.9 445.1,48.5 448.5,48.3 451.9,47.9 455.2,47.2 458.6,46.7 462.0,46.1 465.4,45.7 468.8,45.3 472.1,45.0 475.5,44.8 478.9,44.2 482.2,43.2 485.6,42.3 489.0,41.8 492.4,41.1 495.8,40.5 499.1,40.2 502.5,39.7 505.9,38.9 509.2,38.4 512.6,38.1 516.0,37.6 519.4,37.4 522.8,36.8 526.1,36.3 529.5,36.2 532.9,35.9 536.2,35.6 539.6,35.0 543.0,34.5 546.4,34.0 549.8,33.5 553.1,33.0 556.5,32.5 559.9,31.7 563.2,31.4 566.6,30.7 570.0,30.0 570.0,30.0,120" />
  
  <!-- Linea principale -->
  <polyline fill="none" stroke="#0366d6" stroke-width="2.5" stroke-linecap="round" stroke-linejoin="round" points="30.0,120.0 33.4,119.0 36.8,117.8 40.1,116.8 43.5,116.6 46.9,116.1 50.2,114.9 53.6,114.0 57.0,113.5 60.4,112.3 63.8,111.6 67.1,111.0 70.5,110.7 73.9,110.1 77.2,109.2 80.6,108.4 84.0,107.7 87.4,107.2 90.8,106.9 94.1,106.3 97.5,105.7 100.9,105.1 104.2,104.8 107.6,104.2 111.0,102.3 114.4,101.7 117.8,100.9 121.1,100.2 124.5,99.5 127.9,98.8 131.2,98.4 134.6,98.1 138.0,97.5 141.4,96.6 144.8,95.8 148.1,95.2 151.5,94.5 154.9,94.4 158.2,94.2 161.6,93.9 165.0,93.2 168.4,92.8 171.8,92.6 175.1,91.9 178.5,90.8 181.9,90.6 185.2,90.4 188.6,89.9 192.0,89.1 195.4,88.5 198.8,87.7 202.1,87.1 205.5,86.3 208.9,86.1 212.2,85.7 215.6,84.9 219.0,84.1 222.4,83.5 225.8,83.2 229.1,82.8 232.5,82.5 235.9,81.6 239.2,80.8 242.6,80.0 246.0,79.3 249.4,78.9 252.8,78.7 256.1,78.4 259.5,77.8 262.9,77.4 266.2,77.1 269.6,76.8 273.0,76.5 276.4,76.1 279.8,75.8 283.1,75.6 286.5,75.4 289.9,74.6 293.2,74.2 296.6,74.0 300.0,73.7 303.4,73.6 306.8,73.6 310.1,86.8 313.5,85.5 316.9,84.4 320.2,83.1 323.6,79.5 327.0,77.0 330.4,74.3 333.8,73.3 337.1,72.1 340.5,70.3 343.9,68.2 347.2,66.8 350.6,66.2 354.0,65.7 357.4,64.2 360.8,63.2 364.1,62.5 367.5,61.6 370.9,61.3 374.2,61.1 377.6,60.4 381.0,59.1 384.4,58.2 387.8,57.3 391.1,56.3 394.5,55.9 397.9,55.5 401.2,54.7 404.6,53.9 408.0,53.1 411.4,52.6 414.8,52.3 418.1,52.1 421.5,51.7 424.9,51.0 428.2,50.5 431.6,50.0 435.0,49.7 438.4,49.3 441.8,48.9 445.1,48.5 448.5,48.3 451.9,47.9 455.2,47.2 458.6,46.7 462.0,46.1 465.4,45.7 468.8,45.3 472.1,45.0 475.5,44.8 478.9,44.2 482.2,43.2 485.6,42.3 489.0,41.8 492.4,41.1 495.8,40.5 499.1,40.2 502.5,39.7 505.9,38.9 509.2,38.4 512.6,38.1 516.0,37.6 519.4,37.4 522.8,36.8 526.1,36.3 529.5,36.2 532.9,35.9 536.2,35.6 539.6,35.0 543.0,34.5 546.4,34.0 549.8,33.5 553.1,33.0 556.5,32.5 559.9,31.7 563.2,31.4 566.6,30.7 570.0,30.0" />
  
  <!-- Punto finale luminoso -->
  <circle cx="570.0" cy="30.0" r="4" fill="#ffffff" stroke="#0366d6" stroke-width="2.5" />
</svg>