<svg width="600" height="150" viewBox="0 0 600 150" xmlns="http://www.w3.org/2000/svg">
  <defs>
    <filter id="shadow2" x="-2%" y="-2%" width="104%" height="108%">
      <feDropShadow dx="0" dy="2" stdDeviation="3" flood-opacity="0.1" />
    </filter>
    <linearGradient id="fillGrad" x1="0" y1="0" x2="0" y2="1">
      <stop offset="0%" stop-color="#0366d6" stop-opacity="0.3"/>
      <stop offset="100%" stop-color="#0366d6" stop-opacity="0.02"/>
    </linearGradient>
  </defs>
  <rect width="600" height="150" rx="12" fill="#ffffff" filter="url(#shadow2)" stroke="#e1e4e8" stroke-width="1"/>
  <text x="20" y="24" fill="#2b3137" font-family="-apple-system,BlinkMacSystemFont,'Segoe UI',Helvetica,Arial,sans-serif" font-size="14" font-weight="600">📈 Download Growth (Actual: 75.2k)</text>
  
  <!-- Area sotto la linea -->
  <polygon fill="url(#fillGrad)" points="30.0,120.0,120 30.0,120.0 34.0,118.8 38.0,117.5 42.0,116.3 46.0,116.0 50.0,115.4 54.0,114.0 58.0,113.1 62.0,112.5 66.0,111.0 70.0,110.3 74.0,109.6 78.0,109.2 82.0,108.5 86.0,107.5 90.0,106.5 94.0,105.7 98.0,105.2 102.0,104.8 106.0,104.1 110.0,103.4 114.0,102.7 118.0,102.4 122.0,101.7 126.0,99.5 130.0,98.8 134.0,97.9 138.0,97.0 142.0,96.2 146.0,95.5 150.0,95.0 154.0,94.6 158.0,94.0 162.0,92.9 166.0,91.9 170.0,91.3 174.0,90.5 178.0,90.3 182.0,90.1 186.0,89.7 190.0,89.0 194.0,88.5 198.0,88.2 202.0,87.4 206.0,86.2 210.0,85.9 214.0,85.6 218.0,85.2 222.0,84.2 226.0,83.5 230.0,82.5 234.0,81.8 238.0,80.9 242.0,80.8 246.0,80.2 250.0,79.3 254.0,78.4 258.0,77.7 262.0,77.4 266.0,76.9 270.0,76.5 274.0,75.5 278.0,74.5 282.0,73.7 286.0,72.8 290.0,72.4 294.0,72.2 298.0,71.8 302.0,71.1 306.0,70.6 310.0,70.2 314.0,69.9 318.0,69.6 322.0,69.1 326.0,68.8 330.0,68.6 334.0,68.3 338.0,67.4 342.0,66.9 346.0,66.7 350.0,66.4 354.0,66.2 358.0,66.2 362.0,81.6 366.0,80.1 370.0,78.7 374.0,77.3 378.0,73.1 382.0,70.2 386.0,67.0 390.0,65.9 394.0,64.5 398.0,62.4 402.0,60.0 406.0,58.3 410.0,57.7 414.0,57.0 418.0,55.4 422.0,54.1 426.0,53.3 430.0,52.4 434.0,51.9 438.0,51.8 442.0,50.9 446.0,49.4 450.0,48.4 454.0,47.4 458.0,46.2 462.0,45.7 466.0,45.3 470.0,44.3 474.0,43.4 478.0,42.5 482.0,41.9 486.0,41.5 490.0,41.3 494.0,40.8 498.0,40.0 502.0,39.5 506.0,38.9 510.0,38.5 514.0,38.0 518.0,37.6 522.0,37.2 526.0,36.9 530.0,36.5 534.0,35.7 538.0,35.1 542.0,34.4 546.0,33.9 550.0,33.5 554.0,33.1 558.0,32.8 562.0,32.2 566.0,31.1 570.0,30.0 570.0,30.0,120" />
  
  <!-- Linea principale -->
  <polyline fill="none" stroke="#0366d6" stroke-width="2.5" stroke-linecap="round" stroke-linejoin="round" points="30.0,120.0 34.0,118.8 38.0,117.5 42.0,116.3 46.0,116.0 50.0,115.4 54.0,114.0 58.0,113.1 62.0,112.5 66.0,111.0 70.0,110.3 74.0,109.6 78.0,109.2 82.0,108.5 86.0,107.5 90.0,106.5 94.0,105.7 98.0,105.2 102.0,104.8 106.0,104.1 110.0,103.4 114.0,102.7 118.0,102.4 122.0,101.7 126.0,99.5 130.0,98.8 134.0,97.9 138.0,97.0 142.0,96.2 146.0,95.5 150.0,95.0 154.0,94.6 158.0,94.0 162.0,92.9 166.0,91.9 170.0,91.3 174.0,90.5 178.0,90.3 182.0,90.1 186.0,89.7 190.0,89.0 194.0,88.5 198.0,88.2 202.0,87.4 206.0,86.2 210.0,85.9 214.0,85.6 218.0,85.2 222.0,84.2 226.0,83.5 230.0,82.5 234.0,81.8 238.0,80.9 242.0,80.8 246.0,80.2 250.0,79.3 254.0,78.4 258.0,77.7 262.0,77.4 266.0,76.9 270.0,76.5 274.0,75.5 278.0,74.5 282.0,73.7 286.0,72.8 290.0,72.4 294.0,72.2 298.0,71.8 302.0,71.1 306.0,70.6 310.0,70.2 314.0,69.9 318.0,69.6 322.0,69.1 326.0,68.8 330.0,68.6 334.0,68.3 338.0,67.4 342.0,66.9 346.0,66.7 350.0,66.4 354.0,66.2 358.0,66.2 362.0,81.6 366.0,80.1 370.0,78.7 374.0,77.3 378.0,73.1 382.0,70.2 386.0,67.0 390.0,65.9 394.0,64.5 398.0,62.4 402.0,60.0 406.0,58.3 410.0,57.7 414.0,57.0 418.0,55.4 422.0,54.1 426.0,53.3 430.0,52.4 434.0,51.9 438.0,51.8 442.0,50.9 446.0,49.4 450.0,48.4 454.0,47.4 458.0,46.2 462.0,45.7 466.0,45.3 470.0,44.3 474.0,43.4 478.0,42.5 482.0,41.9 486.0,41.5 490.0,41.3 494.0,40.8 498.0,40.0 502.0,39.5 506.0,38.9 510.0,38.5 514.0,38.0 518.0,37.6 522.0,37.2 526.0,36.9 530.0,36.5 534.0,35.7 538.0,35.1 542.0,34.4 546.0,33.9 550.0,33.5 554.0,33.1 558.0,32.8 562.0,32.2 566.0,31.1 570.0,30.0" />
  
  <!-- Punto finale luminoso -->
  <circle cx="570.0" cy="30.0" r="4" fill="#ffffff" stroke="#0366d6" stroke-width="2.5" />
</svg>