<svg width="600" height="150" viewBox="0 0 600 150" xmlns="http://www.w3.org/2000/svg">
  <defs>
    <filter id="shadow2" x="-2%" y="-2%" width="104%" height="108%">
      <feDropShadow dx="0" dy="2" stdDeviation="3" flood-opacity="0.1" />
    </filter>
    <linearGradient id="fillGrad" x1="0" y1="0" x2="0" y2="1">
      <stop offset="0%" stop-color="#0366d6" stop-opacity="0.3"/>
      <stop offset="100%" stop-color="#0366d6" stop-opacity="0.02"/>
    </linearGradient>
  </defs>
  <rect width="600" height="150" rx="12" fill="#ffffff" filter="url(#shadow2)" stroke="#e1e4e8" stroke-width="1"/>
  <text x="20" y="24" fill="#2b3137" font-family="-apple-system,BlinkMacSystemFont,'Segoe UI',Helvetica,Arial,sans-serif" font-size="14" font-weight="600">📈 Download Growth (Actual: 96.7k)</text>
  
  <!-- Area sotto la linea -->
  <polygon fill="url(#fillGrad)" points="30.0,120.0,120 30.0,120.0 30.9,119.7 31.7,119.3 32.6,119.0 33.4,118.9 34.3,118.7 35.1,118.3 36.0,118.1 36.8,117.9 37.7,117.5 38.5,117.3 39.4,117.1 40.2,117.0 41.1,116.8 41.9,116.5 42.8,116.2 43.6,116.0 44.5,115.8 45.4,115.7 46.2,115.6 47.1,115.3 47.9,115.2 48.8,115.1 49.6,114.9 50.5,114.2 51.3,114.1 52.2,113.8 53.0,113.6 53.9,113.3 54.7,113.1 55.6,113.0 56.4,112.9 57.3,112.7 58.2,112.4 59.0,112.1 59.9,111.9 60.7,111.7 61.6,111.7 62.4,111.6 63.3,111.5 64.1,111.3 65.0,111.2 65.8,111.1 66.7,110.9 67.5,110.5 68.4,110.4 69.2,110.4 70.1,110.2 70.9,110.0 71.8,109.8 72.7,109.5 73.5,109.3 74.4,109.1 75.2,109.0 76.1,108.9 76.9,108.6 77.8,108.3 78.6,108.1 79.5,108.1 80.3,107.9 81.2,107.8 82.0,107.5 82.9,107.3 83.7,107.0 84.6,106.8 85.5,106.7 86.3,106.6 87.2,106.5 88.0,106.3 88.9,106.2 89.7,106.1 90.6,106.0 91.4,105.9 92.3,105.7 93.1,105.6 94.0,105.6 94.8,105.5 95.7,105.3 96.5,105.1 97.4,105.1 98.2,105.0 99.1,104.9 100.0,104.9 100.8,109.2 101.7,108.8 102.5,108.4 103.4,108.0 104.2,106.9 105.1,106.0 105.9,105.2 106.8,104.8 107.6,104.5 108.5,103.9 109.3,103.2 110.2,102.7 111.0,102.5 111.9,102.4 112.7,101.9 113.6,101.5 114.5,101.3 115.3,101.0 116.2,100.9 117.0,100.9 117.9,100.6 118.7,100.2 119.6,99.9 120.4,99.7 121.3,99.3 122.1,99.2 123.0,99.1 123.8,98.8 124.7,98.5 125.5,98.3 126.4,98.1 127.3,98.0 128.1,98.0 129.0,97.8 129.8,97.6 130.7,97.4 131.5,97.3 132.4,97.2 133.2,97.0 134.1,96.9 134.9,96.8 135.8,96.7 136.6,96.6 137.5,96.4 138.3,96.2 139.2,96.0 140.0,95.9 140.9,95.8 141.8,95.7 142.6,95.6 143.5,95.5 144.3,95.2 145.2,95.0 146.0,94.7 146.9,94.6 147.7,94.6 148.6,94.5 149.4,94.3 150.3,94.2 151.1,94.0 152.0,93.8 152.8,93.7 153.7,93.6 154.5,93.5 155.4,93.4 156.3,93.4 157.1,93.2 158.0,93.1 158.8,92.9 159.7,92.8 160.5,92.8 161.4,92.7 162.2,92.6 163.1,92.5 163.9,92.3 164.8,92.2 165.6,92.1 166.5,91.9 167.3,91.8 168.2,91.8 169.1,91.7 169.9,91.5 170.8,91.3 171.6,91.2 172.5,91.0 173.3,90.8 174.2,90.7 175.0,90.7 175.9,90.6 176.7,90.5 177.6,90.4 178.4,90.3 179.3,90.2 180.1,90.0 181.0,90.0 181.8,89.9 182.7,89.8 183.6,89.7 184.4,89.6 185.3,89.4 186.1,89.4 187.0,89.2 187.8,89.1 188.7,89.1 189.5,89.0 190.4,88.9 191.2,88.8 192.1,88.7 192.9,88.5 193.8,88.3 194.6,88.2 195.5,88.1 196.4,88.0 197.2,88.0 198.1,87.9 198.9,87.7 199.8,87.6 200.6,87.6 201.5,87.4 202.3,87.3 203.2,87.2 204.0,87.1 204.9,87.1 205.7,86.9 206.6,86.8 207.4,86.6 208.3,86.5 209.1,86.5 210.0,86.4 210.9,86.4 211.7,86.3 212.6,86.2 213.4,86.1 214.3,86.0 215.1,85.8 216.0,85.8 216.8,85.7 217.7,85.6 218.5,85.5 219.4,85.4 220.2,85.2 221.1,85.1 221.9,85.0 222.8,85.0 223.6,84.9 224.5,84.8 225.4,84.8 226.2,84.7 227.1,84.6 227.9,84.5 228.8,84.4 229.6,84.3 230.5,84.2 231.3,84.1 232.2,84.0 233.0,83.9 233.9,83.8 234.7,83.8 235.6,83.7 236.4,83.5 237.3,83.5 238.2,83.4 239.0,83.3 239.9,83.2 240.7,83.2 241.6,83.1 242.4,83.0 243.3,82.9 244.1,82.9 245.0,82.8 245.8,82.6 246.7,82.5 247.5,85.3 248.4,84.7 249.2,83.7 250.1,83.3 250.9,82.8 251.8,82.2 252.7,81.8 253.5,81.6 254.4,81.2 255.2,80.6 256.1,80.1 256.9,80.0 257.8,79.8 258.6,79.6 259.5,79.3 260.3,79.0 261.2,78.6 262.0,78.5 262.9,78.1 263.7,78.0 264.6,77.8 265.5,77.6 266.3,77.5 267.2,77.3 268.0,77.0 268.9,76.8 269.7,76.5 270.6,76.1 271.4,75.9 272.3,75.8 273.1,75.7 274.0,75.5 274.8,75.3 275.7,75.0 276.5,74.9 277.4,74.3 278.2,73.8 279.1,73.6 280.0,73.5 280.8,73.3 281.7,73.0 282.5,72.8 283.4,72.6 284.2,72.4 285.1,72.2 285.9,72.0 286.8,71.8 287.6,71.5 288.5,71.4 289.3,71.3 290.2,71.1 291.0,70.9 291.9,70.7 292.7,70.6 293.6,70.5 294.5,70.4 295.3,70.2 296.2,70.1 297.0,70.0 297.9,69.8 298.7,69.7 299.6,69.6 300.4,69.4 301.3,69.3 302.1,69.1 303.0,68.9 303.8,68.7 304.7,68.6 305.5,68.5 306.4,68.4 307.3,68.2 308.1,68.1 309.0,68.0 309.8,67.9 310.7,67.8 311.5,67.7 312.4,67.6 313.2,67.4 314.1,67.3 314.9,67.2 315.8,67.1 316.6,66.9 317.5,66.6 318.3,66.5 319.2,66.2 320.0,66.0 320.9,65.9 321.8,65.7 322.6,65.6 323.5,65.6 324.3,65.4 325.2,65.3 326.0,65.1 326.9,64.8 327.7,64.5 328.6,64.4 329.4,64.2 330.3,64.0 331.1,63.8 332.0,63.7 332.8,63.5 333.7,63.4 334.5,63.2 335.4,63.1 336.3,63.0 337.1,62.9 338.0,62.8 338.8,62.7 339.7,62.5 340.5,62.4 341.4,62.3 342.2,62.2 343.1,62.1 343.9,62.0 344.8,61.9 345.6,61.8 346.5,61.7 347.3,61.5 348.2,61.4 349.1,61.3 349.9,61.1 350.8,61.0 351.6,60.9 352.5,60.7 353.3,60.6 354.2,60.6 355.0,60.4 355.9,60.4 356.7,60.2 357.6,60.0 358.4,59.8 359.3,59.7 360.1,59.6 361.0,59.4 361.8,59.2 362.7,59.1 363.6,58.9 364.4,58.6 365.3,58.5 366.1,58.4 367.0,58.2 367.8,58.1 368.7,57.9 369.5,57.8 370.4,57.6 371.2,57.3 372.1,57.3 372.9,57.2 373.8,57.1 374.6,56.8 375.5,56.7 376.4,56.6 377.2,56.4 378.1,56.2 378.9,56.1 379.8,56.0 380.6,55.9 381.5,55.8 382.3,55.8 383.2,55.6 384.0,55.5 384.9,55.4 385.7,55.3 386.6,55.2 387.4,55.1 388.3,55.1 389.1,54.9 390.0,54.8 390.9,54.7 391.7,54.6 392.6,54.6 393.4,63.7 394.3,62.7 395.1,61.9 396.0,61.5 396.8,61.0 397.7,60.4 398.5,59.9 399.4,59.2 400.2,58.5 401.1,58.2 401.9,57.8 402.8,57.4 403.6,57.1 404.5,57.0 405.4,56.6 406.2,56.2 407.1,55.8 407.9,55.5 408.8,55.1 409.6,54.9 410.5,54.8 411.3,54.7 412.2,54.4 413.0,54.2 413.9,54.0 414.7,54.0 415.6,54.0 416.4,54.0 417.3,53.8 418.2,53.7 419.0,53.5 419.9,53.2 420.7,53.0 421.6,52.8 422.4,52.5 423.3,52.3 424.1,52.2 425.0,52.1 425.8,51.9 426.7,51.7 427.5,51.5 428.4,51.2 429.2,51.0 430.1,50.8 430.9,50.7 431.8,50.6 432.7,50.4 433.5,50.2 434.4,50.0 435.2,49.8 436.1,49.6 436.9,49.5 437.8,49.4 438.6,49.3 439.5,49.1 440.3,49.0 441.2,48.7 442.0,48.5 442.9,48.4 443.7,48.3 444.6,48.1 445.5,48.0 446.3,47.9 447.2,47.7 448.0,47.6 448.9,47.4 449.7,47.2 450.6,47.1 451.4,47.0 452.3,46.9 453.1,46.8 454.0,46.7 454.8,46.6 455.7,46.4 456.5,46.4 457.4,46.3 458.2,46.2 459.1,46.1 460.0,46.0 460.8,45.9 461.7,45.8 462.5,45.8 463.4,45.6 464.2,45.4 465.1,45.2 465.9,45.2 466.8,45.1 467.6,45.0 468.5,44.9 469.3,44.7 470.2,44.5 471.0,44.4 471.9,44.1 472.7,44.0 473.6,44.0 474.5,43.9 475.3,43.8 476.2,43.7 477.0,43.5 477.9,43.3 478.7,42.8 479.6,42.7 480.4,42.5 481.3,42.5 482.1,42.4 483.0,42.4 483.8,42.3 484.7,42.1 485.5,42.0 486.4,42.0 487.3,41.9 488.1,41.8 489.0,41.8 489.8,41.8 490.7,41.7 491.5,41.7 492.4,41.6 493.2,41.6 494.1,41.5 494.9,41.5 495.8,41.3 496.6,41.3 497.5,41.2 498.3,41.1 499.2,41.0 500.0,40.9 500.9,40.9 501.8,40.8 502.6,40.7 503.5,40.7 504.3,40.6 505.2,40.5 506.0,40.4 506.9,40.3 507.7,40.3 508.6,40.2 509.4,40.1 510.3,40.1 511.1,40.0 512.0,40.0 512.8,39.9 513.7,39.8 514.5,39.7 515.4,39.7 516.3,39.6 517.1,39.6 518.0,39.5 518.8,39.5 519.7,39.4 520.5,39.4 521.4,39.3 522.2,39.2 523.1,39.1 523.9,39.1 524.8,39.0 525.6,41.6 526.5,40.7 527.3,40.0 528.2,39.4 529.1,39.0 529.9,38.6 530.8,38.1 531.6,37.7 532.5,37.3 533.3,37.0 534.2,36.8 535.0,36.6 535.9,36.3 536.7,36.0 537.6,35.8 538.4,35.7 539.3,35.5 540.1,35.2 541.0,35.0 541.8,34.8 542.7,34.6 543.6,34.4 544.4,34.3 545.3,34.0 546.1,33.9 547.0,33.7 547.8,33.6 548.7,33.5 549.5,33.3 550.4,33.1 551.2,32.8 552.1,32.6 552.9,32.5 553.8,32.4 554.6,32.2 555.5,32.2 556.4,32.1 557.2,32.0 558.1,31.8 558.9,31.7 559.8,31.5 560.6,31.4 561.5,31.2 562.3,31.0 563.2,30.8 564.0,30.7 564.9,30.6 565.7,30.5 566.6,30.5 567.4,30.4 568.3,30.2 569.1,30.1 570.0,30.0 570.0,30.0,120" />
  
  <!-- Linea principale -->
  <polyline fill="none" stroke="#0366d6" stroke-width="2.5" stroke-linecap="round" stroke-linejoin="round" points="30.0,120.0 30.9,119.7 31.7,119.3 32.6,119.0 33.4,118.9 34.3,118.7 35.1,118.3 36.0,118.1 36.8,117.9 37.7,117.5 38.5,117.3 39.4,117.1 40.2,117.0 41.1,116.8 41.9,116.5 42.8,116.2 43.6,116.0 44.5,115.8 45.4,115.7 46.2,115.6 47.1,115.3 47.9,115.2 48.8,115.1 49.6,114.9 50.5,114.2 51.3,114.1 52.2,113.8 53.0,113.6 53.9,113.3 54.7,113.1 55.6,113.0 56.4,112.9 57.3,112.7 58.2,112.4 59.0,112.1 59.9,111.9 60.7,111.7 61.6,111.7 62.4,111.6 63.3,111.5 64.1,111.3 65.0,111.2 65.8,111.1 66.7,110.9 67.5,110.5 68.4,110.4 69.2,110.4 70.1,110.2 70.9,110.0 71.8,109.8 72.7,109.5 73.5,109.3 74.4,109.1 75.2,109.0 76.1,108.9 76.9,108.6 77.8,108.3 78.6,108.1 79.5,108.1 80.3,107.9 81.2,107.8 82.0,107.5 82.9,107.3 83.7,107.0 84.6,106.8 85.5,106.7 86.3,106.6 87.2,106.5 88.0,106.3 88.9,106.2 89.7,106.1 90.6,106.0 91.4,105.9 92.3,105.7 93.1,105.6 94.0,105.6 94.8,105.5 95.7,105.3 96.5,105.1 97.4,105.1 98.2,105.0 99.1,104.9 100.0,104.9 100.8,109.2 101.7,108.8 102.5,108.4 103.4,108.0 104.2,106.9 105.1,106.0 105.9,105.2 106.8,104.8 107.6,104.5 108.5,103.9 109.3,103.2 110.2,102.7 111.0,102.5 111.9,102.4 112.7,101.9 113.6,101.5 114.5,101.3 115.3,101.0 116.2,100.9 117.0,100.9 117.9,100.6 118.7,100.2 119.6,99.9 120.4,99.7 121.3,99.3 122.1,99.2 123.0,99.1 123.8,98.8 124.7,98.5 125.5,98.3 126.4,98.1 127.3,98.0 128.1,98.0 129.0,97.8 129.8,97.6 130.7,97.4 131.5,97.3 132.4,97.2 133.2,97.0 134.1,96.9 134.9,96.8 135.8,96.7 136.6,96.6 137.5,96.4 138.3,96.2 139.2,96.0 140.0,95.9 140.9,95.8 141.8,95.7 142.6,95.6 143.5,95.5 144.3,95.2 145.2,95.0 146.0,94.7 146.9,94.6 147.7,94.6 148.6,94.5 149.4,94.3 150.3,94.2 151.1,94.0 152.0,93.8 152.8,93.7 153.7,93.6 154.5,93.5 155.4,93.4 156.3,93.4 157.1,93.2 158.0,93.1 158.8,92.9 159.7,92.8 160.5,92.8 161.4,92.7 162.2,92.6 163.1,92.5 163.9,92.3 164.8,92.2 165.6,92.1 166.5,91.9 167.3,91.8 168.2,91.8 169.1,91.7 169.9,91.5 170.8,91.3 171.6,91.2 172.5,91.0 173.3,90.8 174.2,90.7 175.0,90.7 175.9,90.6 176.7,90.5 177.6,90.4 178.4,90.3 179.3,90.2 180.1,90.0 181.0,90.0 181.8,89.9 182.7,89.8 183.6,89.7 184.4,89.6 185.3,89.4 186.1,89.4 187.0,89.2 187.8,89.1 188.7,89.1 189.5,89.0 190.4,88.9 191.2,88.8 192.1,88.7 192.9,88.5 193.8,88.3 194.6,88.2 195.5,88.1 196.4,88.0 197.2,88.0 198.1,87.9 198.9,87.7 199.8,87.6 200.6,87.6 201.5,87.4 202.3,87.3 203.2,87.2 204.0,87.1 204.9,87.1 205.7,86.9 206.6,86.8 207.4,86.6 208.3,86.5 209.1,86.5 210.0,86.4 210.9,86.4 211.7,86.3 212.6,86.2 213.4,86.1 214.3,86.0 215.1,85.8 216.0,85.8 216.8,85.7 217.7,85.6 218.5,85.5 219.4,85.4 220.2,85.2 221.1,85.1 221.9,85.0 222.8,85.0 223.6,84.9 224.5,84.8 225.4,84.8 226.2,84.7 227.1,84.6 227.9,84.5 228.8,84.4 229.6,84.3 230.5,84.2 231.3,84.1 232.2,84.0 233.0,83.9 233.9,83.8 234.7,83.8 235.6,83.7 236.4,83.5 237.3,83.5 238.2,83.4 239.0,83.3 239.9,83.2 240.7,83.2 241.6,83.1 242.4,83.0 243.3,82.9 244.1,82.9 245.0,82.8 245.8,82.6 246.7,82.5 247.5,85.3 248.4,84.7 249.2,83.7 250.1,83.3 250.9,82.8 251.8,82.2 252.7,81.8 253.5,81.6 254.4,81.2 255.2,80.6 256.1,80.1 256.9,80.0 257.8,79.8 258.6,79.6 259.5,79.3 260.3,79.0 261.2,78.6 262.0,78.5 262.9,78.1 263.7,78.0 264.6,77.8 265.5,77.6 266.3,77.5 267.2,77.3 268.0,77.0 268.9,76.8 269.7,76.5 270.6,76.1 271.4,75.9 272.3,75.8 273.1,75.7 274.0,75.5 274.8,75.3 275.7,75.0 276.5,74.9 277.4,74.3 278.2,73.8 279.1,73.6 280.0,73.5 280.8,73.3 281.7,73.0 282.5,72.8 283.4,72.6 284.2,72.4 285.1,72.2 285.9,72.0 286.8,71.8 287.6,71.5 288.5,71.4 289.3,71.3 290.2,71.1 291.0,70.9 291.9,70.7 292.7,70.6 293.6,70.5 294.5,70.4 295.3,70.2 296.2,70.1 297.0,70.0 297.9,69.8 298.7,69.7 299.6,69.6 300.4,69.4 301.3,69.3 302.1,69.1 303.0,68.9 303.8,68.7 304.7,68.6 305.5,68.5 306.4,68.4 307.3,68.2 308.1,68.1 309.0,68.0 309.8,67.9 310.7,67.8 311.5,67.7 312.4,67.6 313.2,67.4 314.1,67.3 314.9,67.2 315.8,67.1 316.6,66.9 317.5,66.6 318.3,66.5 319.2,66.2 320.0,66.0 320.9,65.9 321.8,65.7 322.6,65.6 323.5,65.6 324.3,65.4 325.2,65.3 326.0,65.1 326.9,64.8 327.7,64.5 328.6,64.4 329.4,64.2 330.3,64.0 331.1,63.8 332.0,63.7 332.8,63.5 333.7,63.4 334.5,63.2 335.4,63.1 336.3,63.0 337.1,62.9 338.0,62.8 338.8,62.7 339.7,62.5 340.5,62.4 341.4,62.3 342.2,62.2 343.1,62.1 343.9,62.0 344.8,61.9 345.6,61.8 346.5,61.7 347.3,61.5 348.2,61.4 349.1,61.3 349.9,61.1 350.8,61.0 351.6,60.9 352.5,60.7 353.3,60.6 354.2,60.6 355.0,60.4 355.9,60.4 356.7,60.2 357.6,60.0 358.4,59.8 359.3,59.7 360.1,59.6 361.0,59.4 361.8,59.2 362.7,59.1 363.6,58.9 364.4,58.6 365.3,58.5 366.1,58.4 367.0,58.2 367.8,58.1 368.7,57.9 369.5,57.8 370.4,57.6 371.2,57.3 372.1,57.3 372.9,57.2 373.8,57.1 374.6,56.8 375.5,56.7 376.4,56.6 377.2,56.4 378.1,56.2 378.9,56.1 379.8,56.0 380.6,55.9 381.5,55.8 382.3,55.8 383.2,55.6 384.0,55.5 384.9,55.4 385.7,55.3 386.6,55.2 387.4,55.1 388.3,55.1 389.1,54.9 390.0,54.8 390.9,54.7 391.7,54.6 392.6,54.6 393.4,63.7 394.3,62.7 395.1,61.9 396.0,61.5 396.8,61.0 397.7,60.4 398.5,59.9 399.4,59.2 400.2,58.5 401.1,58.2 401.9,57.8 402.8,57.4 403.6,57.1 404.5,57.0 405.4,56.6 406.2,56.2 407.1,55.8 407.9,55.5 408.8,55.1 409.6,54.9 410.5,54.8 411.3,54.7 412.2,54.4 413.0,54.2 413.9,54.0 414.7,54.0 415.6,54.0 416.4,54.0 417.3,53.8 418.2,53.7 419.0,53.5 419.9,53.2 420.7,53.0 421.6,52.8 422.4,52.5 423.3,52.3 424.1,52.2 425.0,52.1 425.8,51.9 426.7,51.7 427.5,51.5 428.4,51.2 429.2,51.0 430.1,50.8 430.9,50.7 431.8,50.6 432.7,50.4 433.5,50.2 434.4,50.0 435.2,49.8 436.1,49.6 436.9,49.5 437.8,49.4 438.6,49.3 439.5,49.1 440.3,49.0 441.2,48.7 442.0,48.5 442.9,48.4 443.7,48.3 444.6,48.1 445.5,48.0 446.3,47.9 447.2,47.7 448.0,47.6 448.9,47.4 449.7,47.2 450.6,47.1 451.4,47.0 452.3,46.9 453.1,46.8 454.0,46.7 454.8,46.6 455.7,46.4 456.5,46.4 457.4,46.3 458.2,46.2 459.1,46.1 460.0,46.0 460.8,45.9 461.7,45.8 462.5,45.8 463.4,45.6 464.2,45.4 465.1,45.2 465.9,45.2 466.8,45.1 467.6,45.0 468.5,44.9 469.3,44.7 470.2,44.5 471.0,44.4 471.9,44.1 472.7,44.0 473.6,44.0 474.5,43.9 475.3,43.8 476.2,43.7 477.0,43.5 477.9,43.3 478.7,42.8 479.6,42.7 480.4,42.5 481.3,42.5 482.1,42.4 483.0,42.4 483.8,42.3 484.7,42.1 485.5,42.0 486.4,42.0 487.3,41.9 488.1,41.8 489.0,41.8 489.8,41.8 490.7,41.7 491.5,41.7 492.4,41.6 493.2,41.6 494.1,41.5 494.9,41.5 495.8,41.3 496.6,41.3 497.5,41.2 498.3,41.1 499.2,41.0 500.0,40.9 500.9,40.9 501.8,40.8 502.6,40.7 503.5,40.7 504.3,40.6 505.2,40.5 506.0,40.4 506.9,40.3 507.7,40.3 508.6,40.2 509.4,40.1 510.3,40.1 511.1,40.0 512.0,40.0 512.8,39.9 513.7,39.8 514.5,39.7 515.4,39.7 516.3,39.6 517.1,39.6 518.0,39.5 518.8,39.5 519.7,39.4 520.5,39.4 521.4,39.3 522.2,39.2 523.1,39.1 523.9,39.1 524.8,39.0 525.6,41.6 526.5,40.7 527.3,40.0 528.2,39.4 529.1,39.0 529.9,38.6 530.8,38.1 531.6,37.7 532.5,37.3 533.3,37.0 534.2,36.8 535.0,36.6 535.9,36.3 536.7,36.0 537.6,35.8 538.4,35.7 539.3,35.5 540.1,35.2 541.0,35.0 541.8,34.8 542.7,34.6 543.6,34.4 544.4,34.3 545.3,34.0 546.1,33.9 547.0,33.7 547.8,33.6 548.7,33.5 549.5,33.3 550.4,33.1 551.2,32.8 552.1,32.6 552.9,32.5 553.8,32.4 554.6,32.2 555.5,32.2 556.4,32.1 557.2,32.0 558.1,31.8 558.9,31.7 559.8,31.5 560.6,31.4 561.5,31.2 562.3,31.0 563.2,30.8 564.0,30.7 564.9,30.6 565.7,30.5 566.6,30.5 567.4,30.4 568.3,30.2 569.1,30.1 570.0,30.0" />
  
  <!-- Punto finale luminoso -->
  <circle cx="570.0" cy="30.0" r="4" fill="#ffffff" stroke="#0366d6" stroke-width="2.5" />
</svg>