<svg width="600" height="150" viewBox="0 0 600 150" xmlns="http://www.w3.org/2000/svg">
  <defs>
    <filter id="shadow2" x="-2%" y="-2%" width="104%" height="108%">
      <feDropShadow dx="0" dy="2" stdDeviation="3" flood-opacity="0.1" />
    </filter>
    <linearGradient id="fillGrad" x1="0" y1="0" x2="0" y2="1">
      <stop offset="0%" stop-color="#0366d6" stop-opacity="0.3"/>
      <stop offset="100%" stop-color="#0366d6" stop-opacity="0.02"/>
    </linearGradient>
  </defs>
  <rect width="600" height="150" rx="12" fill="#ffffff" filter="url(#shadow2)" stroke="#e1e4e8" stroke-width="1"/>
  <text x="20" y="24" fill="#2b3137" font-family="-apple-system,BlinkMacSystemFont,'Segoe UI',Helvetica,Arial,sans-serif" font-size="14" font-weight="600">📈 Download Growth (Actual: 75.7k)</text>
  
  <!-- Area sotto la linea -->
  <polygon fill="url(#fillGrad)" points="30.0,120.0,120 30.0,120.0 33.8,118.9 37.6,117.6 41.3,116.5 45.1,116.2 48.9,115.7 52.7,114.3 56.4,113.5 60.2,112.9 64.0,111.5 67.8,110.8 71.5,110.1 75.3,109.7 79.1,109.1 82.9,108.2 86.6,107.2 90.4,106.5 94.2,105.9 98.0,105.6 101.7,105.0 105.5,104.3 109.3,103.6 113.1,103.3 116.9,102.7 120.6,100.5 124.4,99.9 128.2,99.1 132.0,98.2 135.7,97.5 139.5,96.7 143.3,96.3 147.1,95.9 150.8,95.3 154.6,94.3 158.4,93.4 162.2,92.8 165.9,92.0 169.7,91.8 173.5,91.6 177.3,91.3 181.0,90.6 184.8,90.2 188.6,89.9 192.4,89.1 196.2,87.9 199.9,87.7 203.7,87.4 207.5,87.0 211.3,86.1 215.0,85.5 218.8,84.5 222.6,83.8 226.4,83.0 230.1,82.8 233.9,82.3 237.7,81.4 241.5,80.6 245.2,79.9 249.0,79.6 252.8,79.2 256.6,78.8 260.3,77.8 264.1,76.9 267.9,76.1 271.7,75.3 275.5,74.9 279.2,74.7 283.0,74.3 286.8,73.7 290.6,73.2 294.3,72.8 298.1,72.5 301.9,72.2 305.7,71.8 309.4,71.4 313.2,71.2 317.0,71.0 320.8,70.1 324.5,69.7 328.3,69.5 332.1,69.2 335.9,69.0 339.7,69.0 343.4,83.6 347.2,82.2 351.0,80.9 354.8,79.5 358.5,75.5 362.3,72.8 366.1,69.8 369.9,68.7 373.6,67.4 377.4,65.4 381.2,63.2 385.0,61.5 388.7,60.9 392.5,60.3 396.3,58.7 400.1,57.6 403.8,56.8 407.6,55.9 411.4,55.5 415.2,55.3 419.0,54.5 422.7,53.1 426.5,52.2 430.3,51.2 434.1,50.1 437.8,49.6 441.6,49.2 445.4,48.2 449.2,47.4 452.9,46.6 456.7,45.9 460.5,45.6 464.3,45.4 468.0,44.9 471.8,44.2 475.6,43.7 479.4,43.2 483.1,42.7 486.9,42.3 490.7,41.9 494.5,41.5 498.3,41.2 502.0,40.8 505.8,40.1 509.6,39.5 513.4,38.8 517.1,38.4 520.9,38.0 524.7,37.7 528.5,37.4 532.2,36.7 536.0,35.7 539.8,34.7 543.6,34.1 547.3,33.4 551.1,32.7 554.9,32.3 558.7,31.8 562.4,31.0 566.2,30.4 570.0,30.0 570.0,30.0,120" />
  
  <!-- Linea principale -->
  <polyline fill="none" stroke="#0366d6" stroke-width="2.5" stroke-linecap="round" stroke-linejoin="round" points="30.0,120.0 33.8,118.9 37.6,117.6 41.3,116.5 45.1,116.2 48.9,115.7 52.7,114.3 56.4,113.5 60.2,112.9 64.0,111.5 67.8,110.8 71.5,110.1 75.3,109.7 79.1,109.1 82.9,108.2 86.6,107.2 90.4,106.5 94.2,105.9 98.0,105.6 101.7,105.0 105.5,104.3 109.3,103.6 113.1,103.3 116.9,102.7 120.6,100.5 124.4,99.9 128.2,99.1 132.0,98.2 135.7,97.5 139.5,96.7 143.3,96.3 147.1,95.9 150.8,95.3 154.6,94.3 158.4,93.4 162.2,92.8 165.9,92.0 169.7,91.8 173.5,91.6 177.3,91.3 181.0,90.6 184.8,90.2 188.6,89.9 192.4,89.1 196.2,87.9 199.9,87.7 203.7,87.4 207.5,87.0 211.3,86.1 215.0,85.5 218.8,84.5 222.6,83.8 226.4,83.0 230.1,82.8 233.9,82.3 237.7,81.4 241.5,80.6 245.2,79.9 249.0,79.6 252.8,79.2 256.6,78.8 260.3,77.8 264.1,76.9 267.9,76.1 271.7,75.3 275.5,74.9 279.2,74.7 283.0,74.3 286.8,73.7 290.6,73.2 294.3,72.8 298.1,72.5 301.9,72.2 305.7,71.8 309.4,71.4 313.2,71.2 317.0,71.0 320.8,70.1 324.5,69.7 328.3,69.5 332.1,69.2 335.9,69.0 339.7,69.0 343.4,83.6 347.2,82.2 351.0,80.9 354.8,79.5 358.5,75.5 362.3,72.8 366.1,69.8 369.9,68.7 373.6,67.4 377.4,65.4 381.2,63.2 385.0,61.5 388.7,60.9 392.5,60.3 396.3,58.7 400.1,57.6 403.8,56.8 407.6,55.9 411.4,55.5 415.2,55.3 419.0,54.5 422.7,53.1 426.5,52.2 430.3,51.2 434.1,50.1 437.8,49.6 441.6,49.2 445.4,48.2 449.2,47.4 452.9,46.6 456.7,45.9 460.5,45.6 464.3,45.4 468.0,44.9 471.8,44.2 475.6,43.7 479.4,43.2 483.1,42.7 486.9,42.3 490.7,41.9 494.5,41.5 498.3,41.2 502.0,40.8 505.8,40.1 509.6,39.5 513.4,38.8 517.1,38.4 520.9,38.0 524.7,37.7 528.5,37.4 532.2,36.7 536.0,35.7 539.8,34.7 543.6,34.1 547.3,33.4 551.1,32.7 554.9,32.3 558.7,31.8 562.4,31.0 566.2,30.4 570.0,30.0" />
  
  <!-- Punto finale luminoso -->
  <circle cx="570.0" cy="30.0" r="4" fill="#ffffff" stroke="#0366d6" stroke-width="2.5" />
</svg>