<svg width="600" height="150" viewBox="0 0 600 150" xmlns="http://www.w3.org/2000/svg">
  <defs>
    <filter id="shadow2" x="-2%" y="-2%" width="104%" height="108%">
      <feDropShadow dx="0" dy="2" stdDeviation="3" flood-opacity="0.1" />
    </filter>
    <linearGradient id="fillGrad" x1="0" y1="0" x2="0" y2="1">
      <stop offset="0%" stop-color="#0366d6" stop-opacity="0.3"/>
      <stop offset="100%" stop-color="#0366d6" stop-opacity="0.02"/>
    </linearGradient>
  </defs>
  <rect width="600" height="150" rx="12" fill="#ffffff" filter="url(#shadow2)" stroke="#e1e4e8" stroke-width="1"/>
  <text x="20" y="24" fill="#2b3137" font-family="-apple-system,BlinkMacSystemFont,'Segoe UI',Helvetica,Arial,sans-serif" font-size="14" font-weight="600">📈 Download Growth (Actual: 76.3k)</text>
  
  <!-- Area sotto la linea -->
  <polygon fill="url(#fillGrad)" points="30.0,120.0,120 30.0,120.0 33.5,118.9 36.9,117.8 40.4,116.7 43.8,116.5 47.3,115.9 50.8,114.7 54.2,113.9 57.7,113.3 61.2,112.0 64.6,111.4 68.1,110.8 71.5,110.4 75.0,109.8 78.5,108.9 81.9,108.0 85.4,107.3 88.8,106.8 92.3,106.5 95.8,105.9 99.2,105.2 102.7,104.7 106.2,104.4 109.6,103.8 113.1,101.8 116.5,101.2 120.0,100.4 123.5,99.6 126.9,98.9 130.4,98.2 133.8,97.8 137.3,97.4 140.8,96.9 144.2,95.9 147.7,95.1 151.2,94.5 154.6,93.8 158.1,93.6 161.5,93.4 165.0,93.1 168.5,92.4 171.9,92.1 175.4,91.8 178.8,91.0 182.3,90.0 185.8,89.7 189.2,89.5 192.7,89.1 196.2,88.2 199.6,87.6 203.1,86.7 206.5,86.1 210.0,85.3 213.5,85.1 216.9,84.7 220.4,83.9 223.8,83.0 227.3,82.4 230.8,82.2 234.2,81.7 237.7,81.4 241.2,80.5 244.6,79.6 248.1,78.9 251.5,78.1 255.0,77.7 258.5,77.5 261.9,77.2 265.4,76.6 268.8,76.2 272.3,75.8 275.8,75.5 279.2,75.2 282.7,74.8 286.2,74.5 289.6,74.3 293.1,74.1 296.5,73.3 300.0,72.8 303.5,72.7 306.9,72.4 310.4,72.2 313.8,72.2 317.3,85.9 320.8,84.5 324.2,83.3 327.7,82.1 331.2,78.4 334.6,75.8 338.1,73.0 341.5,71.9 345.0,70.8 348.5,68.8 351.9,66.8 355.4,65.2 358.8,64.6 362.3,64.1 365.8,62.6 369.2,61.5 372.7,60.8 376.2,59.9 379.6,59.6 383.1,59.4 386.5,58.6 390.0,57.4 393.5,56.4 396.9,55.5 400.4,54.5 403.8,54.0 407.3,53.6 410.8,52.8 414.2,52.0 417.7,51.2 421.2,50.6 424.6,50.3 428.1,50.1 431.5,49.7 435.0,49.0 438.5,48.5 441.9,48.0 445.4,47.6 448.8,47.2 452.3,46.8 455.8,46.5 459.2,46.2 462.7,45.8 466.2,45.1 469.6,44.6 473.1,44.0 476.5,43.6 480.0,43.2 483.5,42.9 486.9,42.6 490.4,42.0 493.8,41.0 497.3,40.1 500.8,39.5 504.2,38.8 507.7,38.3 511.2,37.9 514.6,37.4 518.1,36.6 521.5,36.1 525.0,35.7 528.5,35.3 531.9,35.0 535.4,34.4 538.8,33.9 542.3,33.7 545.8,33.5 549.2,33.1 552.7,32.5 556.2,32.1 559.6,31.5 563.1,31.0 566.5,30.5 570.0,30.0 570.0,30.0,120" />
  
  <!-- Linea principale -->
  <polyline fill="none" stroke="#0366d6" stroke-width="2.5" stroke-linecap="round" stroke-linejoin="round" points="30.0,120.0 33.5,118.9 36.9,117.8 40.4,116.7 43.8,116.5 47.3,115.9 50.8,114.7 54.2,113.9 57.7,113.3 61.2,112.0 64.6,111.4 68.1,110.8 71.5,110.4 75.0,109.8 78.5,108.9 81.9,108.0 85.4,107.3 88.8,106.8 92.3,106.5 95.8,105.9 99.2,105.2 102.7,104.7 106.2,104.4 109.6,103.8 113.1,101.8 116.5,101.2 120.0,100.4 123.5,99.6 126.9,98.9 130.4,98.2 133.8,97.8 137.3,97.4 140.8,96.9 144.2,95.9 147.7,95.1 151.2,94.5 154.6,93.8 158.1,93.6 161.5,93.4 165.0,93.1 168.5,92.4 171.9,92.1 175.4,91.8 178.8,91.0 182.3,90.0 185.8,89.7 189.2,89.5 192.7,89.1 196.2,88.2 199.6,87.6 203.1,86.7 206.5,86.1 210.0,85.3 213.5,85.1 216.9,84.7 220.4,83.9 223.8,83.0 227.3,82.4 230.8,82.2 234.2,81.7 237.7,81.4 241.2,80.5 244.6,79.6 248.1,78.9 251.5,78.1 255.0,77.7 258.5,77.5 261.9,77.2 265.4,76.6 268.8,76.2 272.3,75.8 275.8,75.5 279.2,75.2 282.7,74.8 286.2,74.5 289.6,74.3 293.1,74.1 296.5,73.3 300.0,72.8 303.5,72.7 306.9,72.4 310.4,72.2 313.8,72.2 317.3,85.9 320.8,84.5 324.2,83.3 327.7,82.1 331.2,78.4 334.6,75.8 338.1,73.0 341.5,71.9 345.0,70.8 348.5,68.8 351.9,66.8 355.4,65.2 358.8,64.6 362.3,64.1 365.8,62.6 369.2,61.5 372.7,60.8 376.2,59.9 379.6,59.6 383.1,59.4 386.5,58.6 390.0,57.4 393.5,56.4 396.9,55.5 400.4,54.5 403.8,54.0 407.3,53.6 410.8,52.8 414.2,52.0 417.7,51.2 421.2,50.6 424.6,50.3 428.1,50.1 431.5,49.7 435.0,49.0 438.5,48.5 441.9,48.0 445.4,47.6 448.8,47.2 452.3,46.8 455.8,46.5 459.2,46.2 462.7,45.8 466.2,45.1 469.6,44.6 473.1,44.0 476.5,43.6 480.0,43.2 483.5,42.9 486.9,42.6 490.4,42.0 493.8,41.0 497.3,40.1 500.8,39.5 504.2,38.8 507.7,38.3 511.2,37.9 514.6,37.4 518.1,36.6 521.5,36.1 525.0,35.7 528.5,35.3 531.9,35.0 535.4,34.4 538.8,33.9 542.3,33.7 545.8,33.5 549.2,33.1 552.7,32.5 556.2,32.1 559.6,31.5 563.1,31.0 566.5,30.5 570.0,30.0" />
  
  <!-- Punto finale luminoso -->
  <circle cx="570.0" cy="30.0" r="4" fill="#ffffff" stroke="#0366d6" stroke-width="2.5" />
</svg>