<svg width="600" height="150" viewBox="0 0 600 150" xmlns="http://www.w3.org/2000/svg">
  <defs>
    <filter id="shadow2" x="-2%" y="-2%" width="104%" height="108%">
      <feDropShadow dx="0" dy="2" stdDeviation="3" flood-opacity="0.1" />
    </filter>
    <linearGradient id="fillGrad" x1="0" y1="0" x2="0" y2="1">
      <stop offset="0%" stop-color="#0366d6" stop-opacity="0.3"/>
      <stop offset="100%" stop-color="#0366d6" stop-opacity="0.02"/>
    </linearGradient>
  </defs>
  <rect width="600" height="150" rx="12" fill="#ffffff" filter="url(#shadow2)" stroke="#e1e4e8" stroke-width="1"/>
  <text x="20" y="24" fill="#2b3137" font-family="-apple-system,BlinkMacSystemFont,'Segoe UI',Helvetica,Arial,sans-serif" font-size="14" font-weight="600">📈 Download Growth (Actual: 75.0k)</text>
  
  <!-- Area sotto la linea -->
  <polygon fill="url(#fillGrad)" points="30.0,120.0,120 30.0,120.0 34.1,118.8 38.1,117.4 42.2,116.2 46.2,115.9 50.3,115.3 54.4,113.9 58.4,112.9 62.5,112.3 66.5,110.8 70.6,110.1 74.7,109.3 78.7,108.9 82.8,108.2 86.8,107.2 90.9,106.2 95.0,105.4 99.0,104.8 103.1,104.4 107.1,103.8 111.2,103.0 115.3,102.3 119.3,102.0 123.4,101.3 127.4,99.0 131.5,98.3 135.6,97.4 139.6,96.4 143.7,95.6 147.7,94.9 151.8,94.4 155.9,94.0 159.9,93.3 164.0,92.2 168.0,91.2 172.1,90.6 176.2,89.8 180.2,89.6 184.3,89.4 188.3,89.0 192.4,88.2 196.5,87.8 200.5,87.4 204.6,86.6 208.6,85.3 212.7,85.0 216.8,84.8 220.8,84.3 224.9,83.3 228.9,82.7 233.0,81.6 237.1,80.9 241.1,80.0 245.2,79.8 249.2,79.2 253.3,78.3 257.4,77.4 261.4,76.7 265.5,76.3 269.5,75.9 273.6,75.4 277.7,74.4 281.7,73.4 285.8,72.6 289.8,71.7 293.9,71.2 298.0,71.0 302.0,70.6 306.1,69.9 310.2,69.4 314.2,69.0 318.3,68.7 322.3,68.4 326.4,67.9 330.5,67.5 334.5,67.3 338.6,67.1 342.6,66.1 346.7,65.6 350.8,65.4 354.8,65.1 358.9,64.9 362.9,64.9 367.0,80.6 371.1,79.1 375.1,77.7 379.2,76.2 383.2,71.9 387.3,68.9 391.4,65.7 395.4,64.5 399.5,63.2 403.5,61.0 407.6,58.6 411.7,56.8 415.7,56.1 419.8,55.5 423.8,53.8 427.9,52.5 432.0,51.7 436.0,50.7 440.1,50.3 444.1,50.1 448.2,49.2 452.3,47.7 456.3,46.7 460.4,45.6 464.4,44.4 468.5,43.9 472.6,43.4 476.6,42.4 480.7,41.5 484.7,40.6 488.8,39.9 492.9,39.6 496.9,39.4 501.0,38.9 505.0,38.1 509.1,37.5 513.2,37.0 517.2,36.5 521.3,36.0 525.3,35.6 529.4,35.2 533.5,34.8 537.5,34.4 541.6,33.6 545.6,33.0 549.7,32.3 553.8,31.8 557.8,31.3 561.9,31.0 565.9,30.7 570.0,30.0 570.0,30.0,120" />
  
  <!-- Linea principale -->
  <polyline fill="none" stroke="#0366d6" stroke-width="2.5" stroke-linecap="round" stroke-linejoin="round" points="30.0,120.0 34.1,118.8 38.1,117.4 42.2,116.2 46.2,115.9 50.3,115.3 54.4,113.9 58.4,112.9 62.5,112.3 66.5,110.8 70.6,110.1 74.7,109.3 78.7,108.9 82.8,108.2 86.8,107.2 90.9,106.2 95.0,105.4 99.0,104.8 103.1,104.4 107.1,103.8 111.2,103.0 115.3,102.3 119.3,102.0 123.4,101.3 127.4,99.0 131.5,98.3 135.6,97.4 139.6,96.4 143.7,95.6 147.7,94.9 151.8,94.4 155.9,94.0 159.9,93.3 164.0,92.2 168.0,91.2 172.1,90.6 176.2,89.8 180.2,89.6 184.3,89.4 188.3,89.0 192.4,88.2 196.5,87.8 200.5,87.4 204.6,86.6 208.6,85.3 212.7,85.0 216.8,84.8 220.8,84.3 224.9,83.3 228.9,82.7 233.0,81.6 237.1,80.9 241.1,80.0 245.2,79.8 249.2,79.2 253.3,78.3 257.4,77.4 261.4,76.7 265.5,76.3 269.5,75.9 273.6,75.4 277.7,74.4 281.7,73.4 285.8,72.6 289.8,71.7 293.9,71.2 298.0,71.0 302.0,70.6 306.1,69.9 310.2,69.4 314.2,69.0 318.3,68.7 322.3,68.4 326.4,67.9 330.5,67.5 334.5,67.3 338.6,67.1 342.6,66.1 346.7,65.6 350.8,65.4 354.8,65.1 358.9,64.9 362.9,64.9 367.0,80.6 371.1,79.1 375.1,77.7 379.2,76.2 383.2,71.9 387.3,68.9 391.4,65.7 395.4,64.5 399.5,63.2 403.5,61.0 407.6,58.6 411.7,56.8 415.7,56.1 419.8,55.5 423.8,53.8 427.9,52.5 432.0,51.7 436.0,50.7 440.1,50.3 444.1,50.1 448.2,49.2 452.3,47.7 456.3,46.7 460.4,45.6 464.4,44.4 468.5,43.9 472.6,43.4 476.6,42.4 480.7,41.5 484.7,40.6 488.8,39.9 492.9,39.6 496.9,39.4 501.0,38.9 505.0,38.1 509.1,37.5 513.2,37.0 517.2,36.5 521.3,36.0 525.3,35.6 529.4,35.2 533.5,34.8 537.5,34.4 541.6,33.6 545.6,33.0 549.7,32.3 553.8,31.8 557.8,31.3 561.9,31.0 565.9,30.7 570.0,30.0" />
  
  <!-- Punto finale luminoso -->
  <circle cx="570.0" cy="30.0" r="4" fill="#ffffff" stroke="#0366d6" stroke-width="2.5" />
</svg>