<svg width="600" height="150" viewBox="0 0 600 150" xmlns="http://www.w3.org/2000/svg">
  <defs>
    <filter id="shadow2" x="-2%" y="-2%" width="104%" height="108%">
      <feDropShadow dx="0" dy="2" stdDeviation="3" flood-opacity="0.1" />
    </filter>
    <linearGradient id="fillGrad" x1="0" y1="0" x2="0" y2="1">
      <stop offset="0%" stop-color="#0366d6" stop-opacity="0.3"/>
      <stop offset="100%" stop-color="#0366d6" stop-opacity="0.02"/>
    </linearGradient>
  </defs>
  <rect width="600" height="150" rx="12" fill="#ffffff" filter="url(#shadow2)" stroke="#e1e4e8" stroke-width="1"/>
  <text x="20" y="24" fill="#2b3137" font-family="-apple-system,BlinkMacSystemFont,'Segoe UI',Helvetica,Arial,sans-serif" font-size="14" font-weight="600">📈 Download Growth (Actual: 77.8k)</text>
  
  <!-- Area sotto la linea -->
  <polygon fill="url(#fillGrad)" points="30.0,120.0,120 30.0,120.0 32.8,119.1 35.7,118.1 38.5,117.2 41.3,117.0 44.1,116.5 47.0,115.4 49.8,114.7 52.6,114.2 55.4,113.1 58.3,112.6 61.1,112.0 63.9,111.7 66.8,111.2 69.6,110.4 72.4,109.6 75.2,109.0 78.1,108.6 80.9,108.3 83.7,107.8 86.5,107.3 89.4,106.7 92.2,106.5 95.0,106.0 97.9,104.3 100.7,103.7 103.5,103.0 106.3,102.4 109.2,101.8 112.0,101.2 114.8,100.8 117.6,100.5 120.5,100.0 123.3,99.2 126.1,98.4 129.0,97.9 131.8,97.4 134.6,97.2 137.4,97.0 140.3,96.7 143.1,96.2 145.9,95.9 148.7,95.6 151.6,95.0 154.4,94.0 157.2,93.8 160.1,93.6 162.9,93.3 165.7,92.5 168.5,92.0 171.4,91.3 174.2,90.7 177.0,90.0 179.8,89.9 182.7,89.5 185.5,88.8 188.3,88.1 191.2,87.5 194.0,87.3 196.8,86.9 199.6,86.6 202.5,85.8 205.3,85.1 208.1,84.5 210.9,83.8 213.8,83.5 216.6,83.3 219.4,83.0 222.3,82.5 225.1,82.1 227.9,81.8 230.7,81.6 233.6,81.3 236.4,80.9 239.2,80.7 242.0,80.5 244.9,80.3 247.7,79.6 250.5,79.2 253.4,79.1 256.2,78.9 259.0,78.7 261.8,78.7 264.7,90.5 267.5,89.4 270.3,88.3 273.1,87.2 276.0,84.0 278.8,81.8 281.6,79.3 284.5,78.5 287.3,77.4 290.1,75.8 292.9,74.0 295.8,72.7 298.6,72.2 301.4,71.7 304.2,70.4 307.1,69.5 309.9,68.9 312.7,68.1 315.5,67.8 318.4,67.6 321.2,67.0 324.0,65.9 326.9,65.1 329.7,64.3 332.5,63.4 335.3,63.0 338.2,62.7 341.0,61.9 343.8,61.2 346.6,60.6 349.5,60.0 352.3,59.8 355.1,59.6 358.0,59.2 360.8,58.6 363.6,58.2 366.4,57.8 369.3,57.4 372.1,57.1 374.9,56.8 377.7,56.5 380.6,56.2 383.4,55.9 386.2,55.3 389.1,54.8 391.9,54.3 394.7,53.9 397.5,53.6 400.4,53.3 403.2,53.1 406.0,52.6 408.8,51.7 411.7,50.9 414.5,50.4 417.3,49.9 420.2,49.4 423.0,49.0 425.8,48.6 428.6,47.9 431.5,47.5 434.3,47.1 437.1,46.8 439.9,46.6 442.8,46.0 445.6,45.6 448.4,45.5 451.3,45.2 454.1,44.9 456.9,44.4 459.7,44.0 462.6,43.5 465.4,43.1 468.2,42.7 471.0,42.2 473.9,41.5 476.7,41.3 479.5,40.6 482.4,40.0 485.2,39.8 488.0,39.7 490.8,39.4 493.7,39.0 496.5,38.7 499.3,38.1 502.1,37.9 505.0,37.7 507.8,37.4 510.6,37.2 513.5,37.1 516.3,36.5 519.1,36.2 521.9,35.9 524.8,35.6 527.6,35.2 530.4,34.9 533.2,34.8 536.1,34.6 538.9,34.2 541.7,33.6 544.6,33.0 547.4,32.7 550.2,32.5 553.0,32.3 555.9,31.8 558.7,31.4 561.5,31.3 564.3,30.8 567.2,30.3 570.0,30.0 570.0,30.0,120" />
  
  <!-- Linea principale -->
  <polyline fill="none" stroke="#0366d6" stroke-width="2.5" stroke-linecap="round" stroke-linejoin="round" points="30.0,120.0 32.8,119.1 35.7,118.1 38.5,117.2 41.3,117.0 44.1,116.5 47.0,115.4 49.8,114.7 52.6,114.2 55.4,113.1 58.3,112.6 61.1,112.0 63.9,111.7 66.8,111.2 69.6,110.4 72.4,109.6 75.2,109.0 78.1,108.6 80.9,108.3 83.7,107.8 86.5,107.3 89.4,106.7 92.2,106.5 95.0,106.0 97.9,104.3 100.7,103.7 103.5,103.0 106.3,102.4 109.2,101.8 112.0,101.2 114.8,100.8 117.6,100.5 120.5,100.0 123.3,99.2 126.1,98.4 129.0,97.9 131.8,97.4 134.6,97.2 137.4,97.0 140.3,96.7 143.1,96.2 145.9,95.9 148.7,95.6 151.6,95.0 154.4,94.0 157.2,93.8 160.1,93.6 162.9,93.3 165.7,92.5 168.5,92.0 171.4,91.3 174.2,90.7 177.0,90.0 179.8,89.9 182.7,89.5 185.5,88.8 188.3,88.1 191.2,87.5 194.0,87.3 196.8,86.9 199.6,86.6 202.5,85.8 205.3,85.1 208.1,84.5 210.9,83.8 213.8,83.5 216.6,83.3 219.4,83.0 222.3,82.5 225.1,82.1 227.9,81.8 230.7,81.6 233.6,81.3 236.4,80.9 239.2,80.7 242.0,80.5 244.9,80.3 247.7,79.6 250.5,79.2 253.4,79.1 256.2,78.9 259.0,78.7 261.8,78.7 264.7,90.5 267.5,89.4 270.3,88.3 273.1,87.2 276.0,84.0 278.8,81.8 281.6,79.3 284.5,78.5 287.3,77.4 290.1,75.8 292.9,74.0 295.8,72.7 298.6,72.2 301.4,71.7 304.2,70.4 307.1,69.5 309.9,68.9 312.7,68.1 315.5,67.8 318.4,67.6 321.2,67.0 324.0,65.9 326.9,65.1 329.7,64.3 332.5,63.4 335.3,63.0 338.2,62.7 341.0,61.9 343.8,61.2 346.6,60.6 349.5,60.0 352.3,59.8 355.1,59.6 358.0,59.2 360.8,58.6 363.6,58.2 366.4,57.8 369.3,57.4 372.1,57.1 374.9,56.8 377.7,56.5 380.6,56.2 383.4,55.9 386.2,55.3 389.1,54.8 391.9,54.3 394.7,53.9 397.5,53.6 400.4,53.3 403.2,53.1 406.0,52.6 408.8,51.7 411.7,50.9 414.5,50.4 417.3,49.9 420.2,49.4 423.0,49.0 425.8,48.6 428.6,47.9 431.5,47.5 434.3,47.1 437.1,46.8 439.9,46.6 442.8,46.0 445.6,45.6 448.4,45.5 451.3,45.2 454.1,44.9 456.9,44.4 459.7,44.0 462.6,43.5 465.4,43.1 468.2,42.7 471.0,42.2 473.9,41.5 476.7,41.3 479.5,40.6 482.4,40.0 485.2,39.8 488.0,39.7 490.8,39.4 493.7,39.0 496.5,38.7 499.3,38.1 502.1,37.9 505.0,37.7 507.8,37.4 510.6,37.2 513.5,37.1 516.3,36.5 519.1,36.2 521.9,35.9 524.8,35.6 527.6,35.2 530.4,34.9 533.2,34.8 536.1,34.6 538.9,34.2 541.7,33.6 544.6,33.0 547.4,32.7 550.2,32.5 553.0,32.3 555.9,31.8 558.7,31.4 561.5,31.3 564.3,30.8 567.2,30.3 570.0,30.0" />
  
  <!-- Punto finale luminoso -->
  <circle cx="570.0" cy="30.0" r="4" fill="#ffffff" stroke="#0366d6" stroke-width="2.5" />
</svg>