<svg width="600" height="150" viewBox="0 0 600 150" xmlns="http://www.w3.org/2000/svg">
  <defs>
    <filter id="shadow2" x="-2%" y="-2%" width="104%" height="108%">
      <feDropShadow dx="0" dy="2" stdDeviation="3" flood-opacity="0.1" />
    </filter>
    <linearGradient id="fillGrad" x1="0" y1="0" x2="0" y2="1">
      <stop offset="0%" stop-color="#0366d6" stop-opacity="0.3"/>
      <stop offset="100%" stop-color="#0366d6" stop-opacity="0.02"/>
    </linearGradient>
  </defs>
  <rect width="600" height="150" rx="12" fill="#ffffff" filter="url(#shadow2)" stroke="#e1e4e8" stroke-width="1"/>
  <text x="20" y="24" fill="#2b3137" font-family="-apple-system,BlinkMacSystemFont,'Segoe UI',Helvetica,Arial,sans-serif" font-size="14" font-weight="600">📈 Download Growth (Actual: 76.8k)</text>
  
  <!-- Area sotto la linea -->
  <polygon fill="url(#fillGrad)" points="30.0,120.0,120 30.0,120.0 33.3,119.0 36.5,117.9 39.8,116.9 43.0,116.7 46.3,116.1 49.5,115.0 52.8,114.2 56.0,113.6 59.3,112.4 62.5,111.8 65.8,111.2 69.0,110.9 72.3,110.3 75.5,109.5 78.8,108.6 82.0,107.9 85.3,107.5 88.6,107.2 91.8,106.6 95.1,106.0 98.3,105.4 101.6,105.1 104.8,104.6 108.1,102.7 111.3,102.1 114.6,101.4 117.8,100.6 121.1,99.9 124.3,99.3 127.6,98.9 130.8,98.6 134.1,98.0 137.3,97.1 140.6,96.3 143.9,95.8 147.1,95.1 150.4,94.9 153.6,94.8 156.9,94.4 160.1,93.8 163.4,93.5 166.6,93.2 169.9,92.5 173.1,91.5 176.4,91.2 179.6,91.0 182.9,90.6 186.1,89.8 189.4,89.2 192.7,88.4 195.9,87.8 199.2,87.0 202.4,86.9 205.7,86.4 208.9,85.7 212.2,84.9 215.4,84.3 218.7,84.0 221.9,83.7 225.2,83.3 228.4,82.4 231.7,81.6 234.9,80.9 238.2,80.2 241.4,79.9 244.7,79.6 248.0,79.3 251.2,78.7 254.5,78.4 257.7,78.0 261.0,77.7 264.2,77.5 267.5,77.1 270.7,76.8 274.0,76.6 277.2,76.4 280.5,75.6 283.7,75.2 287.0,75.0 290.2,74.8 293.5,74.6 296.7,74.6 300.0,87.6 303.3,86.3 306.5,85.2 309.8,84.0 313.0,80.4 316.3,78.0 319.5,75.3 322.8,74.3 326.0,73.2 329.3,71.4 332.5,69.4 335.8,68.0 339.0,67.4 342.3,66.9 345.5,65.5 348.8,64.4 352.0,63.8 355.3,62.9 358.6,62.6 361.8,62.4 365.1,61.7 368.3,60.5 371.6,59.6 374.8,58.7 378.1,57.8 381.3,57.3 384.6,57.0 387.8,56.1 391.1,55.4 394.3,54.6 397.6,54.1 400.8,53.8 404.1,53.6 407.3,53.2 410.6,52.5 413.9,52.1 417.1,51.6 420.4,51.2 423.6,50.9 426.9,50.5 430.1,50.1 433.4,49.9 436.6,49.5 439.9,48.9 443.1,48.4 446.4,47.8 449.6,47.4 452.9,47.0 456.1,46.7 459.4,46.5 462.7,45.9 465.9,45.0 469.2,44.1 472.4,43.5 475.7,42.9 478.9,42.3 482.2,42.0 485.4,41.5 488.7,40.8 491.9,40.3 495.2,39.9 498.4,39.5 501.7,39.3 504.9,38.7 508.2,38.2 511.4,38.0 514.7,37.8 518.0,37.5 521.2,36.9 524.5,36.4 527.7,35.9 531.0,35.4 534.2,35.0 537.5,34.5 540.7,33.7 544.0,33.4 547.2,32.7 550.5,32.0 553.7,31.9 557.0,31.7 560.2,31.4 563.5,30.9 566.7,30.6 570.0,30.0 570.0,30.0,120" />
  
  <!-- Linea principale -->
  <polyline fill="none" stroke="#0366d6" stroke-width="2.5" stroke-linecap="round" stroke-linejoin="round" points="30.0,120.0 33.3,119.0 36.5,117.9 39.8,116.9 43.0,116.7 46.3,116.1 49.5,115.0 52.8,114.2 56.0,113.6 59.3,112.4 62.5,111.8 65.8,111.2 69.0,110.9 72.3,110.3 75.5,109.5 78.8,108.6 82.0,107.9 85.3,107.5 88.6,107.2 91.8,106.6 95.1,106.0 98.3,105.4 101.6,105.1 104.8,104.6 108.1,102.7 111.3,102.1 114.6,101.4 117.8,100.6 121.1,99.9 124.3,99.3 127.6,98.9 130.8,98.6 134.1,98.0 137.3,97.1 140.6,96.3 143.9,95.8 147.1,95.1 150.4,94.9 153.6,94.8 156.9,94.4 160.1,93.8 163.4,93.5 166.6,93.2 169.9,92.5 173.1,91.5 176.4,91.2 179.6,91.0 182.9,90.6 186.1,89.8 189.4,89.2 192.7,88.4 195.9,87.8 199.2,87.0 202.4,86.9 205.7,86.4 208.9,85.7 212.2,84.9 215.4,84.3 218.7,84.0 221.9,83.7 225.2,83.3 228.4,82.4 231.7,81.6 234.9,80.9 238.2,80.2 241.4,79.9 244.7,79.6 248.0,79.3 251.2,78.7 254.5,78.4 257.7,78.0 261.0,77.7 264.2,77.5 267.5,77.1 270.7,76.8 274.0,76.6 277.2,76.4 280.5,75.6 283.7,75.2 287.0,75.0 290.2,74.8 293.5,74.6 296.7,74.6 300.0,87.6 303.3,86.3 306.5,85.2 309.8,84.0 313.0,80.4 316.3,78.0 319.5,75.3 322.8,74.3 326.0,73.2 329.3,71.4 332.5,69.4 335.8,68.0 339.0,67.4 342.3,66.9 345.5,65.5 348.8,64.4 352.0,63.8 355.3,62.9 358.6,62.6 361.8,62.4 365.1,61.7 368.3,60.5 371.6,59.6 374.8,58.7 378.1,57.8 381.3,57.3 384.6,57.0 387.8,56.1 391.1,55.4 394.3,54.6 397.6,54.1 400.8,53.8 404.1,53.6 407.3,53.2 410.6,52.5 413.9,52.1 417.1,51.6 420.4,51.2 423.6,50.9 426.9,50.5 430.1,50.1 433.4,49.9 436.6,49.5 439.9,48.9 443.1,48.4 446.4,47.8 449.6,47.4 452.9,47.0 456.1,46.7 459.4,46.5 462.7,45.9 465.9,45.0 469.2,44.1 472.4,43.5 475.7,42.9 478.9,42.3 482.2,42.0 485.4,41.5 488.7,40.8 491.9,40.3 495.2,39.9 498.4,39.5 501.7,39.3 504.9,38.7 508.2,38.2 511.4,38.0 514.7,37.8 518.0,37.5 521.2,36.9 524.5,36.4 527.7,35.9 531.0,35.4 534.2,35.0 537.5,34.5 540.7,33.7 544.0,33.4 547.2,32.7 550.5,32.0 553.7,31.9 557.0,31.7 560.2,31.4 563.5,30.9 566.7,30.6 570.0,30.0" />
  
  <!-- Punto finale luminoso -->
  <circle cx="570.0" cy="30.0" r="4" fill="#ffffff" stroke="#0366d6" stroke-width="2.5" />
</svg>