<svg width="600" height="150" viewBox="0 0 600 150" xmlns="http://www.w3.org/2000/svg">
  <defs>
    <filter id="shadow2" x="-2%" y="-2%" width="104%" height="108%">
      <feDropShadow dx="0" dy="2" stdDeviation="3" flood-opacity="0.1" />
    </filter>
    <linearGradient id="fillGrad" x1="0" y1="0" x2="0" y2="1">
      <stop offset="0%" stop-color="#0366d6" stop-opacity="0.3"/>
      <stop offset="100%" stop-color="#0366d6" stop-opacity="0.02"/>
    </linearGradient>
  </defs>
  <rect width="600" height="150" rx="12" fill="#ffffff" filter="url(#shadow2)" stroke="#e1e4e8" stroke-width="1"/>
  <text x="20" y="24" fill="#2b3137" font-family="-apple-system,BlinkMacSystemFont,'Segoe UI',Helvetica,Arial,sans-serif" font-size="14" font-weight="600">📈 Download Growth (Actual: 76.7k)</text>
  
  <!-- Area sotto la linea -->
  <polygon fill="url(#fillGrad)" points="30.0,120.0,120 30.0,120.0 33.3,119.0 36.5,117.9 39.8,116.9 43.1,116.6 46.4,116.1 49.6,114.9 52.9,114.1 56.2,113.6 59.5,112.4 62.7,111.8 66.0,111.2 69.3,110.8 72.5,110.2 75.8,109.4 79.1,108.5 82.4,107.9 85.6,107.4 88.9,107.1 92.2,106.5 95.5,105.9 98.7,105.3 102.0,105.1 105.3,104.5 108.5,102.6 111.8,102.0 115.1,101.2 118.4,100.5 121.6,99.8 124.9,99.2 128.2,98.8 131.5,98.4 134.7,97.9 138.0,97.0 141.3,96.1 144.5,95.6 147.8,95.0 151.1,94.8 154.4,94.6 157.6,94.3 160.9,93.7 164.2,93.3 167.5,93.0 170.7,92.3 174.0,91.3 177.3,91.0 180.5,90.8 183.8,90.4 187.1,89.6 190.4,89.1 193.6,88.2 196.9,87.6 200.2,86.8 203.5,86.7 206.7,86.2 210.0,85.5 213.3,84.7 216.5,84.1 219.8,83.8 223.1,83.4 226.4,83.1 229.6,82.2 232.9,81.4 236.2,80.7 239.5,80.0 242.7,79.6 246.0,79.4 249.3,79.1 252.5,78.5 255.8,78.1 259.1,77.8 262.4,77.5 265.6,77.2 268.9,76.8 272.2,76.5 275.5,76.3 278.7,76.1 282.0,75.3 285.3,74.9 288.5,74.8 291.8,74.5 295.1,74.3 298.4,74.3 301.6,87.4 304.9,86.1 308.2,85.0 311.5,83.7 314.7,80.2 318.0,77.7 321.3,75.0 324.5,74.0 327.8,72.9 331.1,71.1 334.4,69.1 337.6,67.6 340.9,67.1 344.2,66.5 347.5,65.1 350.7,64.1 354.0,63.4 357.3,62.6 360.5,62.2 363.8,62.1 367.1,61.3 370.4,60.1 373.6,59.2 376.9,58.4 380.2,57.4 383.5,56.9 386.7,56.6 390.0,55.7 393.3,55.0 396.5,54.2 399.8,53.7 403.1,53.4 406.4,53.2 409.6,52.8 412.9,52.1 416.2,51.6 419.5,51.2 422.7,50.8 426.0,50.4 429.3,50.1 432.5,49.7 435.8,49.4 439.1,49.1 442.4,48.4 445.6,47.9 448.9,47.3 452.2,46.9 455.5,46.5 458.7,46.3 462.0,46.0 465.3,45.4 468.5,44.5 471.8,43.6 475.1,43.0 478.4,42.4 481.6,41.8 484.9,41.5 488.2,41.0 491.5,40.3 494.7,39.8 498.0,39.4 501.3,39.0 504.5,38.7 507.8,38.2 511.1,37.7 514.4,37.5 517.6,37.3 520.9,37.0 524.2,36.3 527.5,35.9 530.7,35.4 534.0,34.9 537.3,34.5 540.5,33.9 543.8,33.2 547.1,32.9 550.4,32.2 553.6,31.5 556.9,31.3 560.2,31.1 563.5,30.8 566.7,30.4 570.0,30.0 570.0,30.0,120" />
  
  <!-- Linea principale -->
  <polyline fill="none" stroke="#0366d6" stroke-width="2.5" stroke-linecap="round" stroke-linejoin="round" points="30.0,120.0 33.3,119.0 36.5,117.9 39.8,116.9 43.1,116.6 46.4,116.1 49.6,114.9 52.9,114.1 56.2,113.6 59.5,112.4 62.7,111.8 66.0,111.2 69.3,110.8 72.5,110.2 75.8,109.4 79.1,108.5 82.4,107.9 85.6,107.4 88.9,107.1 92.2,106.5 95.5,105.9 98.7,105.3 102.0,105.1 105.3,104.5 108.5,102.6 111.8,102.0 115.1,101.2 118.4,100.5 121.6,99.8 124.9,99.2 128.2,98.8 131.5,98.4 134.7,97.9 138.0,97.0 141.3,96.1 144.5,95.6 147.8,95.0 151.1,94.8 154.4,94.6 157.6,94.3 160.9,93.7 164.2,93.3 167.5,93.0 170.7,92.3 174.0,91.3 177.3,91.0 180.5,90.8 183.8,90.4 187.1,89.6 190.4,89.1 193.6,88.2 196.9,87.6 200.2,86.8 203.5,86.7 206.7,86.2 210.0,85.5 213.3,84.7 216.5,84.1 219.8,83.8 223.1,83.4 226.4,83.1 229.6,82.2 232.9,81.4 236.2,80.7 239.5,80.0 242.7,79.6 246.0,79.4 249.3,79.1 252.5,78.5 255.8,78.1 259.1,77.8 262.4,77.5 265.6,77.2 268.9,76.8 272.2,76.5 275.5,76.3 278.7,76.1 282.0,75.3 285.3,74.9 288.5,74.8 291.8,74.5 295.1,74.3 298.4,74.3 301.6,87.4 304.9,86.1 308.2,85.0 311.5,83.7 314.7,80.2 318.0,77.7 321.3,75.0 324.5,74.0 327.8,72.9 331.1,71.1 334.4,69.1 337.6,67.6 340.9,67.1 344.2,66.5 347.5,65.1 350.7,64.1 354.0,63.4 357.3,62.6 360.5,62.2 363.8,62.1 367.1,61.3 370.4,60.1 373.6,59.2 376.9,58.4 380.2,57.4 383.5,56.9 386.7,56.6 390.0,55.7 393.3,55.0 396.5,54.2 399.8,53.7 403.1,53.4 406.4,53.2 409.6,52.8 412.9,52.1 416.2,51.6 419.5,51.2 422.7,50.8 426.0,50.4 429.3,50.1 432.5,49.7 435.8,49.4 439.1,49.1 442.4,48.4 445.6,47.9 448.9,47.3 452.2,46.9 455.5,46.5 458.7,46.3 462.0,46.0 465.3,45.4 468.5,44.5 471.8,43.6 475.1,43.0 478.4,42.4 481.6,41.8 484.9,41.5 488.2,41.0 491.5,40.3 494.7,39.8 498.0,39.4 501.3,39.0 504.5,38.7 507.8,38.2 511.1,37.7 514.4,37.5 517.6,37.3 520.9,37.0 524.2,36.3 527.5,35.9 530.7,35.4 534.0,34.9 537.3,34.5 540.5,33.9 543.8,33.2 547.1,32.9 550.4,32.2 553.6,31.5 556.9,31.3 560.2,31.1 563.5,30.8 566.7,30.4 570.0,30.0" />
  
  <!-- Punto finale luminoso -->
  <circle cx="570.0" cy="30.0" r="4" fill="#ffffff" stroke="#0366d6" stroke-width="2.5" />
</svg>