<svg width="600" height="150" viewBox="0 0 600 150" xmlns="http://www.w3.org/2000/svg">
  <defs>
    <filter id="shadow2" x="-2%" y="-2%" width="104%" height="108%">
      <feDropShadow dx="0" dy="2" stdDeviation="3" flood-opacity="0.1" />
    </filter>
    <linearGradient id="fillGrad" x1="0" y1="0" x2="0" y2="1">
      <stop offset="0%" stop-color="#0366d6" stop-opacity="0.3"/>
      <stop offset="100%" stop-color="#0366d6" stop-opacity="0.02"/>
    </linearGradient>
  </defs>
  <rect width="600" height="150" rx="12" fill="#ffffff" filter="url(#shadow2)" stroke="#e1e4e8" stroke-width="1"/>
  <text x="20" y="24" fill="#2b3137" font-family="-apple-system,BlinkMacSystemFont,'Segoe UI',Helvetica,Arial,sans-serif" font-size="14" font-weight="600">📈 Download Growth (Actual: 77.1k)</text>
  
  <!-- Area sotto la linea -->
  <polygon fill="url(#fillGrad)" points="30.0,120.0,120 30.0,120.0 33.1,119.0 36.1,117.9 39.2,117.0 42.3,116.8 45.3,116.3 48.4,115.1 51.5,114.4 54.5,113.9 57.6,112.7 60.7,112.1 63.8,111.5 66.8,111.2 69.9,110.6 73.0,109.8 76.0,109.0 79.1,108.4 82.2,107.9 85.2,107.6 88.3,107.1 91.4,106.5 94.4,105.9 97.5,105.7 100.6,105.1 103.6,103.3 106.7,102.7 109.8,102.0 112.8,101.3 115.9,100.6 119.0,100.0 122.0,99.6 125.1,99.3 128.2,98.8 131.2,97.9 134.3,97.1 137.4,96.6 140.5,96.0 143.5,95.8 146.6,95.6 149.7,95.3 152.7,94.7 155.8,94.4 158.9,94.1 161.9,93.4 165.0,92.4 168.1,92.2 171.1,92.0 174.2,91.6 177.3,90.8 180.3,90.3 183.4,89.5 186.5,88.9 189.5,88.2 192.6,88.0 195.7,87.6 198.8,86.8 201.8,86.1 204.9,85.5 208.0,85.3 211.0,84.9 214.1,84.6 217.2,83.7 220.2,83.0 223.3,82.3 226.4,81.6 229.4,81.2 232.5,81.0 235.6,80.7 238.6,80.2 241.7,79.8 244.8,79.5 247.8,79.2 250.9,78.9 254.0,78.5 257.0,78.3 260.1,78.1 263.2,77.9 266.2,77.1 269.3,76.7 272.4,76.6 275.5,76.3 278.5,76.2 281.6,76.2 284.7,88.7 287.7,87.5 290.8,86.4 293.9,85.2 296.9,81.8 300.0,79.4 303.1,76.8 306.1,75.9 309.2,74.8 312.3,73.1 315.3,71.1 318.4,69.7 321.5,69.2 324.5,68.7 327.6,67.3 330.7,66.3 333.8,65.7 336.8,64.9 339.9,64.6 343.0,64.4 346.0,63.7 349.1,62.5 352.2,61.7 355.2,60.8 358.3,59.9 361.4,59.4 364.4,59.1 367.5,58.3 370.6,57.6 373.6,56.9 376.7,56.3 379.8,56.1 382.8,55.9 385.9,55.5 389.0,54.9 392.0,54.4 395.1,54.0 398.2,53.6 401.2,53.2 404.3,52.9 407.4,52.5 410.5,52.3 413.5,51.9 416.6,51.3 419.7,50.8 422.7,50.2 425.8,49.9 428.9,49.5 431.9,49.2 435.0,49.0 438.1,48.4 441.1,47.5 444.2,46.7 447.3,46.1 450.3,45.5 453.4,45.0 456.5,44.6 459.5,44.2 462.6,43.5 465.7,43.0 468.8,42.6 471.8,42.2 474.9,42.0 478.0,41.4 481.0,41.0 484.1,40.8 487.2,40.6 490.2,40.3 493.3,39.7 496.4,39.3 499.4,38.8 502.5,38.3 505.6,37.9 508.6,37.4 511.7,36.7 514.8,36.4 517.8,35.7 520.9,35.0 524.0,34.9 527.0,34.7 530.1,34.4 533.2,34.0 536.2,33.6 539.3,33.1 542.4,32.9 545.5,32.6 548.5,32.3 551.6,32.1 554.7,31.9 557.7,31.4 560.8,31.0 563.9,30.7 566.9,30.4 570.0,30.0 570.0,30.0,120" />
  
  <!-- Linea principale -->
  <polyline fill="none" stroke="#0366d6" stroke-width="2.5" stroke-linecap="round" stroke-linejoin="round" points="30.0,120.0 33.1,119.0 36.1,117.9 39.2,117.0 42.3,116.8 45.3,116.3 48.4,115.1 51.5,114.4 54.5,113.9 57.6,112.7 60.7,112.1 63.8,111.5 66.8,111.2 69.9,110.6 73.0,109.8 76.0,109.0 79.1,108.4 82.2,107.9 85.2,107.6 88.3,107.1 91.4,106.5 94.4,105.9 97.5,105.7 100.6,105.1 103.6,103.3 106.7,102.7 109.8,102.0 112.8,101.3 115.9,100.6 119.0,100.0 122.0,99.6 125.1,99.3 128.2,98.8 131.2,97.9 134.3,97.1 137.4,96.6 140.5,96.0 143.5,95.8 146.6,95.6 149.7,95.3 152.7,94.7 155.8,94.4 158.9,94.1 161.9,93.4 165.0,92.4 168.1,92.2 171.1,92.0 174.2,91.6 177.3,90.8 180.3,90.3 183.4,89.5 186.5,88.9 189.5,88.2 192.6,88.0 195.7,87.6 198.8,86.8 201.8,86.1 204.9,85.5 208.0,85.3 211.0,84.9 214.1,84.6 217.2,83.7 220.2,83.0 223.3,82.3 226.4,81.6 229.4,81.2 232.5,81.0 235.6,80.7 238.6,80.2 241.7,79.8 244.8,79.5 247.8,79.2 250.9,78.9 254.0,78.5 257.0,78.3 260.1,78.1 263.2,77.9 266.2,77.1 269.3,76.7 272.4,76.6 275.5,76.3 278.5,76.2 281.6,76.2 284.7,88.7 287.7,87.5 290.8,86.4 293.9,85.2 296.9,81.8 300.0,79.4 303.1,76.8 306.1,75.9 309.2,74.8 312.3,73.1 315.3,71.1 318.4,69.7 321.5,69.2 324.5,68.7 327.6,67.3 330.7,66.3 333.8,65.7 336.8,64.9 339.9,64.6 343.0,64.4 346.0,63.7 349.1,62.5 352.2,61.7 355.2,60.8 358.3,59.9 361.4,59.4 364.4,59.1 367.5,58.3 370.6,57.6 373.6,56.9 376.7,56.3 379.8,56.1 382.8,55.9 385.9,55.5 389.0,54.9 392.0,54.4 395.1,54.0 398.2,53.6 401.2,53.2 404.3,52.9 407.4,52.5 410.5,52.3 413.5,51.9 416.6,51.3 419.7,50.8 422.7,50.2 425.8,49.9 428.9,49.5 431.9,49.2 435.0,49.0 438.1,48.4 441.1,47.5 444.2,46.7 447.3,46.1 450.3,45.5 453.4,45.0 456.5,44.6 459.5,44.2 462.6,43.5 465.7,43.0 468.8,42.6 471.8,42.2 474.9,42.0 478.0,41.4 481.0,41.0 484.1,40.8 487.2,40.6 490.2,40.3 493.3,39.7 496.4,39.3 499.4,38.8 502.5,38.3 505.6,37.9 508.6,37.4 511.7,36.7 514.8,36.4 517.8,35.7 520.9,35.0 524.0,34.9 527.0,34.7 530.1,34.4 533.2,34.0 536.2,33.6 539.3,33.1 542.4,32.9 545.5,32.6 548.5,32.3 551.6,32.1 554.7,31.9 557.7,31.4 560.8,31.0 563.9,30.7 566.9,30.4 570.0,30.0" />
  
  <!-- Punto finale luminoso -->
  <circle cx="570.0" cy="30.0" r="4" fill="#ffffff" stroke="#0366d6" stroke-width="2.5" />
</svg>