<svg width="600" height="150" viewBox="0 0 600 150" xmlns="http://www.w3.org/2000/svg">
  <defs>
    <filter id="shadow2" x="-2%" y="-2%" width="104%" height="108%">
      <feDropShadow dx="0" dy="2" stdDeviation="3" flood-opacity="0.1" />
    </filter>
    <linearGradient id="fillGrad" x1="0" y1="0" x2="0" y2="1">
      <stop offset="0%" stop-color="#0366d6" stop-opacity="0.3"/>
      <stop offset="100%" stop-color="#0366d6" stop-opacity="0.02"/>
    </linearGradient>
  </defs>
  <rect width="600" height="150" rx="12" fill="#ffffff" filter="url(#shadow2)" stroke="#e1e4e8" stroke-width="1"/>
  <text x="20" y="24" fill="#2b3137" font-family="-apple-system,BlinkMacSystemFont,'Segoe UI',Helvetica,Arial,sans-serif" font-size="14" font-weight="600">📈 Download Growth (Actual: 77.5k)</text>
  
  <!-- Area sotto la linea -->
  <polygon fill="url(#fillGrad)" points="30.0,120.0,120 30.0,120.0 32.9,119.1 35.8,118.0 38.7,117.1 41.6,116.9 44.5,116.4 47.4,115.3 50.3,114.6 53.2,114.1 56.1,113.0 59.0,112.4 61.9,111.9 64.8,111.5 67.7,111.0 70.6,110.2 73.5,109.4 76.5,108.8 79.4,108.4 82.3,108.1 85.2,107.6 88.1,107.0 91.0,106.5 93.9,106.2 96.8,105.7 99.7,103.9 102.6,103.4 105.5,102.7 108.4,102.0 111.3,101.4 114.2,100.8 117.1,100.4 120.0,100.1 122.9,99.6 125.8,98.8 128.7,98.0 131.6,97.5 134.5,96.9 137.4,96.7 140.3,96.6 143.2,96.3 146.1,95.7 149.0,95.4 151.9,95.1 154.8,94.5 157.7,93.5 160.6,93.3 163.5,93.1 166.5,92.7 169.4,92.0 172.3,91.5 175.2,90.7 178.1,90.1 181.0,89.4 183.9,89.3 186.8,88.9 189.7,88.2 192.6,87.4 195.5,86.9 198.4,86.6 201.3,86.3 204.2,86.0 207.1,85.2 210.0,84.4 212.9,83.8 215.8,83.1 218.7,82.8 221.6,82.6 224.5,82.3 227.4,81.7 230.3,81.4 233.2,81.1 236.1,80.8 239.0,80.6 241.9,80.2 244.8,79.9 247.7,79.7 250.6,79.6 253.5,78.8 256.5,78.4 259.4,78.3 262.3,78.0 265.2,77.9 268.1,77.9 271.0,89.9 273.9,88.8 276.8,87.7 279.7,86.6 282.6,83.3 285.5,81.0 288.4,78.5 291.3,77.6 294.2,76.6 297.1,74.9 300.0,73.1 302.9,71.7 305.8,71.2 308.7,70.7 311.6,69.4 314.5,68.5 317.4,67.8 320.3,67.1 323.2,66.7 326.1,66.6 329.0,65.9 331.9,64.8 334.8,64.0 337.7,63.2 340.6,62.3 343.5,61.8 346.5,61.5 349.4,60.7 352.3,60.0 355.2,59.4 358.1,58.8 361.0,58.6 363.9,58.4 366.8,58.0 369.7,57.4 372.6,57.0 375.5,56.6 378.4,56.2 381.3,55.9 384.2,55.5 387.1,55.2 390.0,54.9 392.9,54.6 395.8,54.0 398.7,53.5 401.6,53.0 404.5,52.6 407.4,52.3 410.3,52.0 413.2,51.8 416.1,51.3 419.0,50.4 421.9,49.6 424.8,49.0 427.7,48.5 430.6,47.9 433.5,47.6 436.5,47.2 439.4,46.5 442.3,46.0 445.2,45.7 448.1,45.3 451.0,45.1 453.9,44.6 456.8,44.1 459.7,44.0 462.6,43.7 465.5,43.4 468.4,42.9 471.3,42.5 474.2,42.0 477.1,41.5 480.0,41.1 482.9,40.7 485.8,40.0 488.7,39.7 491.6,39.0 494.5,38.4 497.4,38.2 500.3,38.1 503.2,37.8 506.1,37.4 509.0,37.0 511.9,36.5 514.8,36.3 517.7,36.1 520.6,35.8 523.5,35.5 526.5,35.4 529.4,34.9 532.3,34.5 535.2,34.2 538.1,33.9 541.0,33.6 543.9,33.2 546.8,33.1 549.7,32.9 552.6,32.5 555.5,31.9 558.4,31.3 561.3,31.0 564.2,30.7 567.1,30.6 570.0,30.0 570.0,30.0,120" />
  
  <!-- Linea principale -->
  <polyline fill="none" stroke="#0366d6" stroke-width="2.5" stroke-linecap="round" stroke-linejoin="round" points="30.0,120.0 32.9,119.1 35.8,118.0 38.7,117.1 41.6,116.9 44.5,116.4 47.4,115.3 50.3,114.6 53.2,114.1 56.1,113.0 59.0,112.4 61.9,111.9 64.8,111.5 67.7,111.0 70.6,110.2 73.5,109.4 76.5,108.8 79.4,108.4 82.3,108.1 85.2,107.6 88.1,107.0 91.0,106.5 93.9,106.2 96.8,105.7 99.7,103.9 102.6,103.4 105.5,102.7 108.4,102.0 111.3,101.4 114.2,100.8 117.1,100.4 120.0,100.1 122.9,99.6 125.8,98.8 128.7,98.0 131.6,97.5 134.5,96.9 137.4,96.7 140.3,96.6 143.2,96.3 146.1,95.7 149.0,95.4 151.9,95.1 154.8,94.5 157.7,93.5 160.6,93.3 163.5,93.1 166.5,92.7 169.4,92.0 172.3,91.5 175.2,90.7 178.1,90.1 181.0,89.4 183.9,89.3 186.8,88.9 189.7,88.2 192.6,87.4 195.5,86.9 198.4,86.6 201.3,86.3 204.2,86.0 207.1,85.2 210.0,84.4 212.9,83.8 215.8,83.1 218.7,82.8 221.6,82.6 224.5,82.3 227.4,81.7 230.3,81.4 233.2,81.1 236.1,80.8 239.0,80.6 241.9,80.2 244.8,79.9 247.7,79.7 250.6,79.6 253.5,78.8 256.5,78.4 259.4,78.3 262.3,78.0 265.2,77.9 268.1,77.9 271.0,89.9 273.9,88.8 276.8,87.7 279.7,86.6 282.6,83.3 285.5,81.0 288.4,78.5 291.3,77.6 294.2,76.6 297.1,74.9 300.0,73.1 302.9,71.7 305.8,71.2 308.7,70.7 311.6,69.4 314.5,68.5 317.4,67.8 320.3,67.1 323.2,66.7 326.1,66.6 329.0,65.9 331.9,64.8 334.8,64.0 337.7,63.2 340.6,62.3 343.5,61.8 346.5,61.5 349.4,60.7 352.3,60.0 355.2,59.4 358.1,58.8 361.0,58.6 363.9,58.4 366.8,58.0 369.7,57.4 372.6,57.0 375.5,56.6 378.4,56.2 381.3,55.9 384.2,55.5 387.1,55.2 390.0,54.9 392.9,54.6 395.8,54.0 398.7,53.5 401.6,53.0 404.5,52.6 407.4,52.3 410.3,52.0 413.2,51.8 416.1,51.3 419.0,50.4 421.9,49.6 424.8,49.0 427.7,48.5 430.6,47.9 433.5,47.6 436.5,47.2 439.4,46.5 442.3,46.0 445.2,45.7 448.1,45.3 451.0,45.1 453.9,44.6 456.8,44.1 459.7,44.0 462.6,43.7 465.5,43.4 468.4,42.9 471.3,42.5 474.2,42.0 477.1,41.5 480.0,41.1 482.9,40.7 485.8,40.0 488.7,39.7 491.6,39.0 494.5,38.4 497.4,38.2 500.3,38.1 503.2,37.8 506.1,37.4 509.0,37.0 511.9,36.5 514.8,36.3 517.7,36.1 520.6,35.8 523.5,35.5 526.5,35.4 529.4,34.9 532.3,34.5 535.2,34.2 538.1,33.9 541.0,33.6 543.9,33.2 546.8,33.1 549.7,32.9 552.6,32.5 555.5,31.9 558.4,31.3 561.3,31.0 564.2,30.7 567.1,30.6 570.0,30.0" />
  
  <!-- Punto finale luminoso -->
  <circle cx="570.0" cy="30.0" r="4" fill="#ffffff" stroke="#0366d6" stroke-width="2.5" />
</svg>