<svg width="600" height="150" viewBox="0 0 600 150" xmlns="http://www.w3.org/2000/svg">
  <defs>
    <filter id="shadow2" x="-2%" y="-2%" width="104%" height="108%">
      <feDropShadow dx="0" dy="2" stdDeviation="3" flood-opacity="0.1" />
    </filter>
    <linearGradient id="fillGrad" x1="0" y1="0" x2="0" y2="1">
      <stop offset="0%" stop-color="#0366d6" stop-opacity="0.3"/>
      <stop offset="100%" stop-color="#0366d6" stop-opacity="0.02"/>
    </linearGradient>
  </defs>
  <rect width="600" height="150" rx="12" fill="#ffffff" filter="url(#shadow2)" stroke="#e1e4e8" stroke-width="1"/>
  <text x="20" y="24" fill="#2b3137" font-family="-apple-system,BlinkMacSystemFont,'Segoe UI',Helvetica,Arial,sans-serif" font-size="14" font-weight="600">📈 Download Growth (Actual: 77.3k)</text>
  
  <!-- Area sotto la linea -->
  <polygon fill="url(#fillGrad)" points="30.0,120.0,120 30.0,120.0 33.0,119.0 36.0,118.0 39.0,117.1 41.9,116.8 44.9,116.3 47.9,115.2 50.9,114.5 53.9,114.0 56.9,112.8 59.8,112.3 62.8,111.7 65.8,111.3 68.8,110.8 71.8,110.0 74.8,109.2 77.7,108.6 80.7,108.1 83.7,107.8 86.7,107.3 89.7,106.7 92.7,106.2 95.6,105.9 98.6,105.4 101.6,103.6 104.6,103.0 107.6,102.3 110.6,101.6 113.5,101.0 116.5,100.4 119.5,100.0 122.5,99.7 125.5,99.2 128.5,98.3 131.4,97.5 134.4,97.0 137.4,96.4 140.4,96.2 143.4,96.1 146.4,95.8 149.3,95.2 152.3,94.8 155.3,94.6 158.3,93.9 161.3,92.9 164.3,92.7 167.2,92.5 170.2,92.1 173.2,91.4 176.2,90.9 179.2,90.1 182.2,89.5 185.1,88.8 188.1,88.6 191.1,88.2 194.1,87.5 197.1,86.7 200.1,86.2 203.0,85.9 206.0,85.6 209.0,85.2 212.0,84.4 215.0,83.6 218.0,83.0 220.9,82.3 223.9,82.0 226.9,81.7 229.9,81.5 232.9,80.9 235.9,80.5 238.8,80.2 241.8,79.9 244.8,79.7 247.8,79.3 250.8,79.0 253.8,78.9 256.7,78.7 259.7,77.9 262.7,77.5 265.7,77.4 268.7,77.1 271.7,77.0 274.6,77.0 277.6,89.3 280.6,88.1 283.6,87.0 286.6,85.8 289.6,82.5 292.5,80.2 295.5,77.6 298.5,76.7 301.5,75.7 304.5,73.9 307.5,72.1 310.4,70.7 313.4,70.2 316.4,69.7 319.4,68.3 322.4,67.3 325.4,66.7 328.3,65.9 331.3,65.6 334.3,65.4 337.3,64.7 340.3,63.6 343.3,62.8 346.2,61.9 349.2,61.0 352.2,60.6 355.2,60.2 358.2,59.5 361.2,58.7 364.1,58.1 367.1,57.5 370.1,57.3 373.1,57.1 376.1,56.7 379.1,56.1 382.0,55.6 385.0,55.2 388.0,54.8 391.0,54.5 394.0,54.1 397.0,53.8 399.9,53.5 402.9,53.2 405.9,52.6 408.9,52.1 411.9,51.5 414.9,51.2 417.8,50.8 420.8,50.5 423.8,50.3 426.8,49.8 429.8,48.9 432.8,48.0 435.7,47.5 438.7,46.9 441.7,46.4 444.7,46.0 447.7,45.6 450.7,44.9 453.6,44.4 456.6,44.1 459.6,43.7 462.6,43.5 465.6,42.9 468.6,42.5 471.5,42.3 474.5,42.1 477.5,41.8 480.5,41.2 483.5,40.8 486.5,40.3 489.4,39.8 492.4,39.4 495.4,39.0 498.4,38.2 501.4,38.0 504.4,37.3 507.3,36.6 510.3,36.5 513.3,36.3 516.3,36.0 519.3,35.6 522.3,35.2 525.2,34.7 528.2,34.5 531.2,34.2 534.2,33.9 537.2,33.7 540.2,33.6 543.1,33.0 546.1,32.6 549.1,32.3 552.1,32.1 555.1,31.7 558.1,31.3 561.0,31.2 564.0,31.0 567.0,30.6 570.0,30.0 570.0,30.0,120" />
  
  <!-- Linea principale -->
  <polyline fill="none" stroke="#0366d6" stroke-width="2.5" stroke-linecap="round" stroke-linejoin="round" points="30.0,120.0 33.0,119.0 36.0,118.0 39.0,117.1 41.9,116.8 44.9,116.3 47.9,115.2 50.9,114.5 53.9,114.0 56.9,112.8 59.8,112.3 62.8,111.7 65.8,111.3 68.8,110.8 71.8,110.0 74.8,109.2 77.7,108.6 80.7,108.1 83.7,107.8 86.7,107.3 89.7,106.7 92.7,106.2 95.6,105.9 98.6,105.4 101.6,103.6 104.6,103.0 107.6,102.3 110.6,101.6 113.5,101.0 116.5,100.4 119.5,100.0 122.5,99.7 125.5,99.2 128.5,98.3 131.4,97.5 134.4,97.0 137.4,96.4 140.4,96.2 143.4,96.1 146.4,95.8 149.3,95.2 152.3,94.8 155.3,94.6 158.3,93.9 161.3,92.9 164.3,92.7 167.2,92.5 170.2,92.1 173.2,91.4 176.2,90.9 179.2,90.1 182.2,89.5 185.1,88.8 188.1,88.6 191.1,88.2 194.1,87.5 197.1,86.7 200.1,86.2 203.0,85.9 206.0,85.6 209.0,85.2 212.0,84.4 215.0,83.6 218.0,83.0 220.9,82.3 223.9,82.0 226.9,81.7 229.9,81.5 232.9,80.9 235.9,80.5 238.8,80.2 241.8,79.9 244.8,79.7 247.8,79.3 250.8,79.0 253.8,78.9 256.7,78.7 259.7,77.9 262.7,77.5 265.7,77.4 268.7,77.1 271.7,77.0 274.6,77.0 277.6,89.3 280.6,88.1 283.6,87.0 286.6,85.8 289.6,82.5 292.5,80.2 295.5,77.6 298.5,76.7 301.5,75.7 304.5,73.9 307.5,72.1 310.4,70.7 313.4,70.2 316.4,69.7 319.4,68.3 322.4,67.3 325.4,66.7 328.3,65.9 331.3,65.6 334.3,65.4 337.3,64.7 340.3,63.6 343.3,62.8 346.2,61.9 349.2,61.0 352.2,60.6 355.2,60.2 358.2,59.5 361.2,58.7 364.1,58.1 367.1,57.5 370.1,57.3 373.1,57.1 376.1,56.7 379.1,56.1 382.0,55.6 385.0,55.2 388.0,54.8 391.0,54.5 394.0,54.1 397.0,53.8 399.9,53.5 402.9,53.2 405.9,52.6 408.9,52.1 411.9,51.5 414.9,51.2 417.8,50.8 420.8,50.5 423.8,50.3 426.8,49.8 429.8,48.9 432.8,48.0 435.7,47.5 438.7,46.9 441.7,46.4 444.7,46.0 447.7,45.6 450.7,44.9 453.6,44.4 456.6,44.1 459.6,43.7 462.6,43.5 465.6,42.9 468.6,42.5 471.5,42.3 474.5,42.1 477.5,41.8 480.5,41.2 483.5,40.8 486.5,40.3 489.4,39.8 492.4,39.4 495.4,39.0 498.4,38.2 501.4,38.0 504.4,37.3 507.3,36.6 510.3,36.5 513.3,36.3 516.3,36.0 519.3,35.6 522.3,35.2 525.2,34.7 528.2,34.5 531.2,34.2 534.2,33.9 537.2,33.7 540.2,33.6 543.1,33.0 546.1,32.6 549.1,32.3 552.1,32.1 555.1,31.7 558.1,31.3 561.0,31.2 564.0,31.0 567.0,30.6 570.0,30.0" />
  
  <!-- Punto finale luminoso -->
  <circle cx="570.0" cy="30.0" r="4" fill="#ffffff" stroke="#0366d6" stroke-width="2.5" />
</svg>