<svg width="600" height="150" viewBox="0 0 600 150" xmlns="http://www.w3.org/2000/svg">
  <defs>
    <filter id="shadow2" x="-2%" y="-2%" width="104%" height="108%">
      <feDropShadow dx="0" dy="2" stdDeviation="3" flood-opacity="0.1" />
    </filter>
    <linearGradient id="fillGrad" x1="0" y1="0" x2="0" y2="1">
      <stop offset="0%" stop-color="#0366d6" stop-opacity="0.3"/>
      <stop offset="100%" stop-color="#0366d6" stop-opacity="0.02"/>
    </linearGradient>
  </defs>
  <rect width="600" height="150" rx="12" fill="#ffffff" filter="url(#shadow2)" stroke="#e1e4e8" stroke-width="1"/>
  <text x="20" y="24" fill="#2b3137" font-family="-apple-system,BlinkMacSystemFont,'Segoe UI',Helvetica,Arial,sans-serif" font-size="14" font-weight="600">📈 Download Growth (Actual: 77.9k)</text>
  
  <!-- Area sotto la linea -->
  <polygon fill="url(#fillGrad)" points="30.0,120.0,120 30.0,120.0 32.8,119.1 35.6,118.1 38.4,117.2 41.1,117.0 43.9,116.5 46.7,115.5 49.5,114.8 52.3,114.3 55.1,113.2 57.8,112.6 60.6,112.1 63.4,111.8 66.2,111.3 69.0,110.5 71.8,109.8 74.5,109.2 77.3,108.7 80.1,108.5 82.9,108.0 85.7,107.4 88.5,106.9 91.2,106.6 94.0,106.1 96.8,104.4 99.6,103.9 102.4,103.2 105.2,102.5 107.9,102.0 110.7,101.4 113.5,101.0 116.3,100.7 119.1,100.2 121.9,99.4 124.6,98.7 127.4,98.2 130.2,97.6 133.0,97.4 135.8,97.3 138.6,97.0 141.3,96.4 144.1,96.1 146.9,95.9 149.7,95.2 152.5,94.3 155.3,94.1 158.0,93.9 160.8,93.6 163.6,92.8 166.4,92.3 169.2,91.6 172.0,91.0 174.7,90.3 177.5,90.2 180.3,89.8 183.1,89.1 185.9,88.4 188.7,87.9 191.4,87.6 194.2,87.3 197.0,87.0 199.8,86.2 202.6,85.5 205.4,84.8 208.1,84.2 210.9,83.9 213.7,83.7 216.5,83.4 219.3,82.9 222.1,82.5 224.8,82.2 227.6,82.0 230.4,81.7 233.2,81.4 236.0,81.1 238.8,81.0 241.5,80.8 244.3,80.1 247.1,79.7 249.9,79.5 252.7,79.3 255.5,79.2 258.2,79.2 261.0,90.8 263.8,89.7 266.6,88.7 269.4,87.6 272.2,84.4 274.9,82.2 277.7,79.8 280.5,78.9 283.3,77.9 286.1,76.3 288.9,74.5 291.6,73.2 294.4,72.7 297.2,72.2 300.0,70.9 302.8,70.0 305.6,69.4 308.4,68.6 311.1,68.3 313.9,68.2 316.7,67.5 319.5,66.4 322.3,65.7 325.1,64.9 327.8,64.0 330.6,63.6 333.4,63.3 336.2,62.5 339.0,61.8 341.8,61.2 344.5,60.7 347.3,60.4 350.1,60.3 352.9,59.9 355.7,59.3 358.5,58.9 361.2,58.5 364.0,58.1 366.8,57.8 369.6,57.5 372.4,57.1 375.2,56.9 377.9,56.6 380.7,56.0 383.5,55.5 386.3,55.0 389.1,54.6 391.9,54.3 394.6,54.1 397.4,53.8 400.2,53.3 403.0,52.5 405.8,51.7 408.6,51.2 411.3,50.6 414.1,50.1 416.9,49.8 419.7,49.4 422.5,48.7 425.3,48.2 428.0,47.9 430.8,47.6 433.6,47.3 436.4,46.8 439.2,46.4 442.0,46.3 444.7,46.0 447.5,45.7 450.3,45.2 453.1,44.8 455.9,44.3 458.7,43.9 461.4,43.5 464.2,43.1 467.0,42.4 469.8,42.1 472.6,41.5 475.4,40.8 478.1,40.7 480.9,40.5 483.7,40.3 486.5,39.9 489.3,39.5 492.1,39.0 494.8,38.8 497.6,38.6 500.4,38.3 503.2,38.1 506.0,38.0 508.8,37.4 511.5,37.1 514.3,36.8 517.1,36.5 519.9,36.1 522.7,35.8 525.5,35.7 528.2,35.5 531.0,35.1 533.8,34.6 536.6,33.9 539.4,33.7 542.2,33.4 544.9,33.3 547.7,32.7 550.5,32.3 553.3,32.2 556.1,31.7 558.9,31.3 561.6,31.0 564.4,30.6 567.2,30.2 570.0,30.0 570.0,30.0,120" />
  
  <!-- Linea principale -->
  <polyline fill="none" stroke="#0366d6" stroke-width="2.5" stroke-linecap="round" stroke-linejoin="round" points="30.0,120.0 32.8,119.1 35.6,118.1 38.4,117.2 41.1,117.0 43.9,116.5 46.7,115.5 49.5,114.8 52.3,114.3 55.1,113.2 57.8,112.6 60.6,112.1 63.4,111.8 66.2,111.3 69.0,110.5 71.8,109.8 74.5,109.2 77.3,108.7 80.1,108.5 82.9,108.0 85.7,107.4 88.5,106.9 91.2,106.6 94.0,106.1 96.8,104.4 99.6,103.9 102.4,103.2 105.2,102.5 107.9,102.0 110.7,101.4 113.5,101.0 116.3,100.7 119.1,100.2 121.9,99.4 124.6,98.7 127.4,98.2 130.2,97.6 133.0,97.4 135.8,97.3 138.6,97.0 141.3,96.4 144.1,96.1 146.9,95.9 149.7,95.2 152.5,94.3 155.3,94.1 158.0,93.9 160.8,93.6 163.6,92.8 166.4,92.3 169.2,91.6 172.0,91.0 174.7,90.3 177.5,90.2 180.3,89.8 183.1,89.1 185.9,88.4 188.7,87.9 191.4,87.6 194.2,87.3 197.0,87.0 199.8,86.2 202.6,85.5 205.4,84.8 208.1,84.2 210.9,83.9 213.7,83.7 216.5,83.4 219.3,82.9 222.1,82.5 224.8,82.2 227.6,82.0 230.4,81.7 233.2,81.4 236.0,81.1 238.8,81.0 241.5,80.8 244.3,80.1 247.1,79.7 249.9,79.5 252.7,79.3 255.5,79.2 258.2,79.2 261.0,90.8 263.8,89.7 266.6,88.7 269.4,87.6 272.2,84.4 274.9,82.2 277.7,79.8 280.5,78.9 283.3,77.9 286.1,76.3 288.9,74.5 291.6,73.2 294.4,72.7 297.2,72.2 300.0,70.9 302.8,70.0 305.6,69.4 308.4,68.6 311.1,68.3 313.9,68.2 316.7,67.5 319.5,66.4 322.3,65.7 325.1,64.9 327.8,64.0 330.6,63.6 333.4,63.3 336.2,62.5 339.0,61.8 341.8,61.2 344.5,60.7 347.3,60.4 350.1,60.3 352.9,59.9 355.7,59.3 358.5,58.9 361.2,58.5 364.0,58.1 366.8,57.8 369.6,57.5 372.4,57.1 375.2,56.9 377.9,56.6 380.7,56.0 383.5,55.5 386.3,55.0 389.1,54.6 391.9,54.3 394.6,54.1 397.4,53.8 400.2,53.3 403.0,52.5 405.8,51.7 408.6,51.2 411.3,50.6 414.1,50.1 416.9,49.8 419.7,49.4 422.5,48.7 425.3,48.2 428.0,47.9 430.8,47.6 433.6,47.3 436.4,46.8 439.2,46.4 442.0,46.3 444.7,46.0 447.5,45.7 450.3,45.2 453.1,44.8 455.9,44.3 458.7,43.9 461.4,43.5 464.2,43.1 467.0,42.4 469.8,42.1 472.6,41.5 475.4,40.8 478.1,40.7 480.9,40.5 483.7,40.3 486.5,39.9 489.3,39.5 492.1,39.0 494.8,38.8 497.6,38.6 500.4,38.3 503.2,38.1 506.0,38.0 508.8,37.4 511.5,37.1 514.3,36.8 517.1,36.5 519.9,36.1 522.7,35.8 525.5,35.7 528.2,35.5 531.0,35.1 533.8,34.6 536.6,33.9 539.4,33.7 542.2,33.4 544.9,33.3 547.7,32.7 550.5,32.3 553.3,32.2 556.1,31.7 558.9,31.3 561.6,31.0 564.4,30.6 567.2,30.2 570.0,30.0" />
  
  <!-- Punto finale luminoso -->
  <circle cx="570.0" cy="30.0" r="4" fill="#ffffff" stroke="#0366d6" stroke-width="2.5" />
</svg>