<svg width="600" height="150" viewBox="0 0 600 150" xmlns="http://www.w3.org/2000/svg">
  <defs>
    <filter id="shadow2" x="-2%" y="-2%" width="104%" height="108%">
      <feDropShadow dx="0" dy="2" stdDeviation="3" flood-opacity="0.1" />
    </filter>
    <linearGradient id="fillGrad" x1="0" y1="0" x2="0" y2="1">
      <stop offset="0%" stop-color="#0366d6" stop-opacity="0.3"/>
      <stop offset="100%" stop-color="#0366d6" stop-opacity="0.02"/>
    </linearGradient>
  </defs>
  <rect width="600" height="150" rx="12" fill="#ffffff" filter="url(#shadow2)" stroke="#e1e4e8" stroke-width="1"/>
  <text x="20" y="24" fill="#2b3137" font-family="-apple-system,BlinkMacSystemFont,'Segoe UI',Helvetica,Arial,sans-serif" font-size="14" font-weight="600">📈 Download Growth (Actual: 75.4k)</text>
  
  <!-- Area sotto la linea -->
  <polygon fill="url(#fillGrad)" points="30.0,120.0,120 30.0,120.0 33.9,118.8 37.8,117.5 41.7,116.4 45.7,116.1 49.6,115.5 53.5,114.2 57.4,113.3 61.3,112.6 65.2,111.2 69.1,110.5 73.0,109.8 77.0,109.4 80.9,108.8 84.8,107.8 88.7,106.8 92.6,106.0 96.5,105.5 100.4,105.1 104.3,104.5 108.3,103.8 112.2,103.1 116.1,102.8 120.0,102.2 123.9,99.9 127.8,99.3 131.7,98.4 135.7,97.5 139.6,96.8 143.5,96.0 147.4,95.5 151.3,95.2 155.2,94.5 159.1,93.5 163.0,92.5 167.0,91.9 170.9,91.2 174.8,90.9 178.7,90.8 182.6,90.4 186.5,89.7 190.4,89.2 194.3,88.9 198.3,88.1 202.2,86.9 206.1,86.6 210.0,86.4 213.9,85.9 217.8,85.0 221.7,84.4 225.7,83.4 229.6,82.7 233.5,81.8 237.4,81.6 241.3,81.1 245.2,80.2 249.1,79.3 253.0,78.6 257.0,78.3 260.9,77.9 264.8,77.5 268.7,76.5 272.6,75.6 276.5,74.7 280.4,73.9 284.3,73.5 288.3,73.2 292.2,72.9 296.1,72.2 300.0,71.7 303.9,71.4 307.8,71.0 311.7,70.7 315.7,70.2 319.6,69.9 323.5,69.7 327.4,69.5 331.3,68.6 335.2,68.1 339.1,67.9 343.0,67.6 347.0,67.4 350.9,67.4 354.8,82.4 358.7,81.0 362.6,79.6 366.5,78.2 370.4,74.1 374.3,71.3 378.3,68.2 382.2,67.1 386.1,65.8 390.0,63.7 393.9,61.4 397.8,59.7 401.7,59.1 405.7,58.5 409.6,56.8 413.5,55.6 417.4,54.8 421.3,53.9 425.2,53.5 429.1,53.3 433.0,52.4 437.0,51.0 440.9,50.0 444.8,49.0 448.7,47.9 452.6,47.3 456.5,46.9 460.4,46.0 464.3,45.1 468.3,44.3 472.2,43.6 476.1,43.3 480.0,43.1 483.9,42.6 487.8,41.8 491.7,41.3 495.7,40.8 499.6,40.3 503.5,39.9 507.4,39.5 511.3,39.1 515.2,38.7 519.1,38.3 523.0,37.6 527.0,37.0 530.9,36.3 534.8,35.8 538.7,35.4 542.6,35.1 546.5,34.8 550.4,34.1 554.3,33.1 558.3,32.0 562.2,31.4 566.1,30.7 570.0,30.0 570.0,30.0,120" />
  
  <!-- Linea principale -->
  <polyline fill="none" stroke="#0366d6" stroke-width="2.5" stroke-linecap="round" stroke-linejoin="round" points="30.0,120.0 33.9,118.8 37.8,117.5 41.7,116.4 45.7,116.1 49.6,115.5 53.5,114.2 57.4,113.3 61.3,112.6 65.2,111.2 69.1,110.5 73.0,109.8 77.0,109.4 80.9,108.8 84.8,107.8 88.7,106.8 92.6,106.0 96.5,105.5 100.4,105.1 104.3,104.5 108.3,103.8 112.2,103.1 116.1,102.8 120.0,102.2 123.9,99.9 127.8,99.3 131.7,98.4 135.7,97.5 139.6,96.8 143.5,96.0 147.4,95.5 151.3,95.2 155.2,94.5 159.1,93.5 163.0,92.5 167.0,91.9 170.9,91.2 174.8,90.9 178.7,90.8 182.6,90.4 186.5,89.7 190.4,89.2 194.3,88.9 198.3,88.1 202.2,86.9 206.1,86.6 210.0,86.4 213.9,85.9 217.8,85.0 221.7,84.4 225.7,83.4 229.6,82.7 233.5,81.8 237.4,81.6 241.3,81.1 245.2,80.2 249.1,79.3 253.0,78.6 257.0,78.3 260.9,77.9 264.8,77.5 268.7,76.5 272.6,75.6 276.5,74.7 280.4,73.9 284.3,73.5 288.3,73.2 292.2,72.9 296.1,72.2 300.0,71.7 303.9,71.4 307.8,71.0 311.7,70.7 315.7,70.2 319.6,69.9 323.5,69.7 327.4,69.5 331.3,68.6 335.2,68.1 339.1,67.9 343.0,67.6 347.0,67.4 350.9,67.4 354.8,82.4 358.7,81.0 362.6,79.6 366.5,78.2 370.4,74.1 374.3,71.3 378.3,68.2 382.2,67.1 386.1,65.8 390.0,63.7 393.9,61.4 397.8,59.7 401.7,59.1 405.7,58.5 409.6,56.8 413.5,55.6 417.4,54.8 421.3,53.9 425.2,53.5 429.1,53.3 433.0,52.4 437.0,51.0 440.9,50.0 444.8,49.0 448.7,47.9 452.6,47.3 456.5,46.9 460.4,46.0 464.3,45.1 468.3,44.3 472.2,43.6 476.1,43.3 480.0,43.1 483.9,42.6 487.8,41.8 491.7,41.3 495.7,40.8 499.6,40.3 503.5,39.9 507.4,39.5 511.3,39.1 515.2,38.7 519.1,38.3 523.0,37.6 527.0,37.0 530.9,36.3 534.8,35.8 538.7,35.4 542.6,35.1 546.5,34.8 550.4,34.1 554.3,33.1 558.3,32.0 562.2,31.4 566.1,30.7 570.0,30.0" />
  
  <!-- Punto finale luminoso -->
  <circle cx="570.0" cy="30.0" r="4" fill="#ffffff" stroke="#0366d6" stroke-width="2.5" />
</svg>