<svg width="600" height="150" viewBox="0 0 600 150" xmlns="http://www.w3.org/2000/svg">
  <defs>
    <filter id="shadow2" x="-2%" y="-2%" width="104%" height="108%">
      <feDropShadow dx="0" dy="2" stdDeviation="3" flood-opacity="0.1" />
    </filter>
    <linearGradient id="fillGrad" x1="0" y1="0" x2="0" y2="1">
      <stop offset="0%" stop-color="#0366d6" stop-opacity="0.3"/>
      <stop offset="100%" stop-color="#0366d6" stop-opacity="0.02"/>
    </linearGradient>
  </defs>
  <rect width="600" height="150" rx="12" fill="#ffffff" filter="url(#shadow2)" stroke="#e1e4e8" stroke-width="1"/>
  <text x="20" y="24" fill="#2b3137" font-family="-apple-system,BlinkMacSystemFont,'Segoe UI',Helvetica,Arial,sans-serif" font-size="14" font-weight="600">📈 Download Growth (Actual: 75.3k)</text>
  
  <!-- Area sotto la linea -->
  <polygon fill="url(#fillGrad)" points="30.0,120.0,120 30.0,120.0 34.0,118.8 37.9,117.5 41.9,116.4 45.9,116.1 49.9,115.5 53.8,114.1 57.8,113.1 61.8,112.5 65.7,111.1 69.7,110.4 73.7,109.7 77.6,109.2 81.6,108.6 85.6,107.6 89.6,106.6 93.5,105.8 97.5,105.3 101.5,104.9 105.4,104.3 109.4,103.5 113.4,102.8 117.4,102.5 121.3,101.9 125.3,99.6 129.3,99.0 133.2,98.1 137.2,97.2 141.2,96.4 145.1,95.7 149.1,95.2 153.1,94.8 157.1,94.2 161.0,93.1 165.0,92.1 169.0,91.5 172.9,90.7 176.9,90.5 180.9,90.3 184.9,89.9 188.8,89.2 192.8,88.8 196.8,88.5 200.7,87.6 204.7,86.4 208.7,86.1 212.6,85.9 216.6,85.4 220.6,84.5 224.6,83.8 228.5,82.8 232.5,82.1 236.5,81.2 240.4,81.0 244.4,80.5 248.4,79.6 252.4,78.7 256.3,78.0 260.3,77.7 264.3,77.2 268.2,76.8 272.2,75.8 276.2,74.9 280.1,74.0 284.1,73.2 288.1,72.8 292.1,72.5 296.0,72.1 300.0,71.5 304.0,71.0 307.9,70.6 311.9,70.3 315.9,70.0 319.9,69.5 323.8,69.2 327.8,68.9 331.8,68.7 335.7,67.8 339.7,67.3 343.7,67.1 347.6,66.8 351.6,66.6 355.6,66.6 359.6,81.9 363.5,80.4 367.5,79.0 371.5,77.6 375.4,73.4 379.4,70.5 383.4,67.4 387.4,66.3 391.3,64.9 395.3,62.8 399.3,60.5 403.2,58.8 407.2,58.1 411.2,57.5 415.1,55.8 419.1,54.6 423.1,53.8 427.1,52.9 431.0,52.4 435.0,52.3 439.0,51.4 442.9,50.0 446.9,49.0 450.9,47.9 454.9,46.8 458.8,46.2 462.8,45.8 466.8,44.8 470.7,43.9 474.7,43.1 478.7,42.4 482.6,42.1 486.6,41.9 490.6,41.4 494.6,40.6 498.5,40.1 502.5,39.5 506.5,39.1 510.4,38.6 514.4,38.2 518.4,37.8 522.4,37.5 526.3,37.1 530.3,36.3 534.3,35.7 538.2,35.0 542.2,34.5 546.2,34.1 550.1,33.8 554.1,33.5 558.1,32.8 562.1,31.7 566.0,30.7 570.0,30.0 570.0,30.0,120" />
  
  <!-- Linea principale -->
  <polyline fill="none" stroke="#0366d6" stroke-width="2.5" stroke-linecap="round" stroke-linejoin="round" points="30.0,120.0 34.0,118.8 37.9,117.5 41.9,116.4 45.9,116.1 49.9,115.5 53.8,114.1 57.8,113.1 61.8,112.5 65.7,111.1 69.7,110.4 73.7,109.7 77.6,109.2 81.6,108.6 85.6,107.6 89.6,106.6 93.5,105.8 97.5,105.3 101.5,104.9 105.4,104.3 109.4,103.5 113.4,102.8 117.4,102.5 121.3,101.9 125.3,99.6 129.3,99.0 133.2,98.1 137.2,97.2 141.2,96.4 145.1,95.7 149.1,95.2 153.1,94.8 157.1,94.2 161.0,93.1 165.0,92.1 169.0,91.5 172.9,90.7 176.9,90.5 180.9,90.3 184.9,89.9 188.8,89.2 192.8,88.8 196.8,88.5 200.7,87.6 204.7,86.4 208.7,86.1 212.6,85.9 216.6,85.4 220.6,84.5 224.6,83.8 228.5,82.8 232.5,82.1 236.5,81.2 240.4,81.0 244.4,80.5 248.4,79.6 252.4,78.7 256.3,78.0 260.3,77.7 264.3,77.2 268.2,76.8 272.2,75.8 276.2,74.9 280.1,74.0 284.1,73.2 288.1,72.8 292.1,72.5 296.0,72.1 300.0,71.5 304.0,71.0 307.9,70.6 311.9,70.3 315.9,70.0 319.9,69.5 323.8,69.2 327.8,68.9 331.8,68.7 335.7,67.8 339.7,67.3 343.7,67.1 347.6,66.8 351.6,66.6 355.6,66.6 359.6,81.9 363.5,80.4 367.5,79.0 371.5,77.6 375.4,73.4 379.4,70.5 383.4,67.4 387.4,66.3 391.3,64.9 395.3,62.8 399.3,60.5 403.2,58.8 407.2,58.1 411.2,57.5 415.1,55.8 419.1,54.6 423.1,53.8 427.1,52.9 431.0,52.4 435.0,52.3 439.0,51.4 442.9,50.0 446.9,49.0 450.9,47.9 454.9,46.8 458.8,46.2 462.8,45.8 466.8,44.8 470.7,43.9 474.7,43.1 478.7,42.4 482.6,42.1 486.6,41.9 490.6,41.4 494.6,40.6 498.5,40.1 502.5,39.5 506.5,39.1 510.4,38.6 514.4,38.2 518.4,37.8 522.4,37.5 526.3,37.1 530.3,36.3 534.3,35.7 538.2,35.0 542.2,34.5 546.2,34.1 550.1,33.8 554.1,33.5 558.1,32.8 562.1,31.7 566.0,30.7 570.0,30.0" />
  
  <!-- Punto finale luminoso -->
  <circle cx="570.0" cy="30.0" r="4" fill="#ffffff" stroke="#0366d6" stroke-width="2.5" />
</svg>