<svg width="600" height="150" viewBox="0 0 600 150" xmlns="http://www.w3.org/2000/svg">
  <defs>
    <filter id="shadow2" x="-2%" y="-2%" width="104%" height="108%">
      <feDropShadow dx="0" dy="2" stdDeviation="3" flood-opacity="0.1" />
    </filter>
    <linearGradient id="fillGrad" x1="0" y1="0" x2="0" y2="1">
      <stop offset="0%" stop-color="#0366d6" stop-opacity="0.3"/>
      <stop offset="100%" stop-color="#0366d6" stop-opacity="0.02"/>
    </linearGradient>
  </defs>
  <rect width="600" height="150" rx="12" fill="#ffffff" filter="url(#shadow2)" stroke="#e1e4e8" stroke-width="1"/>
  <text x="20" y="24" fill="#2b3137" font-family="-apple-system,BlinkMacSystemFont,'Segoe UI',Helvetica,Arial,sans-serif" font-size="14" font-weight="600">📈 Download Growth (Actual: 77.2k)</text>
  
  <!-- Area sotto la linea -->
  <polygon fill="url(#fillGrad)" points="30.0,120.0,120 30.0,120.0 33.0,119.0 36.0,118.0 39.1,117.0 42.1,116.8 45.1,116.3 48.1,115.2 51.1,114.4 54.1,113.9 57.2,112.7 60.2,112.2 63.2,111.6 66.2,111.2 69.2,110.7 72.2,109.9 75.3,109.1 78.3,108.4 81.3,108.0 84.3,107.7 87.3,107.2 90.3,106.6 93.4,106.0 96.4,105.8 99.4,105.2 102.4,103.4 105.4,102.9 108.4,102.1 111.5,101.4 114.5,100.8 117.5,100.2 120.5,99.8 123.5,99.5 126.5,99.0 129.6,98.1 132.6,97.3 135.6,96.8 138.6,96.2 141.6,96.0 144.6,95.8 147.7,95.5 150.7,94.9 153.7,94.6 156.7,94.3 159.7,93.6 162.7,92.7 165.8,92.4 168.8,92.2 171.8,91.8 174.8,91.1 177.8,90.5 180.8,89.7 183.9,89.1 186.9,88.4 189.9,88.3 192.9,87.8 195.9,87.1 198.9,86.4 202.0,85.8 205.0,85.5 208.0,85.2 211.0,84.8 214.0,84.0 217.0,83.3 220.1,82.6 223.1,81.9 226.1,81.5 229.1,81.3 232.1,81.0 235.1,80.5 238.2,80.1 241.2,79.8 244.2,79.5 247.2,79.3 250.2,78.9 253.2,78.6 256.3,78.4 259.3,78.2 262.3,77.5 265.3,77.1 268.3,76.9 271.3,76.7 274.4,76.5 277.4,76.5 280.4,88.9 283.4,87.7 286.4,86.6 289.4,85.5 292.5,82.1 295.5,79.7 298.5,77.2 301.5,76.2 304.5,75.2 307.5,73.4 310.6,71.5 313.6,70.1 316.6,69.6 319.6,69.1 322.6,67.7 325.6,66.8 328.7,66.1 331.7,65.3 334.7,65.0 337.7,64.9 340.7,64.1 343.7,63.0 346.8,62.1 349.8,61.3 352.8,60.4 355.8,59.9 358.8,59.6 361.8,58.8 364.9,58.1 367.9,57.4 370.9,56.8 373.9,56.6 376.9,56.4 379.9,56.0 383.0,55.4 386.0,54.9 389.0,54.5 392.0,54.1 395.0,53.8 398.0,53.4 401.1,53.1 404.1,52.8 407.1,52.5 410.1,51.8 413.1,51.4 416.1,50.8 419.2,50.4 422.2,50.0 425.2,49.8 428.2,49.5 431.2,49.0 434.2,48.1 437.3,47.3 440.3,46.7 443.3,46.1 446.3,45.6 449.3,45.2 452.3,44.8 455.4,44.1 458.4,43.6 461.4,43.2 464.4,42.9 467.4,42.6 470.4,42.1 473.5,41.6 476.5,41.5 479.5,41.2 482.5,40.9 485.5,40.3 488.5,39.9 491.6,39.4 494.6,39.0 497.6,38.5 500.6,38.1 503.6,37.3 506.6,37.1 509.7,36.4 512.7,35.7 515.7,35.6 518.7,35.4 521.7,35.1 524.7,34.7 527.8,34.3 530.8,33.8 533.8,33.6 536.8,33.3 539.8,33.0 542.8,32.8 545.9,32.6 548.9,32.1 551.9,31.7 554.9,31.4 557.9,31.1 560.9,30.7 564.0,30.4 567.0,30.3 570.0,30.0 570.0,30.0,120" />
  
  <!-- Linea principale -->
  <polyline fill="none" stroke="#0366d6" stroke-width="2.5" stroke-linecap="round" stroke-linejoin="round" points="30.0,120.0 33.0,119.0 36.0,118.0 39.1,117.0 42.1,116.8 45.1,116.3 48.1,115.2 51.1,114.4 54.1,113.9 57.2,112.7 60.2,112.2 63.2,111.6 66.2,111.2 69.2,110.7 72.2,109.9 75.3,109.1 78.3,108.4 81.3,108.0 84.3,107.7 87.3,107.2 90.3,106.6 93.4,106.0 96.4,105.8 99.4,105.2 102.4,103.4 105.4,102.9 108.4,102.1 111.5,101.4 114.5,100.8 117.5,100.2 120.5,99.8 123.5,99.5 126.5,99.0 129.6,98.1 132.6,97.3 135.6,96.8 138.6,96.2 141.6,96.0 144.6,95.8 147.7,95.5 150.7,94.9 153.7,94.6 156.7,94.3 159.7,93.6 162.7,92.7 165.8,92.4 168.8,92.2 171.8,91.8 174.8,91.1 177.8,90.5 180.8,89.7 183.9,89.1 186.9,88.4 189.9,88.3 192.9,87.8 195.9,87.1 198.9,86.4 202.0,85.8 205.0,85.5 208.0,85.2 211.0,84.8 214.0,84.0 217.0,83.3 220.1,82.6 223.1,81.9 226.1,81.5 229.1,81.3 232.1,81.0 235.1,80.5 238.2,80.1 241.2,79.8 244.2,79.5 247.2,79.3 250.2,78.9 253.2,78.6 256.3,78.4 259.3,78.2 262.3,77.5 265.3,77.1 268.3,76.9 271.3,76.7 274.4,76.5 277.4,76.5 280.4,88.9 283.4,87.7 286.4,86.6 289.4,85.5 292.5,82.1 295.5,79.7 298.5,77.2 301.5,76.2 304.5,75.2 307.5,73.4 310.6,71.5 313.6,70.1 316.6,69.6 319.6,69.1 322.6,67.7 325.6,66.8 328.7,66.1 331.7,65.3 334.7,65.0 337.7,64.9 340.7,64.1 343.7,63.0 346.8,62.1 349.8,61.3 352.8,60.4 355.8,59.9 358.8,59.6 361.8,58.8 364.9,58.1 367.9,57.4 370.9,56.8 373.9,56.6 376.9,56.4 379.9,56.0 383.0,55.4 386.0,54.9 389.0,54.5 392.0,54.1 395.0,53.8 398.0,53.4 401.1,53.1 404.1,52.8 407.1,52.5 410.1,51.8 413.1,51.4 416.1,50.8 419.2,50.4 422.2,50.0 425.2,49.8 428.2,49.5 431.2,49.0 434.2,48.1 437.3,47.3 440.3,46.7 443.3,46.1 446.3,45.6 449.3,45.2 452.3,44.8 455.4,44.1 458.4,43.6 461.4,43.2 464.4,42.9 467.4,42.6 470.4,42.1 473.5,41.6 476.5,41.5 479.5,41.2 482.5,40.9 485.5,40.3 488.5,39.9 491.6,39.4 494.6,39.0 497.6,38.5 500.6,38.1 503.6,37.3 506.6,37.1 509.7,36.4 512.7,35.7 515.7,35.6 518.7,35.4 521.7,35.1 524.7,34.7 527.8,34.3 530.8,33.8 533.8,33.6 536.8,33.3 539.8,33.0 542.8,32.8 545.9,32.6 548.9,32.1 551.9,31.7 554.9,31.4 557.9,31.1 560.9,30.7 564.0,30.4 567.0,30.3 570.0,30.0" />
  
  <!-- Punto finale luminoso -->
  <circle cx="570.0" cy="30.0" r="4" fill="#ffffff" stroke="#0366d6" stroke-width="2.5" />
</svg>