<svg width="600" height="150" viewBox="0 0 600 150" xmlns="http://www.w3.org/2000/svg">
  <defs>
    <filter id="shadow2" x="-2%" y="-2%" width="104%" height="108%">
      <feDropShadow dx="0" dy="2" stdDeviation="3" flood-opacity="0.1" />
    </filter>
    <linearGradient id="fillGrad" x1="0" y1="0" x2="0" y2="1">
      <stop offset="0%" stop-color="#0366d6" stop-opacity="0.3"/>
      <stop offset="100%" stop-color="#0366d6" stop-opacity="0.02"/>
    </linearGradient>
  </defs>
  <rect width="600" height="150" rx="12" fill="#ffffff" filter="url(#shadow2)" stroke="#e1e4e8" stroke-width="1"/>
  <text x="20" y="24" fill="#2b3137" font-family="-apple-system,BlinkMacSystemFont,'Segoe UI',Helvetica,Arial,sans-serif" font-size="14" font-weight="600">📈 Download Growth (Actual: 76.1k)</text>
  
  <!-- Area sotto la linea -->
  <polygon fill="url(#fillGrad)" points="30.0,120.0,120 30.0,120.0 33.6,118.9 37.1,117.7 40.7,116.7 44.2,116.4 47.8,115.9 51.3,114.6 54.9,113.7 58.4,113.2 62.0,111.8 65.5,111.2 69.1,110.5 72.6,110.2 76.2,109.6 79.7,108.7 83.3,107.7 86.8,107.0 90.4,106.5 93.9,106.2 97.5,105.6 101.1,104.9 104.6,104.3 108.2,104.0 111.7,103.4 115.3,101.3 118.8,100.7 122.4,99.9 125.9,99.1 129.5,98.4 133.0,97.7 136.6,97.3 140.1,96.9 143.7,96.3 147.2,95.3 150.8,94.5 154.3,93.9 157.9,93.2 161.4,93.0 165.0,92.8 168.6,92.5 172.1,91.8 175.7,91.4 179.2,91.1 182.8,90.4 186.3,89.3 189.9,89.0 193.4,88.8 197.0,88.3 200.5,87.5 204.1,86.9 207.6,86.0 211.2,85.3 214.7,84.5 218.3,84.3 221.8,83.8 225.4,83.0 228.9,82.2 232.5,81.6 236.1,81.3 239.6,80.8 243.2,80.5 246.7,79.5 250.3,78.7 253.8,77.9 257.4,77.1 260.9,76.8 264.5,76.5 268.0,76.2 271.6,75.6 275.1,75.1 278.7,74.8 282.2,74.5 285.8,74.2 289.3,73.7 292.9,73.4 296.4,73.3 300.0,73.0 303.6,72.2 307.1,71.7 310.7,71.6 314.2,71.3 317.8,71.1 321.3,71.1 324.9,85.1 328.4,83.7 332.0,82.5 335.5,81.2 339.1,77.4 342.6,74.7 346.2,71.9 349.7,70.8 353.3,69.6 356.8,67.6 360.4,65.5 363.9,63.9 367.5,63.4 371.1,62.8 374.6,61.3 378.2,60.1 381.7,59.4 385.3,58.5 388.8,58.2 392.4,58.0 395.9,57.2 399.5,55.9 403.0,55.0 406.6,54.0 410.1,53.0 413.7,52.5 417.2,52.1 420.8,51.2 424.3,50.4 427.9,49.6 431.4,49.0 435.0,48.7 438.6,48.5 442.1,48.0 445.7,47.3 449.2,46.8 452.8,46.3 456.3,45.9 459.9,45.5 463.4,45.1 467.0,44.8 470.5,44.4 474.1,44.1 477.6,43.4 481.2,42.8 484.7,42.2 488.3,41.8 491.8,41.4 495.4,41.1 498.9,40.8 502.5,40.2 506.1,39.2 509.6,38.2 513.2,37.6 516.7,36.9 520.3,36.3 523.8,35.9 527.4,35.5 530.9,34.6 534.5,34.1 538.0,33.7 541.6,33.3 545.1,33.0 548.7,32.4 552.2,31.9 555.8,31.7 559.3,31.4 562.9,31.1 566.4,30.4 570.0,30.0 570.0,30.0,120" />
  
  <!-- Linea principale -->
  <polyline fill="none" stroke="#0366d6" stroke-width="2.5" stroke-linecap="round" stroke-linejoin="round" points="30.0,120.0 33.6,118.9 37.1,117.7 40.7,116.7 44.2,116.4 47.8,115.9 51.3,114.6 54.9,113.7 58.4,113.2 62.0,111.8 65.5,111.2 69.1,110.5 72.6,110.2 76.2,109.6 79.7,108.7 83.3,107.7 86.8,107.0 90.4,106.5 93.9,106.2 97.5,105.6 101.1,104.9 104.6,104.3 108.2,104.0 111.7,103.4 115.3,101.3 118.8,100.7 122.4,99.9 125.9,99.1 129.5,98.4 133.0,97.7 136.6,97.3 140.1,96.9 143.7,96.3 147.2,95.3 150.8,94.5 154.3,93.9 157.9,93.2 161.4,93.0 165.0,92.8 168.6,92.5 172.1,91.8 175.7,91.4 179.2,91.1 182.8,90.4 186.3,89.3 189.9,89.0 193.4,88.8 197.0,88.3 200.5,87.5 204.1,86.9 207.6,86.0 211.2,85.3 214.7,84.5 218.3,84.3 221.8,83.8 225.4,83.0 228.9,82.2 232.5,81.6 236.1,81.3 239.6,80.8 243.2,80.5 246.7,79.5 250.3,78.7 253.8,77.9 257.4,77.1 260.9,76.8 264.5,76.5 268.0,76.2 271.6,75.6 275.1,75.1 278.7,74.8 282.2,74.5 285.8,74.2 289.3,73.7 292.9,73.4 296.4,73.3 300.0,73.0 303.6,72.2 307.1,71.7 310.7,71.6 314.2,71.3 317.8,71.1 321.3,71.1 324.9,85.1 328.4,83.7 332.0,82.5 335.5,81.2 339.1,77.4 342.6,74.7 346.2,71.9 349.7,70.8 353.3,69.6 356.8,67.6 360.4,65.5 363.9,63.9 367.5,63.4 371.1,62.8 374.6,61.3 378.2,60.1 381.7,59.4 385.3,58.5 388.8,58.2 392.4,58.0 395.9,57.2 399.5,55.9 403.0,55.0 406.6,54.0 410.1,53.0 413.7,52.5 417.2,52.1 420.8,51.2 424.3,50.4 427.9,49.6 431.4,49.0 435.0,48.7 438.6,48.5 442.1,48.0 445.7,47.3 449.2,46.8 452.8,46.3 456.3,45.9 459.9,45.5 463.4,45.1 467.0,44.8 470.5,44.4 474.1,44.1 477.6,43.4 481.2,42.8 484.7,42.2 488.3,41.8 491.8,41.4 495.4,41.1 498.9,40.8 502.5,40.2 506.1,39.2 509.6,38.2 513.2,37.6 516.7,36.9 520.3,36.3 523.8,35.9 527.4,35.5 530.9,34.6 534.5,34.1 538.0,33.7 541.6,33.3 545.1,33.0 548.7,32.4 552.2,31.9 555.8,31.7 559.3,31.4 562.9,31.1 566.4,30.4 570.0,30.0" />
  
  <!-- Punto finale luminoso -->
  <circle cx="570.0" cy="30.0" r="4" fill="#ffffff" stroke="#0366d6" stroke-width="2.5" />
</svg>