<svg width="600" height="150" viewBox="0 0 600 150" xmlns="http://www.w3.org/2000/svg">
  <defs>
    <filter id="shadow2" x="-2%" y="-2%" width="104%" height="108%">
      <feDropShadow dx="0" dy="2" stdDeviation="3" flood-opacity="0.1" />
    </filter>
    <linearGradient id="fillGrad" x1="0" y1="0" x2="0" y2="1">
      <stop offset="0%" stop-color="#0366d6" stop-opacity="0.3"/>
      <stop offset="100%" stop-color="#0366d6" stop-opacity="0.02"/>
    </linearGradient>
  </defs>
  <rect width="600" height="150" rx="12" fill="#ffffff" filter="url(#shadow2)" stroke="#e1e4e8" stroke-width="1"/>
  <text x="20" y="24" fill="#2b3137" font-family="-apple-system,BlinkMacSystemFont,'Segoe UI',Helvetica,Arial,sans-serif" font-size="14" font-weight="600">📈 Download Growth (Actual: 77.7k)</text>
  
  <!-- Area sotto la linea -->
  <polygon fill="url(#fillGrad)" points="30.0,120.0,120 30.0,120.0 32.9,119.1 35.7,118.0 38.6,117.2 41.4,116.9 44.3,116.5 47.1,115.4 50.0,114.7 52.9,114.2 55.7,113.1 58.6,112.5 61.4,111.9 64.3,111.6 67.1,111.1 70.0,110.4 72.9,109.6 75.7,108.9 78.6,108.5 81.4,108.2 84.3,107.7 87.1,107.1 90.0,106.6 92.9,106.4 95.7,105.9 98.6,104.1 101.4,103.6 104.3,102.9 107.1,102.2 110.0,101.6 112.9,101.0 115.7,100.6 118.6,100.3 121.4,99.8 124.3,99.0 127.1,98.3 130.0,97.8 132.9,97.2 135.7,97.0 138.6,96.8 141.4,96.5 144.3,96.0 147.1,95.6 150.0,95.4 152.9,94.8 155.7,93.8 158.6,93.6 161.4,93.4 164.3,93.0 167.1,92.3 170.0,91.8 172.9,91.0 175.7,90.5 178.6,89.8 181.4,89.6 184.3,89.2 187.1,88.5 190.0,87.8 192.9,87.3 195.7,87.0 198.6,86.7 201.4,86.3 204.3,85.5 207.1,84.8 210.0,84.2 212.9,83.5 215.7,83.2 218.6,83.0 221.4,82.7 224.3,82.2 227.1,81.8 230.0,81.5 232.9,81.2 235.7,81.0 238.6,80.6 241.4,80.4 244.3,80.2 247.1,80.0 250.0,79.3 252.9,78.9 255.7,78.8 258.6,78.5 261.4,78.4 264.3,78.4 267.1,90.3 270.0,89.1 272.9,88.0 275.7,86.9 278.6,83.7 281.4,81.4 284.3,79.0 287.1,78.1 290.0,77.1 292.9,75.4 295.7,73.6 298.6,72.3 301.4,71.8 304.3,71.3 307.1,70.0 310.0,69.0 312.9,68.4 315.7,67.6 318.6,67.3 321.4,67.2 324.3,66.5 327.1,65.4 330.0,64.6 332.9,63.8 335.7,62.9 338.6,62.5 341.4,62.2 344.3,61.4 347.1,60.7 350.0,60.0 352.9,59.5 355.7,59.3 358.6,59.1 361.4,58.7 364.3,58.1 367.1,57.7 370.0,57.3 372.9,56.9 375.7,56.6 378.6,56.2 381.4,55.9 384.3,55.7 387.1,55.3 390.0,54.7 392.9,54.3 395.7,53.7 398.6,53.4 401.4,53.0 404.3,52.8 407.1,52.5 410.0,52.0 412.9,51.2 415.7,50.3 418.6,49.8 421.4,49.3 424.3,48.7 427.1,48.4 430.0,48.0 432.9,47.3 435.7,46.8 438.6,46.5 441.4,46.1 444.3,45.9 447.1,45.4 450.0,44.9 452.9,44.8 455.7,44.6 458.6,44.3 461.4,43.7 464.3,43.4 467.1,42.8 470.0,42.4 472.9,42.0 475.7,41.6 478.6,40.8 481.4,40.6 484.3,39.9 487.1,39.3 490.0,39.1 492.9,39.0 495.7,38.7 498.6,38.3 501.4,38.0 504.3,37.4 507.1,37.2 510.0,37.0 512.9,36.7 515.7,36.5 518.6,36.4 521.4,35.8 524.3,35.4 527.1,35.1 530.0,34.9 532.9,34.5 535.7,34.2 538.6,34.1 541.4,33.8 544.3,33.4 547.1,32.9 550.0,32.3 552.9,32.0 555.7,31.7 558.6,31.6 561.4,31.0 564.3,30.6 567.1,30.5 570.0,30.0 570.0,30.0,120" />
  
  <!-- Linea principale -->
  <polyline fill="none" stroke="#0366d6" stroke-width="2.5" stroke-linecap="round" stroke-linejoin="round" points="30.0,120.0 32.9,119.1 35.7,118.0 38.6,117.2 41.4,116.9 44.3,116.5 47.1,115.4 50.0,114.7 52.9,114.2 55.7,113.1 58.6,112.5 61.4,111.9 64.3,111.6 67.1,111.1 70.0,110.4 72.9,109.6 75.7,108.9 78.6,108.5 81.4,108.2 84.3,107.7 87.1,107.1 90.0,106.6 92.9,106.4 95.7,105.9 98.6,104.1 101.4,103.6 104.3,102.9 107.1,102.2 110.0,101.6 112.9,101.0 115.7,100.6 118.6,100.3 121.4,99.8 124.3,99.0 127.1,98.3 130.0,97.8 132.9,97.2 135.7,97.0 138.6,96.8 141.4,96.5 144.3,96.0 147.1,95.6 150.0,95.4 152.9,94.8 155.7,93.8 158.6,93.6 161.4,93.4 164.3,93.0 167.1,92.3 170.0,91.8 172.9,91.0 175.7,90.5 178.6,89.8 181.4,89.6 184.3,89.2 187.1,88.5 190.0,87.8 192.9,87.3 195.7,87.0 198.6,86.7 201.4,86.3 204.3,85.5 207.1,84.8 210.0,84.2 212.9,83.5 215.7,83.2 218.6,83.0 221.4,82.7 224.3,82.2 227.1,81.8 230.0,81.5 232.9,81.2 235.7,81.0 238.6,80.6 241.4,80.4 244.3,80.2 247.1,80.0 250.0,79.3 252.9,78.9 255.7,78.8 258.6,78.5 261.4,78.4 264.3,78.4 267.1,90.3 270.0,89.1 272.9,88.0 275.7,86.9 278.6,83.7 281.4,81.4 284.3,79.0 287.1,78.1 290.0,77.1 292.9,75.4 295.7,73.6 298.6,72.3 301.4,71.8 304.3,71.3 307.1,70.0 310.0,69.0 312.9,68.4 315.7,67.6 318.6,67.3 321.4,67.2 324.3,66.5 327.1,65.4 330.0,64.6 332.9,63.8 335.7,62.9 338.6,62.5 341.4,62.2 344.3,61.4 347.1,60.7 350.0,60.0 352.9,59.5 355.7,59.3 358.6,59.1 361.4,58.7 364.3,58.1 367.1,57.7 370.0,57.3 372.9,56.9 375.7,56.6 378.6,56.2 381.4,55.9 384.3,55.7 387.1,55.3 390.0,54.7 392.9,54.3 395.7,53.7 398.6,53.4 401.4,53.0 404.3,52.8 407.1,52.5 410.0,52.0 412.9,51.2 415.7,50.3 418.6,49.8 421.4,49.3 424.3,48.7 427.1,48.4 430.0,48.0 432.9,47.3 435.7,46.8 438.6,46.5 441.4,46.1 444.3,45.9 447.1,45.4 450.0,44.9 452.9,44.8 455.7,44.6 458.6,44.3 461.4,43.7 464.3,43.4 467.1,42.8 470.0,42.4 472.9,42.0 475.7,41.6 478.6,40.8 481.4,40.6 484.3,39.9 487.1,39.3 490.0,39.1 492.9,39.0 495.7,38.7 498.6,38.3 501.4,38.0 504.3,37.4 507.1,37.2 510.0,37.0 512.9,36.7 515.7,36.5 518.6,36.4 521.4,35.8 524.3,35.4 527.1,35.1 530.0,34.9 532.9,34.5 535.7,34.2 538.6,34.1 541.4,33.8 544.3,33.4 547.1,32.9 550.0,32.3 552.9,32.0 555.7,31.7 558.6,31.6 561.4,31.0 564.3,30.6 567.1,30.5 570.0,30.0" />
  
  <!-- Punto finale luminoso -->
  <circle cx="570.0" cy="30.0" r="4" fill="#ffffff" stroke="#0366d6" stroke-width="2.5" />
</svg>