<svg width="600" height="150" viewBox="0 0 600 150" xmlns="http://www.w3.org/2000/svg">
  <defs>
    <filter id="shadow2" x="-2%" y="-2%" width="104%" height="108%">
      <feDropShadow dx="0" dy="2" stdDeviation="3" flood-opacity="0.1" />
    </filter>
    <linearGradient id="fillGrad" x1="0" y1="0" x2="0" y2="1">
      <stop offset="0%" stop-color="#0366d6" stop-opacity="0.3"/>
      <stop offset="100%" stop-color="#0366d6" stop-opacity="0.02"/>
    </linearGradient>
  </defs>
  <rect width="600" height="150" rx="12" fill="#ffffff" filter="url(#shadow2)" stroke="#e1e4e8" stroke-width="1"/>
  <text x="20" y="24" fill="#2b3137" font-family="-apple-system,BlinkMacSystemFont,'Segoe UI',Helvetica,Arial,sans-serif" font-size="14" font-weight="600">📈 Download Growth (Actual: 77.8k)</text>
  
  <!-- Area sotto la linea -->
  <polygon fill="url(#fillGrad)" points="30.0,120.0,120 30.0,120.0 32.8,119.1 35.6,118.1 38.4,117.2 41.2,117.0 44.1,116.5 46.9,115.4 49.7,114.7 52.5,114.2 55.3,113.1 58.1,112.6 60.9,112.0 63.8,111.7 66.6,111.2 69.4,110.5 72.2,109.7 75.0,109.1 77.8,108.7 80.6,108.4 83.4,107.9 86.2,107.3 89.1,106.8 91.9,106.5 94.7,106.1 97.5,104.3 100.3,103.8 103.1,103.1 105.9,102.4 108.8,101.8 111.6,101.3 114.4,100.9 117.2,100.6 120.0,100.1 122.8,99.3 125.6,98.5 128.4,98.0 131.2,97.5 134.1,97.3 136.9,97.1 139.7,96.8 142.5,96.3 145.3,96.0 148.1,95.7 150.9,95.1 153.8,94.1 156.6,93.9 159.4,93.7 162.2,93.4 165.0,92.6 167.8,92.1 170.6,91.4 173.4,90.8 176.2,90.1 179.1,90.0 181.9,89.6 184.7,88.9 187.5,88.2 190.3,87.7 193.1,87.4 195.9,87.1 198.8,86.8 201.6,86.0 204.4,85.3 207.2,84.6 210.0,84.0 212.8,83.6 215.6,83.4 218.4,83.2 221.2,82.6 224.1,82.3 226.9,82.0 229.7,81.7 232.5,81.5 235.3,81.1 238.1,80.9 240.9,80.7 243.8,80.5 246.6,79.8 249.4,79.4 252.2,79.3 255.0,79.0 257.8,78.9 260.6,78.9 263.4,90.6 266.2,89.5 269.1,88.5 271.9,87.4 274.7,84.2 277.5,81.9 280.3,79.5 283.1,78.6 285.9,77.6 288.8,76.0 291.6,74.2 294.4,72.9 297.2,72.4 300.0,71.9 302.8,70.6 305.6,69.7 308.4,69.1 311.2,68.3 314.1,68.0 316.9,67.9 319.7,67.2 322.5,66.1 325.3,65.3 328.1,64.5 330.9,63.6 333.8,63.2 336.6,62.9 339.4,62.1 342.2,61.5 345.0,60.8 347.8,60.3 350.6,60.0 353.4,59.9 356.2,59.5 359.1,58.9 361.9,58.5 364.7,58.1 367.5,57.7 370.3,57.4 373.1,57.0 375.9,56.7 378.8,56.5 381.6,56.2 384.4,55.6 387.2,55.1 390.0,54.6 392.8,54.2 395.6,53.9 398.4,53.6 401.2,53.4 404.1,52.9 406.9,52.0 409.7,51.2 412.5,50.7 415.3,50.2 418.1,49.6 420.9,49.3 423.8,48.9 426.6,48.2 429.4,47.8 432.2,47.4 435.0,47.1 437.8,46.9 440.6,46.3 443.4,45.9 446.2,45.8 449.1,45.5 451.9,45.2 454.7,44.7 457.5,44.3 460.3,43.8 463.1,43.4 465.9,43.0 468.8,42.5 471.6,41.8 474.4,41.6 477.2,40.9 480.0,40.3 482.8,40.2 485.6,40.0 488.4,39.7 491.2,39.3 494.1,39.0 496.9,38.5 499.7,38.3 502.5,38.0 505.3,37.7 508.1,37.5 510.9,37.4 513.8,36.9 516.6,36.5 519.4,36.2 522.2,35.9 525.0,35.6 527.8,35.3 530.6,35.2 533.4,34.9 536.2,34.5 539.1,34.0 541.9,33.4 544.7,33.1 547.5,32.8 550.3,32.7 553.1,32.1 555.9,31.7 558.8,31.7 561.6,31.1 564.4,30.7 567.2,30.4 570.0,30.0 570.0,30.0,120" />
  
  <!-- Linea principale -->
  <polyline fill="none" stroke="#0366d6" stroke-width="2.5" stroke-linecap="round" stroke-linejoin="round" points="30.0,120.0 32.8,119.1 35.6,118.1 38.4,117.2 41.2,117.0 44.1,116.5 46.9,115.4 49.7,114.7 52.5,114.2 55.3,113.1 58.1,112.6 60.9,112.0 63.8,111.7 66.6,111.2 69.4,110.5 72.2,109.7 75.0,109.1 77.8,108.7 80.6,108.4 83.4,107.9 86.2,107.3 89.1,106.8 91.9,106.5 94.7,106.1 97.5,104.3 100.3,103.8 103.1,103.1 105.9,102.4 108.8,101.8 111.6,101.3 114.4,100.9 117.2,100.6 120.0,100.1 122.8,99.3 125.6,98.5 128.4,98.0 131.2,97.5 134.1,97.3 136.9,97.1 139.7,96.8 142.5,96.3 145.3,96.0 148.1,95.7 150.9,95.1 153.8,94.1 156.6,93.9 159.4,93.7 162.2,93.4 165.0,92.6 167.8,92.1 170.6,91.4 173.4,90.8 176.2,90.1 179.1,90.0 181.9,89.6 184.7,88.9 187.5,88.2 190.3,87.7 193.1,87.4 195.9,87.1 198.8,86.8 201.6,86.0 204.4,85.3 207.2,84.6 210.0,84.0 212.8,83.6 215.6,83.4 218.4,83.2 221.2,82.6 224.1,82.3 226.9,82.0 229.7,81.7 232.5,81.5 235.3,81.1 238.1,80.9 240.9,80.7 243.8,80.5 246.6,79.8 249.4,79.4 252.2,79.3 255.0,79.0 257.8,78.9 260.6,78.9 263.4,90.6 266.2,89.5 269.1,88.5 271.9,87.4 274.7,84.2 277.5,81.9 280.3,79.5 283.1,78.6 285.9,77.6 288.8,76.0 291.6,74.2 294.4,72.9 297.2,72.4 300.0,71.9 302.8,70.6 305.6,69.7 308.4,69.1 311.2,68.3 314.1,68.0 316.9,67.9 319.7,67.2 322.5,66.1 325.3,65.3 328.1,64.5 330.9,63.6 333.8,63.2 336.6,62.9 339.4,62.1 342.2,61.5 345.0,60.8 347.8,60.3 350.6,60.0 353.4,59.9 356.2,59.5 359.1,58.9 361.9,58.5 364.7,58.1 367.5,57.7 370.3,57.4 373.1,57.0 375.9,56.7 378.8,56.5 381.6,56.2 384.4,55.6 387.2,55.1 390.0,54.6 392.8,54.2 395.6,53.9 398.4,53.6 401.2,53.4 404.1,52.9 406.9,52.0 409.7,51.2 412.5,50.7 415.3,50.2 418.1,49.6 420.9,49.3 423.8,48.9 426.6,48.2 429.4,47.8 432.2,47.4 435.0,47.1 437.8,46.9 440.6,46.3 443.4,45.9 446.2,45.8 449.1,45.5 451.9,45.2 454.7,44.7 457.5,44.3 460.3,43.8 463.1,43.4 465.9,43.0 468.8,42.5 471.6,41.8 474.4,41.6 477.2,40.9 480.0,40.3 482.8,40.2 485.6,40.0 488.4,39.7 491.2,39.3 494.1,39.0 496.9,38.5 499.7,38.3 502.5,38.0 505.3,37.7 508.1,37.5 510.9,37.4 513.8,36.9 516.6,36.5 519.4,36.2 522.2,35.9 525.0,35.6 527.8,35.3 530.6,35.2 533.4,34.9 536.2,34.5 539.1,34.0 541.9,33.4 544.7,33.1 547.5,32.8 550.3,32.7 553.1,32.1 555.9,31.7 558.8,31.7 561.6,31.1 564.4,30.7 567.2,30.4 570.0,30.0" />
  
  <!-- Punto finale luminoso -->
  <circle cx="570.0" cy="30.0" r="4" fill="#ffffff" stroke="#0366d6" stroke-width="2.5" />
</svg>