<svg width="600" height="150" viewBox="0 0 600 150" xmlns="http://www.w3.org/2000/svg">
  <defs>
    <filter id="shadow2" x="-2%" y="-2%" width="104%" height="108%">
      <feDropShadow dx="0" dy="2" stdDeviation="3" flood-opacity="0.1" />
    </filter>
    <linearGradient id="fillGrad" x1="0" y1="0" x2="0" y2="1">
      <stop offset="0%" stop-color="#0366d6" stop-opacity="0.3"/>
      <stop offset="100%" stop-color="#0366d6" stop-opacity="0.02"/>
    </linearGradient>
  </defs>
  <rect width="600" height="150" rx="12" fill="#ffffff" filter="url(#shadow2)" stroke="#e1e4e8" stroke-width="1"/>
  <text x="20" y="24" fill="#2b3137" font-family="-apple-system,BlinkMacSystemFont,'Segoe UI',Helvetica,Arial,sans-serif" font-size="14" font-weight="600">📈 Download Growth (Actual: 77.7k)</text>
  
  <!-- Area sotto la linea -->
  <polygon fill="url(#fillGrad)" points="30.0,120.0,120 30.0,120.0 32.8,119.1 35.7,118.1 38.5,117.2 41.4,116.9 44.2,116.5 47.1,115.4 49.9,114.7 52.7,114.2 55.6,113.1 58.4,112.5 61.3,112.0 64.1,111.7 66.9,111.2 69.8,110.4 72.6,109.6 75.5,109.0 78.3,108.6 81.2,108.3 84.0,107.8 86.8,107.2 89.7,106.7 92.5,106.4 95.4,105.9 98.2,104.2 101.1,103.7 103.9,103.0 106.7,102.3 109.6,101.7 112.4,101.1 115.3,100.7 118.1,100.4 120.9,99.9 123.8,99.1 126.6,98.4 129.5,97.9 132.3,97.3 135.2,97.1 138.0,97.0 140.8,96.7 143.7,96.1 146.5,95.8 149.4,95.5 152.2,94.9 155.1,93.9 157.9,93.7 160.7,93.5 163.6,93.2 166.4,92.4 169.3,91.9 172.1,91.2 174.9,90.6 177.8,89.9 180.6,89.8 183.5,89.4 186.3,88.7 189.2,87.9 192.0,87.4 194.8,87.2 197.7,86.8 200.5,86.5 203.4,85.7 206.2,85.0 209.1,84.3 211.9,83.7 214.7,83.3 217.6,83.1 220.4,82.9 223.3,82.3 226.1,82.0 228.9,81.7 231.8,81.4 234.6,81.2 237.5,80.8 240.3,80.5 243.2,80.4 246.0,80.2 248.8,79.5 251.7,79.1 254.5,79.0 257.4,78.7 260.2,78.6 263.1,78.6 265.9,90.4 268.7,89.2 271.6,88.2 274.4,87.1 277.3,83.9 280.1,81.6 282.9,79.2 285.8,78.3 288.6,77.3 291.5,75.6 294.3,73.8 297.2,72.5 300.0,72.0 302.8,71.5 305.7,70.2 308.5,69.3 311.4,68.7 314.2,67.9 317.1,67.6 319.9,67.4 322.7,66.8 325.6,65.7 328.4,64.9 331.3,64.1 334.1,63.2 336.9,62.8 339.8,62.4 342.6,61.7 345.5,61.0 348.3,60.3 351.2,59.8 354.0,59.6 356.8,59.4 359.7,59.0 362.5,58.4 365.4,58.0 368.2,57.6 371.1,57.2 373.9,56.9 376.7,56.5 379.6,56.2 382.4,56.0 385.3,55.7 388.1,55.0 390.9,54.6 393.8,54.1 396.6,53.7 399.5,53.3 402.3,53.1 405.2,52.9 408.0,52.3 410.8,51.5 413.7,50.7 416.5,50.2 419.4,49.6 422.2,49.1 425.1,48.7 427.9,48.4 430.7,47.6 433.6,47.2 436.4,46.9 439.3,46.5 442.1,46.3 444.9,45.7 447.8,45.3 450.6,45.2 453.5,44.9 456.3,44.7 459.2,44.1 462.0,43.7 464.8,43.2 467.7,42.8 470.5,42.4 473.4,41.9 476.2,41.2 479.1,41.0 481.9,40.3 484.7,39.7 487.6,39.5 490.4,39.4 493.3,39.1 496.1,38.7 498.9,38.3 501.8,37.8 504.6,37.6 507.5,37.4 510.3,37.1 513.2,36.9 516.0,36.8 518.8,36.2 521.7,35.8 524.5,35.5 527.4,35.3 530.2,34.9 533.1,34.6 535.9,34.5 538.7,34.2 541.6,33.8 544.4,33.3 547.3,32.7 550.1,32.4 552.9,32.1 555.8,32.0 558.6,31.4 561.5,31.0 564.3,31.0 567.2,30.4 570.0,30.0 570.0,30.0,120" />
  
  <!-- Linea principale -->
  <polyline fill="none" stroke="#0366d6" stroke-width="2.5" stroke-linecap="round" stroke-linejoin="round" points="30.0,120.0 32.8,119.1 35.7,118.1 38.5,117.2 41.4,116.9 44.2,116.5 47.1,115.4 49.9,114.7 52.7,114.2 55.6,113.1 58.4,112.5 61.3,112.0 64.1,111.7 66.9,111.2 69.8,110.4 72.6,109.6 75.5,109.0 78.3,108.6 81.2,108.3 84.0,107.8 86.8,107.2 89.7,106.7 92.5,106.4 95.4,105.9 98.2,104.2 101.1,103.7 103.9,103.0 106.7,102.3 109.6,101.7 112.4,101.1 115.3,100.7 118.1,100.4 120.9,99.9 123.8,99.1 126.6,98.4 129.5,97.9 132.3,97.3 135.2,97.1 138.0,97.0 140.8,96.7 143.7,96.1 146.5,95.8 149.4,95.5 152.2,94.9 155.1,93.9 157.9,93.7 160.7,93.5 163.6,93.2 166.4,92.4 169.3,91.9 172.1,91.2 174.9,90.6 177.8,89.9 180.6,89.8 183.5,89.4 186.3,88.7 189.2,87.9 192.0,87.4 194.8,87.2 197.7,86.8 200.5,86.5 203.4,85.7 206.2,85.0 209.1,84.3 211.9,83.7 214.7,83.3 217.6,83.1 220.4,82.9 223.3,82.3 226.1,82.0 228.9,81.7 231.8,81.4 234.6,81.2 237.5,80.8 240.3,80.5 243.2,80.4 246.0,80.2 248.8,79.5 251.7,79.1 254.5,79.0 257.4,78.7 260.2,78.6 263.1,78.6 265.9,90.4 268.7,89.2 271.6,88.2 274.4,87.1 277.3,83.9 280.1,81.6 282.9,79.2 285.8,78.3 288.6,77.3 291.5,75.6 294.3,73.8 297.2,72.5 300.0,72.0 302.8,71.5 305.7,70.2 308.5,69.3 311.4,68.7 314.2,67.9 317.1,67.6 319.9,67.4 322.7,66.8 325.6,65.7 328.4,64.9 331.3,64.1 334.1,63.2 336.9,62.8 339.8,62.4 342.6,61.7 345.5,61.0 348.3,60.3 351.2,59.8 354.0,59.6 356.8,59.4 359.7,59.0 362.5,58.4 365.4,58.0 368.2,57.6 371.1,57.2 373.9,56.9 376.7,56.5 379.6,56.2 382.4,56.0 385.3,55.7 388.1,55.0 390.9,54.6 393.8,54.1 396.6,53.7 399.5,53.3 402.3,53.1 405.2,52.9 408.0,52.3 410.8,51.5 413.7,50.7 416.5,50.2 419.4,49.6 422.2,49.1 425.1,48.7 427.9,48.4 430.7,47.6 433.6,47.2 436.4,46.9 439.3,46.5 442.1,46.3 444.9,45.7 447.8,45.3 450.6,45.2 453.5,44.9 456.3,44.7 459.2,44.1 462.0,43.7 464.8,43.2 467.7,42.8 470.5,42.4 473.4,41.9 476.2,41.2 479.1,41.0 481.9,40.3 484.7,39.7 487.6,39.5 490.4,39.4 493.3,39.1 496.1,38.7 498.9,38.3 501.8,37.8 504.6,37.6 507.5,37.4 510.3,37.1 513.2,36.9 516.0,36.8 518.8,36.2 521.7,35.8 524.5,35.5 527.4,35.3 530.2,34.9 533.1,34.6 535.9,34.5 538.7,34.2 541.6,33.8 544.4,33.3 547.3,32.7 550.1,32.4 552.9,32.1 555.8,32.0 558.6,31.4 561.5,31.0 564.3,31.0 567.2,30.4 570.0,30.0" />
  
  <!-- Punto finale luminoso -->
  <circle cx="570.0" cy="30.0" r="4" fill="#ffffff" stroke="#0366d6" stroke-width="2.5" />
</svg>