<svg width="600" height="150" viewBox="0 0 600 150" xmlns="http://www.w3.org/2000/svg">
  <defs>
    <filter id="shadow2" x="-2%" y="-2%" width="104%" height="108%">
      <feDropShadow dx="0" dy="2" stdDeviation="3" flood-opacity="0.1" />
    </filter>
    <linearGradient id="fillGrad" x1="0" y1="0" x2="0" y2="1">
      <stop offset="0%" stop-color="#0366d6" stop-opacity="0.3"/>
      <stop offset="100%" stop-color="#0366d6" stop-opacity="0.02"/>
    </linearGradient>
  </defs>
  <rect width="600" height="150" rx="12" fill="#ffffff" filter="url(#shadow2)" stroke="#e1e4e8" stroke-width="1"/>
  <text x="20" y="24" fill="#2b3137" font-family="-apple-system,BlinkMacSystemFont,'Segoe UI',Helvetica,Arial,sans-serif" font-size="14" font-weight="600">📈 Download Growth (Actual: 77.5k)</text>
  
  <!-- Area sotto la linea -->
  <polygon fill="url(#fillGrad)" points="30.0,120.0,120 30.0,120.0 32.9,119.0 35.9,118.0 38.8,117.1 41.7,116.9 44.7,116.4 47.6,115.3 50.5,114.6 53.5,114.1 56.4,112.9 59.3,112.4 62.3,111.8 65.2,111.5 68.2,110.9 71.1,110.2 74.0,109.4 77.0,108.7 79.9,108.3 82.8,108.0 85.8,107.5 88.7,106.9 91.6,106.4 94.6,106.1 97.5,105.6 100.4,103.8 103.4,103.3 106.3,102.6 109.2,101.9 112.2,101.2 115.1,100.6 118.0,100.3 121.0,100.0 123.9,99.5 126.8,98.6 129.8,97.8 132.7,97.3 135.7,96.7 138.6,96.6 141.5,96.4 144.5,96.1 147.4,95.5 150.3,95.2 153.3,94.9 156.2,94.3 159.1,93.3 162.1,93.1 165.0,92.9 167.9,92.5 170.9,91.8 173.8,91.2 176.7,90.5 179.7,89.9 182.6,89.2 185.5,89.0 188.5,88.6 191.4,87.9 194.3,87.2 197.3,86.6 200.2,86.4 203.2,86.0 206.1,85.7 209.0,84.9 212.0,84.1 214.9,83.5 217.8,82.8 220.8,82.5 223.7,82.3 226.6,82.0 229.6,81.4 232.5,81.1 235.4,80.7 238.4,80.5 241.3,80.2 244.2,79.8 247.2,79.6 250.1,79.4 253.0,79.2 256.0,78.5 258.9,78.1 261.8,78.0 264.8,77.7 267.7,77.6 270.7,77.6 273.6,89.7 276.5,88.5 279.5,87.4 282.4,86.3 285.3,83.0 288.3,80.7 291.2,78.2 294.1,77.3 297.1,76.2 300.0,74.5 302.9,72.7 305.9,71.3 308.8,70.8 311.7,70.3 314.7,69.0 317.6,68.0 320.5,67.4 323.5,66.6 326.4,66.3 329.3,66.2 332.3,65.5 335.2,64.3 338.2,63.5 341.1,62.7 344.0,61.8 347.0,61.4 349.9,61.0 352.8,60.3 355.8,59.6 358.7,58.9 361.6,58.4 364.6,58.1 367.5,57.9 370.4,57.5 373.4,56.9 376.3,56.5 379.2,56.1 382.2,55.7 385.1,55.3 388.0,55.0 391.0,54.7 393.9,54.4 396.8,54.1 399.8,53.5 402.7,53.0 405.7,52.5 408.6,52.1 411.5,51.7 414.5,51.5 417.4,51.2 420.3,50.7 423.3,49.8 426.2,49.0 429.1,48.5 432.1,47.9 435.0,47.4 437.9,47.0 440.9,46.6 443.8,45.9 446.7,45.4 449.7,45.1 452.6,44.7 455.5,44.5 458.5,43.9 461.4,43.5 464.3,43.4 467.3,43.1 470.2,42.8 473.2,42.3 476.1,41.9 479.0,41.3 482.0,40.9 484.9,40.5 487.8,40.0 490.8,39.3 493.7,39.1 496.6,38.4 499.6,37.7 502.5,37.6 505.4,37.4 508.4,37.1 511.3,36.7 514.2,36.4 517.2,35.8 520.1,35.6 523.0,35.4 526.0,35.1 528.9,34.9 531.8,34.7 534.8,34.2 537.7,33.8 540.7,33.5 543.6,33.2 546.5,32.9 549.5,32.5 552.4,32.4 555.3,32.2 558.3,31.8 561.2,31.2 564.1,30.6 567.1,30.3 570.0,30.0 570.0,30.0,120" />
  
  <!-- Linea principale -->
  <polyline fill="none" stroke="#0366d6" stroke-width="2.5" stroke-linecap="round" stroke-linejoin="round" points="30.0,120.0 32.9,119.0 35.9,118.0 38.8,117.1 41.7,116.9 44.7,116.4 47.6,115.3 50.5,114.6 53.5,114.1 56.4,112.9 59.3,112.4 62.3,111.8 65.2,111.5 68.2,110.9 71.1,110.2 74.0,109.4 77.0,108.7 79.9,108.3 82.8,108.0 85.8,107.5 88.7,106.9 91.6,106.4 94.6,106.1 97.5,105.6 100.4,103.8 103.4,103.3 106.3,102.6 109.2,101.9 112.2,101.2 115.1,100.6 118.0,100.3 121.0,100.0 123.9,99.5 126.8,98.6 129.8,97.8 132.7,97.3 135.7,96.7 138.6,96.6 141.5,96.4 144.5,96.1 147.4,95.5 150.3,95.2 153.3,94.9 156.2,94.3 159.1,93.3 162.1,93.1 165.0,92.9 167.9,92.5 170.9,91.8 173.8,91.2 176.7,90.5 179.7,89.9 182.6,89.2 185.5,89.0 188.5,88.6 191.4,87.9 194.3,87.2 197.3,86.6 200.2,86.4 203.2,86.0 206.1,85.7 209.0,84.9 212.0,84.1 214.9,83.5 217.8,82.8 220.8,82.5 223.7,82.3 226.6,82.0 229.6,81.4 232.5,81.1 235.4,80.7 238.4,80.5 241.3,80.2 244.2,79.8 247.2,79.6 250.1,79.4 253.0,79.2 256.0,78.5 258.9,78.1 261.8,78.0 264.8,77.7 267.7,77.6 270.7,77.6 273.6,89.7 276.5,88.5 279.5,87.4 282.4,86.3 285.3,83.0 288.3,80.7 291.2,78.2 294.1,77.3 297.1,76.2 300.0,74.5 302.9,72.7 305.9,71.3 308.8,70.8 311.7,70.3 314.7,69.0 317.6,68.0 320.5,67.4 323.5,66.6 326.4,66.3 329.3,66.2 332.3,65.5 335.2,64.3 338.2,63.5 341.1,62.7 344.0,61.8 347.0,61.4 349.9,61.0 352.8,60.3 355.8,59.6 358.7,58.9 361.6,58.4 364.6,58.1 367.5,57.9 370.4,57.5 373.4,56.9 376.3,56.5 379.2,56.1 382.2,55.7 385.1,55.3 388.0,55.0 391.0,54.7 393.9,54.4 396.8,54.1 399.8,53.5 402.7,53.0 405.7,52.5 408.6,52.1 411.5,51.7 414.5,51.5 417.4,51.2 420.3,50.7 423.3,49.8 426.2,49.0 429.1,48.5 432.1,47.9 435.0,47.4 437.9,47.0 440.9,46.6 443.8,45.9 446.7,45.4 449.7,45.1 452.6,44.7 455.5,44.5 458.5,43.9 461.4,43.5 464.3,43.4 467.3,43.1 470.2,42.8 473.2,42.3 476.1,41.9 479.0,41.3 482.0,40.9 484.9,40.5 487.8,40.0 490.8,39.3 493.7,39.1 496.6,38.4 499.6,37.7 502.5,37.6 505.4,37.4 508.4,37.1 511.3,36.7 514.2,36.4 517.2,35.8 520.1,35.6 523.0,35.4 526.0,35.1 528.9,34.9 531.8,34.7 534.8,34.2 537.7,33.8 540.7,33.5 543.6,33.2 546.5,32.9 549.5,32.5 552.4,32.4 555.3,32.2 558.3,31.8 561.2,31.2 564.1,30.6 567.1,30.3 570.0,30.0" />
  
  <!-- Punto finale luminoso -->
  <circle cx="570.0" cy="30.0" r="4" fill="#ffffff" stroke="#0366d6" stroke-width="2.5" />
</svg>