<svg width="600" height="150" viewBox="0 0 600 150" xmlns="http://www.w3.org/2000/svg">
  <defs>
    <filter id="shadow2" x="-2%" y="-2%" width="104%" height="108%">
      <feDropShadow dx="0" dy="2" stdDeviation="3" flood-opacity="0.1" />
    </filter>
    <linearGradient id="fillGrad" x1="0" y1="0" x2="0" y2="1">
      <stop offset="0%" stop-color="#0366d6" stop-opacity="0.3"/>
      <stop offset="100%" stop-color="#0366d6" stop-opacity="0.02"/>
    </linearGradient>
  </defs>
  <rect width="600" height="150" rx="12" fill="#ffffff" filter="url(#shadow2)" stroke="#e1e4e8" stroke-width="1"/>
  <text x="20" y="24" fill="#2b3137" font-family="-apple-system,BlinkMacSystemFont,'Segoe UI',Helvetica,Arial,sans-serif" font-size="14" font-weight="600">📈 Download Growth (Actual: 76.8k)</text>
  
  <!-- Area sotto la linea -->
  <polygon fill="url(#fillGrad)" points="30.0,120.0,120 30.0,120.0 33.2,119.0 36.4,117.9 39.6,116.9 42.9,116.7 46.1,116.2 49.3,115.0 52.5,114.2 55.7,113.7 58.9,112.5 62.1,111.9 65.4,111.3 68.6,110.9 71.8,110.4 75.0,109.5 78.2,108.7 81.4,108.0 84.6,107.6 87.9,107.2 91.1,106.7 94.3,106.1 97.5,105.5 100.7,105.2 103.9,104.7 107.1,102.8 110.4,102.2 113.6,101.5 116.8,100.7 120.0,100.1 123.2,99.4 126.4,99.0 129.6,98.7 132.9,98.2 136.1,97.2 139.3,96.4 142.5,95.9 145.7,95.2 148.9,95.1 152.1,94.9 155.4,94.6 158.6,94.0 161.8,93.6 165.0,93.3 168.2,92.6 171.4,91.6 174.6,91.4 177.9,91.2 181.1,90.8 184.3,90.0 187.5,89.4 190.7,88.6 193.9,88.0 197.1,87.2 200.4,87.1 203.6,86.6 206.8,85.9 210.0,85.1 213.2,84.5 216.4,84.2 219.6,83.9 222.9,83.5 226.1,82.6 229.3,81.9 232.5,81.1 235.7,80.4 238.9,80.1 242.1,79.9 245.4,79.5 248.6,79.0 251.8,78.6 255.0,78.2 258.2,78.0 261.4,77.7 264.6,77.3 267.9,77.0 271.1,76.8 274.3,76.6 277.5,75.9 280.7,75.4 283.9,75.3 287.1,75.0 290.4,74.9 293.6,74.9 296.8,87.8 300.0,86.5 303.2,85.4 306.4,84.2 309.6,80.6 312.9,78.2 316.1,75.5 319.3,74.6 322.5,73.5 325.7,71.7 328.9,69.7 332.1,68.2 335.4,67.7 338.6,67.2 341.8,65.8 345.0,64.7 348.2,64.1 351.4,63.2 354.6,62.9 357.9,62.8 361.1,62.0 364.3,60.8 367.5,59.9 370.7,59.1 373.9,58.1 377.1,57.6 380.4,57.3 383.6,56.5 386.8,55.7 390.0,55.0 393.2,54.4 396.4,54.2 399.6,54.0 402.9,53.5 406.1,52.9 409.3,52.4 412.5,52.0 415.7,51.6 418.9,51.2 422.1,50.9 425.4,50.5 428.6,50.2 431.8,49.9 435.0,49.2 438.2,48.7 441.4,48.2 444.6,47.8 447.9,47.4 451.1,47.1 454.3,46.9 457.5,46.3 460.7,45.4 463.9,44.5 467.1,43.9 470.4,43.3 473.6,42.7 476.8,42.4 480.0,42.0 483.2,41.2 486.4,40.7 489.6,40.3 492.9,39.9 496.1,39.7 499.3,39.1 502.5,38.6 505.7,38.5 508.9,38.2 512.1,37.9 515.4,37.3 518.6,36.9 521.8,36.3 525.0,35.9 528.2,35.4 531.4,35.0 534.6,34.2 537.9,33.9 541.1,33.2 544.3,32.5 547.5,32.3 550.7,32.2 553.9,31.9 557.1,31.4 560.4,31.0 563.6,30.5 566.8,30.3 570.0,30.0 570.0,30.0,120" />
  
  <!-- Linea principale -->
  <polyline fill="none" stroke="#0366d6" stroke-width="2.5" stroke-linecap="round" stroke-linejoin="round" points="30.0,120.0 33.2,119.0 36.4,117.9 39.6,116.9 42.9,116.7 46.1,116.2 49.3,115.0 52.5,114.2 55.7,113.7 58.9,112.5 62.1,111.9 65.4,111.3 68.6,110.9 71.8,110.4 75.0,109.5 78.2,108.7 81.4,108.0 84.6,107.6 87.9,107.2 91.1,106.7 94.3,106.1 97.5,105.5 100.7,105.2 103.9,104.7 107.1,102.8 110.4,102.2 113.6,101.5 116.8,100.7 120.0,100.1 123.2,99.4 126.4,99.0 129.6,98.7 132.9,98.2 136.1,97.2 139.3,96.4 142.5,95.9 145.7,95.2 148.9,95.1 152.1,94.9 155.4,94.6 158.6,94.0 161.8,93.6 165.0,93.3 168.2,92.6 171.4,91.6 174.6,91.4 177.9,91.2 181.1,90.8 184.3,90.0 187.5,89.4 190.7,88.6 193.9,88.0 197.1,87.2 200.4,87.1 203.6,86.6 206.8,85.9 210.0,85.1 213.2,84.5 216.4,84.2 219.6,83.9 222.9,83.5 226.1,82.6 229.3,81.9 232.5,81.1 235.7,80.4 238.9,80.1 242.1,79.9 245.4,79.5 248.6,79.0 251.8,78.6 255.0,78.2 258.2,78.0 261.4,77.7 264.6,77.3 267.9,77.0 271.1,76.8 274.3,76.6 277.5,75.9 280.7,75.4 283.9,75.3 287.1,75.0 290.4,74.9 293.6,74.9 296.8,87.8 300.0,86.5 303.2,85.4 306.4,84.2 309.6,80.6 312.9,78.2 316.1,75.5 319.3,74.6 322.5,73.5 325.7,71.7 328.9,69.7 332.1,68.2 335.4,67.7 338.6,67.2 341.8,65.8 345.0,64.7 348.2,64.1 351.4,63.2 354.6,62.9 357.9,62.8 361.1,62.0 364.3,60.8 367.5,59.9 370.7,59.1 373.9,58.1 377.1,57.6 380.4,57.3 383.6,56.5 386.8,55.7 390.0,55.0 393.2,54.4 396.4,54.2 399.6,54.0 402.9,53.5 406.1,52.9 409.3,52.4 412.5,52.0 415.7,51.6 418.9,51.2 422.1,50.9 425.4,50.5 428.6,50.2 431.8,49.9 435.0,49.2 438.2,48.7 441.4,48.2 444.6,47.8 447.9,47.4 451.1,47.1 454.3,46.9 457.5,46.3 460.7,45.4 463.9,44.5 467.1,43.9 470.4,43.3 473.6,42.7 476.8,42.4 480.0,42.0 483.2,41.2 486.4,40.7 489.6,40.3 492.9,39.9 496.1,39.7 499.3,39.1 502.5,38.6 505.7,38.5 508.9,38.2 512.1,37.9 515.4,37.3 518.6,36.9 521.8,36.3 525.0,35.9 528.2,35.4 531.4,35.0 534.6,34.2 537.9,33.9 541.1,33.2 544.3,32.5 547.5,32.3 550.7,32.2 553.9,31.9 557.1,31.4 560.4,31.0 563.6,30.5 566.8,30.3 570.0,30.0" />
  
  <!-- Punto finale luminoso -->
  <circle cx="570.0" cy="30.0" r="4" fill="#ffffff" stroke="#0366d6" stroke-width="2.5" />
</svg>