<svg width="600" height="150" viewBox="0 0 600 150" xmlns="http://www.w3.org/2000/svg">
  <defs>
    <filter id="shadow2" x="-2%" y="-2%" width="104%" height="108%">
      <feDropShadow dx="0" dy="2" stdDeviation="3" flood-opacity="0.1" />
    </filter>
    <linearGradient id="fillGrad" x1="0" y1="0" x2="0" y2="1">
      <stop offset="0%" stop-color="#0366d6" stop-opacity="0.3"/>
      <stop offset="100%" stop-color="#0366d6" stop-opacity="0.02"/>
    </linearGradient>
  </defs>
  <rect width="600" height="150" rx="12" fill="#ffffff" filter="url(#shadow2)" stroke="#e1e4e8" stroke-width="1"/>
  <text x="20" y="24" fill="#2b3137" font-family="-apple-system,BlinkMacSystemFont,'Segoe UI',Helvetica,Arial,sans-serif" font-size="14" font-weight="600">📈 Download Growth (Actual: 77.6k)</text>
  
  <!-- Area sotto la linea -->
  <polygon fill="url(#fillGrad)" points="30.0,120.0,120 30.0,120.0 32.9,119.1 35.8,118.0 38.7,117.1 41.6,116.9 44.4,116.4 47.3,115.4 50.2,114.6 53.1,114.1 56.0,113.0 58.9,112.4 61.8,111.9 64.7,111.6 67.5,111.0 70.4,110.3 73.3,109.5 76.2,108.9 79.1,108.4 82.0,108.2 84.9,107.6 87.8,107.1 90.6,106.5 93.5,106.3 96.4,105.8 99.3,104.0 102.2,103.5 105.1,102.8 108.0,102.1 110.9,101.5 113.7,100.9 116.6,100.5 119.5,100.2 122.4,99.7 125.3,98.8 128.2,98.1 131.1,97.6 134.0,97.0 136.8,96.8 139.7,96.7 142.6,96.4 145.5,95.8 148.4,95.5 151.3,95.2 154.2,94.6 157.1,93.6 159.9,93.4 162.8,93.2 165.7,92.9 168.6,92.1 171.5,91.6 174.4,90.8 177.3,90.3 180.2,89.6 183.0,89.4 185.9,89.0 188.8,88.3 191.7,87.6 194.6,87.0 197.5,86.8 200.4,86.4 203.3,86.1 206.1,85.3 209.0,84.6 211.9,83.9 214.8,83.3 217.7,82.9 220.6,82.7 223.5,82.4 226.4,81.9 229.3,81.5 232.1,81.2 235.0,81.0 237.9,80.7 240.8,80.3 243.7,80.1 246.6,79.9 249.5,79.7 252.4,79.0 255.2,78.6 258.1,78.5 261.0,78.2 263.9,78.1 266.8,78.1 269.7,90.1 272.6,88.9 275.5,87.8 278.3,86.7 281.2,83.5 284.1,81.2 287.0,78.7 289.9,77.8 292.8,76.8 295.7,75.1 298.6,73.3 301.4,71.9 304.3,71.4 307.2,70.9 310.1,69.6 313.0,68.7 315.9,68.1 318.8,67.3 321.7,67.0 324.5,66.8 327.4,66.1 330.3,65.0 333.2,64.2 336.1,63.4 339.0,62.5 341.9,62.1 344.8,61.8 347.6,61.0 350.5,60.3 353.4,59.6 356.3,59.1 359.2,58.9 362.1,58.7 365.0,58.3 367.9,57.7 370.7,57.3 373.6,56.8 376.5,56.5 379.4,56.1 382.3,55.8 385.2,55.5 388.1,55.2 391.0,54.9 393.9,54.3 396.7,53.8 399.6,53.3 402.5,52.9 405.4,52.6 408.3,52.3 411.2,52.1 414.1,51.6 417.0,50.7 419.8,49.9 422.7,49.4 425.6,48.8 428.5,48.3 431.4,47.9 434.3,47.5 437.2,46.8 440.1,46.4 442.9,46.0 445.8,45.6 448.7,45.4 451.6,44.9 454.5,44.4 457.4,44.3 460.3,44.1 463.2,43.8 466.0,43.2 468.9,42.8 471.8,42.3 474.7,41.9 477.6,41.5 480.5,41.0 483.4,40.3 486.3,40.1 489.1,39.4 492.0,38.7 494.9,38.6 497.8,38.4 500.7,38.1 503.6,37.7 506.5,37.4 509.4,36.9 512.2,36.7 515.1,36.4 518.0,36.1 520.9,35.9 523.8,35.8 526.7,35.2 529.6,34.9 532.5,34.6 535.3,34.3 538.2,33.9 541.1,33.6 544.0,33.5 546.9,33.2 549.8,32.8 552.7,32.3 555.6,31.7 558.4,31.4 561.3,31.1 564.2,31.0 567.1,30.4 570.0,30.0 570.0,30.0,120" />
  
  <!-- Linea principale -->
  <polyline fill="none" stroke="#0366d6" stroke-width="2.5" stroke-linecap="round" stroke-linejoin="round" points="30.0,120.0 32.9,119.1 35.8,118.0 38.7,117.1 41.6,116.9 44.4,116.4 47.3,115.4 50.2,114.6 53.1,114.1 56.0,113.0 58.9,112.4 61.8,111.9 64.7,111.6 67.5,111.0 70.4,110.3 73.3,109.5 76.2,108.9 79.1,108.4 82.0,108.2 84.9,107.6 87.8,107.1 90.6,106.5 93.5,106.3 96.4,105.8 99.3,104.0 102.2,103.5 105.1,102.8 108.0,102.1 110.9,101.5 113.7,100.9 116.6,100.5 119.5,100.2 122.4,99.7 125.3,98.8 128.2,98.1 131.1,97.6 134.0,97.0 136.8,96.8 139.7,96.7 142.6,96.4 145.5,95.8 148.4,95.5 151.3,95.2 154.2,94.6 157.1,93.6 159.9,93.4 162.8,93.2 165.7,92.9 168.6,92.1 171.5,91.6 174.4,90.8 177.3,90.3 180.2,89.6 183.0,89.4 185.9,89.0 188.8,88.3 191.7,87.6 194.6,87.0 197.5,86.8 200.4,86.4 203.3,86.1 206.1,85.3 209.0,84.6 211.9,83.9 214.8,83.3 217.7,82.9 220.6,82.7 223.5,82.4 226.4,81.9 229.3,81.5 232.1,81.2 235.0,81.0 237.9,80.7 240.8,80.3 243.7,80.1 246.6,79.9 249.5,79.7 252.4,79.0 255.2,78.6 258.1,78.5 261.0,78.2 263.9,78.1 266.8,78.1 269.7,90.1 272.6,88.9 275.5,87.8 278.3,86.7 281.2,83.5 284.1,81.2 287.0,78.7 289.9,77.8 292.8,76.8 295.7,75.1 298.6,73.3 301.4,71.9 304.3,71.4 307.2,70.9 310.1,69.6 313.0,68.7 315.9,68.1 318.8,67.3 321.7,67.0 324.5,66.8 327.4,66.1 330.3,65.0 333.2,64.2 336.1,63.4 339.0,62.5 341.9,62.1 344.8,61.8 347.6,61.0 350.5,60.3 353.4,59.6 356.3,59.1 359.2,58.9 362.1,58.7 365.0,58.3 367.9,57.7 370.7,57.3 373.6,56.8 376.5,56.5 379.4,56.1 382.3,55.8 385.2,55.5 388.1,55.2 391.0,54.9 393.9,54.3 396.7,53.8 399.6,53.3 402.5,52.9 405.4,52.6 408.3,52.3 411.2,52.1 414.1,51.6 417.0,50.7 419.8,49.9 422.7,49.4 425.6,48.8 428.5,48.3 431.4,47.9 434.3,47.5 437.2,46.8 440.1,46.4 442.9,46.0 445.8,45.6 448.7,45.4 451.6,44.9 454.5,44.4 457.4,44.3 460.3,44.1 463.2,43.8 466.0,43.2 468.9,42.8 471.8,42.3 474.7,41.9 477.6,41.5 480.5,41.0 483.4,40.3 486.3,40.1 489.1,39.4 492.0,38.7 494.9,38.6 497.8,38.4 500.7,38.1 503.6,37.7 506.5,37.4 509.4,36.9 512.2,36.7 515.1,36.4 518.0,36.1 520.9,35.9 523.8,35.8 526.7,35.2 529.6,34.9 532.5,34.6 535.3,34.3 538.2,33.9 541.1,33.6 544.0,33.5 546.9,33.2 549.8,32.8 552.7,32.3 555.6,31.7 558.4,31.4 561.3,31.1 564.2,31.0 567.1,30.4 570.0,30.0" />
  
  <!-- Punto finale luminoso -->
  <circle cx="570.0" cy="30.0" r="4" fill="#ffffff" stroke="#0366d6" stroke-width="2.5" />
</svg>