<svg width="600" height="150" viewBox="0 0 600 150" xmlns="http://www.w3.org/2000/svg">
  <defs>
    <filter id="shadow2" x="-2%" y="-2%" width="104%" height="108%">
      <feDropShadow dx="0" dy="2" stdDeviation="3" flood-opacity="0.1" />
    </filter>
    <linearGradient id="fillGrad" x1="0" y1="0" x2="0" y2="1">
      <stop offset="0%" stop-color="#0366d6" stop-opacity="0.3"/>
      <stop offset="100%" stop-color="#0366d6" stop-opacity="0.02"/>
    </linearGradient>
  </defs>
  <rect width="600" height="150" rx="12" fill="#ffffff" filter="url(#shadow2)" stroke="#e1e4e8" stroke-width="1"/>
  <text x="20" y="24" fill="#2b3137" font-family="-apple-system,BlinkMacSystemFont,'Segoe UI',Helvetica,Arial,sans-serif" font-size="14" font-weight="600">📈 Download Growth (Actual: 75.6k)</text>
  
  <!-- Area sotto la linea -->
  <polygon fill="url(#fillGrad)" points="30.0,120.0,120 30.0,120.0 33.8,118.9 37.6,117.6 41.4,116.5 45.2,116.2 49.0,115.7 52.8,114.3 56.6,113.4 60.4,112.8 64.2,111.5 68.0,110.8 71.8,110.1 75.6,109.7 79.4,109.1 83.2,108.1 87.0,107.2 90.8,106.4 94.6,105.9 98.5,105.5 102.3,104.9 106.1,104.2 109.9,103.5 113.7,103.2 117.5,102.6 121.3,100.5 125.1,99.8 128.9,99.0 132.7,98.1 136.5,97.4 140.3,96.6 144.1,96.2 147.9,95.8 151.7,95.2 155.5,94.2 159.3,93.3 163.1,92.6 166.9,91.9 170.7,91.7 174.5,91.5 178.3,91.1 182.1,90.5 185.9,90.0 189.7,89.7 193.5,89.0 197.3,87.8 201.1,87.5 204.9,87.3 208.7,86.8 212.5,85.9 216.3,85.3 220.1,84.3 223.9,83.7 227.7,82.8 231.5,82.6 235.4,82.1 239.2,81.3 243.0,80.4 246.8,79.7 250.6,79.4 254.4,79.0 258.2,78.6 262.0,77.6 265.8,76.7 269.6,75.9 273.4,75.1 277.2,74.7 281.0,74.4 284.8,74.1 288.6,73.4 292.4,73.0 296.2,72.6 300.0,72.3 303.8,72.0 307.6,71.5 311.4,71.2 315.2,71.0 319.0,70.8 322.8,69.9 326.6,69.4 330.4,69.3 334.2,69.0 338.0,68.8 341.8,68.8 345.6,83.4 349.4,82.0 353.2,80.7 357.0,79.3 360.8,75.3 364.6,72.5 368.5,69.6 372.3,68.4 376.1,67.2 379.9,65.1 383.7,62.9 387.5,61.3 391.3,60.6 395.1,60.1 398.9,58.5 402.7,57.3 406.5,56.5 410.3,55.6 414.1,55.2 417.9,55.0 421.7,54.2 425.5,52.8 429.3,51.8 433.1,50.9 436.9,49.8 440.7,49.2 444.5,48.8 448.3,47.9 452.1,47.1 455.9,46.2 459.7,45.6 463.5,45.3 467.3,45.1 471.1,44.6 474.9,43.9 478.7,43.3 482.5,42.8 486.3,42.4 490.1,42.0 493.9,41.6 497.7,41.2 501.5,40.8 505.4,40.5 509.2,39.7 513.0,39.1 516.8,38.5 520.6,38.0 524.4,37.6 528.2,37.3 532.0,37.0 535.8,36.4 539.6,35.3 543.4,34.3 547.2,33.7 551.0,33.0 554.8,32.3 558.6,31.9 562.4,31.4 566.2,30.6 570.0,30.0 570.0,30.0,120" />
  
  <!-- Linea principale -->
  <polyline fill="none" stroke="#0366d6" stroke-width="2.5" stroke-linecap="round" stroke-linejoin="round" points="30.0,120.0 33.8,118.9 37.6,117.6 41.4,116.5 45.2,116.2 49.0,115.7 52.8,114.3 56.6,113.4 60.4,112.8 64.2,111.5 68.0,110.8 71.8,110.1 75.6,109.7 79.4,109.1 83.2,108.1 87.0,107.2 90.8,106.4 94.6,105.9 98.5,105.5 102.3,104.9 106.1,104.2 109.9,103.5 113.7,103.2 117.5,102.6 121.3,100.5 125.1,99.8 128.9,99.0 132.7,98.1 136.5,97.4 140.3,96.6 144.1,96.2 147.9,95.8 151.7,95.2 155.5,94.2 159.3,93.3 163.1,92.6 166.9,91.9 170.7,91.7 174.5,91.5 178.3,91.1 182.1,90.5 185.9,90.0 189.7,89.7 193.5,89.0 197.3,87.8 201.1,87.5 204.9,87.3 208.7,86.8 212.5,85.9 216.3,85.3 220.1,84.3 223.9,83.7 227.7,82.8 231.5,82.6 235.4,82.1 239.2,81.3 243.0,80.4 246.8,79.7 250.6,79.4 254.4,79.0 258.2,78.6 262.0,77.6 265.8,76.7 269.6,75.9 273.4,75.1 277.2,74.7 281.0,74.4 284.8,74.1 288.6,73.4 292.4,73.0 296.2,72.6 300.0,72.3 303.8,72.0 307.6,71.5 311.4,71.2 315.2,71.0 319.0,70.8 322.8,69.9 326.6,69.4 330.4,69.3 334.2,69.0 338.0,68.8 341.8,68.8 345.6,83.4 349.4,82.0 353.2,80.7 357.0,79.3 360.8,75.3 364.6,72.5 368.5,69.6 372.3,68.4 376.1,67.2 379.9,65.1 383.7,62.9 387.5,61.3 391.3,60.6 395.1,60.1 398.9,58.5 402.7,57.3 406.5,56.5 410.3,55.6 414.1,55.2 417.9,55.0 421.7,54.2 425.5,52.8 429.3,51.8 433.1,50.9 436.9,49.8 440.7,49.2 444.5,48.8 448.3,47.9 452.1,47.1 455.9,46.2 459.7,45.6 463.5,45.3 467.3,45.1 471.1,44.6 474.9,43.9 478.7,43.3 482.5,42.8 486.3,42.4 490.1,42.0 493.9,41.6 497.7,41.2 501.5,40.8 505.4,40.5 509.2,39.7 513.0,39.1 516.8,38.5 520.6,38.0 524.4,37.6 528.2,37.3 532.0,37.0 535.8,36.4 539.6,35.3 543.4,34.3 547.2,33.7 551.0,33.0 554.8,32.3 558.6,31.9 562.4,31.4 566.2,30.6 570.0,30.0" />
  
  <!-- Punto finale luminoso -->
  <circle cx="570.0" cy="30.0" r="4" fill="#ffffff" stroke="#0366d6" stroke-width="2.5" />
</svg>