<svg width="600" height="150" viewBox="0 0 600 150" xmlns="http://www.w3.org/2000/svg">
  <defs>
    <filter id="shadow2" x="-2%" y="-2%" width="104%" height="108%">
      <feDropShadow dx="0" dy="2" stdDeviation="3" flood-opacity="0.1" />
    </filter>
    <linearGradient id="fillGrad" x1="0" y1="0" x2="0" y2="1">
      <stop offset="0%" stop-color="#0366d6" stop-opacity="0.3"/>
      <stop offset="100%" stop-color="#0366d6" stop-opacity="0.02"/>
    </linearGradient>
  </defs>
  <rect width="600" height="150" rx="12" fill="#ffffff" filter="url(#shadow2)" stroke="#e1e4e8" stroke-width="1"/>
  <text x="20" y="24" fill="#2b3137" font-family="-apple-system,BlinkMacSystemFont,'Segoe UI',Helvetica,Arial,sans-serif" font-size="14" font-weight="600">📈 Download Growth (Actual: 77.5k)</text>
  
  <!-- Area sotto la linea -->
  <polygon fill="url(#fillGrad)" points="30.0,120.0,120 30.0,120.0 32.9,119.0 35.8,118.0 38.8,117.1 41.7,116.9 44.6,116.4 47.5,115.3 50.4,114.6 53.4,114.1 56.3,112.9 59.2,112.4 62.1,111.8 65.0,111.5 67.9,110.9 70.9,110.2 73.8,109.4 76.7,108.7 79.6,108.3 82.5,108.0 85.5,107.5 88.4,106.9 91.3,106.4 94.2,106.1 97.1,105.6 100.1,103.8 103.0,103.3 105.9,102.6 108.8,101.9 111.7,101.3 114.6,100.7 117.6,100.3 120.5,100.0 123.4,99.5 126.3,98.6 129.2,97.9 132.2,97.4 135.1,96.8 138.0,96.6 140.9,96.4 143.8,96.1 146.8,95.5 149.7,95.2 152.6,95.0 155.5,94.3 158.4,93.3 161.4,93.1 164.3,92.9 167.2,92.6 170.1,91.8 173.0,91.3 175.9,90.5 178.9,89.9 181.8,89.2 184.7,89.1 187.6,88.7 190.5,87.9 193.5,87.2 196.4,86.7 199.3,86.4 202.2,86.1 205.1,85.7 208.1,84.9 211.0,84.2 213.9,83.5 216.8,82.8 219.7,82.5 222.6,82.3 225.6,82.0 228.5,81.5 231.4,81.1 234.3,80.8 237.2,80.5 240.2,80.3 243.1,79.9 246.0,79.6 248.9,79.5 251.8,79.3 254.8,78.6 257.7,78.1 260.6,78.0 263.5,77.8 266.4,77.6 269.4,77.6 272.3,89.7 275.2,88.5 278.1,87.5 281.0,86.3 283.9,83.0 286.9,80.7 289.8,78.3 292.7,77.3 295.6,76.3 298.5,74.6 301.5,72.8 304.4,71.4 307.3,70.9 310.2,70.4 313.1,69.1 316.1,68.1 319.0,67.5 321.9,66.7 324.8,66.4 327.7,66.2 330.6,65.5 333.6,64.4 336.5,63.6 339.4,62.8 342.3,61.9 345.2,61.4 348.2,61.1 351.1,60.3 354.0,59.6 356.9,59.0 359.8,58.4 362.8,58.2 365.7,58.0 368.6,57.6 371.5,57.0 374.4,56.6 377.4,56.1 380.3,55.8 383.2,55.4 386.1,55.1 389.0,54.8 391.9,54.5 394.9,54.2 397.8,53.6 400.7,53.1 403.6,52.5 406.5,52.2 409.5,51.8 412.4,51.6 415.3,51.3 418.2,50.8 421.1,49.9 424.1,49.1 427.0,48.6 429.9,48.0 432.8,47.5 435.7,47.1 438.6,46.7 441.6,46.0 444.5,45.5 447.4,45.2 450.3,44.8 453.2,44.6 456.2,44.0 459.1,43.6 462.0,43.5 464.9,43.2 467.8,42.9 470.8,42.4 473.7,42.0 476.6,41.4 479.5,41.0 482.4,40.6 485.4,40.1 488.3,39.4 491.2,39.2 494.1,38.5 497.0,37.8 499.9,37.7 502.9,37.5 505.8,37.2 508.7,36.8 511.6,36.5 514.5,35.9 517.5,35.8 520.4,35.5 523.3,35.2 526.2,35.0 529.1,34.9 532.1,34.3 535.0,33.9 537.9,33.6 540.8,33.3 543.7,33.0 546.6,32.6 549.6,32.5 552.5,32.3 555.4,31.9 558.3,31.3 561.2,30.7 564.2,30.4 567.1,30.1 570.0,30.0 570.0,30.0,120" />
  
  <!-- Linea principale -->
  <polyline fill="none" stroke="#0366d6" stroke-width="2.5" stroke-linecap="round" stroke-linejoin="round" points="30.0,120.0 32.9,119.0 35.8,118.0 38.8,117.1 41.7,116.9 44.6,116.4 47.5,115.3 50.4,114.6 53.4,114.1 56.3,112.9 59.2,112.4 62.1,111.8 65.0,111.5 67.9,110.9 70.9,110.2 73.8,109.4 76.7,108.7 79.6,108.3 82.5,108.0 85.5,107.5 88.4,106.9 91.3,106.4 94.2,106.1 97.1,105.6 100.1,103.8 103.0,103.3 105.9,102.6 108.8,101.9 111.7,101.3 114.6,100.7 117.6,100.3 120.5,100.0 123.4,99.5 126.3,98.6 129.2,97.9 132.2,97.4 135.1,96.8 138.0,96.6 140.9,96.4 143.8,96.1 146.8,95.5 149.7,95.2 152.6,95.0 155.5,94.3 158.4,93.3 161.4,93.1 164.3,92.9 167.2,92.6 170.1,91.8 173.0,91.3 175.9,90.5 178.9,89.9 181.8,89.2 184.7,89.1 187.6,88.7 190.5,87.9 193.5,87.2 196.4,86.7 199.3,86.4 202.2,86.1 205.1,85.7 208.1,84.9 211.0,84.2 213.9,83.5 216.8,82.8 219.7,82.5 222.6,82.3 225.6,82.0 228.5,81.5 231.4,81.1 234.3,80.8 237.2,80.5 240.2,80.3 243.1,79.9 246.0,79.6 248.9,79.5 251.8,79.3 254.8,78.6 257.7,78.1 260.6,78.0 263.5,77.8 266.4,77.6 269.4,77.6 272.3,89.7 275.2,88.5 278.1,87.5 281.0,86.3 283.9,83.0 286.9,80.7 289.8,78.3 292.7,77.3 295.6,76.3 298.5,74.6 301.5,72.8 304.4,71.4 307.3,70.9 310.2,70.4 313.1,69.1 316.1,68.1 319.0,67.5 321.9,66.7 324.8,66.4 327.7,66.2 330.6,65.5 333.6,64.4 336.5,63.6 339.4,62.8 342.3,61.9 345.2,61.4 348.2,61.1 351.1,60.3 354.0,59.6 356.9,59.0 359.8,58.4 362.8,58.2 365.7,58.0 368.6,57.6 371.5,57.0 374.4,56.6 377.4,56.1 380.3,55.8 383.2,55.4 386.1,55.1 389.0,54.8 391.9,54.5 394.9,54.2 397.8,53.6 400.7,53.1 403.6,52.5 406.5,52.2 409.5,51.8 412.4,51.6 415.3,51.3 418.2,50.8 421.1,49.9 424.1,49.1 427.0,48.6 429.9,48.0 432.8,47.5 435.7,47.1 438.6,46.7 441.6,46.0 444.5,45.5 447.4,45.2 450.3,44.8 453.2,44.6 456.2,44.0 459.1,43.6 462.0,43.5 464.9,43.2 467.8,42.9 470.8,42.4 473.7,42.0 476.6,41.4 479.5,41.0 482.4,40.6 485.4,40.1 488.3,39.4 491.2,39.2 494.1,38.5 497.0,37.8 499.9,37.7 502.9,37.5 505.8,37.2 508.7,36.8 511.6,36.5 514.5,35.9 517.5,35.8 520.4,35.5 523.3,35.2 526.2,35.0 529.1,34.9 532.1,34.3 535.0,33.9 537.9,33.6 540.8,33.3 543.7,33.0 546.6,32.6 549.6,32.5 552.5,32.3 555.4,31.9 558.3,31.3 561.2,30.7 564.2,30.4 567.1,30.1 570.0,30.0" />
  
  <!-- Punto finale luminoso -->
  <circle cx="570.0" cy="30.0" r="4" fill="#ffffff" stroke="#0366d6" stroke-width="2.5" />
</svg>