<svg width="600" height="150" viewBox="0 0 600 150" xmlns="http://www.w3.org/2000/svg">
  <defs>
    <filter id="shadow2" x="-2%" y="-2%" width="104%" height="108%">
      <feDropShadow dx="0" dy="2" stdDeviation="3" flood-opacity="0.1" />
    </filter>
    <linearGradient id="fillGrad" x1="0" y1="0" x2="0" y2="1">
      <stop offset="0%" stop-color="#0366d6" stop-opacity="0.3"/>
      <stop offset="100%" stop-color="#0366d6" stop-opacity="0.02"/>
    </linearGradient>
  </defs>
  <rect width="600" height="150" rx="12" fill="#ffffff" filter="url(#shadow2)" stroke="#e1e4e8" stroke-width="1"/>
  <text x="20" y="24" fill="#2b3137" font-family="-apple-system,BlinkMacSystemFont,'Segoe UI',Helvetica,Arial,sans-serif" font-size="14" font-weight="600">📈 Download Growth (Actual: 76.2k)</text>
  
  <!-- Area sotto la linea -->
  <polygon fill="url(#fillGrad)" points="30.0,120.0,120 30.0,120.0 33.5,118.9 37.0,117.7 40.5,116.7 43.9,116.5 47.4,115.9 50.9,114.7 54.4,113.8 57.9,113.3 61.4,112.0 64.8,111.3 68.3,110.7 71.8,110.3 75.3,109.7 78.8,108.9 82.3,107.9 85.7,107.2 89.2,106.8 92.7,106.4 96.2,105.8 99.7,105.2 103.2,104.6 106.6,104.3 110.1,103.7 113.6,101.7 117.1,101.1 120.6,100.3 124.1,99.5 127.5,98.8 131.0,98.1 134.5,97.6 138.0,97.3 141.5,96.7 145.0,95.8 148.5,94.9 151.9,94.3 155.4,93.6 158.9,93.5 162.4,93.3 165.9,92.9 169.4,92.3 172.8,91.9 176.3,91.6 179.8,90.9 183.3,89.8 186.8,89.5 190.3,89.3 193.7,88.9 197.2,88.0 200.7,87.4 204.2,86.6 207.7,85.9 211.2,85.1 214.6,84.9 218.1,84.5 221.6,83.7 225.1,82.8 228.6,82.2 232.1,81.9 235.5,81.5 239.0,81.2 242.5,80.2 246.0,79.4 249.5,78.6 253.0,77.9 256.5,77.5 259.9,77.3 263.4,76.9 266.9,76.3 270.4,75.9 273.9,75.6 277.4,75.3 280.8,75.0 284.3,74.5 287.8,74.2 291.3,74.1 294.8,73.8 298.3,73.0 301.7,72.6 305.2,72.4 308.7,72.1 312.2,72.0 315.7,72.0 319.2,85.7 322.6,84.3 326.1,83.1 329.6,81.8 333.1,78.1 336.6,75.5 340.1,72.7 343.5,71.6 347.0,70.5 350.5,68.5 354.0,66.4 357.5,64.9 361.0,64.3 364.5,63.8 367.9,62.3 371.4,61.2 374.9,60.5 378.4,59.6 381.9,59.2 385.4,59.1 388.8,58.3 392.3,57.0 395.8,56.1 399.3,55.1 402.8,54.1 406.3,53.6 409.7,53.3 413.2,52.4 416.7,51.6 420.2,50.8 423.7,50.2 427.2,49.9 430.6,49.7 434.1,49.3 437.6,48.6 441.1,48.1 444.6,47.6 448.1,47.2 451.5,46.8 455.0,46.4 458.5,46.1 462.0,45.7 465.5,45.4 469.0,44.7 472.5,44.1 475.9,43.5 479.4,43.1 482.9,42.7 486.4,42.4 489.9,42.2 493.4,41.5 496.8,40.6 500.3,39.6 503.8,39.0 507.3,38.4 510.8,37.8 514.3,37.4 517.7,36.9 521.2,36.1 524.7,35.6 528.2,35.2 531.7,34.8 535.2,34.5 538.6,33.9 542.1,33.4 545.6,33.2 549.1,33.0 552.6,32.6 556.1,32.0 559.5,31.5 563.0,31.0 566.5,30.5 570.0,30.0 570.0,30.0,120" />
  
  <!-- Linea principale -->
  <polyline fill="none" stroke="#0366d6" stroke-width="2.5" stroke-linecap="round" stroke-linejoin="round" points="30.0,120.0 33.5,118.9 37.0,117.7 40.5,116.7 43.9,116.5 47.4,115.9 50.9,114.7 54.4,113.8 57.9,113.3 61.4,112.0 64.8,111.3 68.3,110.7 71.8,110.3 75.3,109.7 78.8,108.9 82.3,107.9 85.7,107.2 89.2,106.8 92.7,106.4 96.2,105.8 99.7,105.2 103.2,104.6 106.6,104.3 110.1,103.7 113.6,101.7 117.1,101.1 120.6,100.3 124.1,99.5 127.5,98.8 131.0,98.1 134.5,97.6 138.0,97.3 141.5,96.7 145.0,95.8 148.5,94.9 151.9,94.3 155.4,93.6 158.9,93.5 162.4,93.3 165.9,92.9 169.4,92.3 172.8,91.9 176.3,91.6 179.8,90.9 183.3,89.8 186.8,89.5 190.3,89.3 193.7,88.9 197.2,88.0 200.7,87.4 204.2,86.6 207.7,85.9 211.2,85.1 214.6,84.9 218.1,84.5 221.6,83.7 225.1,82.8 228.6,82.2 232.1,81.9 235.5,81.5 239.0,81.2 242.5,80.2 246.0,79.4 249.5,78.6 253.0,77.9 256.5,77.5 259.9,77.3 263.4,76.9 266.9,76.3 270.4,75.9 273.9,75.6 277.4,75.3 280.8,75.0 284.3,74.5 287.8,74.2 291.3,74.1 294.8,73.8 298.3,73.0 301.7,72.6 305.2,72.4 308.7,72.1 312.2,72.0 315.7,72.0 319.2,85.7 322.6,84.3 326.1,83.1 329.6,81.8 333.1,78.1 336.6,75.5 340.1,72.7 343.5,71.6 347.0,70.5 350.5,68.5 354.0,66.4 357.5,64.9 361.0,64.3 364.5,63.8 367.9,62.3 371.4,61.2 374.9,60.5 378.4,59.6 381.9,59.2 385.4,59.1 388.8,58.3 392.3,57.0 395.8,56.1 399.3,55.1 402.8,54.1 406.3,53.6 409.7,53.3 413.2,52.4 416.7,51.6 420.2,50.8 423.7,50.2 427.2,49.9 430.6,49.7 434.1,49.3 437.6,48.6 441.1,48.1 444.6,47.6 448.1,47.2 451.5,46.8 455.0,46.4 458.5,46.1 462.0,45.7 465.5,45.4 469.0,44.7 472.5,44.1 475.9,43.5 479.4,43.1 482.9,42.7 486.4,42.4 489.9,42.2 493.4,41.5 496.8,40.6 500.3,39.6 503.8,39.0 507.3,38.4 510.8,37.8 514.3,37.4 517.7,36.9 521.2,36.1 524.7,35.6 528.2,35.2 531.7,34.8 535.2,34.5 538.6,33.9 542.1,33.4 545.6,33.2 549.1,33.0 552.6,32.6 556.1,32.0 559.5,31.5 563.0,31.0 566.5,30.5 570.0,30.0" />
  
  <!-- Punto finale luminoso -->
  <circle cx="570.0" cy="30.0" r="4" fill="#ffffff" stroke="#0366d6" stroke-width="2.5" />
</svg>