<svg width="600" height="150" viewBox="0 0 600 150" xmlns="http://www.w3.org/2000/svg">
  <defs>
    <filter id="shadow2" x="-2%" y="-2%" width="104%" height="108%">
      <feDropShadow dx="0" dy="2" stdDeviation="3" flood-opacity="0.1" />
    </filter>
    <linearGradient id="fillGrad" x1="0" y1="0" x2="0" y2="1">
      <stop offset="0%" stop-color="#0366d6" stop-opacity="0.3"/>
      <stop offset="100%" stop-color="#0366d6" stop-opacity="0.02"/>
    </linearGradient>
  </defs>
  <rect width="600" height="150" rx="12" fill="#ffffff" filter="url(#shadow2)" stroke="#e1e4e8" stroke-width="1"/>
  <text x="20" y="24" fill="#2b3137" font-family="-apple-system,BlinkMacSystemFont,'Segoe UI',Helvetica,Arial,sans-serif" font-size="14" font-weight="600">📈 Download Growth (Actual: 77.1k)</text>
  
  <!-- Area sotto la linea -->
  <polygon fill="url(#fillGrad)" points="30.0,120.0,120 30.0,120.0 33.1,119.0 36.2,117.9 39.3,117.0 42.3,116.8 45.4,116.3 48.5,115.1 51.6,114.4 54.7,113.8 57.8,112.7 60.9,112.1 63.9,111.5 67.0,111.1 70.1,110.6 73.2,109.8 76.3,109.0 79.4,108.3 82.5,107.9 85.5,107.6 88.6,107.0 91.7,106.4 94.8,105.9 97.9,105.6 101.0,105.1 104.1,103.2 107.1,102.7 110.2,101.9 113.3,101.2 116.4,100.5 119.5,99.9 122.6,99.5 125.7,99.2 128.7,98.7 131.8,97.8 134.9,97.0 138.0,96.5 141.1,95.9 144.2,95.7 147.3,95.5 150.3,95.2 153.4,94.6 156.5,94.3 159.6,94.0 162.7,93.3 165.8,92.3 168.9,92.1 171.9,91.9 175.0,91.5 178.1,90.7 181.2,90.2 184.3,89.4 187.4,88.8 190.5,88.0 193.5,87.9 196.6,87.4 199.7,86.7 202.8,85.9 205.9,85.4 209.0,85.1 212.1,84.7 215.1,84.4 218.2,83.6 221.3,82.8 224.4,82.1 227.5,81.4 230.6,81.1 233.7,80.9 236.7,80.6 239.8,80.0 242.9,79.6 246.0,79.3 249.1,79.0 252.2,78.8 255.3,78.3 258.3,78.1 261.4,77.9 264.5,77.7 267.6,77.0 270.7,76.5 273.8,76.4 276.9,76.1 279.9,76.0 283.0,76.0 286.1,88.6 289.2,87.3 292.3,86.2 295.4,85.0 298.5,81.6 301.5,79.2 304.6,76.6 307.7,75.7 310.8,74.6 313.9,72.9 317.0,70.9 320.1,69.5 323.1,69.0 326.2,68.5 329.3,67.1 332.4,66.1 335.5,65.5 338.6,64.6 341.7,64.3 344.7,64.2 347.8,63.4 350.9,62.3 354.0,61.4 357.1,60.6 360.2,59.6 363.3,59.2 366.3,58.8 369.4,58.0 372.5,57.3 375.6,56.6 378.7,56.1 381.8,55.8 384.9,55.6 387.9,55.2 391.0,54.6 394.1,54.1 397.2,53.7 400.3,53.3 403.4,52.9 406.5,52.6 409.5,52.2 412.6,52.0 415.7,51.6 418.8,51.0 421.9,50.5 425.0,49.9 428.1,49.6 431.1,49.2 434.2,48.9 437.3,48.7 440.4,48.1 443.5,47.2 446.6,46.4 449.7,45.8 452.7,45.2 455.8,44.7 458.9,44.3 462.0,43.9 465.1,43.1 468.2,42.7 471.3,42.3 474.3,41.9 477.4,41.7 480.5,41.1 483.6,40.6 486.7,40.5 489.8,40.3 492.9,40.0 495.9,39.4 499.0,39.0 502.1,38.4 505.2,38.0 508.3,37.5 511.4,37.1 514.5,36.3 517.5,36.0 520.6,35.3 523.7,34.7 526.8,34.5 529.9,34.3 533.0,34.0 536.1,33.6 539.1,33.3 542.2,32.7 545.3,32.5 548.4,32.2 551.5,31.9 554.6,31.7 557.7,31.6 560.7,31.0 563.8,30.6 566.9,30.3 570.0,30.0 570.0,30.0,120" />
  
  <!-- Linea principale -->
  <polyline fill="none" stroke="#0366d6" stroke-width="2.5" stroke-linecap="round" stroke-linejoin="round" points="30.0,120.0 33.1,119.0 36.2,117.9 39.3,117.0 42.3,116.8 45.4,116.3 48.5,115.1 51.6,114.4 54.7,113.8 57.8,112.7 60.9,112.1 63.9,111.5 67.0,111.1 70.1,110.6 73.2,109.8 76.3,109.0 79.4,108.3 82.5,107.9 85.5,107.6 88.6,107.0 91.7,106.4 94.8,105.9 97.9,105.6 101.0,105.1 104.1,103.2 107.1,102.7 110.2,101.9 113.3,101.2 116.4,100.5 119.5,99.9 122.6,99.5 125.7,99.2 128.7,98.7 131.8,97.8 134.9,97.0 138.0,96.5 141.1,95.9 144.2,95.7 147.3,95.5 150.3,95.2 153.4,94.6 156.5,94.3 159.6,94.0 162.7,93.3 165.8,92.3 168.9,92.1 171.9,91.9 175.0,91.5 178.1,90.7 181.2,90.2 184.3,89.4 187.4,88.8 190.5,88.0 193.5,87.9 196.6,87.4 199.7,86.7 202.8,85.9 205.9,85.4 209.0,85.1 212.1,84.7 215.1,84.4 218.2,83.6 221.3,82.8 224.4,82.1 227.5,81.4 230.6,81.1 233.7,80.9 236.7,80.6 239.8,80.0 242.9,79.6 246.0,79.3 249.1,79.0 252.2,78.8 255.3,78.3 258.3,78.1 261.4,77.9 264.5,77.7 267.6,77.0 270.7,76.5 273.8,76.4 276.9,76.1 279.9,76.0 283.0,76.0 286.1,88.6 289.2,87.3 292.3,86.2 295.4,85.0 298.5,81.6 301.5,79.2 304.6,76.6 307.7,75.7 310.8,74.6 313.9,72.9 317.0,70.9 320.1,69.5 323.1,69.0 326.2,68.5 329.3,67.1 332.4,66.1 335.5,65.5 338.6,64.6 341.7,64.3 344.7,64.2 347.8,63.4 350.9,62.3 354.0,61.4 357.1,60.6 360.2,59.6 363.3,59.2 366.3,58.8 369.4,58.0 372.5,57.3 375.6,56.6 378.7,56.1 381.8,55.8 384.9,55.6 387.9,55.2 391.0,54.6 394.1,54.1 397.2,53.7 400.3,53.3 403.4,52.9 406.5,52.6 409.5,52.2 412.6,52.0 415.7,51.6 418.8,51.0 421.9,50.5 425.0,49.9 428.1,49.6 431.1,49.2 434.2,48.9 437.3,48.7 440.4,48.1 443.5,47.2 446.6,46.4 449.7,45.8 452.7,45.2 455.8,44.7 458.9,44.3 462.0,43.9 465.1,43.1 468.2,42.7 471.3,42.3 474.3,41.9 477.4,41.7 480.5,41.1 483.6,40.6 486.7,40.5 489.8,40.3 492.9,40.0 495.9,39.4 499.0,39.0 502.1,38.4 505.2,38.0 508.3,37.5 511.4,37.1 514.5,36.3 517.5,36.0 520.6,35.3 523.7,34.7 526.8,34.5 529.9,34.3 533.0,34.0 536.1,33.6 539.1,33.3 542.2,32.7 545.3,32.5 548.4,32.2 551.5,31.9 554.6,31.7 557.7,31.6 560.7,31.0 563.8,30.6 566.9,30.3 570.0,30.0" />
  
  <!-- Punto finale luminoso -->
  <circle cx="570.0" cy="30.0" r="4" fill="#ffffff" stroke="#0366d6" stroke-width="2.5" />
</svg>