<svg width="600" height="150" viewBox="0 0 600 150" xmlns="http://www.w3.org/2000/svg">
  <defs>
    <filter id="shadow2" x="-2%" y="-2%" width="104%" height="108%">
      <feDropShadow dx="0" dy="2" stdDeviation="3" flood-opacity="0.1" />
    </filter>
    <linearGradient id="fillGrad" x1="0" y1="0" x2="0" y2="1">
      <stop offset="0%" stop-color="#0366d6" stop-opacity="0.3"/>
      <stop offset="100%" stop-color="#0366d6" stop-opacity="0.02"/>
    </linearGradient>
  </defs>
  <rect width="600" height="150" rx="12" fill="#ffffff" filter="url(#shadow2)" stroke="#e1e4e8" stroke-width="1"/>
  <text x="20" y="24" fill="#2b3137" font-family="-apple-system,BlinkMacSystemFont,'Segoe UI',Helvetica,Arial,sans-serif" font-size="14" font-weight="600">📈 Download Growth (Actual: 76.5k)</text>
  
  <!-- Area sotto la linea -->
  <polygon fill="url(#fillGrad)" points="30.0,120.0,120 30.0,120.0 33.4,119.0 36.8,117.8 40.2,116.8 43.6,116.6 47.0,116.0 50.4,114.8 53.8,114.0 57.2,113.5 60.6,112.2 64.0,111.6 67.4,110.9 70.8,110.6 74.2,110.0 77.5,109.2 80.9,108.3 84.3,107.6 87.7,107.1 91.1,106.8 94.5,106.2 97.9,105.5 101.3,105.0 104.7,104.7 108.1,104.1 111.5,102.1 114.9,101.6 118.3,100.8 121.7,100.0 125.1,99.3 128.5,98.7 131.9,98.2 135.3,97.9 138.7,97.3 142.1,96.4 145.5,95.6 148.9,95.0 152.3,94.3 155.7,94.1 159.1,94.0 162.5,93.6 165.8,93.0 169.2,92.6 172.6,92.4 176.0,91.6 179.4,90.6 182.8,90.3 186.2,90.1 189.6,89.7 193.0,88.9 196.4,88.3 199.8,87.4 203.2,86.8 206.6,86.0 210.0,85.9 213.4,85.4 216.8,84.6 220.2,83.8 223.6,83.2 227.0,82.9 230.4,82.5 233.8,82.2 237.2,81.3 240.6,80.4 244.0,79.7 247.4,79.0 250.8,78.6 254.2,78.4 257.5,78.1 260.9,77.5 264.3,77.1 267.7,76.7 271.1,76.4 274.5,76.1 277.9,75.7 281.3,75.4 284.7,75.2 288.1,75.0 291.5,74.2 294.9,73.8 298.3,73.6 301.7,73.4 305.1,73.2 308.5,73.2 311.9,86.6 315.3,85.3 318.7,84.1 322.1,82.8 325.5,79.2 328.9,76.6 332.3,73.9 335.7,72.9 339.1,71.7 342.5,69.9 345.8,67.8 349.2,66.3 352.6,65.8 356.0,65.2 359.4,63.8 362.8,62.7 366.2,62.0 369.6,61.1 373.0,60.8 376.4,60.6 379.8,59.9 383.2,58.6 386.6,57.7 390.0,56.8 393.4,55.8 396.8,55.3 400.2,55.0 403.6,54.1 407.0,53.3 410.4,52.6 413.8,52.0 417.2,51.7 420.6,51.6 424.0,51.1 427.4,50.4 430.8,50.0 434.2,49.5 437.5,49.1 440.9,48.7 444.3,48.3 447.7,48.0 451.1,47.7 454.5,47.3 457.9,46.6 461.3,46.1 464.7,45.5 468.1,45.1 471.5,44.7 474.9,44.4 478.3,44.2 481.7,43.6 485.1,42.6 488.5,41.7 491.9,41.1 495.3,40.5 498.7,39.9 502.1,39.5 505.5,39.1 508.9,38.3 512.3,37.8 515.7,37.4 519.1,37.0 522.5,36.7 525.8,36.1 529.2,35.6 532.6,35.5 536.0,35.2 539.4,34.9 542.8,34.3 546.2,33.8 549.6,33.3 553.0,32.8 556.4,32.3 559.8,31.8 563.2,31.0 566.6,30.7 570.0,30.0 570.0,30.0,120" />
  
  <!-- Linea principale -->
  <polyline fill="none" stroke="#0366d6" stroke-width="2.5" stroke-linecap="round" stroke-linejoin="round" points="30.0,120.0 33.4,119.0 36.8,117.8 40.2,116.8 43.6,116.6 47.0,116.0 50.4,114.8 53.8,114.0 57.2,113.5 60.6,112.2 64.0,111.6 67.4,110.9 70.8,110.6 74.2,110.0 77.5,109.2 80.9,108.3 84.3,107.6 87.7,107.1 91.1,106.8 94.5,106.2 97.9,105.5 101.3,105.0 104.7,104.7 108.1,104.1 111.5,102.1 114.9,101.6 118.3,100.8 121.7,100.0 125.1,99.3 128.5,98.7 131.9,98.2 135.3,97.9 138.7,97.3 142.1,96.4 145.5,95.6 148.9,95.0 152.3,94.3 155.7,94.1 159.1,94.0 162.5,93.6 165.8,93.0 169.2,92.6 172.6,92.4 176.0,91.6 179.4,90.6 182.8,90.3 186.2,90.1 189.6,89.7 193.0,88.9 196.4,88.3 199.8,87.4 203.2,86.8 206.6,86.0 210.0,85.9 213.4,85.4 216.8,84.6 220.2,83.8 223.6,83.2 227.0,82.9 230.4,82.5 233.8,82.2 237.2,81.3 240.6,80.4 244.0,79.7 247.4,79.0 250.8,78.6 254.2,78.4 257.5,78.1 260.9,77.5 264.3,77.1 267.7,76.7 271.1,76.4 274.5,76.1 277.9,75.7 281.3,75.4 284.7,75.2 288.1,75.0 291.5,74.2 294.9,73.8 298.3,73.6 301.7,73.4 305.1,73.2 308.5,73.2 311.9,86.6 315.3,85.3 318.7,84.1 322.1,82.8 325.5,79.2 328.9,76.6 332.3,73.9 335.7,72.9 339.1,71.7 342.5,69.9 345.8,67.8 349.2,66.3 352.6,65.8 356.0,65.2 359.4,63.8 362.8,62.7 366.2,62.0 369.6,61.1 373.0,60.8 376.4,60.6 379.8,59.9 383.2,58.6 386.6,57.7 390.0,56.8 393.4,55.8 396.8,55.3 400.2,55.0 403.6,54.1 407.0,53.3 410.4,52.6 413.8,52.0 417.2,51.7 420.6,51.6 424.0,51.1 427.4,50.4 430.8,50.0 434.2,49.5 437.5,49.1 440.9,48.7 444.3,48.3 447.7,48.0 451.1,47.7 454.5,47.3 457.9,46.6 461.3,46.1 464.7,45.5 468.1,45.1 471.5,44.7 474.9,44.4 478.3,44.2 481.7,43.6 485.1,42.6 488.5,41.7 491.9,41.1 495.3,40.5 498.7,39.9 502.1,39.5 505.5,39.1 508.9,38.3 512.3,37.8 515.7,37.4 519.1,37.0 522.5,36.7 525.8,36.1 529.2,35.6 532.6,35.5 536.0,35.2 539.4,34.9 542.8,34.3 546.2,33.8 549.6,33.3 553.0,32.8 556.4,32.3 559.8,31.8 563.2,31.0 566.6,30.7 570.0,30.0" />
  
  <!-- Punto finale luminoso -->
  <circle cx="570.0" cy="30.0" r="4" fill="#ffffff" stroke="#0366d6" stroke-width="2.5" />
</svg>