<svg width="600" height="150" viewBox="0 0 600 150" xmlns="http://www.w3.org/2000/svg">
  <defs>
    <filter id="shadow2" x="-2%" y="-2%" width="104%" height="108%">
      <feDropShadow dx="0" dy="2" stdDeviation="3" flood-opacity="0.1" />
    </filter>
    <linearGradient id="fillGrad" x1="0" y1="0" x2="0" y2="1">
      <stop offset="0%" stop-color="#0366d6" stop-opacity="0.3"/>
      <stop offset="100%" stop-color="#0366d6" stop-opacity="0.02"/>
    </linearGradient>
  </defs>
  <rect width="600" height="150" rx="12" fill="#ffffff" filter="url(#shadow2)" stroke="#e1e4e8" stroke-width="1"/>
  <text x="20" y="24" fill="#2b3137" font-family="-apple-system,BlinkMacSystemFont,'Segoe UI',Helvetica,Arial,sans-serif" font-size="14" font-weight="600">📈 Download Growth (Actual: 78.0k)</text>
  
  <!-- Area sotto la linea -->
  <polygon fill="url(#fillGrad)" points="30.0,120.0,120 30.0,120.0 32.7,119.1 35.5,118.1 38.2,117.3 41.0,117.0 43.7,116.6 46.4,115.5 49.2,114.8 51.9,114.3 54.7,113.3 57.4,112.7 60.2,112.2 62.9,111.9 65.6,111.4 68.4,110.6 71.1,109.9 73.9,109.3 76.6,108.9 79.3,108.6 82.1,108.1 84.8,107.5 87.6,107.0 90.3,106.8 93.0,106.3 95.8,104.6 98.5,104.1 101.3,103.4 104.0,102.7 106.8,102.1 109.5,101.6 112.2,101.2 115.0,100.9 117.7,100.4 120.5,99.6 123.2,98.9 125.9,98.4 128.7,97.8 131.4,97.7 134.2,97.5 136.9,97.2 139.6,96.7 142.4,96.4 145.1,96.1 147.9,95.5 150.6,94.6 153.4,94.4 156.1,94.2 158.8,93.8 161.6,93.1 164.3,92.6 167.1,91.9 169.8,91.3 172.5,90.7 175.3,90.5 178.0,90.1 180.8,89.4 183.5,88.7 186.2,88.2 189.0,88.0 191.7,87.6 194.5,87.3 197.2,86.6 199.9,85.9 202.7,85.2 205.4,84.6 208.2,84.3 210.9,84.1 213.7,83.8 216.4,83.3 219.1,82.9 221.9,82.6 224.6,82.4 227.4,82.1 230.1,81.8 232.8,81.5 235.6,81.4 238.3,81.2 241.1,80.5 243.8,80.1 246.5,80.0 249.3,79.7 252.0,79.6 254.8,79.6 257.5,91.1 260.3,90.0 263.0,89.0 265.7,87.9 268.5,84.8 271.2,82.6 274.0,80.2 276.7,79.3 279.4,78.3 282.2,76.7 284.9,75.0 287.7,73.7 290.4,73.2 293.1,72.7 295.9,71.5 298.6,70.5 301.4,69.9 304.1,69.2 306.9,68.9 309.6,68.8 312.3,68.1 315.1,67.0 317.8,66.2 320.6,65.5 323.3,64.6 326.0,64.2 328.8,63.9 331.5,63.1 334.3,62.5 337.0,61.8 339.7,61.3 342.5,61.1 345.2,60.9 348.0,60.5 350.7,60.0 353.5,59.5 356.2,59.1 358.9,58.8 361.7,58.4 364.4,58.1 367.2,57.8 369.9,57.6 372.6,57.3 375.4,56.7 378.1,56.2 380.9,55.7 383.6,55.3 386.3,55.0 389.1,54.8 391.8,54.5 394.6,54.0 397.3,53.2 400.1,52.4 402.8,51.9 405.5,51.4 408.3,50.9 411.0,50.5 413.8,50.2 416.5,49.5 419.2,49.0 422.0,48.7 424.7,48.3 427.5,48.1 430.2,47.6 432.9,47.2 435.7,47.0 438.4,46.8 441.2,46.5 443.9,46.0 446.6,45.6 449.4,45.1 452.1,44.7 454.9,44.3 457.6,43.9 460.4,43.2 463.1,42.9 465.8,42.3 468.6,41.7 471.3,41.5 474.1,41.4 476.8,41.1 479.5,40.7 482.3,40.4 485.0,39.9 487.8,39.7 490.5,39.4 493.2,39.2 496.0,38.9 498.7,38.8 501.5,38.3 504.2,37.9 507.0,37.7 509.7,37.4 512.4,37.0 515.2,36.7 517.9,36.6 520.7,36.4 523.4,36.0 526.1,35.5 528.9,34.9 531.6,34.6 534.4,34.3 537.1,34.2 539.8,33.6 542.6,33.3 545.3,33.2 548.1,32.7 550.8,32.2 553.6,31.9 556.3,31.6 559.0,31.2 561.8,31.0 564.5,30.6 567.3,30.2 570.0,30.0 570.0,30.0,120" />
  
  <!-- Linea principale -->
  <polyline fill="none" stroke="#0366d6" stroke-width="2.5" stroke-linecap="round" stroke-linejoin="round" points="30.0,120.0 32.7,119.1 35.5,118.1 38.2,117.3 41.0,117.0 43.7,116.6 46.4,115.5 49.2,114.8 51.9,114.3 54.7,113.3 57.4,112.7 60.2,112.2 62.9,111.9 65.6,111.4 68.4,110.6 71.1,109.9 73.9,109.3 76.6,108.9 79.3,108.6 82.1,108.1 84.8,107.5 87.6,107.0 90.3,106.8 93.0,106.3 95.8,104.6 98.5,104.1 101.3,103.4 104.0,102.7 106.8,102.1 109.5,101.6 112.2,101.2 115.0,100.9 117.7,100.4 120.5,99.6 123.2,98.9 125.9,98.4 128.7,97.8 131.4,97.7 134.2,97.5 136.9,97.2 139.6,96.7 142.4,96.4 145.1,96.1 147.9,95.5 150.6,94.6 153.4,94.4 156.1,94.2 158.8,93.8 161.6,93.1 164.3,92.6 167.1,91.9 169.8,91.3 172.5,90.7 175.3,90.5 178.0,90.1 180.8,89.4 183.5,88.7 186.2,88.2 189.0,88.0 191.7,87.6 194.5,87.3 197.2,86.6 199.9,85.9 202.7,85.2 205.4,84.6 208.2,84.3 210.9,84.1 213.7,83.8 216.4,83.3 219.1,82.9 221.9,82.6 224.6,82.4 227.4,82.1 230.1,81.8 232.8,81.5 235.6,81.4 238.3,81.2 241.1,80.5 243.8,80.1 246.5,80.0 249.3,79.7 252.0,79.6 254.8,79.6 257.5,91.1 260.3,90.0 263.0,89.0 265.7,87.9 268.5,84.8 271.2,82.6 274.0,80.2 276.7,79.3 279.4,78.3 282.2,76.7 284.9,75.0 287.7,73.7 290.4,73.2 293.1,72.7 295.9,71.5 298.6,70.5 301.4,69.9 304.1,69.2 306.9,68.9 309.6,68.8 312.3,68.1 315.1,67.0 317.8,66.2 320.6,65.5 323.3,64.6 326.0,64.2 328.8,63.9 331.5,63.1 334.3,62.5 337.0,61.8 339.7,61.3 342.5,61.1 345.2,60.9 348.0,60.5 350.7,60.0 353.5,59.5 356.2,59.1 358.9,58.8 361.7,58.4 364.4,58.1 367.2,57.8 369.9,57.6 372.6,57.3 375.4,56.7 378.1,56.2 380.9,55.7 383.6,55.3 386.3,55.0 389.1,54.8 391.8,54.5 394.6,54.0 397.3,53.2 400.1,52.4 402.8,51.9 405.5,51.4 408.3,50.9 411.0,50.5 413.8,50.2 416.5,49.5 419.2,49.0 422.0,48.7 424.7,48.3 427.5,48.1 430.2,47.6 432.9,47.2 435.7,47.0 438.4,46.8 441.2,46.5 443.9,46.0 446.6,45.6 449.4,45.1 452.1,44.7 454.9,44.3 457.6,43.9 460.4,43.2 463.1,42.9 465.8,42.3 468.6,41.7 471.3,41.5 474.1,41.4 476.8,41.1 479.5,40.7 482.3,40.4 485.0,39.9 487.8,39.7 490.5,39.4 493.2,39.2 496.0,38.9 498.7,38.8 501.5,38.3 504.2,37.9 507.0,37.7 509.7,37.4 512.4,37.0 515.2,36.7 517.9,36.6 520.7,36.4 523.4,36.0 526.1,35.5 528.9,34.9 531.6,34.6 534.4,34.3 537.1,34.2 539.8,33.6 542.6,33.3 545.3,33.2 548.1,32.7 550.8,32.2 553.6,31.9 556.3,31.6 559.0,31.2 561.8,31.0 564.5,30.6 567.3,30.2 570.0,30.0" />
  
  <!-- Punto finale luminoso -->
  <circle cx="570.0" cy="30.0" r="4" fill="#ffffff" stroke="#0366d6" stroke-width="2.5" />
</svg>