<svg width="600" height="150" viewBox="0 0 600 150" xmlns="http://www.w3.org/2000/svg">
  <defs>
    <filter id="shadow2" x="-2%" y="-2%" width="104%" height="108%">
      <feDropShadow dx="0" dy="2" stdDeviation="3" flood-opacity="0.1" />
    </filter>
    <linearGradient id="fillGrad" x1="0" y1="0" x2="0" y2="1">
      <stop offset="0%" stop-color="#0366d6" stop-opacity="0.3"/>
      <stop offset="100%" stop-color="#0366d6" stop-opacity="0.02"/>
    </linearGradient>
  </defs>
  <rect width="600" height="150" rx="12" fill="#ffffff" filter="url(#shadow2)" stroke="#e1e4e8" stroke-width="1"/>
  <text x="20" y="24" fill="#2b3137" font-family="-apple-system,BlinkMacSystemFont,'Segoe UI',Helvetica,Arial,sans-serif" font-size="14" font-weight="600">📈 Download Growth (Actual: 75.9k)</text>
  
  <!-- Area sotto la linea -->
  <polygon fill="url(#fillGrad)" points="30.0,120.0,120 30.0,120.0 33.6,118.9 37.3,117.7 40.9,116.6 44.6,116.3 48.2,115.8 51.9,114.5 55.5,113.6 59.2,113.0 62.8,111.7 66.5,111.0 70.1,110.4 73.8,110.0 77.4,109.4 81.1,108.5 84.7,107.5 88.4,106.8 92.0,106.3 95.7,105.9 99.3,105.3 103.0,104.6 106.6,104.0 110.3,103.7 113.9,103.1 117.6,101.0 121.2,100.4 124.9,99.5 128.5,98.7 132.2,98.0 135.8,97.3 139.5,96.8 143.1,96.5 146.8,95.9 150.4,94.9 154.1,94.0 157.7,93.4 161.4,92.7 165.0,92.5 168.6,92.3 172.3,91.9 175.9,91.3 179.6,90.9 183.2,90.6 186.9,89.8 190.5,88.7 194.2,88.4 197.8,88.2 201.5,87.7 205.1,86.8 208.8,86.2 212.4,85.3 216.1,84.6 219.7,83.8 223.4,83.6 227.0,83.1 230.7,82.3 234.3,81.4 238.0,80.8 241.6,80.5 245.3,80.1 248.9,79.7 252.6,78.8 256.2,77.9 259.9,77.1 263.5,76.3 267.2,75.9 270.8,75.7 274.5,75.3 278.1,74.7 281.8,74.3 285.4,73.9 289.1,73.6 292.7,73.3 296.4,72.8 300.0,72.5 303.6,72.3 307.3,72.1 310.9,71.3 314.6,70.8 318.2,70.6 321.9,70.3 325.5,70.2 329.2,70.2 332.8,84.4 336.5,83.0 340.1,81.8 343.8,80.4 347.4,76.5 351.1,73.8 354.7,70.9 358.4,69.8 362.0,68.6 365.7,66.6 369.3,64.4 373.0,62.8 376.6,62.3 380.3,61.7 383.9,60.1 387.6,59.0 391.2,58.3 394.9,57.3 398.5,57.0 402.2,56.8 405.8,56.0 409.5,54.6 413.1,53.7 416.8,52.7 420.4,51.7 424.1,51.1 427.7,50.8 431.4,49.9 435.0,49.0 438.6,48.2 442.3,47.6 445.9,47.3 449.6,47.1 453.2,46.6 456.9,45.9 460.5,45.4 464.2,44.9 467.8,44.5 471.5,44.1 475.1,43.7 478.8,43.3 482.4,43.0 486.1,42.6 489.7,41.9 493.4,41.3 497.0,40.7 500.7,40.2 504.3,39.8 508.0,39.5 511.6,39.3 515.3,38.6 518.9,37.6 522.6,36.6 526.2,36.0 529.9,35.3 533.5,34.7 537.2,34.3 540.8,33.8 544.5,33.0 548.1,32.4 551.8,32.0 555.4,31.6 559.1,31.3 562.7,30.7 566.4,30.1 570.0,30.0 570.0,30.0,120" />
  
  <!-- Linea principale -->
  <polyline fill="none" stroke="#0366d6" stroke-width="2.5" stroke-linecap="round" stroke-linejoin="round" points="30.0,120.0 33.6,118.9 37.3,117.7 40.9,116.6 44.6,116.3 48.2,115.8 51.9,114.5 55.5,113.6 59.2,113.0 62.8,111.7 66.5,111.0 70.1,110.4 73.8,110.0 77.4,109.4 81.1,108.5 84.7,107.5 88.4,106.8 92.0,106.3 95.7,105.9 99.3,105.3 103.0,104.6 106.6,104.0 110.3,103.7 113.9,103.1 117.6,101.0 121.2,100.4 124.9,99.5 128.5,98.7 132.2,98.0 135.8,97.3 139.5,96.8 143.1,96.5 146.8,95.9 150.4,94.9 154.1,94.0 157.7,93.4 161.4,92.7 165.0,92.5 168.6,92.3 172.3,91.9 175.9,91.3 179.6,90.9 183.2,90.6 186.9,89.8 190.5,88.7 194.2,88.4 197.8,88.2 201.5,87.7 205.1,86.8 208.8,86.2 212.4,85.3 216.1,84.6 219.7,83.8 223.4,83.6 227.0,83.1 230.7,82.3 234.3,81.4 238.0,80.8 241.6,80.5 245.3,80.1 248.9,79.7 252.6,78.8 256.2,77.9 259.9,77.1 263.5,76.3 267.2,75.9 270.8,75.7 274.5,75.3 278.1,74.7 281.8,74.3 285.4,73.9 289.1,73.6 292.7,73.3 296.4,72.8 300.0,72.5 303.6,72.3 307.3,72.1 310.9,71.3 314.6,70.8 318.2,70.6 321.9,70.3 325.5,70.2 329.2,70.2 332.8,84.4 336.5,83.0 340.1,81.8 343.8,80.4 347.4,76.5 351.1,73.8 354.7,70.9 358.4,69.8 362.0,68.6 365.7,66.6 369.3,64.4 373.0,62.8 376.6,62.3 380.3,61.7 383.9,60.1 387.6,59.0 391.2,58.3 394.9,57.3 398.5,57.0 402.2,56.8 405.8,56.0 409.5,54.6 413.1,53.7 416.8,52.7 420.4,51.7 424.1,51.1 427.7,50.8 431.4,49.9 435.0,49.0 438.6,48.2 442.3,47.6 445.9,47.3 449.6,47.1 453.2,46.6 456.9,45.9 460.5,45.4 464.2,44.9 467.8,44.5 471.5,44.1 475.1,43.7 478.8,43.3 482.4,43.0 486.1,42.6 489.7,41.9 493.4,41.3 497.0,40.7 500.7,40.2 504.3,39.8 508.0,39.5 511.6,39.3 515.3,38.6 518.9,37.6 522.6,36.6 526.2,36.0 529.9,35.3 533.5,34.7 537.2,34.3 540.8,33.8 544.5,33.0 548.1,32.4 551.8,32.0 555.4,31.6 559.1,31.3 562.7,30.7 566.4,30.1 570.0,30.0" />
  
  <!-- Punto finale luminoso -->
  <circle cx="570.0" cy="30.0" r="4" fill="#ffffff" stroke="#0366d6" stroke-width="2.5" />
</svg>