<svg width="600" height="150" viewBox="0 0 600 150" xmlns="http://www.w3.org/2000/svg">
  <defs>
    <filter id="shadow2" x="-2%" y="-2%" width="104%" height="108%">
      <feDropShadow dx="0" dy="2" stdDeviation="3" flood-opacity="0.1" />
    </filter>
    <linearGradient id="fillGrad" x1="0" y1="0" x2="0" y2="1">
      <stop offset="0%" stop-color="#0366d6" stop-opacity="0.3"/>
      <stop offset="100%" stop-color="#0366d6" stop-opacity="0.02"/>
    </linearGradient>
  </defs>
  <rect width="600" height="150" rx="12" fill="#ffffff" filter="url(#shadow2)" stroke="#e1e4e8" stroke-width="1"/>
  <text x="20" y="24" fill="#2b3137" font-family="-apple-system,BlinkMacSystemFont,'Segoe UI',Helvetica,Arial,sans-serif" font-size="14" font-weight="600">📈 Download Growth (Actual: 85.6k)</text>
  
  <!-- Area sotto la linea -->
  <polygon fill="url(#fillGrad)" points="30.0,120.0,120 30.0,120.0 31.5,119.5 33.0,118.9 34.6,118.4 36.1,118.2 37.6,118.0 39.1,117.3 40.6,116.9 42.1,116.6 43.7,116.0 45.2,115.7 46.7,115.4 48.2,115.2 49.7,114.9 51.2,114.5 52.8,114.0 54.3,113.6 55.8,113.4 57.3,113.2 58.8,112.9 60.3,112.6 61.9,112.3 63.4,112.2 64.9,111.9 66.4,110.9 67.9,110.6 69.4,110.2 71.0,109.8 72.5,109.4 74.0,109.1 75.5,108.9 77.0,108.7 78.5,108.4 80.1,107.9 81.6,107.5 83.1,107.2 84.6,106.9 86.1,106.8 87.6,106.7 89.2,106.5 90.7,106.2 92.2,106.0 93.7,105.8 95.2,105.5 96.7,104.9 98.3,104.8 99.8,104.7 101.3,104.5 102.8,104.1 104.3,103.8 105.8,103.3 107.4,103.0 108.9,102.6 110.4,102.5 111.9,102.3 113.4,101.9 114.9,101.5 116.5,101.2 118.0,101.0 119.5,100.8 121.0,100.6 122.5,100.2 124.0,99.8 125.6,99.4 127.1,99.0 128.6,98.8 130.1,98.7 131.6,98.5 133.1,98.2 134.7,98.0 136.2,97.8 137.7,97.7 139.2,97.6 140.7,97.3 142.2,97.2 143.8,97.1 145.3,97.0 146.8,96.6 148.3,96.3 149.8,96.3 151.3,96.1 152.9,96.0 154.4,96.0 155.9,102.9 157.4,102.2 158.9,101.6 160.4,101.0 162.0,99.1 163.5,97.8 165.0,96.4 166.5,95.9 168.0,95.3 169.6,94.3 171.1,93.3 172.6,92.5 174.1,92.2 175.6,92.0 177.1,91.2 178.7,90.7 180.2,90.3 181.7,89.9 183.2,89.7 184.7,89.6 186.2,89.2 187.8,88.6 189.3,88.1 190.8,87.7 192.3,87.1 193.8,86.9 195.3,86.7 196.9,86.3 198.4,85.9 199.9,85.5 201.4,85.2 202.9,85.1 204.4,85.0 206.0,84.7 207.5,84.4 209.0,84.1 210.5,83.9 212.0,83.7 213.5,83.5 215.1,83.3 216.6,83.1 218.1,83.0 219.6,82.8 221.1,82.4 222.6,82.2 224.2,81.9 225.7,81.7 227.2,81.5 228.7,81.4 230.2,81.2 231.7,81.0 233.3,80.5 234.8,80.2 236.3,79.8 237.8,79.6 239.3,79.6 240.8,79.4 242.4,79.2 243.9,78.9 245.4,78.7 246.9,78.4 248.4,78.2 249.9,78.1 251.5,77.9 253.0,77.8 254.5,77.6 256.0,77.4 257.5,77.3 259.0,77.0 260.6,76.8 262.1,76.7 263.6,76.6 265.1,76.5 266.6,76.3 268.1,76.0 269.7,75.8 271.2,75.6 272.7,75.4 274.2,75.2 275.7,75.1 277.2,75.0 278.8,74.7 280.3,74.4 281.8,74.2 283.3,74.0 284.8,73.6 286.3,73.5 287.9,73.4 289.4,73.3 290.9,73.1 292.4,72.9 293.9,72.7 295.4,72.6 297.0,72.4 298.5,72.2 300.0,72.1 301.5,72.0 303.0,71.9 304.6,71.7 306.1,71.4 307.6,71.3 309.1,71.1 310.6,71.0 312.1,70.8 313.7,70.7 315.2,70.6 316.7,70.4 318.2,70.3 319.7,70.0 321.2,69.6 322.8,69.4 324.3,69.3 325.8,69.2 327.3,69.1 328.8,68.9 330.3,68.7 331.9,68.5 333.4,68.4 334.9,68.2 336.4,68.1 337.9,67.9 339.4,67.8 341.0,67.6 342.5,67.4 344.0,67.2 345.5,67.0 347.0,66.8 348.5,66.7 350.1,66.6 351.6,66.6 353.1,66.4 354.6,66.2 356.1,66.1 357.6,65.9 359.2,65.7 360.7,65.6 362.2,65.5 363.7,65.3 365.2,65.2 366.7,65.0 368.3,64.8 369.8,64.6 371.3,64.4 372.8,64.3 374.3,64.2 375.8,64.1 377.4,64.0 378.9,63.9 380.4,63.8 381.9,63.5 383.4,63.4 384.9,63.2 386.5,63.1 388.0,63.0 389.5,62.8 391.0,62.6 392.5,62.5 394.0,62.4 395.6,62.2 397.1,62.1 398.6,61.9 400.1,61.7 401.6,61.7 403.1,61.6 404.7,61.5 406.2,61.3 407.7,61.2 409.2,61.1 410.7,61.0 412.2,60.9 413.8,60.6 415.3,60.3 416.8,64.8 418.3,63.9 419.8,62.3 421.3,61.6 422.9,60.8 424.4,59.9 425.9,59.3 427.4,59.0 428.9,58.3 430.4,57.4 432.0,56.6 433.5,56.4 435.0,56.0 436.5,55.7 438.0,55.2 439.6,54.8 441.1,54.2 442.6,54.0 444.1,53.5 445.6,53.2 447.1,52.9 448.7,52.7 450.2,52.4 451.7,52.2 453.2,51.7 454.7,51.3 456.2,50.9 457.8,50.3 459.3,49.9 460.8,49.7 462.3,49.5 463.8,49.3 465.3,48.9 466.9,48.5 468.4,48.2 469.9,47.3 471.4,46.6 472.9,46.3 474.4,46.1 476.0,45.8 477.5,45.3 479.0,44.9 480.5,44.6 482.0,44.3 483.5,44.0 485.1,43.7 486.6,43.4 488.1,43.0 489.6,42.7 491.1,42.5 492.6,42.3 494.2,41.9 495.7,41.7 497.2,41.4 498.7,41.3 500.2,41.1 501.7,40.8 503.3,40.7 504.8,40.5 506.3,40.3 507.8,40.1 509.3,39.9 510.8,39.6 512.4,39.4 513.9,39.1 515.4,38.7 516.9,38.4 518.4,38.3 519.9,38.1 521.5,37.9 523.0,37.7 524.5,37.5 526.0,37.4 527.5,37.2 529.0,37.1 530.6,36.9 532.1,36.8 533.6,36.4 535.1,36.3 536.6,36.1 538.1,35.9 539.7,35.6 541.2,35.2 542.7,35.0 544.2,34.4 545.7,34.2 547.2,34.0 548.8,33.7 550.3,33.6 551.8,33.5 553.3,33.3 554.8,33.0 556.3,32.7 557.9,32.3 559.4,31.8 560.9,31.6 562.4,31.4 563.9,31.0 565.4,30.7 567.0,30.5 568.5,30.1 570.0,30.0 570.0,30.0,120" />
  
  <!-- Linea principale -->
  <polyline fill="none" stroke="#0366d6" stroke-width="2.5" stroke-linecap="round" stroke-linejoin="round" points="30.0,120.0 31.5,119.5 33.0,118.9 34.6,118.4 36.1,118.2 37.6,118.0 39.1,117.3 40.6,116.9 42.1,116.6 43.7,116.0 45.2,115.7 46.7,115.4 48.2,115.2 49.7,114.9 51.2,114.5 52.8,114.0 54.3,113.6 55.8,113.4 57.3,113.2 58.8,112.9 60.3,112.6 61.9,112.3 63.4,112.2 64.9,111.9 66.4,110.9 67.9,110.6 69.4,110.2 71.0,109.8 72.5,109.4 74.0,109.1 75.5,108.9 77.0,108.7 78.5,108.4 80.1,107.9 81.6,107.5 83.1,107.2 84.6,106.9 86.1,106.8 87.6,106.7 89.2,106.5 90.7,106.2 92.2,106.0 93.7,105.8 95.2,105.5 96.7,104.9 98.3,104.8 99.8,104.7 101.3,104.5 102.8,104.1 104.3,103.8 105.8,103.3 107.4,103.0 108.9,102.6 110.4,102.5 111.9,102.3 113.4,101.9 114.9,101.5 116.5,101.2 118.0,101.0 119.5,100.8 121.0,100.6 122.5,100.2 124.0,99.8 125.6,99.4 127.1,99.0 128.6,98.8 130.1,98.7 131.6,98.5 133.1,98.2 134.7,98.0 136.2,97.8 137.7,97.7 139.2,97.6 140.7,97.3 142.2,97.2 143.8,97.1 145.3,97.0 146.8,96.6 148.3,96.3 149.8,96.3 151.3,96.1 152.9,96.0 154.4,96.0 155.9,102.9 157.4,102.2 158.9,101.6 160.4,101.0 162.0,99.1 163.5,97.8 165.0,96.4 166.5,95.9 168.0,95.3 169.6,94.3 171.1,93.3 172.6,92.5 174.1,92.2 175.6,92.0 177.1,91.2 178.7,90.7 180.2,90.3 181.7,89.9 183.2,89.7 184.7,89.6 186.2,89.2 187.8,88.6 189.3,88.1 190.8,87.7 192.3,87.1 193.8,86.9 195.3,86.7 196.9,86.3 198.4,85.9 199.9,85.5 201.4,85.2 202.9,85.1 204.4,85.0 206.0,84.7 207.5,84.4 209.0,84.1 210.5,83.9 212.0,83.7 213.5,83.5 215.1,83.3 216.6,83.1 218.1,83.0 219.6,82.8 221.1,82.4 222.6,82.2 224.2,81.9 225.7,81.7 227.2,81.5 228.7,81.4 230.2,81.2 231.7,81.0 233.3,80.5 234.8,80.2 236.3,79.8 237.8,79.6 239.3,79.6 240.8,79.4 242.4,79.2 243.9,78.9 245.4,78.7 246.9,78.4 248.4,78.2 249.9,78.1 251.5,77.9 253.0,77.8 254.5,77.6 256.0,77.4 257.5,77.3 259.0,77.0 260.6,76.8 262.1,76.7 263.6,76.6 265.1,76.5 266.6,76.3 268.1,76.0 269.7,75.8 271.2,75.6 272.7,75.4 274.2,75.2 275.7,75.1 277.2,75.0 278.8,74.7 280.3,74.4 281.8,74.2 283.3,74.0 284.8,73.6 286.3,73.5 287.9,73.4 289.4,73.3 290.9,73.1 292.4,72.9 293.9,72.7 295.4,72.6 297.0,72.4 298.5,72.2 300.0,72.1 301.5,72.0 303.0,71.9 304.6,71.7 306.1,71.4 307.6,71.3 309.1,71.1 310.6,71.0 312.1,70.8 313.7,70.7 315.2,70.6 316.7,70.4 318.2,70.3 319.7,70.0 321.2,69.6 322.8,69.4 324.3,69.3 325.8,69.2 327.3,69.1 328.8,68.9 330.3,68.7 331.9,68.5 333.4,68.4 334.9,68.2 336.4,68.1 337.9,67.9 339.4,67.8 341.0,67.6 342.5,67.4 344.0,67.2 345.5,67.0 347.0,66.8 348.5,66.7 350.1,66.6 351.6,66.6 353.1,66.4 354.6,66.2 356.1,66.1 357.6,65.9 359.2,65.7 360.7,65.6 362.2,65.5 363.7,65.3 365.2,65.2 366.7,65.0 368.3,64.8 369.8,64.6 371.3,64.4 372.8,64.3 374.3,64.2 375.8,64.1 377.4,64.0 378.9,63.9 380.4,63.8 381.9,63.5 383.4,63.4 384.9,63.2 386.5,63.1 388.0,63.0 389.5,62.8 391.0,62.6 392.5,62.5 394.0,62.4 395.6,62.2 397.1,62.1 398.6,61.9 400.1,61.7 401.6,61.7 403.1,61.6 404.7,61.5 406.2,61.3 407.7,61.2 409.2,61.1 410.7,61.0 412.2,60.9 413.8,60.6 415.3,60.3 416.8,64.8 418.3,63.9 419.8,62.3 421.3,61.6 422.9,60.8 424.4,59.9 425.9,59.3 427.4,59.0 428.9,58.3 430.4,57.4 432.0,56.6 433.5,56.4 435.0,56.0 436.5,55.7 438.0,55.2 439.6,54.8 441.1,54.2 442.6,54.0 444.1,53.5 445.6,53.2 447.1,52.9 448.7,52.7 450.2,52.4 451.7,52.2 453.2,51.7 454.7,51.3 456.2,50.9 457.8,50.3 459.3,49.9 460.8,49.7 462.3,49.5 463.8,49.3 465.3,48.9 466.9,48.5 468.4,48.2 469.9,47.3 471.4,46.6 472.9,46.3 474.4,46.1 476.0,45.8 477.5,45.3 479.0,44.9 480.5,44.6 482.0,44.3 483.5,44.0 485.1,43.7 486.6,43.4 488.1,43.0 489.6,42.7 491.1,42.5 492.6,42.3 494.2,41.9 495.7,41.7 497.2,41.4 498.7,41.3 500.2,41.1 501.7,40.8 503.3,40.7 504.8,40.5 506.3,40.3 507.8,40.1 509.3,39.9 510.8,39.6 512.4,39.4 513.9,39.1 515.4,38.7 516.9,38.4 518.4,38.3 519.9,38.1 521.5,37.9 523.0,37.7 524.5,37.5 526.0,37.4 527.5,37.2 529.0,37.1 530.6,36.9 532.1,36.8 533.6,36.4 535.1,36.3 536.6,36.1 538.1,35.9 539.7,35.6 541.2,35.2 542.7,35.0 544.2,34.4 545.7,34.2 547.2,34.0 548.8,33.7 550.3,33.6 551.8,33.5 553.3,33.3 554.8,33.0 556.3,32.7 557.9,32.3 559.4,31.8 560.9,31.6 562.4,31.4 563.9,31.0 565.4,30.7 567.0,30.5 568.5,30.1 570.0,30.0" />
  
  <!-- Punto finale luminoso -->
  <circle cx="570.0" cy="30.0" r="4" fill="#ffffff" stroke="#0366d6" stroke-width="2.5" />
</svg>