<svg width="600" height="150" viewBox="0 0 600 150" xmlns="http://www.w3.org/2000/svg">
  <defs>
    <filter id="shadow2" x="-2%" y="-2%" width="104%" height="108%">
      <feDropShadow dx="0" dy="2" stdDeviation="3" flood-opacity="0.1" />
    </filter>
    <linearGradient id="fillGrad" x1="0" y1="0" x2="0" y2="1">
      <stop offset="0%" stop-color="#0366d6" stop-opacity="0.3"/>
      <stop offset="100%" stop-color="#0366d6" stop-opacity="0.02"/>
    </linearGradient>
  </defs>
  <rect width="600" height="150" rx="12" fill="#ffffff" filter="url(#shadow2)" stroke="#e1e4e8" stroke-width="1"/>
  <text x="20" y="24" fill="#2b3137" font-family="-apple-system,BlinkMacSystemFont,'Segoe UI',Helvetica,Arial,sans-serif" font-size="14" font-weight="600">📈 Download Growth (Actual: 77.9k)</text>
  
  <!-- Area sotto la linea -->
  <polygon fill="url(#fillGrad)" points="30.0,120.0,120 30.0,120.0 32.8,119.1 35.5,118.1 38.3,117.2 41.1,117.0 43.8,116.5 46.6,115.5 49.4,114.8 52.2,114.3 54.9,113.2 57.7,112.7 60.5,112.1 63.2,111.8 66.0,111.3 68.8,110.6 71.5,109.8 74.3,109.2 77.1,108.8 79.8,108.5 82.6,108.0 85.4,107.4 88.2,106.9 90.9,106.7 93.7,106.2 96.5,104.5 99.2,104.0 102.0,103.3 104.8,102.6 107.5,102.0 110.3,101.5 113.1,101.1 115.8,100.8 118.6,100.3 121.4,99.5 124.2,98.8 126.9,98.3 129.7,97.7 132.5,97.5 135.2,97.4 138.0,97.1 140.8,96.5 143.5,96.2 146.3,96.0 149.1,95.4 151.8,94.4 154.6,94.2 157.4,94.0 160.2,93.7 162.9,92.9 165.7,92.4 168.5,91.7 171.2,91.1 174.0,90.5 176.8,90.3 179.5,89.9 182.3,89.2 185.1,88.5 187.8,88.0 190.6,87.8 193.4,87.4 196.2,87.1 198.9,86.4 201.7,85.6 204.5,85.0 207.2,84.4 210.0,84.0 212.8,83.8 215.5,83.6 218.3,83.0 221.1,82.7 223.8,82.4 226.6,82.1 229.4,81.9 232.2,81.5 234.9,81.3 237.7,81.1 240.5,80.9 243.2,80.2 246.0,79.8 248.8,79.7 251.5,79.5 254.3,79.3 257.1,79.3 259.8,91.0 262.6,89.8 265.4,88.8 268.2,87.7 270.9,84.5 273.7,82.3 276.5,80.0 279.2,79.1 282.0,78.1 284.8,76.4 287.5,74.7 290.3,73.4 293.1,72.9 295.8,72.4 298.6,71.1 301.4,70.2 304.2,69.6 306.9,68.9 309.7,68.6 312.5,68.4 315.2,67.8 318.0,66.7 320.8,65.9 323.5,65.1 326.3,64.2 329.1,63.8 331.8,63.5 334.6,62.8 337.4,62.1 340.2,61.4 342.9,60.9 345.7,60.7 348.5,60.5 351.2,60.1 354.0,59.6 356.8,59.1 359.5,58.7 362.3,58.4 365.1,58.0 367.8,57.7 370.6,57.4 373.4,57.2 376.2,56.9 378.9,56.3 381.7,55.8 384.5,55.3 387.2,54.9 390.0,54.6 392.8,54.3 395.5,54.1 398.3,53.6 401.1,52.8 403.8,52.0 406.6,51.5 409.4,50.9 412.2,50.4 414.9,50.1 417.7,49.7 420.5,49.0 423.2,48.6 426.0,48.2 428.8,47.9 431.5,47.7 434.3,47.1 437.1,46.7 439.8,46.6 442.6,46.3 445.4,46.1 448.2,45.5 450.9,45.1 453.7,44.6 456.5,44.2 459.2,43.8 462.0,43.4 464.8,42.7 467.5,42.4 470.3,41.8 473.1,41.2 475.8,41.0 478.6,40.9 481.4,40.6 484.2,40.2 486.9,39.9 489.7,39.4 492.5,39.2 495.2,38.9 498.0,38.6 500.8,38.4 503.5,38.3 506.3,37.8 509.1,37.4 511.8,37.1 514.6,36.9 517.4,36.5 520.2,36.2 522.9,36.1 525.7,35.8 528.5,35.4 531.2,34.9 534.0,34.3 536.8,34.0 539.5,33.8 542.3,33.7 545.1,33.1 547.8,32.7 550.6,32.6 553.4,32.1 556.2,31.7 558.9,31.3 561.7,31.0 564.5,30.6 567.2,30.4 570.0,30.0 570.0,30.0,120" />
  
  <!-- Linea principale -->
  <polyline fill="none" stroke="#0366d6" stroke-width="2.5" stroke-linecap="round" stroke-linejoin="round" points="30.0,120.0 32.8,119.1 35.5,118.1 38.3,117.2 41.1,117.0 43.8,116.5 46.6,115.5 49.4,114.8 52.2,114.3 54.9,113.2 57.7,112.7 60.5,112.1 63.2,111.8 66.0,111.3 68.8,110.6 71.5,109.8 74.3,109.2 77.1,108.8 79.8,108.5 82.6,108.0 85.4,107.4 88.2,106.9 90.9,106.7 93.7,106.2 96.5,104.5 99.2,104.0 102.0,103.3 104.8,102.6 107.5,102.0 110.3,101.5 113.1,101.1 115.8,100.8 118.6,100.3 121.4,99.5 124.2,98.8 126.9,98.3 129.7,97.7 132.5,97.5 135.2,97.4 138.0,97.1 140.8,96.5 143.5,96.2 146.3,96.0 149.1,95.4 151.8,94.4 154.6,94.2 157.4,94.0 160.2,93.7 162.9,92.9 165.7,92.4 168.5,91.7 171.2,91.1 174.0,90.5 176.8,90.3 179.5,89.9 182.3,89.2 185.1,88.5 187.8,88.0 190.6,87.8 193.4,87.4 196.2,87.1 198.9,86.4 201.7,85.6 204.5,85.0 207.2,84.4 210.0,84.0 212.8,83.8 215.5,83.6 218.3,83.0 221.1,82.7 223.8,82.4 226.6,82.1 229.4,81.9 232.2,81.5 234.9,81.3 237.7,81.1 240.5,80.9 243.2,80.2 246.0,79.8 248.8,79.7 251.5,79.5 254.3,79.3 257.1,79.3 259.8,91.0 262.6,89.8 265.4,88.8 268.2,87.7 270.9,84.5 273.7,82.3 276.5,80.0 279.2,79.1 282.0,78.1 284.8,76.4 287.5,74.7 290.3,73.4 293.1,72.9 295.8,72.4 298.6,71.1 301.4,70.2 304.2,69.6 306.9,68.9 309.7,68.6 312.5,68.4 315.2,67.8 318.0,66.7 320.8,65.9 323.5,65.1 326.3,64.2 329.1,63.8 331.8,63.5 334.6,62.8 337.4,62.1 340.2,61.4 342.9,60.9 345.7,60.7 348.5,60.5 351.2,60.1 354.0,59.6 356.8,59.1 359.5,58.7 362.3,58.4 365.1,58.0 367.8,57.7 370.6,57.4 373.4,57.2 376.2,56.9 378.9,56.3 381.7,55.8 384.5,55.3 387.2,54.9 390.0,54.6 392.8,54.3 395.5,54.1 398.3,53.6 401.1,52.8 403.8,52.0 406.6,51.5 409.4,50.9 412.2,50.4 414.9,50.1 417.7,49.7 420.5,49.0 423.2,48.6 426.0,48.2 428.8,47.9 431.5,47.7 434.3,47.1 437.1,46.7 439.8,46.6 442.6,46.3 445.4,46.1 448.2,45.5 450.9,45.1 453.7,44.6 456.5,44.2 459.2,43.8 462.0,43.4 464.8,42.7 467.5,42.4 470.3,41.8 473.1,41.2 475.8,41.0 478.6,40.9 481.4,40.6 484.2,40.2 486.9,39.9 489.7,39.4 492.5,39.2 495.2,38.9 498.0,38.6 500.8,38.4 503.5,38.3 506.3,37.8 509.1,37.4 511.8,37.1 514.6,36.9 517.4,36.5 520.2,36.2 522.9,36.1 525.7,35.8 528.5,35.4 531.2,34.9 534.0,34.3 536.8,34.0 539.5,33.8 542.3,33.7 545.1,33.1 547.8,32.7 550.6,32.6 553.4,32.1 556.2,31.7 558.9,31.3 561.7,31.0 564.5,30.6 567.2,30.4 570.0,30.0" />
  
  <!-- Punto finale luminoso -->
  <circle cx="570.0" cy="30.0" r="4" fill="#ffffff" stroke="#0366d6" stroke-width="2.5" />
</svg>