<svg width="600" height="150" viewBox="0 0 600 150" xmlns="http://www.w3.org/2000/svg">
  <defs>
    <filter id="shadow2" x="-2%" y="-2%" width="104%" height="108%">
      <feDropShadow dx="0" dy="2" stdDeviation="3" flood-opacity="0.1" />
    </filter>
    <linearGradient id="fillGrad" x1="0" y1="0" x2="0" y2="1">
      <stop offset="0%" stop-color="#0366d6" stop-opacity="0.3"/>
      <stop offset="100%" stop-color="#0366d6" stop-opacity="0.02"/>
    </linearGradient>
  </defs>
  <rect width="600" height="150" rx="12" fill="#ffffff" filter="url(#shadow2)" stroke="#e1e4e8" stroke-width="1"/>
  <text x="20" y="24" fill="#2b3137" font-family="-apple-system,BlinkMacSystemFont,'Segoe UI',Helvetica,Arial,sans-serif" font-size="14" font-weight="600">📈 Download Growth (Actual: 76.4k)</text>
  
  <!-- Area sotto la linea -->
  <polygon fill="url(#fillGrad)" points="30.0,120.0,120 30.0,120.0 33.4,118.9 36.8,117.8 40.3,116.8 43.7,116.5 47.1,116.0 50.5,114.8 53.9,113.9 57.3,113.4 60.8,112.1 64.2,111.5 67.6,110.9 71.0,110.5 74.4,109.9 77.8,109.1 81.3,108.2 84.7,107.5 88.1,107.0 91.5,106.7 94.9,106.1 98.4,105.4 101.8,104.8 105.2,104.6 108.6,104.0 112.0,102.0 115.4,101.4 118.9,100.6 122.3,99.8 125.7,99.1 129.1,98.5 132.5,98.1 135.9,97.7 139.4,97.2 142.8,96.2 146.2,95.4 149.6,94.8 153.0,94.1 156.5,93.9 159.9,93.8 163.3,93.4 166.7,92.8 170.1,92.4 173.5,92.1 177.0,91.4 180.4,90.3 183.8,90.1 187.2,89.9 190.6,89.4 194.1,88.6 197.5,88.0 200.9,87.2 204.3,86.5 207.7,85.7 211.1,85.6 214.6,85.1 218.0,84.3 221.4,83.5 224.8,82.9 228.2,82.6 231.6,82.2 235.1,81.9 238.5,81.0 241.9,80.1 245.3,79.4 248.7,78.6 252.2,78.3 255.6,78.0 259.0,77.7 262.4,77.1 265.8,76.7 269.2,76.4 272.7,76.1 276.1,75.8 279.5,75.4 282.9,75.1 286.3,74.9 289.7,74.7 293.2,73.9 296.6,73.4 300.0,73.3 303.4,73.0 306.8,72.8 310.3,72.8 313.7,86.3 317.1,85.0 320.5,83.8 323.9,82.5 327.3,78.9 330.8,76.3 334.2,73.5 337.6,72.5 341.0,71.3 344.4,69.5 347.8,67.4 351.3,65.9 354.7,65.3 358.1,64.8 361.5,63.3 364.9,62.2 368.4,61.5 371.8,60.7 375.2,60.3 378.6,60.2 382.0,59.4 385.4,58.1 388.9,57.2 392.3,56.3 395.7,55.3 399.1,54.8 402.5,54.5 405.9,53.6 409.4,52.8 412.8,52.1 416.2,51.5 419.6,51.2 423.0,51.0 426.5,50.5 429.9,49.9 433.3,49.4 436.7,48.9 440.1,48.5 443.5,48.1 447.0,47.7 450.4,47.4 453.8,47.1 457.2,46.7 460.6,46.0 464.1,45.5 467.5,44.9 470.9,44.5 474.3,44.1 477.7,43.8 481.1,43.6 484.6,42.9 488.0,42.0 491.4,41.1 494.8,40.5 498.2,39.8 501.6,39.2 505.1,38.9 508.5,38.4 511.9,37.6 515.3,37.1 518.7,36.7 522.2,36.3 525.6,36.1 529.0,35.4 532.4,34.9 535.8,34.8 539.2,34.5 542.7,34.2 546.1,33.6 549.5,33.1 552.9,32.6 556.3,32.1 559.7,31.6 563.2,31.1 566.6,30.3 570.0,30.0 570.0,30.0,120" />
  
  <!-- Linea principale -->
  <polyline fill="none" stroke="#0366d6" stroke-width="2.5" stroke-linecap="round" stroke-linejoin="round" points="30.0,120.0 33.4,118.9 36.8,117.8 40.3,116.8 43.7,116.5 47.1,116.0 50.5,114.8 53.9,113.9 57.3,113.4 60.8,112.1 64.2,111.5 67.6,110.9 71.0,110.5 74.4,109.9 77.8,109.1 81.3,108.2 84.7,107.5 88.1,107.0 91.5,106.7 94.9,106.1 98.4,105.4 101.8,104.8 105.2,104.6 108.6,104.0 112.0,102.0 115.4,101.4 118.9,100.6 122.3,99.8 125.7,99.1 129.1,98.5 132.5,98.1 135.9,97.7 139.4,97.2 142.8,96.2 146.2,95.4 149.6,94.8 153.0,94.1 156.5,93.9 159.9,93.8 163.3,93.4 166.7,92.8 170.1,92.4 173.5,92.1 177.0,91.4 180.4,90.3 183.8,90.1 187.2,89.9 190.6,89.4 194.1,88.6 197.5,88.0 200.9,87.2 204.3,86.5 207.7,85.7 211.1,85.6 214.6,85.1 218.0,84.3 221.4,83.5 224.8,82.9 228.2,82.6 231.6,82.2 235.1,81.9 238.5,81.0 241.9,80.1 245.3,79.4 248.7,78.6 252.2,78.3 255.6,78.0 259.0,77.7 262.4,77.1 265.8,76.7 269.2,76.4 272.7,76.1 276.1,75.8 279.5,75.4 282.9,75.1 286.3,74.9 289.7,74.7 293.2,73.9 296.6,73.4 300.0,73.3 303.4,73.0 306.8,72.8 310.3,72.8 313.7,86.3 317.1,85.0 320.5,83.8 323.9,82.5 327.3,78.9 330.8,76.3 334.2,73.5 337.6,72.5 341.0,71.3 344.4,69.5 347.8,67.4 351.3,65.9 354.7,65.3 358.1,64.8 361.5,63.3 364.9,62.2 368.4,61.5 371.8,60.7 375.2,60.3 378.6,60.2 382.0,59.4 385.4,58.1 388.9,57.2 392.3,56.3 395.7,55.3 399.1,54.8 402.5,54.5 405.9,53.6 409.4,52.8 412.8,52.1 416.2,51.5 419.6,51.2 423.0,51.0 426.5,50.5 429.9,49.9 433.3,49.4 436.7,48.9 440.1,48.5 443.5,48.1 447.0,47.7 450.4,47.4 453.8,47.1 457.2,46.7 460.6,46.0 464.1,45.5 467.5,44.9 470.9,44.5 474.3,44.1 477.7,43.8 481.1,43.6 484.6,42.9 488.0,42.0 491.4,41.1 494.8,40.5 498.2,39.8 501.6,39.2 505.1,38.9 508.5,38.4 511.9,37.6 515.3,37.1 518.7,36.7 522.2,36.3 525.6,36.1 529.0,35.4 532.4,34.9 535.8,34.8 539.2,34.5 542.7,34.2 546.1,33.6 549.5,33.1 552.9,32.6 556.3,32.1 559.7,31.6 563.2,31.1 566.6,30.3 570.0,30.0" />
  
  <!-- Punto finale luminoso -->
  <circle cx="570.0" cy="30.0" r="4" fill="#ffffff" stroke="#0366d6" stroke-width="2.5" />
</svg>