<svg width="600" height="150" viewBox="0 0 600 150" xmlns="http://www.w3.org/2000/svg">
  <defs>
    <filter id="shadow2" x="-2%" y="-2%" width="104%" height="108%">
      <feDropShadow dx="0" dy="2" stdDeviation="3" flood-opacity="0.1" />
    </filter>
    <linearGradient id="fillGrad" x1="0" y1="0" x2="0" y2="1">
      <stop offset="0%" stop-color="#0366d6" stop-opacity="0.3"/>
      <stop offset="100%" stop-color="#0366d6" stop-opacity="0.02"/>
    </linearGradient>
  </defs>
  <rect width="600" height="150" rx="12" fill="#ffffff" filter="url(#shadow2)" stroke="#e1e4e8" stroke-width="1"/>
  <text x="20" y="24" fill="#2b3137" font-family="-apple-system,BlinkMacSystemFont,'Segoe UI',Helvetica,Arial,sans-serif" font-size="14" font-weight="600">📈 Download Growth (Actual: 77.0k)</text>
  
  <!-- Area sotto la linea -->
  <polygon fill="url(#fillGrad)" points="30.0,120.0,120 30.0,120.0 33.1,119.0 36.3,117.9 39.4,117.0 42.6,116.7 45.7,116.2 48.8,115.1 52.0,114.3 55.1,113.8 58.3,112.6 61.4,112.0 64.5,111.4 67.7,111.0 70.8,110.5 74.0,109.7 77.1,108.8 80.2,108.2 83.4,107.7 86.5,107.4 89.7,106.9 92.8,106.3 95.9,105.7 99.1,105.4 102.2,104.9 105.3,103.0 108.5,102.5 111.6,101.7 114.8,101.0 117.9,100.3 121.0,99.7 124.2,99.3 127.3,99.0 130.5,98.5 133.6,97.5 136.7,96.8 139.9,96.2 143.0,95.6 146.2,95.4 149.3,95.3 152.4,94.9 155.6,94.3 158.7,94.0 161.9,93.7 165.0,93.0 168.1,92.0 171.3,91.8 174.4,91.6 177.6,91.2 180.7,90.4 183.8,89.8 187.0,89.0 190.1,88.4 193.3,87.7 196.4,87.5 199.5,87.1 202.7,86.3 205.8,85.6 209.0,85.0 212.1,84.7 215.2,84.4 218.4,84.0 221.5,83.2 224.7,82.4 227.8,81.7 230.9,81.0 234.1,80.6 237.2,80.4 240.3,80.1 243.5,79.6 246.6,79.2 249.8,78.8 252.9,78.6 256.0,78.3 259.2,77.9 262.3,77.6 265.5,77.4 268.6,77.3 271.7,76.5 274.9,76.1 278.0,75.9 281.2,75.7 284.3,75.5 287.4,75.5 290.6,88.2 293.7,87.0 296.9,85.8 300.0,84.7 303.1,81.2 306.3,78.8 309.4,76.2 312.6,75.2 315.7,74.1 318.8,72.3 322.0,70.4 325.1,69.0 328.3,68.4 331.4,67.9 334.5,66.5 337.7,65.5 340.8,64.9 344.0,64.0 347.1,63.7 350.2,63.6 353.4,62.8 356.5,61.6 359.7,60.8 362.8,59.9 365.9,59.0 369.1,58.5 372.2,58.2 375.3,57.4 378.5,56.6 381.6,55.9 384.8,55.4 387.9,55.1 391.0,54.9 394.2,54.5 397.3,53.9 400.5,53.4 403.6,52.9 406.7,52.6 409.9,52.2 413.0,51.8 416.2,51.5 419.3,51.2 422.4,50.9 425.6,50.2 428.7,49.7 431.9,49.2 435.0,48.8 438.1,48.4 441.3,48.1 444.4,47.9 447.6,47.3 450.7,46.4 453.8,45.6 457.0,45.0 460.1,44.4 463.3,43.8 466.4,43.5 469.5,43.1 472.7,42.3 475.8,41.8 479.0,41.5 482.1,41.1 485.2,40.8 488.4,40.3 491.5,39.8 494.7,39.6 497.8,39.4 500.9,39.1 504.1,38.5 507.2,38.1 510.3,37.5 513.5,37.1 516.6,36.6 519.8,36.2 522.9,35.4 526.0,35.1 529.2,34.4 532.3,33.7 535.5,33.6 538.6,33.4 541.7,33.1 544.9,32.7 548.0,32.3 551.2,31.8 554.3,31.5 557.4,31.3 560.6,31.0 563.7,30.7 566.9,30.6 570.0,30.0 570.0,30.0,120" />
  
  <!-- Linea principale -->
  <polyline fill="none" stroke="#0366d6" stroke-width="2.5" stroke-linecap="round" stroke-linejoin="round" points="30.0,120.0 33.1,119.0 36.3,117.9 39.4,117.0 42.6,116.7 45.7,116.2 48.8,115.1 52.0,114.3 55.1,113.8 58.3,112.6 61.4,112.0 64.5,111.4 67.7,111.0 70.8,110.5 74.0,109.7 77.1,108.8 80.2,108.2 83.4,107.7 86.5,107.4 89.7,106.9 92.8,106.3 95.9,105.7 99.1,105.4 102.2,104.9 105.3,103.0 108.5,102.5 111.6,101.7 114.8,101.0 117.9,100.3 121.0,99.7 124.2,99.3 127.3,99.0 130.5,98.5 133.6,97.5 136.7,96.8 139.9,96.2 143.0,95.6 146.2,95.4 149.3,95.3 152.4,94.9 155.6,94.3 158.7,94.0 161.9,93.7 165.0,93.0 168.1,92.0 171.3,91.8 174.4,91.6 177.6,91.2 180.7,90.4 183.8,89.8 187.0,89.0 190.1,88.4 193.3,87.7 196.4,87.5 199.5,87.1 202.7,86.3 205.8,85.6 209.0,85.0 212.1,84.7 215.2,84.4 218.4,84.0 221.5,83.2 224.7,82.4 227.8,81.7 230.9,81.0 234.1,80.6 237.2,80.4 240.3,80.1 243.5,79.6 246.6,79.2 249.8,78.8 252.9,78.6 256.0,78.3 259.2,77.9 262.3,77.6 265.5,77.4 268.6,77.3 271.7,76.5 274.9,76.1 278.0,75.9 281.2,75.7 284.3,75.5 287.4,75.5 290.6,88.2 293.7,87.0 296.9,85.8 300.0,84.7 303.1,81.2 306.3,78.8 309.4,76.2 312.6,75.2 315.7,74.1 318.8,72.3 322.0,70.4 325.1,69.0 328.3,68.4 331.4,67.9 334.5,66.5 337.7,65.5 340.8,64.9 344.0,64.0 347.1,63.7 350.2,63.6 353.4,62.8 356.5,61.6 359.7,60.8 362.8,59.9 365.9,59.0 369.1,58.5 372.2,58.2 375.3,57.4 378.5,56.6 381.6,55.9 384.8,55.4 387.9,55.1 391.0,54.9 394.2,54.5 397.3,53.9 400.5,53.4 403.6,52.9 406.7,52.6 409.9,52.2 413.0,51.8 416.2,51.5 419.3,51.2 422.4,50.9 425.6,50.2 428.7,49.7 431.9,49.2 435.0,48.8 438.1,48.4 441.3,48.1 444.4,47.9 447.6,47.3 450.7,46.4 453.8,45.6 457.0,45.0 460.1,44.4 463.3,43.8 466.4,43.5 469.5,43.1 472.7,42.3 475.8,41.8 479.0,41.5 482.1,41.1 485.2,40.8 488.4,40.3 491.5,39.8 494.7,39.6 497.8,39.4 500.9,39.1 504.1,38.5 507.2,38.1 510.3,37.5 513.5,37.1 516.6,36.6 519.8,36.2 522.9,35.4 526.0,35.1 529.2,34.4 532.3,33.7 535.5,33.6 538.6,33.4 541.7,33.1 544.9,32.7 548.0,32.3 551.2,31.8 554.3,31.5 557.4,31.3 560.6,31.0 563.7,30.7 566.9,30.6 570.0,30.0" />
  
  <!-- Punto finale luminoso -->
  <circle cx="570.0" cy="30.0" r="4" fill="#ffffff" stroke="#0366d6" stroke-width="2.5" />
</svg>